<svg width="106" height="10" viewBox="0 0 106 10" fill="none" xmlns="http://www.w3.org/2000/svg">
<path d="M2.08485 5.46873C3.4491 5.60931 4.60821 7.01719 5.99825 7.32594C7.76159 7.7176 9.61641 7.56821 11.174 6.66004C12.1984 6.06267 13.2676 5.54617 14.2038 4.81315C14.9896 4.19789 15.839 3.67519 16.8466 3.54074C19.1136 3.2382 22.0031 3.22433 24.0968 4.22182C28.1714 6.16302 33.9542 8.61923 38.4217 6.61301C40.768 5.55938 42.893 3.99366 45.4693 3.51629C47.9569 3.05536 51.1216 3.04197 53.5683 3.70821C56.7613 4.57767 59.6569 6.34538 62.9408 6.96637C65.2697 7.40677 66.5344 6.67289 68.5001 5.50012C69.9206 4.65264 71.8793 2.8904 73.6523 2.94184C75.9176 3.00757 77.1567 3.82686 79.0865 4.87087C80.9008 5.85244 82.9375 5.85717 84.9418 5.95181C87.9053 6.09175 89.6101 5.34323 91.8407 3.31382C93.1228 2.14736 95.759 1.92113 97.5001 2.50011C100.115 3.36955 101.781 4.52898 104.5 5.00012" stroke="#9AD3DA" stroke-width="3" stroke-linecap="round"/>
</svg>
