<svg width="91" height="58" viewBox="0 0 91 58" fill="none" xmlns="http://www.w3.org/2000/svg">
<path d="M15.0133 44.8978C15.0133 41.173 15.0133 37.4483 15.0133 33.7235C15.0133 26.2398 16.1113 19.714 18.2128 12.5688C19.1287 9.45478 20.2422 6.38538 21.0302 3.23302C21.77 0.274024 24.2037 4.91876 24.9938 5.97884C32.421 15.9445 38.8806 26.6127 46.7693 36.2544C47.4508 37.0874 48.1174 37.97 48.7272 38.857C48.9568 39.191 49.9682 39.7404 49.5628 39.7404C48.079 39.7404 46.1469 38.1399 44.9069 37.5199C38.9836 34.5582 32.7377 32.3606 26.6174 29.8555C19.623 26.9927 12.3836 25.0313 5.22389 22.6447C4.1096 22.2733 3.13706 21.9205 2.11993 21.3554C1.08283 20.7792 3.38334 20.4627 3.74354 20.3287C12.8122 16.9543 21.9392 13.7919 30.8197 9.91849C35.4436 7.90165 40.5974 5.82658 45.5277 4.59399C48.5362 3.84185 44.6592 7.51587 44.1428 8.03223C39.3688 12.8063 34.1874 17.2063 30.0317 22.5492C26.2952 27.3533 21.7901 31.6364 17.8308 36.2783C16.1958 38.1951 14.3485 40.2507 13.724 42.7489" stroke="#F4D577" stroke-width="3" stroke-linecap="round"/>
<path d="M70.8845 43.6084C70.8845 37.4011 70.8301 31.1916 70.8845 24.9846C70.9011 23.0929 71.0439 21.0205 71.6486 19.2065C72.0284 18.0671 72.7602 19.826 73.105 20.257C77.6068 25.8843 81.3541 32.4002 86.3566 37.5915C87.5178 38.7965 88.2737 40.2318 89.365 41.4595C89.76 41.9038 80.3694 39.9702 79.3846 39.7165C73.3658 38.1662 66.8712 37.0289 61.119 34.6069C60.5188 34.3542 58.2066 33.8424 59.3521 33.0549C62.6246 30.8051 66.2359 29.0344 69.5713 26.8709C73.238 24.4925 77.3338 21.7336 81.5335 20.4003C81.8532 20.2988 84.219 19.1288 84.542 19.6363C84.7657 19.9878 83.874 21.4004 83.7779 21.6419C82.3497 25.2317 80.987 28.7586 79.2413 32.2193C74.9859 40.6554 69.6509 48.1184 64.008 55.6423" stroke="#F4D577" stroke-width="3" stroke-linecap="round"/>
</svg>
