<svg width="56" height="63" viewBox="0 0 56 63" fill="none" xmlns="http://www.w3.org/2000/svg">
<g clip-path="url(#clip0_103_943)">
<path d="M31.6338 4.03339L29.0165 21.3365C28.9424 21.8131 28.4931 22.1466 28.0133 22.073C27.6207 22.0123 27.3284 21.7048 27.2717 21.3365L24.6545 4.03339C24.3666 2.11852 25.6927 0.333624 27.6207 0.0476936C29.9239 -0.333547 32.0133 1.75461 31.6338 4.03339Z" fill="#F4D577"/>
<path d="M5.86708 14.6431L19.6468 25.5474C20.0263 25.8507 20.0917 26.4009 19.7864 26.7778C19.5377 27.0854 19.1234 27.185 18.7744 27.0464L2.37744 20.6476C0.562828 19.9414 -0.32703 17.9053 0.383984 16.103C1.19969 13.9282 4.06992 13.1788 5.86708 14.6431Z" fill="#F4D577"/>
<path d="M2.23323 42.1096L18.6302 35.7108C19.0838 35.5332 19.5942 35.7541 19.773 36.2047C19.917 36.5729 19.7948 36.9758 19.5026 37.2098L5.72287 48.1141C4.20052 49.3185 1.98024 49.0715 0.763224 47.5552C-0.724235 45.766 0.0565718 42.924 2.23323 42.1096Z" fill="#F4D577"/>
<path d="M24.371 58.9668L26.9882 41.6637C27.0624 41.1871 27.5117 40.8535 27.9915 40.9272C28.3841 40.9878 28.6763 41.2954 28.7331 41.6637L31.3503 58.9668C31.6382 60.8817 30.3121 62.6666 28.3841 62.9525C26.0809 63.3337 23.9915 61.2456 24.371 58.9668Z" fill="#F4D577"/>
<path d="M50.1374 48.3567L36.3577 37.4523C35.9782 37.1491 35.9128 36.5989 36.2181 36.222C36.4668 35.9144 36.8812 35.8147 37.2301 35.9534L53.6271 42.3521C55.4417 43.0583 56.3316 45.0945 55.6205 46.8967C54.8048 49.0715 51.9346 49.821 50.1374 48.3567Z" fill="#F4D577"/>
<path d="M53.7668 20.8902L37.3698 27.289C36.9162 27.4666 36.4058 27.2457 36.227 26.7951C36.083 26.4269 36.2052 26.024 36.4974 25.79L50.2771 14.8857C51.7995 13.6813 54.0198 13.9282 55.2368 15.4445C56.7242 17.2338 55.9434 20.0757 53.7668 20.8902Z" fill="#F4D577"/>
</g>
<defs>
<clipPath id="clip0_103_943">
<rect width="56" height="63" fill="white"/>
</clipPath>
</defs>
</svg>
