<svg width="79" height="49" viewBox="0 0 79 49" fill="none" xmlns="http://www.w3.org/2000/svg">
<path d="M77.4561 34.8078C77.1962 32.2092 74.3701 29.0714 72.8482 27.1076C70.9962 24.718 68.7831 23.2412 65.8443 22.4793C60.4136 21.0713 55.2318 22.001 50.6282 25.2235C46.3311 28.2315 42.4847 35.2385 42.8256 40.5216C43.0456 43.9329 45.0286 46.6039 48.3345 46.6039C56.9244 46.6039 56.5506 33.1915 55.2565 27.5172C53.8304 21.2644 48.8683 18.1108 43.358 15.4754C39.9342 13.8379 35.1623 13.2893 31.4595 14.0828C28.3793 14.7429 24.6592 18.6748 22.8992 21.1891C21.2348 23.5668 21.0561 26.2098 21.0561 28.9917C21.0561 31.5048 21.9845 33.6474 24.558 34.4392C25.7235 34.7978 30.0922 36.1437 30.9271 34.8078C32.341 32.5456 33.5894 31.5142 33.5894 28.5207C33.5894 24.057 33.2415 20.7438 30.9271 16.827C27.958 11.8024 23.5207 9.67082 17.9637 8.45099C13.8896 7.55667 8.47843 7.3132 4.83645 9.74118" stroke="#9AD3DA" stroke-width="3" stroke-linecap="round"/>
<path d="M7.41704 2C6.70641 2.71063 1.22772 8.67168 2.09242 9.53638C3.72384 11.1678 7.10571 12.0675 8.1543 14.1647" stroke="#9AD3DA" stroke-width="3" stroke-linecap="round"/>
</svg>
