<svg width="506" height="382" viewBox="0 0 506 382" fill="none" xmlns="http://www.w3.org/2000/svg">
<g clip-path="url(#clip0_101_942)">
<path d="M102.943 126.07C104.962 127.857 107.527 129.426 110.324 129.289C112.616 129.166 114.962 127.72 115.508 125.401C115.699 124.583 116.967 124.896 116.776 125.701C116.108 128.484 113.475 130.258 110.747 130.558C107.486 130.913 104.403 129.098 102.056 127.025C101.429 126.465 102.316 125.524 102.943 126.07Z" fill="#7CB8C0"/>
<path d="M108.114 119.003C108.618 118.962 109.137 118.88 109.587 118.648C110.01 118.43 110.255 118.171 110.133 117.707C110.023 117.339 109.805 116.984 109.628 116.643C109.423 116.261 109.232 115.865 109.028 115.483C108.605 114.665 108.182 113.846 107.759 113.041C107.595 112.727 107.65 112.345 107.963 112.141C108.236 111.964 108.7 112.032 108.864 112.346C109.355 113.3 109.86 114.255 110.351 115.224C110.596 115.688 110.842 116.152 111.074 116.616C111.306 117.079 111.51 117.53 111.47 118.048C111.374 119.685 109.505 120.19 108.154 120.313C107.322 120.381 107.281 119.085 108.114 119.017V119.003Z" fill="#7CB8C0"/>
<path d="M100.283 110.504C99.7099 110.436 99.3416 109.835 99.3416 109.303C99.3416 108.73 99.6963 108.144 100.283 108.035C100.624 107.966 100.965 108.007 101.279 108.171C101.524 108.307 101.756 108.512 101.893 108.758C102.07 109.085 102.125 109.426 102.07 109.794C102.029 110.108 101.865 110.395 101.674 110.654C101.265 111.172 100.419 111.582 99.7918 111.2C99.2188 110.845 99.0824 110.013 99.4508 109.44C99.8191 108.867 100.46 108.58 101.129 108.689C101.402 108.73 101.702 108.894 101.879 109.099C102.111 109.358 102.234 109.658 102.275 109.999C102.316 110.286 102.234 110.613 102.07 110.859C101.961 111.022 101.825 111.172 101.647 111.268C101.47 111.363 101.306 111.404 101.101 111.431C100.829 111.459 100.488 111.377 100.256 111.227C100.092 111.118 99.9692 111.009 99.86 110.845C99.7509 110.681 99.6963 110.49 99.669 110.286C99.6554 110.135 99.7373 109.931 99.8464 109.822C99.9555 109.699 100.133 109.617 100.297 109.617C100.46 109.617 100.638 109.672 100.76 109.794C100.883 109.917 100.938 110.067 100.965 110.245V110.272C100.965 110.272 100.951 110.163 100.938 110.095C100.938 110.149 100.965 110.19 100.979 110.231L100.91 110.081C100.91 110.081 100.951 110.163 100.992 110.204L100.883 110.081C100.883 110.081 100.951 110.149 100.992 110.176L100.856 110.081C100.856 110.081 100.965 110.149 101.02 110.176L100.856 110.122C100.856 110.122 100.992 110.163 101.061 110.176H100.883C100.883 110.176 101.006 110.163 101.074 110.149L100.897 110.176C100.897 110.176 101.006 110.149 101.061 110.122L100.91 110.19C100.91 110.19 100.979 110.149 101.02 110.122L100.897 110.231C100.897 110.231 100.979 110.163 101.006 110.122L100.91 110.258C100.91 110.258 100.965 110.163 100.992 110.122L100.938 110.286C100.938 110.286 100.979 110.149 100.992 110.081V110.258C100.992 110.176 100.979 110.108 100.965 110.026L100.992 110.204C100.979 110.122 100.951 110.054 100.924 109.985L100.992 110.135C100.992 110.135 100.924 110.013 100.883 109.958L100.992 110.081C100.992 110.081 100.924 109.999 100.87 109.972L101.006 110.067C101.006 110.067 100.897 109.999 100.829 109.972L100.992 110.026C100.924 109.999 100.842 109.985 100.774 109.972H100.951C100.87 109.972 100.801 109.985 100.719 109.999L100.897 109.972C100.801 109.985 100.719 110.013 100.624 110.054L100.774 109.985C100.692 110.026 100.624 110.067 100.556 110.122L100.679 110.013C100.679 110.013 100.569 110.122 100.515 110.176L100.61 110.04C100.61 110.04 100.528 110.163 100.501 110.231L100.556 110.067C100.556 110.067 100.515 110.19 100.515 110.258V110.081C100.515 110.149 100.515 110.217 100.542 110.299L100.515 110.122C100.515 110.122 100.542 110.204 100.556 110.258L100.488 110.108C100.488 110.108 100.528 110.19 100.556 110.217L100.447 110.095C100.447 110.095 100.488 110.135 100.515 110.149L100.378 110.054C100.378 110.054 100.447 110.095 100.488 110.108L100.324 110.054C100.324 110.054 100.406 110.067 100.447 110.081H100.269C100.269 110.081 100.378 110.067 100.419 110.054L100.242 110.081C100.31 110.067 100.378 110.04 100.46 110.013L100.31 110.081C100.419 110.026 100.515 109.972 100.61 109.904L100.488 110.013C100.583 109.944 100.651 109.863 100.719 109.767L100.624 109.904C100.692 109.808 100.747 109.713 100.788 109.603L100.733 109.767C100.76 109.685 100.788 109.59 100.801 109.494V109.672C100.801 109.59 100.801 109.508 100.774 109.426L100.801 109.603C100.801 109.603 100.774 109.481 100.747 109.412L100.815 109.562C100.815 109.562 100.747 109.426 100.692 109.371L100.801 109.494C100.801 109.494 100.692 109.372 100.624 109.331L100.76 109.426C100.76 109.426 100.624 109.344 100.542 109.317L100.706 109.371C100.706 109.371 100.583 109.331 100.515 109.331H100.692C100.692 109.331 100.569 109.331 100.501 109.358L100.679 109.331C100.679 109.331 100.569 109.358 100.515 109.385L100.665 109.317C100.665 109.317 100.583 109.358 100.542 109.399L100.665 109.29C100.665 109.29 100.61 109.344 100.583 109.371L100.679 109.235C100.679 109.235 100.624 109.317 100.61 109.371L100.665 109.208C100.665 109.208 100.624 109.331 100.624 109.399V109.221C100.624 109.29 100.624 109.372 100.651 109.44L100.624 109.262C100.624 109.262 100.651 109.385 100.679 109.44L100.61 109.29C100.61 109.29 100.665 109.371 100.692 109.412L100.583 109.29C100.583 109.29 100.638 109.344 100.679 109.371L100.542 109.276C100.542 109.276 100.61 109.317 100.638 109.331L100.474 109.276C100.474 109.276 100.542 109.303 100.583 109.303C100.733 109.317 100.91 109.467 100.979 109.59C101.061 109.726 101.101 109.931 101.061 110.095C101.02 110.258 100.924 110.408 100.774 110.49C100.61 110.586 100.46 110.599 100.269 110.572L100.283 110.504Z" fill="#7CB8C0"/>
<path d="M117.568 109.167L116.913 108.621C116.695 108.444 116.654 108.075 116.79 107.83C117.104 107.271 117.704 106.916 118.345 106.861C118.986 106.807 119.587 107.134 119.9 107.666C120.214 108.198 120.269 108.894 119.941 109.426C119.764 109.726 119.505 109.931 119.177 110.081C118.905 110.204 118.591 110.204 118.291 110.176C117.731 110.108 117.172 109.672 117.036 109.112C116.885 108.457 117.186 107.734 117.772 107.393C118.086 107.216 118.441 107.148 118.795 107.23C119.123 107.312 119.368 107.503 119.559 107.762C119.9 108.198 119.928 108.839 119.696 109.331C119.546 109.631 119.259 109.876 118.932 109.958C118.413 110.108 117.909 109.835 117.718 109.344C117.595 109.044 117.649 108.635 117.827 108.362C118.031 108.035 118.373 107.83 118.755 107.762C118.932 107.734 119.109 107.707 119.287 107.707C119.628 107.707 119.969 107.994 119.955 108.335C119.941 108.676 119.696 108.99 119.327 109.003C119.205 109.003 119.082 109.003 118.959 109.03L119.136 109.003C119.041 109.017 118.946 109.044 118.85 109.085L119 109.017C119 109.017 118.877 109.085 118.823 109.126L118.946 109.017C118.946 109.017 118.891 109.071 118.864 109.099L118.959 108.962C118.959 108.962 118.918 109.03 118.905 109.058L118.959 108.894C118.959 108.894 118.932 108.99 118.918 109.044V108.867C118.918 108.867 118.932 108.949 118.932 109.003L118.905 108.826C118.905 108.826 118.918 108.908 118.946 108.949L118.877 108.799C118.877 108.799 118.905 108.839 118.918 108.867L118.809 108.744C118.809 108.744 118.85 108.785 118.864 108.799L118.727 108.703C118.727 108.703 118.768 108.73 118.795 108.744L118.632 108.689C118.632 108.689 118.686 108.703 118.714 108.703H118.536C118.536 108.703 118.604 108.689 118.632 108.676L118.454 108.703C118.454 108.703 118.536 108.676 118.577 108.662L118.427 108.73C118.427 108.73 118.509 108.689 118.55 108.648L118.427 108.758C118.427 108.758 118.509 108.689 118.536 108.648L118.441 108.785C118.441 108.785 118.495 108.689 118.523 108.635L118.468 108.799C118.468 108.799 118.509 108.676 118.509 108.608V108.785C118.509 108.703 118.495 108.621 118.482 108.539L118.509 108.717C118.495 108.635 118.468 108.553 118.441 108.485L118.509 108.635C118.509 108.635 118.441 108.498 118.386 108.444L118.495 108.567C118.495 108.567 118.413 108.485 118.359 108.444L118.495 108.539C118.495 108.539 118.4 108.485 118.359 108.457L118.523 108.512C118.523 108.512 118.413 108.471 118.359 108.471H118.536C118.536 108.471 118.413 108.485 118.345 108.498L118.523 108.471C118.523 108.471 118.4 108.498 118.345 108.526L118.495 108.457C118.495 108.457 118.373 108.526 118.318 108.58L118.441 108.471C118.441 108.471 118.318 108.58 118.277 108.648L118.373 108.512C118.318 108.58 118.277 108.662 118.236 108.758L118.291 108.594C118.263 108.662 118.25 108.73 118.236 108.812V108.635C118.236 108.703 118.236 108.785 118.263 108.853L118.236 108.676C118.236 108.676 118.263 108.799 118.291 108.867L118.222 108.717C118.222 108.717 118.277 108.826 118.318 108.867L118.209 108.744C118.209 108.744 118.304 108.853 118.373 108.894L118.236 108.799C118.236 108.799 118.359 108.88 118.427 108.908L118.263 108.853C118.359 108.894 118.454 108.908 118.55 108.921H118.373C118.468 108.921 118.55 108.921 118.645 108.894L118.468 108.921C118.564 108.908 118.645 108.88 118.727 108.839L118.577 108.908C118.645 108.88 118.714 108.839 118.768 108.785L118.645 108.894C118.645 108.894 118.741 108.799 118.782 108.744L118.686 108.88C118.686 108.88 118.768 108.758 118.795 108.689L118.741 108.853C118.768 108.771 118.795 108.689 118.809 108.594V108.771C118.809 108.662 118.809 108.567 118.782 108.457L118.809 108.635C118.795 108.526 118.755 108.43 118.714 108.335L118.782 108.485C118.741 108.403 118.686 108.321 118.632 108.239L118.741 108.362C118.741 108.362 118.632 108.239 118.564 108.198L118.7 108.294C118.632 108.239 118.564 108.212 118.482 108.171L118.645 108.226C118.564 108.198 118.468 108.171 118.373 108.157H118.55C118.441 108.157 118.332 108.157 118.222 108.185L118.4 108.157C118.291 108.171 118.182 108.212 118.086 108.253L118.236 108.185C118.141 108.226 118.045 108.294 117.95 108.362L118.072 108.253C117.991 108.321 117.922 108.389 117.854 108.471L117.95 108.335C117.95 108.335 117.909 108.403 117.881 108.444L117.759 107.653L118.413 108.198C118.673 108.417 118.686 108.88 118.441 109.112C118.168 109.372 117.8 109.371 117.527 109.14L117.568 109.167Z" fill="#7CB8C0"/>
<path d="M96.654 105.879C97.609 104.256 99.6963 103.41 101.497 103.996C101.824 104.106 102.084 104.433 101.975 104.788C101.879 105.101 101.538 105.374 101.183 105.265C101.006 105.211 100.815 105.17 100.624 105.129C100.569 105.129 100.556 105.129 100.624 105.129C100.583 105.129 100.528 105.129 100.488 105.129C100.392 105.129 100.296 105.129 100.201 105.129C100.119 105.129 100.024 105.129 99.9418 105.142C99.8872 105.142 99.8327 105.156 99.7781 105.17C99.8463 105.17 99.8463 105.17 99.7781 105.17C99.5871 105.211 99.4098 105.265 99.2324 105.333C99.1915 105.333 99.1642 105.361 99.1233 105.374C99.1233 105.374 98.9732 105.442 99.0414 105.402C99.1097 105.361 98.9732 105.429 98.9595 105.442C98.9186 105.47 98.8777 105.483 98.8368 105.511C98.6731 105.606 98.5367 105.702 98.3866 105.811C98.4821 105.743 98.3866 105.811 98.3593 105.838C98.3184 105.865 98.2911 105.906 98.2502 105.934C98.182 106.002 98.1138 106.07 98.0592 106.138C98.0319 106.166 98.0046 106.193 97.991 106.22C97.991 106.22 97.8818 106.357 97.9364 106.288C97.9909 106.22 97.8955 106.343 97.8818 106.357C97.8546 106.411 97.8273 106.452 97.7863 106.507C97.609 106.807 97.2134 106.943 96.8996 106.766C96.5858 106.588 96.463 106.193 96.6404 105.879H96.654Z" fill="#7CB8C0"/>
<path d="M118.741 102.278C120.801 101.855 122.997 102.482 124.457 103.996C124.703 104.256 124.73 104.651 124.484 104.91C124.252 105.156 123.802 105.197 123.57 104.938C122.424 103.737 120.692 103.178 119.123 103.505C118.782 103.574 118.414 103.437 118.304 103.082C118.209 102.769 118.386 102.346 118.727 102.264L118.741 102.278Z" fill="#7CB8C0"/>
<path d="M45.3044 299.927C45.7956 275.794 47.801 251.688 51.3207 227.814C53.0533 216.041 55.2497 204.349 57.5552 192.671C59.8608 180.994 62.139 169.288 63.4487 157.433C64.8675 144.528 65.0312 131.295 62.5756 118.498C62.2482 116.779 62.9166 114.978 64.7174 114.419C66.259 113.942 68.4554 114.828 68.7965 116.561C73.353 140.285 69.6832 164.282 65.1676 187.706C62.903 199.465 60.5156 211.198 58.633 223.039C56.7503 234.881 55.236 246.804 54.131 258.755C52.8759 272.37 52.1119 286.025 51.8255 299.695C51.7436 303.87 45.2362 304.102 45.3181 299.9L45.3044 299.927Z" fill="#7CB8C0"/>
<path d="M71.2931 116.002C66.8866 119.153 60.8567 118.034 56.9141 114.678C52.3303 110.79 51.5527 103.956 53.1761 98.4713C56.3138 87.9258 66.109 81.5685 75.986 78.1307C81.4429 76.2344 87.1317 75.1157 92.8342 74.2017C99.4235 73.1376 106.067 72.5373 112.738 72.4145C119.491 72.2781 126.244 72.6601 132.943 73.4377C139.641 74.2153 145.616 75.3749 151.592 77.7896C157.376 80.1224 163.897 84.9245 161.878 92.0867C159.804 99.4808 152.151 101.391 145.507 102.4C143.761 102.659 142.206 100.859 142.151 99.2489C142.097 97.3117 143.556 96.1521 145.302 95.8929C148.809 95.3609 154.92 94.515 155.671 90.1086C156.312 86.2887 150.336 84.1742 147.635 83.2056C137.608 79.604 126.326 78.9083 115.753 78.9083C105.003 78.9083 94.103 79.9997 83.6666 82.6463C75.8905 84.6244 67.8006 87.7758 62.6302 94.2149C59.8062 97.7346 57.719 103.014 59.5334 107.434C60.2155 109.099 61.5388 110.395 63.2305 111.022C64.9221 111.65 66.3818 111.527 67.8279 110.504C71.2385 108.062 74.69 113.587 71.2931 116.015V116.002Z" fill="#7CB8C0"/>
<path d="M157.485 102.318C154.143 123.655 166.803 143.232 178.74 159.657C185.097 168.415 191.563 177.051 197.13 186.355C202.859 195.932 207.893 205.891 212.886 215.877C218.834 227.773 224.782 239.669 230.717 251.579C231.508 253.148 231.276 255.071 229.694 256.067C228.316 256.927 225.997 256.613 225.205 255.044C219.817 244.266 214.442 233.503 209.053 222.725C203.964 212.535 198.903 202.33 193.173 192.48C187.512 182.74 180.922 173.681 174.279 164.582C167.635 155.482 161.496 146.601 156.939 136.52C151.878 125.333 149.245 113.041 151.169 100.804C151.442 99.0716 153.488 98.0211 155.098 98.4031C156.926 98.8397 157.772 100.586 157.499 102.332L157.485 102.318Z" fill="#7CB8C0"/>
<path d="M51.5936 300.132C64.6902 304.688 77.7868 309.286 90.897 313.815C93.912 314.865 96.9542 315.875 100.092 316.516C103.23 317.157 106.668 317.294 109.996 317.062C116.763 316.612 123.516 315.288 130.173 314.033C143.788 311.482 157.28 308.276 170.704 304.852C177.416 303.133 184.128 301.373 190.827 299.6C193.733 298.836 196.038 298.072 198.071 295.78C200.254 293.324 202.286 290.746 204.319 288.167C208.78 282.519 213.023 276.694 217.034 270.705C219.107 267.595 221.126 264.443 223.077 261.265C224.196 259.45 226.842 256.026 225.465 253.816C223.241 250.255 228.752 246.804 230.976 250.351C234.837 256.504 229.475 263.379 226.229 268.482C222.491 274.348 218.548 280.064 214.401 285.644C212.3 288.481 210.131 291.291 207.921 294.047C205.874 296.598 203.896 299.368 201.495 301.591C198.917 303.992 195.779 305.016 192.437 305.889C188.931 306.816 185.424 307.744 181.918 308.658C167.785 312.355 153.624 315.916 139.3 318.835C132.028 320.322 124.716 321.646 117.377 322.737C110.255 323.787 103.243 324.115 96.2175 322.287C88.5778 320.295 81.1291 317.266 73.6804 314.674C65.8088 311.932 57.9236 309.19 50.052 306.448C48.3876 305.875 47.2144 304.347 47.6509 302.519C48.0329 300.937 49.9156 299.545 51.5799 300.118L51.5936 300.132Z" fill="#7CB8C0"/>
<path d="M97.2134 315.002C95.8083 285.507 95.0989 255.972 95.0989 226.45C95.0989 218.046 95.1534 209.642 95.2626 201.239C95.3171 197.064 101.825 196.832 101.77 201.034C101.374 230.556 101.674 260.092 102.684 289.613C102.97 298.017 103.312 306.407 103.707 314.811C103.912 318.999 97.3908 319.204 97.1998 315.015L97.2134 315.002Z" fill="#7CB8C0"/>
<path d="M192.041 294.661C180.363 266.681 168.699 238.7 157.021 210.72C153.693 202.726 150.35 194.731 147.021 186.737C146.339 185.113 147.608 183.149 149.163 182.658C150.978 182.099 152.56 183.176 153.242 184.8C164.92 212.78 176.584 240.76 188.262 268.741C191.591 276.735 194.933 284.729 198.262 292.724C198.944 294.347 197.675 296.312 196.12 296.803C194.306 297.362 192.723 296.284 192.041 294.661Z" fill="#7CB8C0"/>
<path d="M193.951 299.449C193.596 298.031 193.105 296.653 192.491 295.33L192.846 296.093C192.614 295.589 192.368 295.098 192.096 294.606C191.673 293.843 191.482 292.983 191.686 292.11C191.877 291.346 192.423 290.514 193.119 290.118C193.855 289.695 194.769 289.463 195.615 289.709C196.406 289.941 197.198 290.405 197.607 291.141C198.712 293.16 199.599 295.302 200.172 297.526C200.39 298.372 200.349 299.259 199.926 300.05C199.558 300.732 198.794 301.4 198.03 301.605C197.198 301.823 196.27 301.81 195.506 301.359C194.797 300.936 194.155 300.282 193.951 299.463V299.449Z" fill="#7CB8C0"/>
<path d="M49.2745 298.904C53.4626 298.767 53.6673 305.275 49.4791 305.411C45.2909 305.548 45.0863 299.04 49.2745 298.904Z" fill="#7CB8C0"/>
<path d="M193.146 182.74C198.862 171.84 204.264 160.776 209.312 149.548C211.795 144.037 214.196 138.47 216.515 132.891C216.829 132.127 217.17 131.349 217.47 130.572C217.579 130.299 217.77 129.562 217.825 129.849C217.77 129.603 217.184 129.016 217.088 128.907C216.543 128.252 215.983 127.611 215.424 126.97C213.35 124.542 211.263 122.113 209.189 119.685C208.043 118.348 207.743 116.465 209.039 115.088C210.144 113.914 212.491 113.601 213.637 114.938C215.86 117.53 218.07 120.122 220.294 122.714C222.45 125.224 225.001 127.639 224.1 131.267C223.705 132.891 222.859 134.473 222.218 136.015C221.577 137.556 220.935 139.098 220.281 140.626C218.971 143.695 217.648 146.765 216.297 149.807C210.881 162.017 205.056 174.036 198.848 185.85C196.898 189.561 191.168 186.464 193.119 182.74H193.146Z" fill="#7CB8C0"/>
<path d="M52.1666 211.252C43.3537 203.885 35.3593 195.618 28.2107 186.628C26.7783 184.827 25.4413 182.317 23.5451 180.939C21.8671 179.725 19.5069 180.461 17.788 181.198C15.5097 182.167 13.5453 183.777 11.4171 185.032C8.8796 186.519 6.2057 187.61 3.24532 187.774C-0.942859 188.019 -1.14748 181.498 3.0407 181.266C5.76916 181.116 8.07469 179.479 10.2984 178.047C12.5766 176.573 14.9231 175.127 17.5561 174.391C20.1891 173.654 23.204 173.558 25.796 174.773C28.5245 176.041 30.1752 178.565 31.9351 180.871C39.1655 190.311 47.5146 198.879 56.6276 206.505C59.8472 209.192 55.3725 213.94 52.1666 211.252Z" fill="#7CB8C0"/>
<path d="M195.315 372.545C192.709 372.804 190.145 373.514 187.512 373.623C184.879 373.732 182.45 373.2 180.118 372.108C178.03 371.14 176.134 369.68 174.401 368.179C172.669 366.679 170.432 364.919 169.531 362.709C168.494 360.171 169.286 357.184 169.572 354.564C169.886 351.754 170.186 348.957 170.5 346.147C171.114 340.54 171.741 334.933 172.355 329.326C173.064 322.969 173.76 316.598 174.47 310.241C174.661 308.494 176.843 307.471 178.399 307.84C180.281 308.29 180.991 310.022 180.8 311.769C179.381 324.606 177.962 337.43 176.543 350.267C176.216 353.282 175.697 356.352 175.534 359.38C175.466 360.676 176.407 361.167 177.321 362.027C178.235 362.886 179.094 363.664 180.036 364.414C181.768 365.806 183.842 366.952 186.107 367.102C189.108 367.306 192.136 366.31 195.097 366.01C196.843 365.833 198.398 367.484 198.453 369.162C198.507 371.017 197.061 372.34 195.301 372.518L195.315 372.545Z" fill="#7CB8C0"/>
<path d="M92.5614 375.56C95.4263 375.519 98.2775 375.492 101.142 375.437C101.142 375.437 102.629 375.369 102.643 375.382C102.561 375.11 102.357 375.26 102.002 375.819C102.097 375.683 102.138 375.533 102.152 375.355C102.179 373.977 103.011 372.286 103.38 370.962C104.962 365.314 106.545 359.68 108.127 354.032C111.347 342.532 114.566 331.045 117.8 319.545C118.932 315.52 125.262 317.021 124.13 321.072C120.61 333.61 117.104 346.147 113.584 358.698C111.852 364.892 110.351 371.194 108.359 377.306C107.363 380.376 105.167 381.822 101.961 381.917C98.8914 382.013 95.8219 381.999 92.766 382.04C88.5778 382.094 88.3596 375.587 92.5614 375.532V375.56Z" fill="#7CB8C0"/>
<path d="M177.335 303.024C181.523 302.887 181.727 309.395 177.539 309.531C173.351 309.668 173.146 303.16 177.335 303.024Z" fill="#7CB8C0"/>
<path d="M64.3355 199.765C66.3 208.742 77.6231 208.906 84.7989 208.565C89.7374 208.333 94.4986 208.305 99.3416 209.383C104.103 210.434 108.837 212.166 113.761 212.289C118.809 212.412 123.625 210.747 128.522 209.779C133.134 208.865 137.813 208.66 142.479 208.346C147.294 208.019 152.219 207.514 156.68 205.509C160.65 203.722 164.047 200.87 167.307 198.046C174.647 191.716 183.651 184.281 194.074 187.201C196.488 187.883 195.588 191.675 193.16 190.993C183.651 188.333 175.534 196.164 168.917 201.784C165.425 204.758 161.81 207.541 157.567 209.356C153.038 211.279 148.058 211.866 143.188 212.207C138.263 212.562 133.338 212.712 128.495 213.749C123.584 214.813 118.659 216.354 113.584 216.177C108.577 216 103.83 214.431 98.9869 213.312C93.7483 212.098 88.6597 212.316 83.3392 212.534C78.3052 212.739 73.2575 212.534 68.6464 210.311C64.7857 208.455 61.5115 205.195 60.5838 200.925C60.0518 198.483 63.7761 197.31 64.3218 199.765H64.3355Z" fill="#7CB8C0"/>
<path d="M62.9167 192.617C71.1157 191.744 78.3188 187.269 85.904 184.431C89.7511 182.985 93.7892 181.976 97.9228 181.853C102.234 181.73 106.531 182.453 110.747 183.272C115.017 184.09 119.3 185.045 123.666 185.195C128.277 185.359 132.561 184.24 136.967 183.04C141.373 181.839 145.766 180.953 150.391 181.362C152.628 181.567 154.866 181.935 157.117 181.949C159.368 181.962 161.66 181.526 163.883 180.939C168.617 179.684 173.201 178.361 178.153 178.661C182.942 178.947 187.566 180.311 191.741 182.699C193.924 183.94 192.068 187.392 189.872 186.137C186.161 184.009 182.014 182.726 177.73 182.549C173.447 182.371 169.463 183.504 165.329 184.609C163.269 185.154 161.182 185.646 159.054 185.809C156.735 185.987 154.429 185.714 152.137 185.455C147.431 184.923 143.256 185.4 138.7 186.628C134.539 187.746 130.405 188.974 126.08 189.111C121.674 189.261 117.281 188.497 112.984 187.678C108.809 186.873 104.621 185.946 100.351 185.782C96.2857 185.632 92.4113 186.314 88.5778 187.624C80.0105 190.557 72.2344 195.55 63.0531 196.518C60.5566 196.778 60.4474 192.876 62.9303 192.617H62.9167Z" fill="#7CB8C0"/>
<path d="M74.4172 296.175C78.1279 297.758 81.8249 299.354 85.5356 300.937C85.8358 301.059 87.5138 301.646 87.2546 301.919C87.5683 301.591 87.3637 300.473 87.3228 300.091C87.1181 298.072 86.7771 296.053 86.5043 294.047C85.4129 285.875 84.3078 277.704 83.2165 269.532C82.8754 267.049 86.7907 266.94 87.1181 269.409C88.4414 279.273 89.7648 289.15 91.1017 299.013C91.32 300.677 91.47 302.465 90.5833 303.979C89.642 305.589 87.8003 306.011 86.1223 305.411C81.5112 303.774 77.0501 301.537 72.5618 299.613C70.2563 298.617 72.1253 295.193 74.4308 296.175H74.4172Z" fill="#7CB8C0"/>
<path d="M196.87 275.521C190.281 263.134 184.401 250.392 179.258 237.336C178.33 234.99 182.068 233.857 182.996 236.177C188.016 248.918 193.76 261.347 200.185 273.434C201.359 275.644 198.057 277.731 196.87 275.507V275.521Z" fill="#7CB8C0"/>
<path d="M129.177 200.625C131.688 200.543 131.81 204.445 129.3 204.526C126.79 204.608 126.667 200.707 129.177 200.625Z" fill="#7CB8C0"/>
<path d="M142.861 194.922C145.371 194.84 145.493 198.742 142.983 198.824C140.473 198.906 140.35 195.004 142.861 194.922Z" fill="#7CB8C0"/>
<path d="M120.787 192.276C123.298 192.194 123.42 196.096 120.91 196.177C118.4 196.259 118.277 192.358 120.787 192.276Z" fill="#7CB8C0"/>
<path d="M109.601 201.716C112.111 201.634 112.234 205.536 109.723 205.618C107.213 205.7 107.09 201.798 109.601 201.716Z" fill="#7CB8C0"/>
<path d="M88.7688 193.272C91.279 193.19 91.4018 197.091 88.8916 197.173C86.3814 197.255 86.2587 193.353 88.7688 193.272Z" fill="#7CB8C0"/>
<path d="M72.6028 196.177C75.1129 196.096 75.2357 199.997 72.7256 200.079C70.2154 200.161 70.0926 196.259 72.6028 196.177Z" fill="#7CB8C0"/>
<path d="M72.7801 155.278C95.358 152.495 117.827 148.975 140.173 144.691C146.558 143.464 152.928 142.181 159.299 140.844C161.741 140.326 162.915 144.064 160.459 144.582C137.963 149.316 115.317 153.313 92.5614 156.56C86.0131 157.488 79.4648 158.361 72.9028 159.179C70.4063 159.493 70.2972 155.578 72.7801 155.278Z" fill="#7CB8C0"/>
<path d="M68.4554 155.646C70.9656 155.564 71.0884 159.466 68.5782 159.548C66.068 159.63 65.9452 155.728 68.4554 155.646Z" fill="#7CB8C0"/>
<path d="M71.9069 158.975L70.952 159.002C70.6791 159.016 70.4336 158.975 70.188 158.852C69.9424 158.784 69.7242 158.647 69.5468 158.47C69.3558 158.293 69.2058 158.088 69.1239 157.856C69.0011 157.624 68.9329 157.379 68.9329 157.106L68.9875 156.587C69.0693 156.26 69.2331 155.96 69.465 155.714L69.847 155.401C70.1471 155.21 70.4745 155.114 70.8292 155.1L71.7842 155.073C72.057 155.06 72.3026 155.1 72.5481 155.223C72.7937 155.291 73.012 155.428 73.1893 155.605C73.3803 155.783 73.5304 155.987 73.6122 156.219C73.735 156.451 73.8032 156.697 73.8032 156.969L73.7486 157.488C73.6668 157.815 73.5031 158.115 73.2712 158.361L72.8892 158.675C72.589 158.866 72.2616 158.961 71.9069 158.975Z" fill="#7CB8C0"/>
<path d="M110.61 144.05C99.2324 147.092 88.264 139.303 84.3487 128.839C82.2069 123.137 81.9477 116.834 82.9026 110.845C83.8576 104.856 86.3951 99.4126 91.3881 95.7838C95.8901 92.5096 101.456 91.0772 106.872 90.245C113.079 89.2901 119.3 89.4947 124.825 92.7688C134.812 98.6896 139.013 110.708 135.985 121.745C132.342 135.033 120.092 143.395 106.845 145.046C104.348 145.36 104.239 141.445 106.722 141.144C116.817 139.889 126.408 134.119 130.773 124.719C134.921 115.797 133.447 105.033 125.944 98.3895C122.192 95.0744 117.513 93.4782 112.52 93.6147C107.513 93.7511 102.22 94.7606 97.609 96.7524C92.9434 98.7715 89.3691 102.264 87.7866 107.161C86.1904 112.141 85.8221 117.734 86.7634 122.877C87.7593 128.334 90.3377 133.437 94.7441 136.915C98.8505 140.149 104.362 141.704 109.464 140.326C111.892 139.671 113.052 143.409 110.624 144.064L110.61 144.05Z" fill="#7CB8C0"/>
<path d="M77.4594 97.0934C77.8687 96.4931 78.2779 96.043 78.8782 95.6064C79.3284 95.279 79.8604 95.0334 80.3925 94.8697C80.9245 94.706 81.4975 94.6105 82.0432 94.6378C82.8072 94.6651 83.4211 94.8288 84.1168 95.1153C84.3897 95.2244 84.6898 95.5518 84.8399 95.7974C85.0718 96.1657 85.1536 96.6023 85.1127 97.0388C85.0309 97.8437 84.4988 98.4031 83.7621 98.7032C81.975 99.4262 80.1878 100.149 78.4007 100.859C77.9505 101.036 77.2957 100.927 76.8864 100.709C76.4771 100.49 76.0679 100.027 75.9587 99.5763C75.836 99.0852 75.836 98.5122 76.1088 98.062C76.3817 97.6118 76.75 97.3253 77.2411 97.1343C79.0283 96.4113 80.8154 95.6883 82.6025 94.9789L82.2478 98.5668L82.1796 98.5395L82.6571 98.7168C82.3979 98.6213 82.1387 98.5531 81.8658 98.5259L82.3842 98.5804C82.0841 98.5531 81.7976 98.5668 81.4975 98.6077L82.0159 98.5259C81.7021 98.5804 81.3884 98.6759 81.1019 98.7987L81.5657 98.5804C81.2929 98.7032 81.0473 98.8669 80.8154 99.0579L81.1974 98.7441C81.0064 98.9078 80.8427 99.0852 80.6926 99.2762L80.9791 98.8669C80.9791 98.8669 80.9245 98.9488 80.8972 98.9897C80.5971 99.4262 80.2697 99.7673 79.7649 99.9174C79.3011 100.067 78.6735 100.027 78.2506 99.7673C77.8277 99.5081 77.4458 99.1261 77.323 98.635C77.2002 98.1439 77.1865 97.5573 77.473 97.1207L77.4594 97.0934Z" fill="#7CB8C0"/>
<path d="M66.6683 94.1603C67.2686 93.3554 68.1417 92.8097 69.0557 92.4278C69.9698 92.0458 71.0338 92.0049 72.0297 92.1549C73.2166 92.3323 73.9397 93.9966 73.2848 94.9925C72.9165 95.5518 72.5209 96.0703 72.0025 96.4932C71.3613 97.0252 70.7474 97.4072 69.9834 97.7346C68.7556 98.2667 67.3777 98.3622 66.0681 98.1439C65.6315 98.0757 65.0858 97.6664 64.8675 97.2844C64.622 96.8479 64.4719 96.2885 64.622 95.7838C65.0858 94.2695 66.0408 93.0007 67.3641 92.1413C67.9371 91.7593 68.5919 91.4592 69.2604 91.2954C70.1607 91.0635 70.952 91.0499 71.866 91.159C72.5209 91.2272 73.0938 91.8957 73.2712 92.4823C73.4895 93.1781 73.2848 93.8602 72.8346 94.3923C71.5523 95.9065 70.1198 97.2435 68.5646 98.4849C68.1963 98.7851 67.5005 98.8396 67.0639 98.7305C66.6274 98.6214 66.109 98.2803 65.8634 97.871C65.6042 97.4208 65.4678 96.8751 65.6179 96.3704L65.7952 95.8929C65.9589 95.5928 66.1908 95.3472 66.4773 95.1699C66.6001 95.0744 66.7229 94.9789 66.832 94.8834L66.45 95.1971C67.7324 94.1467 68.9057 92.9735 69.9834 91.7184C70.3108 92.7961 70.6246 93.8738 70.952 94.9516H70.8838C71.0611 94.9516 71.2249 94.9789 71.4022 94.9925C71.0202 94.9516 70.6382 94.9652 70.2563 95.0334L70.7746 94.9516C70.379 95.0198 69.9834 95.1426 69.6151 95.3063L70.0789 95.088C69.7106 95.2654 69.3695 95.47 69.0421 95.7292L69.4241 95.4154C69.1103 95.6746 68.8238 95.9611 68.5919 96.3022L68.8784 95.8929C68.6601 96.2067 68.4691 96.5341 68.3327 96.8888L68.51 96.4113C68.4827 96.5068 68.4418 96.5887 68.4145 96.6842L66.9821 94.324C67.0776 94.3377 67.1731 94.3513 67.2822 94.365L66.7638 94.3104C67.214 94.3513 67.6506 94.3377 68.1008 94.2695L67.5824 94.3513C68.0189 94.2695 68.4555 94.1467 68.8647 93.9557L68.4009 94.174C68.8102 93.983 69.1921 93.7511 69.5332 93.4646L69.1512 93.7783C69.4786 93.5055 69.7651 93.2054 70.0243 92.8643L69.7378 93.2736C69.7378 93.2736 69.8197 93.1508 69.8606 93.0826L71.1157 95.9202C71.1157 95.9202 71.0202 95.9065 70.9656 95.9065L71.4841 95.9611C71.1566 95.9338 70.8292 95.9338 70.5018 95.9884L71.0202 95.9065C70.6928 95.9611 70.379 96.0702 70.0789 96.2067L70.5427 95.9884C70.2426 96.1248 69.9698 96.3022 69.7105 96.5204L70.0925 96.2067C69.8743 96.384 69.6833 96.5887 69.5196 96.8206C69.2467 97.1889 68.6055 97.4208 68.1553 97.4345C67.6778 97.4481 67.0912 97.2571 66.7502 96.9024C66.4091 96.5477 66.1226 96.0566 66.1363 95.5382L66.1908 95.0198C66.2727 94.6924 66.4364 94.3923 66.6683 94.1467V94.1603Z" fill="#7CB8C0"/>
<path d="M91.0334 83.3011C92.9024 82.5917 95.0034 82.4825 96.9542 82.9327C97.7591 83.1237 98.4549 83.9286 98.4412 84.7744C98.4412 85.7021 97.8955 86.3569 97.0633 86.698C94.4849 87.7894 91.6883 88.3896 88.878 88.5124C88.0594 88.5533 87.159 87.9531 86.9544 87.1346C86.7225 86.2342 87.0636 85.4565 87.7866 84.8972C89.8057 83.3284 92.4249 82.8099 94.9215 83.1783C95.931 83.3284 96.6404 84.5834 96.354 85.5384C96.0402 86.6298 95.0852 87.1346 93.9938 86.9708C93.8301 86.9436 93.489 86.9708 94.0211 86.9708C93.8983 86.9708 93.7755 86.9572 93.6528 86.9436C93.4481 86.9436 93.2435 86.9436 93.0252 86.9436C92.7797 86.9436 92.5341 86.9981 92.2749 87.0254C92.4522 87.0254 92.6705 86.9572 92.3567 87.0254C92.2339 87.0527 92.1112 87.08 91.9884 87.1073C91.7701 87.1618 91.5518 87.23 91.3336 87.3119C91.279 87.3255 91.0061 87.462 90.9925 87.4483C91.0198 87.4756 91.4291 87.2301 91.0607 87.421C90.6378 87.6393 90.2285 87.8985 89.8466 88.185C89.4782 86.9845 89.1099 85.784 88.7415 84.5834C89.41 84.5562 90.0785 84.5016 90.7469 84.4061C90.8834 84.3925 91.0334 84.3652 91.1699 84.3515C91.6201 84.2833 90.8152 84.4197 91.2244 84.3515C91.5519 84.2833 91.8793 84.2287 92.2067 84.1469C93.4618 83.8604 94.7032 83.4511 95.8901 82.9464C95.931 84.2015 95.972 85.4566 96.0129 86.7116C95.8355 86.6707 95.6582 86.6298 95.4672 86.6025C95.358 86.5889 95.2353 86.5752 95.1261 86.5479C94.8533 86.507 95.5081 86.5616 95.2353 86.5479C94.8396 86.5479 94.4576 86.5206 94.062 86.5479C93.8847 86.5479 93.6937 86.5889 93.5163 86.6025C93.2435 86.6298 93.5436 86.6298 93.6255 86.5889C93.5573 86.6298 93.4345 86.6298 93.3526 86.6434C92.9434 86.7389 92.5477 86.8617 92.1658 86.9981C91.2108 87.3665 89.9693 86.6844 89.7238 85.7158C89.4373 84.638 89.983 83.6558 91.0062 83.2738L91.0334 83.3011Z" fill="#7CB8C0"/>
<path d="M112.52 81.1456C114.362 81.1865 116.203 81.4457 117.963 81.9914C118.755 82.237 119.464 82.9327 119.45 83.8331C119.45 84.6653 118.932 85.5384 118.072 85.7567C115.248 86.4934 112.124 86.0841 109.682 84.4607C109.096 84.065 108.687 83.5466 108.659 82.8099C108.632 82.0733 109 81.4866 109.573 81.091C111.06 80.0815 112.929 79.5494 114.73 79.6177C116.736 79.6859 118.523 80.327 120.119 81.5276C120.828 82.0596 120.842 83.1646 120.501 83.8877C119.819 85.3474 118.018 86.1387 116.476 85.7021C115.494 85.4293 114.73 84.3788 115.044 83.342C115.33 82.3598 116.354 81.6094 117.404 81.9096C117.472 81.9368 117.54 81.9505 117.609 81.9641C117.268 81.9368 117.186 81.9232 117.404 81.9232C117.063 81.9914 116.995 82.0051 117.199 81.9641C117.268 81.9505 117.336 81.9232 117.404 81.8959C117.104 82.046 117.049 82.0596 117.227 81.9505C116.981 82.1688 116.94 82.2097 117.09 82.0733C117.227 81.9232 117.186 81.9778 116.995 82.237C117.036 82.1824 117.063 82.1142 117.09 82.046L117.472 84.4061C117.54 84.4607 117.8 84.6244 117.581 84.4879C117.513 84.447 117.445 84.3925 117.377 84.3515C117.227 84.256 117.063 84.1605 116.899 84.0787C116.749 84.0105 116.613 83.9423 116.463 83.874C116.244 83.7649 116.831 83.9968 116.599 83.9286C116.517 83.9013 116.449 83.874 116.367 83.8468C116.04 83.7376 115.712 83.6558 115.371 83.6012C115.289 83.5876 115.208 83.5739 115.126 83.5603C114.853 83.5193 115.208 83.5603 115.289 83.5603C115.112 83.5603 114.921 83.533 114.744 83.533C114.416 83.533 114.103 83.533 113.775 83.5876C113.707 83.5876 113.42 83.6421 113.734 83.5876C114.048 83.533 113.761 83.5876 113.693 83.5876C113.516 83.6285 113.339 83.6694 113.161 83.7103C112.847 83.7922 112.561 83.9423 112.247 84.0378C112.411 83.9832 112.602 83.874 112.329 84.0105C112.261 84.0514 112.193 84.0923 112.111 84.1196C111.947 84.2151 111.797 84.3106 111.647 84.4061L111.538 81.0365C111.783 81.2002 112.029 81.3502 112.274 81.4866C112.465 81.5821 112.834 81.855 113.052 81.855C112.807 81.7595 112.752 81.7458 112.888 81.7868C112.957 81.8141 113.011 81.8277 113.079 81.855C113.202 81.8959 113.339 81.9368 113.461 81.9778C113.734 82.0596 114.021 82.1142 114.307 82.1688C114.444 82.196 114.566 82.2097 114.703 82.2233C114.853 82.237 114.785 82.2233 114.512 82.2097C114.594 82.2097 114.689 82.2233 114.771 82.2233C115.03 82.237 115.303 82.237 115.576 82.2233C115.849 82.2097 116.108 82.1824 116.367 82.1551C116.79 82.1142 115.985 82.2506 116.367 82.1551C116.544 82.1142 116.708 82.0733 116.886 82.0323C116.926 83.2874 116.967 84.5425 117.008 85.7976C116.231 85.552 115.453 85.3747 114.648 85.2383C114.444 85.211 114.253 85.1701 114.048 85.1564C113.952 85.1564 113.843 85.1291 113.748 85.1155C114.021 85.1428 114.048 85.1428 113.816 85.1155C113.407 85.0882 113.011 85.0609 112.602 85.0609C111.579 85.0473 110.569 84.256 110.583 83.1646C110.583 82.1551 111.374 81.1319 112.479 81.1456H112.52Z" fill="#7CB8C0"/>
<path d="M137.185 91.0363C135.616 90.477 134.348 89.5629 133.365 88.2123C132.629 87.2028 133.297 85.6339 134.443 85.3065C138.045 84.2834 142.001 85.1837 144.798 87.6803C145.862 88.6352 145.453 90.6134 144.034 90.9681C141.578 91.5956 139.027 91.6911 136.53 91.2136C135.985 91.1045 135.453 90.9817 134.934 90.8044C134.116 90.5452 133.27 90.2723 132.765 89.522C132.165 88.6353 132.219 87.5029 132.943 86.698C133.284 86.3161 133.761 86.0841 134.266 86.0023C134.962 85.8931 135.521 86.1251 136.067 86.548C136.872 87.1892 136.872 88.608 136.148 89.3037C135.344 90.095 134.239 90.0813 133.393 89.3856L133.325 89.331L134.198 89.8085H134.129C134.47 89.7812 134.825 89.7676 135.166 89.7676C136.353 88.0896 136.408 87.1073 135.316 86.8208C135.398 86.8481 135.466 86.8754 135.548 86.9027C135.726 86.9709 135.917 87.0255 136.094 87.08C136.408 87.1755 136.735 87.2574 137.049 87.3256C137.431 87.4074 137.799 87.4757 138.181 87.5302C138.236 87.5302 138.795 87.6121 138.318 87.5575C138.509 87.5848 138.7 87.5848 138.891 87.5984C139.6 87.6394 140.323 87.6257 141.032 87.5575C141.223 87.5439 141.414 87.5166 141.605 87.4893C141.715 87.4893 142.206 87.4211 141.742 87.4757C142.124 87.4347 142.506 87.3256 142.874 87.2301C142.615 88.3215 142.369 89.4265 142.11 90.5179C141.974 90.3951 141.824 90.2723 141.674 90.1495C141.51 90.0268 141.524 90.0268 141.742 90.1905C141.66 90.1359 141.592 90.0813 141.51 90.0268C141.237 89.8494 140.951 89.6857 140.664 89.5356C140.5 89.4538 140.323 89.3719 140.159 89.2901C140.077 89.2491 139.982 89.2219 139.9 89.1809C140.159 89.2764 140.173 89.2901 139.982 89.2219C139.668 89.1264 139.354 89.0309 139.027 88.949C138.727 88.8808 138.345 88.8945 138.058 88.7853C138.345 88.8126 138.386 88.8126 138.154 88.7853C138.058 88.7853 137.963 88.7853 137.867 88.7717C137.676 88.7717 137.485 88.7717 137.308 88.7717C136.981 88.7717 136.653 88.8126 136.326 88.8535C136.108 88.8808 136.135 88.8808 136.421 88.8399C136.326 88.8535 136.23 88.8808 136.148 88.8945C135.971 88.9354 135.78 88.9899 135.603 89.0309L136.681 86.1251C136.681 86.1251 136.981 86.4661 136.79 86.2751C136.599 86.0841 136.885 86.357 136.926 86.3979C136.967 86.4388 137.417 86.9027 137.472 86.8754C137.472 86.8754 137.144 86.6708 137.417 86.8345C137.526 86.9027 137.622 86.9572 137.731 87.0255C137.84 87.0937 137.949 87.1346 138.058 87.1892C138.168 87.2437 138.59 87.3938 138.127 87.2301C139.082 87.5711 139.886 88.4988 139.559 89.5902C139.286 90.5179 138.236 91.391 137.199 91.0226L137.185 91.0363Z" fill="#7CB8C0"/>
<path d="M136.571 55.0343C139.082 54.9524 139.204 58.8541 136.694 58.936C134.184 59.0178 134.061 55.1161 136.571 55.0343Z" fill="#7CB8C0"/>
<path d="M111.251 47.8175C113.762 47.7356 113.884 51.6373 111.374 51.7192C108.864 51.801 108.741 47.8993 111.251 47.8175Z" fill="#7CB8C0"/>
<path d="M129.355 29.1139C131.865 29.0321 131.988 32.9338 129.477 33.0156C126.967 33.0975 126.845 29.1958 129.355 29.1139Z" fill="#7CB8C0"/>
<path d="M90.5969 52.7424C93.1071 52.6605 93.2299 56.5622 90.7197 56.6441C88.2095 56.7259 88.0867 52.8242 90.5969 52.7424Z" fill="#7CB8C0"/>
<path d="M70.7746 50.164C73.2848 50.0821 73.4076 53.9838 70.8974 54.0657C68.3872 54.1475 68.2645 50.2458 70.7746 50.164Z" fill="#7CB8C0"/>
<path d="M87.3501 34.1615C89.8603 34.0797 89.983 37.9814 87.4729 38.0632C84.9627 38.1451 84.8399 34.2434 87.3501 34.1615Z" fill="#7CB8C0"/>
<path d="M52.3303 40.6008C54.8405 40.5189 54.9633 44.4206 52.4531 44.5025C49.9429 44.5843 49.8201 40.6826 52.3303 40.6008Z" fill="#7CB8C0"/>
<path d="M53.7627 69.3723C56.2729 69.2904 56.3957 73.1921 53.8855 73.274C51.3753 73.3559 51.2526 69.4542 53.7627 69.3723Z" fill="#7CB8C0"/>
<path d="M83.8577 14.3393C86.3678 14.2575 86.4906 18.1592 83.9804 18.241C81.4702 18.3229 81.3475 14.4212 83.8577 14.3393Z" fill="#7CB8C0"/>
<path d="M109.573 18.9095C112.084 18.8276 112.206 22.7293 109.696 22.8112C107.186 22.893 107.063 18.9913 109.573 18.9095Z" fill="#7CB8C0"/>
<path d="M133.215 0.00127004C135.726 -0.0805837 135.848 3.82111 133.338 3.90296C130.828 3.98482 130.705 0.0831238 133.215 0.00127004Z" fill="#7CB8C0"/>
<path d="M65.7679 16.9177C68.2781 16.8359 68.4009 20.7376 65.8907 20.8194C63.3805 20.9013 63.2577 16.9996 65.7679 16.9177Z" fill="#7CB8C0"/>
<path d="M66.3409 35.0756C68.851 34.9938 68.9738 38.8955 66.4636 38.9773C63.9535 39.0592 63.8307 35.1575 66.3409 35.0756Z" fill="#7CB8C0"/>
<path d="M98.8232 40.7917C101.333 40.7099 101.456 44.6116 98.946 44.6934C96.4358 44.7753 96.313 40.8736 98.8232 40.7917Z" fill="#7CB8C0"/>
<path d="M113.598 61.1869C116.108 61.1051 116.231 65.0068 113.721 65.0886C111.21 65.1705 111.088 61.2688 113.598 61.1869Z" fill="#7CB8C0"/>
<path d="M403.314 113.444C399.576 111.753 396.261 108.124 396.042 103.84C395.838 99.8295 402.918 100.484 405.578 100.471C416.287 100.43 426.928 102.026 437.187 105.095C447.528 108.179 457.378 112.803 466.382 118.738C470.693 121.589 474.881 124.727 478.633 128.301C482.098 131.602 485.276 135.463 486.641 140.142C487.978 144.713 487.65 150.606 483.749 153.88C480.911 156.254 476.245 157.073 473.394 154.699C472.112 153.635 470.229 153.498 469.015 154.767C467.923 155.899 467.787 158.082 469.083 159.146C473.244 162.598 478.865 163.102 483.789 160.974C489.178 158.641 492.63 153.594 493.353 147.796C494.962 134.822 485.317 125.04 475.781 117.837C455.441 102.462 430.134 93.9633 404.596 94.2634C398.525 94.3316 390.381 95.3139 389.862 102.981C389.426 109.611 394.473 116.2 400.285 118.833C401.813 119.529 403.641 119.188 404.5 117.633C405.264 116.268 404.842 114.113 403.3 113.417L403.314 113.444Z" fill="#7CB8C0"/>
<path d="M390.381 109.775C391.418 116.923 388.798 123.54 384.992 129.488C381.063 135.613 375.961 141.043 370.777 146.104C365.593 151.165 360.027 155.817 354.106 159.992C347.953 164.33 341.405 168.014 334.952 171.874C328.499 175.735 321.937 180.278 316.058 185.408C310.232 190.483 304.844 196.035 299.496 201.615C293.821 207.522 288.186 213.456 282.579 219.431C279.796 222.405 277 225.379 274.244 228.381C271.638 231.218 269.128 234.261 268.064 238.04C266.891 242.241 267.75 246.798 268.31 251.013C268.896 255.338 269.592 259.663 270.41 263.946C272.048 272.473 274.189 280.904 276.795 289.184C277.996 292.991 283.944 291.231 282.743 287.411C280.451 280.126 278.514 272.746 276.972 265.27C276.222 261.613 275.554 257.93 274.994 254.233C274.421 250.454 273.726 246.566 273.698 242.746C273.671 239.104 275.404 236.375 277.764 233.729C280.438 230.727 283.234 227.808 285.976 224.875C291.57 218.899 297.204 212.951 302.879 207.044C308.186 201.519 313.493 195.967 319.223 190.864C324.939 185.762 331.119 181.424 337.681 177.481C344.243 173.539 350.695 169.937 356.862 165.626C362.919 161.384 368.69 156.677 374.037 151.575C380.013 145.886 385.756 139.692 390.258 132.748C394.664 125.941 397.761 117.824 396.574 109.611C396.329 107.96 395.196 106.555 393.382 106.596C391.854 106.637 390.135 108.124 390.367 109.788L390.381 109.775Z" fill="#7CB8C0"/>
<path d="M283.384 290.385C289.332 286.415 294.216 281.231 298.923 275.897C303.97 270.181 308.991 264.437 314.011 258.708C324.27 246.975 334.475 235.202 344.515 223.265C350.245 216.444 355.92 209.582 361.514 202.651C362.564 201.355 362.714 199.5 361.445 198.272C360.327 197.195 358.117 197.031 357.066 198.341C337.612 222.446 317.19 245.734 296.754 269.008C291.679 274.792 286.631 280.794 280.178 285.092C276.863 287.302 280.069 292.609 283.398 290.399L283.384 290.385Z" fill="#7CB8C0"/>
<path d="M281.938 293.714C298.172 305.132 314.925 315.801 332.155 325.637C340.846 330.589 349.618 335.896 359.058 339.293C368.553 342.703 378.88 342.785 388.853 343.085C400.149 343.426 411.458 343.358 422.754 342.935C426.737 342.785 426.574 336.578 422.577 336.742C412.577 337.124 402.577 337.219 392.577 337.001C382.987 336.796 372.919 336.987 363.628 334.3C354.474 331.653 346.03 326.373 337.776 321.708C329.522 317.042 320.955 311.953 312.715 306.783C303.302 300.876 294.052 294.71 284.967 288.311C283.602 287.343 281.502 288.148 280.751 289.512C279.865 291.108 280.574 292.759 281.952 293.727L281.938 293.714Z" fill="#7CB8C0"/>
<path d="M471.989 159.474C463.722 166.322 459.083 176.281 456.273 186.444C453.217 197.44 451.935 208.9 450.025 220.141C445.632 245.966 440.325 271.654 434.132 297.111C432.385 304.3 430.557 311.476 428.661 318.625C426.874 325.364 425.305 332.308 421.731 338.365C419.698 341.816 425.128 344.818 427.147 341.394C430.366 335.923 432.099 329.77 433.722 323.672C435.4 317.424 437.024 311.149 438.593 304.873C441.758 292.213 444.691 279.498 447.406 266.729C450.093 254.069 452.576 241.355 454.827 228.613C456.887 216.935 458.319 205.107 460.898 193.525C463.367 182.393 467.405 171.274 476.436 163.798C477.732 162.734 477.473 160.483 476.368 159.419C475.058 158.15 473.271 158.423 471.989 159.487V159.474Z" fill="#7CB8C0"/>
<path d="M451.007 246.73C459.97 244.397 468.933 242.064 477.896 239.731C481.538 238.776 485.386 237.166 489.124 238.408C492.971 239.677 496.19 242.269 500.297 242.842C501.961 243.074 503.612 242.31 504.048 240.563C504.417 239.063 503.448 237.044 501.77 236.812C497.65 236.239 494.28 233.51 490.351 232.296C485.931 230.932 481.62 232.351 477.323 233.469C467.964 235.911 458.606 238.34 449.247 240.782C445.386 241.791 447.146 247.739 451.021 246.73H451.007Z" fill="#7CB8C0"/>
<path d="M334.379 169.705C333.247 158.996 332.115 148.273 330.982 137.564C330.696 134.917 330.423 132.257 330.136 129.611C329.932 127.66 329.209 125.04 329.918 123.144C331.091 119.979 335.539 118.71 338.404 117.81C342.21 116.623 340.464 110.675 336.63 111.862C332.306 113.213 327.654 115.082 325.089 119.024C323.752 121.084 323.356 123.54 323.534 125.968C323.752 128.874 324.134 131.78 324.448 134.686C325.689 146.418 326.917 158.15 328.158 169.896C328.336 171.561 329.577 172.952 331.351 172.911C332.933 172.87 334.543 171.397 334.366 169.719L334.379 169.705Z" fill="#7CB8C0"/>
<path d="M331.023 179.009C334.898 179.964 336.385 173.934 332.496 172.979C328.608 172.025 327.135 178.054 331.023 179.009Z" fill="#7CB8C0"/>
<path d="M328.281 170.688C328.527 171.752 328.772 172.829 329.018 173.893C329.127 174.289 329.304 174.63 329.591 174.93C329.823 175.271 330.109 175.531 330.477 175.722C330.846 175.94 331.241 176.063 331.664 176.063C332.074 176.144 332.469 176.117 332.865 175.981L333.588 175.653C334.052 175.367 334.42 174.985 334.693 174.507L334.993 173.73C335.129 173.184 335.116 172.652 334.952 172.106C334.707 171.042 334.461 169.965 334.215 168.9C334.106 168.505 333.929 168.164 333.642 167.864C333.411 167.523 333.124 167.263 332.756 167.072C332.387 166.854 331.992 166.731 331.569 166.731C331.16 166.649 330.764 166.677 330.368 166.813L329.645 167.141C329.181 167.427 328.813 167.809 328.54 168.287L328.24 169.064C328.104 169.61 328.117 170.142 328.281 170.688Z" fill="#7CB8C0"/>
<path d="M373.614 334.368C383.737 307.138 394.378 280.099 405.51 253.278C408.661 245.706 411.84 238.149 415.073 230.604C415.728 229.063 415.442 227.262 413.873 226.389C412.522 225.639 410.312 226.034 409.657 227.59C398.061 254.71 386.97 282.063 376.397 309.593C373.423 317.342 370.49 325.118 367.585 332.908C366.998 334.477 368.362 336.291 369.863 336.66C371.65 337.096 373.028 335.964 373.614 334.381V334.368Z" fill="#7CB8C0"/>
<path d="M306.603 311.544C299.782 320.985 292.961 330.425 286.14 339.879L283.63 343.358C282.77 344.545 281.734 345.718 281.311 347.151C280.41 350.179 283.016 352.43 284.776 354.517C286.536 356.605 288.446 358.869 290.274 361.052C291.188 362.144 292.17 363.194 293.016 364.326C293.111 364.449 293.398 364.831 293.37 364.831C293.179 364.831 293.984 364.995 293.452 364.763C293.329 364.708 293.711 364.217 293.698 364.217C293.834 364.285 293.22 364.613 293.179 364.654C292.17 365.349 290.928 365.745 289.851 366.332C288.677 366.973 287.572 367.71 286.508 368.528C284.135 370.37 282.184 372.484 280.465 374.94C279.51 376.318 280.301 378.405 281.665 379.155C283.248 380.042 284.926 379.333 285.881 377.955C287.136 376.154 288.746 374.503 290.519 373.221C292.293 371.939 294.475 371.134 296.385 369.947C298.691 368.514 300.273 365.936 299.387 363.167C298.582 360.656 296.249 358.583 294.585 356.618C292.688 354.367 290.792 352.103 288.896 349.852C288.432 349.306 287.968 348.774 287.518 348.215C287.518 348.215 287.081 347.71 287.136 347.724L287.245 348.256C287.231 348.842 287.313 348.951 287.491 348.597C287.913 348.433 288.432 347.287 288.705 346.905C289.182 346.237 289.66 345.582 290.137 344.913C293.548 340.193 296.958 335.473 300.369 330.753C304.257 325.364 308.145 319.989 312.033 314.6C313.015 313.236 312.183 311.121 310.833 310.385C309.223 309.484 307.599 310.221 306.617 311.585L306.603 311.544Z" fill="#7CB8C0"/>
<path d="M367.775 345.145C377.298 350.002 386.82 354.872 396.356 359.729C397.461 360.288 398.552 360.847 399.657 361.407L401.581 362.389C401.772 362.484 402.918 363.262 403.095 363.208C402.795 363.399 402.754 363.071 402.959 362.253C403.109 361.243 402.959 361.025 402.509 361.598C402.072 361.72 401.499 362.484 401.131 362.798C400.067 363.74 398.989 364.681 397.925 365.609C393.955 369.087 389.985 372.58 386.029 376.059C384.774 377.164 384.965 379.346 386.097 380.438C387.379 381.679 389.221 381.475 390.476 380.369C395.06 376.345 399.63 372.334 404.214 368.31C406.192 366.564 409.002 364.804 408.839 361.816C408.675 358.828 405.565 357.45 403.218 356.25C392.413 350.738 381.609 345.213 370.79 339.702C367.243 337.887 364.215 343.303 367.762 345.118L367.775 345.145Z" fill="#7CB8C0"/>
<path d="M363.11 341.953C365.497 343.208 367.885 344.463 370.272 345.732C370.995 346.114 371.882 346.237 372.673 345.991C373.382 345.773 374.16 345.213 374.501 344.531C375.238 343.058 374.842 341.121 373.301 340.316C370.913 339.061 368.526 337.806 366.138 336.537C365.415 336.155 364.529 336.032 363.737 336.278C363.028 336.496 362.25 337.055 361.909 337.737C361.173 339.211 361.568 341.148 363.11 341.953Z" fill="#7CB8C0"/>
<path d="M446.369 126.664C441.226 122.68 435.278 119.433 428.729 118.67C422.931 118.001 417.283 119.515 412.74 123.199C403.805 130.443 401.581 143.007 405.947 153.362C410.749 164.78 422.072 174.003 434.745 174.207C446.723 174.398 457.842 166.199 460.952 154.576C464.213 142.38 456.491 128.833 444.172 125.736C441.853 125.15 440.966 128.765 443.286 129.351C452.494 131.671 458.906 141.234 457.924 150.62C456.887 160.565 448.401 168.819 438.634 170.251C427.406 171.888 416.751 165.026 411.185 155.558C406.26 147.196 405.919 136.459 412.372 128.778C415.905 124.59 420.817 122.135 426.342 122.217C432.74 122.326 438.838 125.504 443.79 129.351C445.673 130.798 448.265 128.137 446.382 126.678L446.369 126.664Z" fill="#7CB8C0"/>
<path d="M455.25 121.671C456.178 122.189 457.119 122.721 458.047 123.24C458.701 123.608 459.534 123.513 460.107 123.062C460.366 122.858 460.543 122.612 460.666 122.298C460.802 121.944 460.884 121.466 460.734 121.098C460.434 120.348 460.066 119.747 459.561 119.12C459.152 118.629 458.647 118.233 458.115 117.865C457.051 117.155 455.727 116.787 454.459 116.814C453.49 116.828 452.576 117.742 452.658 118.724C452.74 119.706 453.531 120.552 454.568 120.525C454.759 120.525 454.95 120.525 455.141 120.552L454.65 120.498C455.059 120.552 455.441 120.648 455.823 120.784L455.359 120.607C455.755 120.77 456.137 120.975 456.478 121.234L456.096 120.948C456.423 121.193 456.71 121.466 456.969 121.794L456.669 121.425C456.914 121.725 457.105 122.053 457.269 122.394L457.078 121.957C457.078 121.957 457.132 122.094 457.16 122.162L459.847 120.006C458.92 119.488 457.978 118.956 457.051 118.438C456.205 117.96 454.963 118.26 454.513 119.161C454.063 120.061 454.322 121.18 455.236 121.698L455.25 121.671Z" fill="#7CB8C0"/>
<path d="M476.218 139.365L477.364 139.856C477.678 139.992 477.978 140.102 478.319 140.088L478.796 140.006C479.028 139.938 479.247 139.829 479.424 139.665C479.56 139.583 479.67 139.46 479.751 139.324C479.874 139.201 479.942 139.065 479.983 138.901C480.065 138.751 480.106 138.587 480.106 138.424C480.161 138.178 480.133 137.932 480.051 137.7C479.983 137.441 479.861 137.209 479.751 136.964C479.71 136.855 479.656 136.759 479.588 136.664C479.451 136.445 479.274 136.241 479.097 136.036C479.015 135.941 478.933 135.859 478.837 135.777C478.551 135.531 478.237 135.286 477.896 135.122C477.555 134.958 477.173 134.795 476.777 134.74C476.45 134.658 476.123 134.672 475.809 134.767C475.577 134.836 475.359 134.945 475.181 135.108C474.977 135.245 474.827 135.422 474.704 135.64C474.54 135.941 474.458 136.254 474.472 136.595C474.526 137.073 474.595 137.578 474.772 138.028C474.949 138.478 475.154 138.928 475.44 139.324C476.013 140.102 476.736 140.811 477.65 141.207L478.114 141.384C478.36 141.452 478.605 141.466 478.851 141.398C479.015 141.398 479.165 141.343 479.301 141.261C479.533 141.179 479.724 141.056 479.888 140.865C480.106 140.62 480.27 140.333 480.352 140.02C480.488 139.556 480.352 139.01 480.133 138.614C479.806 138.042 479.479 137.469 479.151 136.896C478.919 136.486 478.455 136.159 478.005 136.05C477.555 135.941 476.982 136.009 476.6 136.268C476.218 136.527 475.85 136.936 475.754 137.414C475.659 137.891 475.713 138.383 475.972 138.819C476.3 139.392 476.627 139.965 476.955 140.538L479.451 137.946C479.192 137.837 478.946 137.7 478.728 137.523L479.11 137.81C478.851 137.619 478.619 137.387 478.414 137.141L478.715 137.509C478.51 137.25 478.333 136.964 478.196 136.65L478.387 137.087C478.264 136.8 478.182 136.514 478.128 136.2L478.21 136.677C478.21 136.609 478.196 136.541 478.183 136.473C477.419 137.087 476.655 137.714 475.877 138.328C476.041 138.355 476.204 138.396 476.368 138.464L475.904 138.287C476.109 138.369 476.286 138.478 476.464 138.601L476.082 138.314C476.259 138.451 476.409 138.587 476.532 138.765L476.232 138.396C476.354 138.56 476.45 138.724 476.532 138.901L476.341 138.464C476.382 138.56 476.409 138.655 476.436 138.751C477.337 138.028 478.223 137.318 479.124 136.595L477.978 136.104C477.76 135.968 477.514 135.9 477.268 135.9C477.023 135.845 476.777 135.872 476.545 135.954C476.123 136.077 475.659 136.418 475.454 136.827C475.236 137.264 475.127 137.782 475.29 138.26C475.44 138.696 475.727 139.174 476.163 139.351L476.218 139.365Z" fill="#7CB8C0"/>
<path d="M435.127 111.071C435.332 111.576 435.591 111.998 436.069 112.271C436.396 112.462 436.819 112.571 437.201 112.53C437.938 112.462 438.688 112.067 439.043 111.385C439.411 110.662 439.398 109.761 438.92 109.093C438.552 108.574 438.074 108.26 437.488 108.029C435.851 107.387 434.145 107.06 432.399 107.033C431.662 107.033 430.994 107.565 430.735 108.22C430.462 108.929 430.639 109.679 431.158 110.225C432.754 111.889 434.977 113.049 437.269 113.322C437.597 113.404 437.924 113.39 438.238 113.294C438.552 113.199 438.825 113.035 439.043 112.803C439.52 112.299 439.643 111.644 439.493 110.975C439.207 109.72 438.333 108.697 437.269 108.015C436.205 107.333 434.841 107.142 433.572 107.401C433.19 107.483 432.849 107.783 432.617 108.083C432.372 108.411 432.208 108.82 432.235 109.243C432.331 110.525 433.067 111.835 434.295 112.367C434.773 112.571 435.223 112.681 435.728 112.53C436.151 112.408 436.614 112.067 436.819 111.657C437.037 111.221 437.147 110.702 436.983 110.225C436.833 109.788 436.546 109.325 436.11 109.134C435.987 109.079 435.878 109.011 435.755 108.943L436.137 109.229C436.001 109.134 435.891 109.024 435.782 108.902L436.082 109.27C435.987 109.147 435.905 109.011 435.837 108.861L436.028 109.297C435.96 109.147 435.919 108.997 435.891 108.833L435.973 109.311C435.973 109.311 435.973 109.202 435.96 109.147L434.636 110.989C434.636 110.989 434.732 110.975 434.786 110.962L434.309 111.043C434.554 111.003 434.8 111.003 435.059 111.03L434.568 110.975C434.841 111.016 435.114 111.084 435.359 111.18L434.896 111.003C435.182 111.112 435.441 111.262 435.687 111.453L435.305 111.166C435.523 111.344 435.714 111.535 435.891 111.739L435.591 111.371C435.741 111.576 435.878 111.78 435.973 112.012L435.782 111.576C435.851 111.739 435.905 111.903 435.946 112.08L438.17 109.747C437.433 109.666 436.71 109.488 436.014 109.215L436.478 109.393C435.755 109.106 435.073 108.724 434.445 108.26L434.827 108.547C434.445 108.26 434.077 107.933 433.75 107.578L432.508 110.771C432.904 110.771 433.313 110.798 433.709 110.839L433.218 110.784C434.309 110.907 435.359 111.166 436.383 111.562L435.919 111.385C436.069 111.439 436.192 111.507 436.328 111.603L435.946 111.316C435.946 111.316 436.014 111.385 436.055 111.412L435.755 111.043C435.755 111.043 435.81 111.112 435.837 111.166L435.646 110.73C435.646 110.73 435.687 110.825 435.687 110.866L435.605 110.389V110.443C435.619 110.28 435.646 110.116 435.66 109.952V110.007C435.714 109.857 435.769 109.693 435.837 109.543C435.837 109.584 435.81 109.611 435.782 109.638L436.069 109.256C436.069 109.256 436.014 109.311 435.987 109.338L436.355 109.038L436.301 109.065L436.737 108.874C436.737 108.874 436.669 108.902 436.628 108.915L437.106 108.833C437.106 108.833 437.037 108.833 437.01 108.833L437.501 108.888H437.46C437.61 108.929 437.774 108.997 437.924 109.052L437.883 109.024L438.265 109.311L438.238 109.27L438.729 110.075L438.702 110.02C438.511 109.556 438.279 109.174 437.829 108.929C437.419 108.711 436.833 108.615 436.396 108.765C435.96 108.915 435.523 109.202 435.305 109.638C435.087 110.075 434.964 110.621 435.141 111.071H435.127Z" fill="#7CB8C0"/>
<path d="M412.713 106.46C414.05 107.319 415.974 107.278 417.27 106.364C417.815 105.969 418.184 105.423 418.17 104.713C418.156 104.072 417.788 103.445 417.215 103.145C416.26 102.626 415.21 102.367 414.132 102.34C413.054 102.312 412.031 102.613 411.062 103.063C410.68 103.24 410.298 103.799 410.217 104.209C410.121 104.7 410.176 105.177 410.435 105.614C411.267 107.005 412.645 107.974 414.187 108.438C415.728 108.902 417.392 108.697 418.852 107.988C419.889 107.483 420.053 105.778 419.18 105.054C417.038 103.267 414.214 102.312 411.417 102.667C410.926 102.735 410.489 102.858 410.135 103.24C409.807 103.567 409.575 104.113 409.616 104.591C409.685 105.518 410.503 106.528 411.526 106.391C412.167 106.31 412.795 106.296 413.436 106.364L412.945 106.31C413.695 106.391 414.432 106.569 415.128 106.828L414.664 106.651C415.073 106.814 415.455 106.992 415.837 107.21C416.015 107.319 416.192 107.428 416.356 107.537L416.451 107.606C416.615 107.715 416.574 107.687 416.342 107.524C416.397 107.606 416.533 107.674 416.601 107.742C416.71 106.76 416.82 105.791 416.929 104.809C416.629 104.959 417.338 104.659 417.038 104.768C416.956 104.795 416.874 104.836 416.779 104.863C416.683 104.891 416.601 104.918 416.519 104.932C416.451 104.945 416.042 105.027 416.41 104.959C416.779 104.891 416.41 104.959 416.342 104.959C416.247 104.959 416.165 104.959 416.069 104.973C415.878 104.973 415.674 104.973 415.483 104.945L415.974 105C415.523 104.945 415.087 104.836 414.65 104.673L415.114 104.85C414.896 104.754 414.678 104.659 414.459 104.536C414.378 104.495 414.309 104.441 414.227 104.386C413.955 104.209 414.623 104.713 414.255 104.4C414.091 104.263 413.941 104.113 413.805 103.963C413.491 103.608 413.996 104.25 413.818 103.977C413.75 103.881 413.682 103.772 413.627 103.677L413 106.228C412.468 106.473 413.095 106.2 413.259 106.16C413.341 106.132 413.423 106.119 413.518 106.091C413.927 105.996 413.273 106.105 413.464 106.091C413.873 106.05 414.268 106.037 414.678 106.091L414.187 106.037C414.569 106.091 414.951 106.173 415.319 106.31L414.855 106.132C415.06 106.214 415.251 106.296 415.428 106.405L415.373 103.185C415.278 103.254 415.142 103.308 415.046 103.39C415.332 103.267 415.401 103.24 415.223 103.308C415.169 103.336 415.101 103.349 415.046 103.363C414.855 103.404 414.923 103.404 415.237 103.336C415.169 103.336 415.114 103.349 415.046 103.349C414.923 103.349 414.787 103.349 414.664 103.349L415.155 103.404C414.937 103.376 414.719 103.336 414.514 103.254L414.978 103.431C414.828 103.363 414.691 103.295 414.555 103.213C413.736 102.681 412.454 103.076 412.017 103.936C411.54 104.891 411.854 105.9 412.74 106.473L412.713 106.46Z" fill="#7CB8C0"/>
<path d="M374.897 154.521C393.409 168.559 413.75 180.101 435.359 188.654C441.471 191.083 447.678 193.279 453.954 195.23C456.246 195.939 457.119 192.324 454.841 191.615C433.163 184.862 412.427 175.176 393.327 162.898C387.911 159.419 382.618 155.722 377.489 151.834C375.606 150.401 373 153.062 374.897 154.508V154.521Z" fill="#7CB8C0"/>
<path d="M372.168 151.384C374.487 151.957 375.388 148.341 373.055 147.768C370.736 147.196 369.835 150.811 372.168 151.384Z" fill="#7CB8C0"/>
<path d="M372.837 152.843C373.969 153.771 375.088 154.712 376.22 155.64C376.616 155.967 377.052 156.172 377.571 156.158C378.021 156.158 378.553 155.927 378.853 155.586C379.18 155.217 379.412 154.74 379.371 154.235C379.344 153.771 379.18 153.253 378.798 152.953L375.415 150.156C375.019 149.828 374.583 149.624 374.064 149.637C373.614 149.637 373.082 149.869 372.782 150.21C372.455 150.579 372.223 151.056 372.264 151.561C372.291 152.025 372.455 152.543 372.837 152.843Z" fill="#7CB8C0"/>
<path d="M324.925 186.963C333.233 184.876 342.728 183.607 350.75 187.413C354.788 189.337 358.13 192.406 361.841 194.848C365.443 197.222 369.276 199.214 373.219 200.946C389.016 207.876 406.369 210.619 421.894 218.245C426.369 220.441 430.434 223.183 434.582 225.925C438.715 228.654 443.067 231.137 447.992 232.037C450.339 232.46 451.239 228.845 448.879 228.422C444.254 227.59 440.271 225.229 436.396 222.678C432.713 220.25 429.084 217.767 425.155 215.734C417.433 211.751 409.125 209.022 400.831 206.471C392.318 203.866 383.71 201.451 375.524 197.918C371.568 196.212 367.721 194.248 364.106 191.901C360.368 189.487 357.039 186.417 353.042 184.412C343.956 179.855 333.37 181.015 323.861 183.416C321.542 184.002 322.592 187.563 324.925 186.976V186.963Z" fill="#7CB8C0"/>
<path d="M323.765 184.098C321.856 184.712 320.519 186.117 320.041 188.081C319.796 189.091 320.437 190.046 321.405 190.332C325.771 191.615 330.164 192.979 334.079 195.366C338.254 197.904 340.641 201.41 342.073 206.035C343.519 210.728 344.979 215.093 348.785 218.449C352.291 221.546 356.698 223.429 361.159 224.697C366.561 226.239 372.196 226.867 377.543 228.626C382.782 230.345 386.766 233.77 391.308 236.716C393.587 238.19 396.042 239.404 398.689 240.045C401.486 240.727 404.378 240.863 407.229 241.136C413.109 241.709 418.388 244.069 423.913 245.952C428.961 247.685 434.172 248.612 439.425 247.221C443.981 246.007 447.801 243.101 449.343 238.572C450.12 236.307 446.491 235.434 445.727 237.685C444.472 241.368 440.734 243.265 437.133 243.933C432.413 244.806 427.815 243.442 423.409 241.846C418.211 239.977 413.245 238.04 407.706 237.467C404.896 237.18 402.045 237.057 399.303 236.348C396.806 235.693 394.583 234.438 392.454 233.006C388.048 230.032 384.064 226.935 378.962 225.188C373.86 223.442 368.58 222.774 363.41 221.451C359.126 220.359 354.733 218.736 351.377 215.762C347.626 212.447 346.739 208.04 345.184 203.511C343.519 198.654 340.45 194.93 336.098 192.229C331.883 189.609 327.04 188.109 322.306 186.717C322.756 187.468 323.22 188.218 323.67 188.968C323.834 188.286 324.175 187.89 324.843 187.672C327.121 186.936 326.071 183.361 323.779 184.112L323.765 184.098Z" fill="#7CB8C0"/>
<path d="M427.256 234.138C429.575 234.711 430.475 231.096 428.143 230.523C425.81 229.95 424.923 233.565 427.256 234.138Z" fill="#7CB8C0"/>
<path d="M435.127 237.071C437.447 237.644 438.347 234.029 436.014 233.456C433.681 232.883 432.795 236.498 435.127 237.071Z" fill="#7CB8C0"/>
<path d="M392.918 227.753C395.237 228.326 396.138 224.711 393.805 224.138C391.486 223.565 390.585 227.18 392.918 227.753Z" fill="#7CB8C0"/>
<path d="M389.412 217.29C391.731 217.863 392.632 214.247 390.299 213.674C387.966 213.101 387.079 216.717 389.412 217.29Z" fill="#7CB8C0"/>
<path d="M370.941 216.307C373.26 216.88 374.16 213.265 371.827 212.692C369.508 212.119 368.608 215.734 370.941 216.307Z" fill="#7CB8C0"/>
<path d="M397.284 298.775C393.177 306.619 388.866 314.395 384.951 322.335C384.214 323.822 383.764 325.446 384.801 326.905C385.838 328.365 387.816 328.392 389.467 328.515C393.941 328.87 398.402 329.211 402.877 329.566C405.264 329.757 405.142 326.032 402.768 325.841C399.139 325.555 395.51 325.268 391.868 324.982C391.036 324.914 390.19 324.845 389.358 324.791C388.948 324.764 388.362 324.791 387.966 324.654C387.489 324.491 387.952 324.695 387.939 324.75C388.075 324.027 388.662 323.263 389.003 322.622L390.313 320.112C393.723 313.591 397.134 307.083 400.544 300.562C401.649 298.448 398.402 296.62 397.297 298.748L397.284 298.775Z" fill="#7CB8C0"/>
<path d="M318.063 231.901C308.65 242.337 299.237 252.787 289.823 263.223C288.214 264.997 290.888 267.589 292.497 265.815C301.91 255.379 311.324 244.929 320.737 234.493C322.347 232.719 319.673 230.127 318.063 231.901Z" fill="#7CB8C0"/>
<path d="M465.372 94.8228C467.692 95.3958 468.592 91.7806 466.259 91.2076C463.926 90.6346 463.04 94.2498 465.372 94.8228Z" fill="#7CB8C0"/>
<path d="M484.813 100.089C487.132 100.662 488.032 97.0465 485.699 96.4735C483.367 95.9005 482.48 99.5157 484.813 100.089Z" fill="#7CB8C0"/>
<path d="M483.899 60.417C486.218 60.9899 487.118 57.3747 484.785 56.8018C482.453 56.2288 481.566 59.844 483.899 60.417Z" fill="#7CB8C0"/>
<path d="M450.775 80.13C453.094 80.703 453.995 77.0878 451.662 76.5148C449.329 75.9419 448.442 79.5571 450.775 80.13Z" fill="#7CB8C0"/>
<path d="M463.244 72.5586C465.563 73.1315 466.464 69.5163 464.131 68.9434C461.798 68.3704 460.911 71.9856 463.244 72.5586Z" fill="#7CB8C0"/>
<path d="M451.553 93.4585C453.872 94.0315 454.772 90.4163 452.44 89.8433C450.107 89.2703 449.22 92.8855 451.553 93.4585Z" fill="#7CB8C0"/>
<path d="M425.537 82.0399C427.856 82.6129 428.757 78.9977 426.424 78.4247C424.091 77.8518 423.204 81.467 425.537 82.0399Z" fill="#7CB8C0"/>
<path d="M438.634 59.4619C440.953 60.0349 441.853 56.4197 439.52 55.8467C437.187 55.2738 436.301 58.889 438.634 59.4619Z" fill="#7CB8C0"/>
<path d="M459.097 54.3598C461.416 54.9327 462.317 51.3175 459.984 50.7446C457.651 50.1716 456.764 53.7868 459.097 54.3598Z" fill="#7CB8C0"/>
<path d="M486.395 81.2487C488.714 81.8217 489.615 78.2065 487.282 77.6335C484.949 77.0605 484.062 80.6757 486.395 81.2487Z" fill="#7CB8C0"/>
<path d="M503.298 55.5603C505.617 56.1332 506.518 52.518 504.185 51.9451C501.852 51.3721 500.965 54.9873 503.298 55.5603Z" fill="#7CB8C0"/>
<path d="M479.642 40.6765C481.961 41.2495 482.862 37.6343 480.529 37.0613C478.196 36.4884 477.309 40.1036 479.642 40.6765Z" fill="#7CB8C0"/>
<path d="M430.08 144.372C428.838 144.303 427.856 145.327 427.542 146.445C427.174 147.714 427.788 149.024 428.797 149.815C429.425 150.292 430.134 150.633 430.912 150.797C431.69 150.961 431.99 149.76 431.212 149.597C430.598 149.46 430.012 149.215 429.561 148.846C429.289 148.614 429.125 148.437 428.948 148.15C428.852 148 428.825 147.932 428.784 147.809C428.757 147.728 428.729 147.646 428.702 147.564C428.702 147.523 428.688 147.496 428.675 147.455C428.675 147.509 428.675 147.523 428.675 147.468C428.634 146.964 428.743 146.541 429.029 146.159C428.988 146.213 429.111 146.063 429.125 146.05C429.179 145.995 429.234 145.94 429.289 145.9C429.384 145.804 429.234 145.927 429.343 145.859C429.398 145.818 429.466 145.777 429.534 145.749C429.561 145.736 429.602 145.722 429.63 145.695C429.575 145.722 429.561 145.722 429.63 145.695C429.684 145.681 429.739 145.668 429.78 145.654C429.848 145.64 429.848 145.64 429.78 145.654C429.821 145.654 429.848 145.654 429.889 145.654C429.957 145.654 430.039 145.654 430.107 145.654C430.448 145.668 430.721 145.327 430.707 145.013C430.707 144.658 430.407 144.426 430.066 144.413L430.08 144.372Z" fill="#7CB8C0"/>
<path d="M439.111 143.062C438.797 143.376 438.77 143.867 439.002 144.235C439.111 144.399 439.247 144.522 439.411 144.631C439.575 144.74 439.766 144.781 439.957 144.795C439.97 144.795 439.998 144.795 440.011 144.795C440.08 144.795 440.161 144.781 440.23 144.754C440.38 144.713 440.475 144.644 440.598 144.535C440.721 144.426 440.775 144.29 440.816 144.14C440.844 144.044 440.857 143.921 440.857 143.826C440.857 143.73 440.844 143.621 440.816 143.526C440.789 143.43 440.748 143.321 440.707 143.239C440.639 143.089 440.53 142.966 440.421 142.857C440.257 142.707 440.052 142.598 439.834 142.53C439.807 142.53 439.779 142.516 439.739 142.516C439.657 142.516 439.575 142.489 439.493 142.489C439.411 142.489 439.329 142.503 439.261 142.516C439.234 142.516 439.193 142.53 439.166 142.544C439.015 142.598 438.879 142.694 438.797 142.83C438.715 142.966 438.688 143.157 438.743 143.307C438.797 143.458 438.893 143.594 439.029 143.676C439.166 143.758 439.343 143.785 439.507 143.73C439.534 143.73 439.575 143.717 439.602 143.703L439.438 143.73C439.438 143.73 439.534 143.73 439.588 143.73H439.425C439.425 143.73 439.534 143.73 439.588 143.758L439.438 143.703C439.438 143.703 439.561 143.758 439.616 143.799L439.493 143.703C439.493 143.703 439.602 143.799 439.643 143.853L439.548 143.73C439.548 143.73 439.629 143.853 439.657 143.908L439.588 143.758C439.588 143.758 439.629 143.867 439.643 143.921L439.616 143.758C439.616 143.758 439.616 143.867 439.616 143.921V143.758C439.616 143.758 439.616 143.853 439.602 143.908L439.657 143.758C439.657 143.758 439.657 143.785 439.643 143.799L439.739 143.676C439.739 143.676 439.711 143.703 439.698 143.717L439.82 143.621C439.82 143.621 439.779 143.649 439.766 143.662L439.916 143.594C439.916 143.594 439.875 143.608 439.848 143.621L440.011 143.594C440.011 143.594 439.957 143.594 439.916 143.594H440.08C440.08 143.594 440.011 143.594 439.984 143.594L440.134 143.649C440.134 143.649 440.039 143.608 439.998 143.58L440.12 143.676C440.12 143.676 440.039 143.608 440.011 143.567L440.107 143.689C440.107 143.689 440.052 143.608 440.039 143.567L440.107 143.717C440.107 143.717 440.08 143.649 440.08 143.621L440.107 143.785C440.107 143.785 440.107 143.73 440.107 143.703V143.867C440.107 143.867 440.107 143.812 440.107 143.799L440.052 143.949C440.052 143.949 440.08 143.908 440.093 143.88L439.998 144.003C439.998 144.003 440.025 143.976 440.039 143.962C440.148 143.853 440.216 143.676 440.216 143.512C440.216 143.362 440.134 143.185 440.025 143.089C439.902 142.98 439.739 142.898 439.575 142.912C439.411 142.926 439.261 142.98 439.152 143.103L439.111 143.062Z" fill="#7CB8C0"/>
<path d="M424.009 133.703C422.918 133.908 422.317 135.286 422.672 136.282C422.877 136.855 423.368 137.332 423.995 137.414C424.65 137.51 425.291 137.291 425.769 136.841C426.246 136.391 426.451 135.695 426.26 135.068C426.069 134.44 425.551 133.963 424.923 133.758C424.296 133.553 423.641 133.744 423.19 134.194C422.74 134.645 422.563 135.327 422.686 135.941C422.754 136.268 422.931 136.595 423.19 136.8C423.504 137.059 423.845 137.182 424.241 137.223C424.909 137.291 425.619 136.95 425.933 136.35C426.083 136.063 426.001 135.654 425.687 135.504C425.373 135.354 425.005 135.436 424.841 135.75C424.814 135.791 424.787 135.832 424.773 135.872C424.868 135.695 424.814 135.818 424.773 135.872C424.773 135.872 424.746 135.9 424.732 135.913C424.65 135.995 424.868 135.818 424.773 135.886C424.732 135.913 424.691 135.941 424.65 135.968C424.609 135.995 424.541 135.995 424.705 135.941C424.691 135.941 424.677 135.954 424.65 135.954C424.609 135.968 424.568 135.982 424.514 135.995C424.486 135.995 424.473 135.995 424.446 136.009C424.377 136.036 424.609 135.995 424.514 136.009C424.459 136.009 424.418 136.009 424.364 136.009C424.323 136.009 424.282 136.009 424.241 136.009C424.459 136.009 424.309 136.009 424.241 136.009C424.2 136.009 424.159 135.982 424.105 135.968C423.995 135.941 424.241 136.036 424.173 135.995C424.145 135.982 424.118 135.968 424.091 135.954C424.064 135.941 423.941 135.859 424.036 135.927C424.132 135.995 424.023 135.913 423.995 135.886L423.941 135.832C423.941 135.832 424.036 135.968 423.982 135.886C423.954 135.845 423.927 135.791 423.9 135.736C423.982 135.872 423.941 135.845 423.927 135.804C423.927 135.777 423.914 135.75 423.9 135.722C423.9 135.695 423.859 135.545 423.886 135.668C423.914 135.791 423.886 135.641 423.886 135.613C423.886 135.559 423.886 135.504 423.886 135.45C423.886 135.668 423.886 135.518 423.886 135.45C423.886 135.409 423.914 135.354 423.927 135.313C423.941 135.272 423.982 135.218 423.9 135.381C423.9 135.354 423.914 135.34 423.927 135.313C423.954 135.272 423.968 135.218 423.995 135.177C423.995 135.163 424.023 135.136 424.036 135.122C424.077 135.054 423.927 135.259 423.995 135.177C424.023 135.136 424.05 135.108 424.091 135.068C424.091 135.068 424.118 135.04 424.132 135.027C424.214 134.958 424.023 135.108 424.091 135.068C424.132 135.04 424.173 135.013 424.227 134.986C424.282 134.958 424.336 134.972 424.186 134.999C424.2 134.999 424.227 134.986 424.241 134.986C424.282 134.972 424.336 134.958 424.377 134.945C424.227 134.986 424.255 134.958 424.309 134.945C424.336 134.945 424.364 134.945 424.391 134.945C424.405 134.945 424.432 134.945 424.446 134.945C424.582 134.945 424.418 134.931 424.391 134.945C424.418 134.945 424.5 134.958 424.527 134.972C424.568 134.972 424.623 134.999 424.664 135.013C424.609 134.999 424.459 134.958 424.664 135.013C424.718 135.04 424.759 135.068 424.8 135.095C424.868 135.136 424.664 134.986 424.759 135.054C424.773 135.054 424.787 135.081 424.8 135.095C424.841 135.122 424.868 135.163 424.909 135.204C424.923 135.218 424.937 135.245 424.964 135.259C425.019 135.313 424.868 135.122 424.923 135.218C424.95 135.259 424.978 135.313 425.005 135.354C425.005 135.381 425.032 135.395 425.032 135.422C424.95 135.286 424.991 135.313 425.005 135.368C425.005 135.409 425.032 135.45 425.046 135.49C425.059 135.545 425.046 135.613 425.046 135.45C425.046 135.463 425.046 135.49 425.046 135.504C425.046 135.545 425.059 135.654 425.046 135.681C425.046 135.681 425.073 135.504 425.046 135.6C425.046 135.627 425.046 135.641 425.032 135.668C425.019 135.695 425.032 135.709 425.019 135.736C424.991 135.832 425.046 135.654 425.046 135.668C425.046 135.695 424.991 135.777 424.978 135.791C424.964 135.818 424.95 135.845 424.937 135.859C424.909 135.913 424.841 135.954 424.964 135.818C424.896 135.886 424.841 135.954 424.773 136.022C424.718 136.077 424.909 135.927 424.814 135.982C424.8 135.982 424.787 136.009 424.759 136.022C424.705 136.05 424.664 136.091 424.609 136.118C424.596 136.118 424.568 136.132 424.555 136.145C424.446 136.2 424.705 136.091 424.596 136.132C424.555 136.145 424.5 136.159 424.459 136.173C424.418 136.173 424.377 136.186 424.336 136.2C424.255 136.227 424.5 136.186 424.391 136.2C424.364 136.2 424.336 136.2 424.309 136.2C424.255 136.2 424.214 136.2 424.159 136.2C424.064 136.2 424.241 136.2 424.241 136.2C424.241 136.2 424.173 136.2 424.159 136.186C424.118 136.186 424.077 136.159 424.036 136.159C423.954 136.145 424.2 136.227 424.091 136.186C424.064 136.186 424.036 136.159 424.009 136.145C423.982 136.132 423.954 136.118 423.927 136.104C423.886 136.077 423.873 136.036 423.982 136.145C423.954 136.118 423.914 136.091 423.886 136.063C423.886 136.063 423.859 136.036 423.845 136.022C423.777 135.941 423.941 136.159 423.886 136.063C423.859 136.022 423.845 135.995 423.818 135.954C423.818 135.954 423.791 135.9 423.777 135.886C423.791 135.886 423.845 136.05 423.804 135.941C423.791 135.9 423.777 135.845 423.763 135.791C423.763 135.777 423.763 135.763 423.763 135.736C423.736 135.641 423.777 135.9 423.763 135.791C423.763 135.736 423.763 135.695 423.763 135.641C423.763 135.6 423.763 135.545 423.763 135.504C423.763 135.422 423.736 135.681 423.763 135.586C423.763 135.559 423.763 135.531 423.763 135.504C423.763 135.45 423.791 135.409 423.804 135.354C423.804 135.313 423.873 135.163 423.818 135.286C423.763 135.409 423.832 135.259 423.845 135.218C423.873 135.177 423.9 135.122 423.927 135.081C424.009 134.958 423.832 135.19 423.927 135.081C423.954 135.04 423.995 134.999 424.036 134.972C424.036 134.972 424.064 134.945 424.077 134.945C424.159 134.877 423.941 135.04 424.036 134.972C424.077 134.945 424.118 134.917 424.159 134.904C424.214 134.877 424.282 134.863 424.105 134.931C424.132 134.931 424.145 134.917 424.173 134.904C424.227 134.89 424.268 134.877 424.323 134.863C424.473 134.836 424.623 134.699 424.691 134.576C424.759 134.44 424.8 134.249 424.746 134.099C424.623 133.758 424.323 133.621 423.968 133.676L424.009 133.703Z" fill="#7CB8C0"/>
<path d="M441.035 144.754C441.13 144.29 440.98 143.826 440.653 143.498C440.352 143.198 439.943 143.035 439.534 143.007C439.056 142.98 438.62 143.226 438.361 143.608C438.101 143.99 438.074 144.494 438.211 144.917C438.347 145.34 438.647 145.749 439.07 145.927C439.302 146.022 439.548 146.077 439.807 146.05C440.052 146.022 440.271 145.954 440.475 145.818C441.212 145.327 441.58 144.235 441.035 143.458C440.407 142.571 439.07 142.434 438.279 143.185C438.047 143.403 438.047 143.853 438.292 144.058C438.552 144.29 438.92 144.276 439.166 144.044C439.193 144.017 439.207 144.003 439.234 143.99L439.111 144.085C439.179 144.03 439.261 143.976 439.343 143.949L439.193 144.017C439.288 143.976 439.384 143.949 439.479 143.935L439.316 143.962C439.438 143.949 439.561 143.935 439.684 143.962H439.52C439.629 143.962 439.752 143.99 439.848 144.03L439.698 143.976C439.793 144.017 439.889 144.071 439.97 144.126L439.848 144.03C439.916 144.085 439.984 144.153 440.039 144.221L439.943 144.099C439.943 144.099 440.025 144.221 440.066 144.29L439.998 144.14C440.025 144.208 440.052 144.29 440.066 144.372L440.039 144.208C440.039 144.29 440.052 144.372 440.039 144.467V144.303C440.039 144.399 440.025 144.508 439.984 144.603L440.039 144.453C439.998 144.549 439.943 144.644 439.889 144.74L439.984 144.617C439.93 144.699 439.861 144.767 439.779 144.835L439.902 144.74C439.834 144.794 439.752 144.849 439.67 144.89L439.82 144.822C439.752 144.849 439.67 144.876 439.602 144.89L439.766 144.863C439.698 144.863 439.616 144.863 439.548 144.863H439.711C439.711 144.863 439.575 144.863 439.52 144.835L439.67 144.89C439.602 144.863 439.534 144.822 439.479 144.781L439.602 144.876C439.534 144.822 439.466 144.754 439.411 144.685L439.507 144.808C439.452 144.74 439.411 144.658 439.37 144.576L439.438 144.726C439.398 144.631 439.37 144.535 439.357 144.44L439.384 144.603C439.37 144.508 439.37 144.426 439.384 144.331V144.494C439.384 144.412 439.384 144.331 439.425 144.262L439.37 144.412C439.37 144.412 439.425 144.29 439.466 144.235L439.37 144.358C439.37 144.358 439.452 144.276 439.493 144.235L439.37 144.331C439.37 144.331 439.479 144.262 439.534 144.235L439.384 144.303C439.384 144.303 439.507 144.262 439.561 144.249L439.398 144.276C439.479 144.276 439.548 144.276 439.629 144.276H439.466C439.561 144.276 439.643 144.29 439.725 144.331L439.575 144.276C439.67 144.317 439.752 144.358 439.834 144.412L439.711 144.317C439.711 144.317 439.834 144.426 439.889 144.494L439.793 144.372C439.793 144.372 439.875 144.481 439.902 144.549L439.834 144.399C439.834 144.399 439.875 144.508 439.889 144.576L439.861 144.412C439.861 144.412 439.861 144.522 439.861 144.576V144.412C439.861 144.412 439.861 144.467 439.861 144.494C439.793 144.808 439.984 145.176 440.312 145.245C440.625 145.313 440.994 145.136 441.062 144.794L441.035 144.754Z" fill="#7CB8C0"/>
<path d="M423.504 129.761C426.424 129.065 429.561 130.102 431.54 132.339C432.072 132.939 432.931 132.039 432.399 131.452C430.121 128.888 426.465 127.783 423.15 128.574C422.372 128.765 422.727 129.952 423.504 129.761Z" fill="#7CB8C0"/>
<path d="M441.116 138.096C443.968 138.492 446.587 140.361 447.76 143.007C447.897 143.321 448.183 143.526 448.538 143.43C448.824 143.348 449.097 142.966 448.961 142.653C447.61 139.61 444.745 137.346 441.417 136.882C441.089 136.841 440.748 136.991 440.666 137.332C440.598 137.632 440.789 138.042 441.116 138.082V138.096Z" fill="#7CB8C0"/>
<path d="M424.009 135.681C424.787 135.872 425.087 134.672 424.309 134.481C423.532 134.29 423.231 135.49 424.009 135.681Z" fill="#7CB8C0"/>
<path d="M424.282 136.145C425.059 136.336 425.36 135.136 424.582 134.945C423.804 134.754 423.504 135.954 424.282 136.145Z" fill="#7CB8C0"/>
<path d="M418.852 151.575C419.807 154.59 422.045 157.141 424.978 158.355C428.047 159.624 431.58 159.351 434.459 157.727C435.155 157.332 434.514 156.281 433.818 156.663C431.267 158.096 428.074 158.355 425.373 157.182C422.822 156.077 420.871 153.867 420.039 151.22C419.794 150.456 418.607 150.811 418.852 151.575Z" fill="#7CB8C0"/>
<path d="M464.486 133.28C464.69 133.785 464.949 134.208 465.427 134.481C465.754 134.672 466.177 134.781 466.559 134.74C467.296 134.672 468.046 134.276 468.401 133.594C468.769 132.871 468.756 131.971 468.278 131.302C467.91 130.784 467.432 130.47 466.846 130.238C465.209 129.597 463.503 129.27 461.757 129.242C461.02 129.242 460.352 129.774 460.093 130.429C459.82 131.139 459.997 131.889 460.516 132.435C462.112 134.099 464.336 135.258 466.627 135.531C466.955 135.613 467.282 135.6 467.596 135.504C467.91 135.409 468.183 135.245 468.401 135.013C468.878 134.508 469.001 133.853 468.851 133.185C468.565 131.93 467.692 130.907 466.627 130.224C465.563 129.542 464.199 129.351 462.93 129.611C462.548 129.692 462.207 129.993 461.975 130.293C461.73 130.62 461.566 131.029 461.593 131.452C461.689 132.735 462.426 134.044 463.653 134.576C464.131 134.781 464.581 134.89 465.086 134.74C465.509 134.617 465.973 134.276 466.177 133.867C466.396 133.43 466.505 132.912 466.341 132.435C466.191 131.998 465.904 131.534 465.468 131.343C465.345 131.289 465.236 131.22 465.113 131.152L465.495 131.439C465.359 131.343 465.25 131.234 465.14 131.111L465.441 131.48C465.345 131.357 465.263 131.22 465.195 131.07L465.386 131.507C465.318 131.357 465.277 131.207 465.25 131.043L465.331 131.521C465.331 131.521 465.331 131.411 465.318 131.357L463.995 133.199C463.995 133.199 464.09 133.185 464.145 133.171L463.667 133.253C463.913 133.212 464.158 133.212 464.417 133.239L463.926 133.185C464.199 133.226 464.472 133.294 464.718 133.39L464.254 133.212C464.54 133.321 464.799 133.471 465.045 133.662L464.663 133.376C464.881 133.553 465.072 133.744 465.25 133.949L464.949 133.58C465.1 133.785 465.236 133.99 465.331 134.222L465.14 133.785C465.209 133.949 465.263 134.113 465.304 134.29C466.041 133.512 466.791 132.735 467.528 131.957C466.791 131.875 466.068 131.698 465.372 131.425L465.836 131.602C465.113 131.316 464.431 130.934 463.804 130.47L464.185 130.757C463.804 130.47 463.435 130.143 463.108 129.788C462.698 130.852 462.276 131.916 461.866 132.98C462.262 132.98 462.671 133.008 463.067 133.048L462.576 132.994C463.667 133.117 464.718 133.376 465.741 133.771L465.277 133.594C465.427 133.649 465.55 133.717 465.686 133.812L465.304 133.526C465.304 133.526 465.372 133.594 465.413 133.621L465.113 133.253C465.113 133.253 465.168 133.321 465.195 133.376L465.004 132.939C465.004 132.939 465.045 133.035 465.045 133.076L464.963 132.598V132.653C464.977 132.489 465.004 132.325 465.018 132.162V132.216C465.072 132.066 465.127 131.903 465.195 131.752C465.195 131.793 465.168 131.821 465.14 131.848L465.427 131.466C465.427 131.466 465.372 131.521 465.345 131.548L465.713 131.248L465.659 131.275L466.095 131.084C466.095 131.084 466.027 131.111 465.986 131.125L466.464 131.043C466.464 131.043 466.396 131.043 466.368 131.043L466.859 131.098H466.818C466.969 131.139 467.132 131.207 467.282 131.261L467.241 131.234L467.623 131.521L467.596 131.48L468.087 132.284L468.06 132.23C467.869 131.766 467.637 131.384 467.187 131.139C466.778 130.92 466.191 130.825 465.754 130.975C465.318 131.125 464.881 131.411 464.663 131.848C464.445 132.284 464.322 132.83 464.499 133.28H464.486Z" fill="#7CB8C0"/>
</g>
<defs>
<clipPath id="clip0_101_942">
<rect width="506" height="382" fill="white"/>
</clipPath>
</defs>
</svg>
