<svg width="501" height="382" viewBox="0 0 501 382" fill="none" xmlns="http://www.w3.org/2000/svg">
<g clip-path="url(#clip0_101_941)">
<path d="M371.465 126.07C373.484 127.857 376.049 129.426 378.845 129.289C381.137 129.166 383.484 127.72 384.029 125.401C384.22 124.583 385.489 124.896 385.298 125.701C384.63 128.484 381.997 130.258 379.268 130.558C376.008 130.913 372.925 129.098 370.578 127.025C369.951 126.465 370.837 125.524 371.465 126.07Z" fill="#7CB8C0"/>
<path d="M376.635 119.003C377.14 118.962 377.659 118.88 378.109 118.648C378.532 118.43 378.777 118.171 378.654 117.707C378.545 117.339 378.327 116.984 378.15 116.643C377.945 116.261 377.754 115.865 377.549 115.483C377.126 114.665 376.704 113.846 376.281 113.041C376.117 112.727 376.172 112.345 376.485 112.141C376.758 111.964 377.222 112.032 377.386 112.346C377.877 113.3 378.382 114.255 378.873 115.224C379.118 115.688 379.364 116.152 379.596 116.616C379.828 117.079 380.032 117.53 379.991 118.048C379.896 119.685 378.027 120.19 376.676 120.313C375.844 120.381 375.803 119.085 376.635 119.017V119.003Z" fill="#7CB8C0"/>
<path d="M368.805 110.504C368.232 110.436 367.863 109.835 367.863 109.303C367.863 108.73 368.218 108.144 368.805 108.035C369.146 107.966 369.487 108.007 369.801 108.171C370.046 108.307 370.278 108.512 370.415 108.758C370.592 109.085 370.646 109.426 370.592 109.794C370.551 110.108 370.387 110.395 370.196 110.654C369.787 111.172 368.941 111.582 368.314 111.2C367.741 110.845 367.604 110.013 367.973 109.44C368.341 108.867 368.982 108.58 369.651 108.689C369.923 108.73 370.223 108.894 370.401 109.099C370.633 109.358 370.756 109.658 370.796 109.999C370.837 110.286 370.756 110.613 370.592 110.859C370.483 111.022 370.346 111.172 370.169 111.268C369.992 111.363 369.828 111.404 369.623 111.431C369.35 111.459 369.009 111.377 368.777 111.227C368.614 111.118 368.491 111.009 368.382 110.845C368.273 110.681 368.218 110.49 368.191 110.286C368.177 110.135 368.259 109.931 368.368 109.822C368.477 109.699 368.655 109.617 368.818 109.617C368.982 109.617 369.159 109.672 369.282 109.794C369.405 109.917 369.46 110.067 369.487 110.245V110.272C369.487 110.272 369.473 110.163 369.46 110.095C369.46 110.149 369.487 110.19 369.5 110.231L369.432 110.081C369.432 110.081 369.473 110.163 369.514 110.204L369.405 110.081C369.405 110.081 369.473 110.149 369.514 110.176L369.378 110.081C369.378 110.081 369.487 110.149 369.541 110.176L369.378 110.122C369.378 110.122 369.514 110.163 369.582 110.176H369.405C369.405 110.176 369.528 110.163 369.596 110.149L369.419 110.176C369.419 110.176 369.528 110.149 369.582 110.122L369.432 110.19C369.432 110.19 369.5 110.149 369.541 110.122L369.419 110.231C369.419 110.231 369.5 110.163 369.528 110.122L369.432 110.258C369.432 110.258 369.487 110.163 369.514 110.122L369.46 110.286C369.46 110.286 369.5 110.149 369.514 110.081V110.258C369.514 110.176 369.5 110.108 369.487 110.026L369.514 110.204C369.5 110.122 369.473 110.054 369.446 109.985L369.514 110.135C369.514 110.135 369.446 110.013 369.405 109.958L369.514 110.081C369.514 110.081 369.446 109.999 369.391 109.972L369.528 110.067C369.528 110.067 369.419 109.999 369.35 109.972L369.514 110.026C369.446 109.999 369.364 109.985 369.296 109.972H369.473C369.391 109.972 369.323 109.985 369.241 109.999L369.419 109.972C369.323 109.985 369.241 110.013 369.146 110.054L369.296 109.985C369.214 110.026 369.146 110.067 369.078 110.122L369.2 110.013C369.2 110.013 369.091 110.122 369.037 110.176L369.132 110.04C369.132 110.04 369.05 110.163 369.023 110.231L369.078 110.067C369.078 110.067 369.037 110.19 369.037 110.258V110.081C369.037 110.149 369.037 110.217 369.064 110.299L369.037 110.122C369.037 110.122 369.064 110.204 369.078 110.258L369.009 110.108C369.009 110.108 369.05 110.19 369.078 110.217L368.968 110.095C368.968 110.095 369.009 110.135 369.037 110.149L368.9 110.054C368.9 110.054 368.968 110.095 369.009 110.108L368.846 110.054C368.846 110.054 368.927 110.067 368.968 110.081H368.791C368.791 110.081 368.9 110.067 368.941 110.054L368.764 110.081C368.832 110.067 368.9 110.04 368.982 110.013L368.832 110.081C368.941 110.026 369.037 109.972 369.132 109.904L369.009 110.013C369.105 109.944 369.173 109.863 369.241 109.767L369.146 109.904C369.214 109.808 369.269 109.713 369.309 109.603L369.255 109.767C369.282 109.685 369.309 109.59 369.323 109.494V109.672C369.323 109.59 369.323 109.508 369.296 109.426L369.323 109.603C369.323 109.603 369.296 109.481 369.269 109.412L369.337 109.562C369.337 109.562 369.269 109.426 369.214 109.371L369.323 109.494C369.323 109.494 369.214 109.372 369.146 109.331L369.282 109.426C369.282 109.426 369.146 109.344 369.064 109.317L369.228 109.371C369.228 109.371 369.105 109.331 369.037 109.331H369.214C369.214 109.331 369.091 109.331 369.023 109.358L369.2 109.331C369.2 109.331 369.091 109.358 369.037 109.385L369.187 109.317C369.187 109.317 369.105 109.358 369.064 109.399L369.187 109.29C369.187 109.29 369.132 109.344 369.105 109.371L369.2 109.235C369.2 109.235 369.146 109.317 369.132 109.371L369.187 109.208C369.187 109.208 369.146 109.331 369.146 109.399V109.221C369.146 109.29 369.146 109.372 369.173 109.44L369.146 109.262C369.146 109.262 369.173 109.385 369.2 109.44L369.132 109.29C369.132 109.29 369.187 109.371 369.214 109.412L369.105 109.29C369.105 109.29 369.159 109.344 369.2 109.371L369.064 109.276C369.064 109.276 369.132 109.317 369.159 109.331L368.996 109.276C368.996 109.276 369.064 109.303 369.105 109.303C369.255 109.317 369.432 109.467 369.5 109.59C369.582 109.726 369.623 109.931 369.582 110.095C369.541 110.258 369.446 110.408 369.296 110.49C369.132 110.586 368.982 110.599 368.791 110.572L368.805 110.504Z" fill="#7CB8C0"/>
<path d="M386.089 109.167L385.435 108.621C385.216 108.444 385.175 108.075 385.312 107.83C385.626 107.271 386.226 106.916 386.867 106.861C387.508 106.807 388.108 107.134 388.422 107.666C388.736 108.198 388.791 108.894 388.463 109.426C388.286 109.726 388.027 109.931 387.699 110.081C387.426 110.204 387.113 110.204 386.812 110.176C386.253 110.108 385.694 109.672 385.557 109.112C385.407 108.457 385.707 107.734 386.294 107.393C386.608 107.216 386.963 107.148 387.317 107.23C387.645 107.312 387.89 107.503 388.081 107.762C388.422 108.198 388.45 108.839 388.218 109.331C388.068 109.631 387.781 109.876 387.454 109.958C386.935 110.108 386.43 109.835 386.239 109.344C386.117 109.044 386.171 108.635 386.349 108.362C386.553 108.035 386.894 107.83 387.276 107.762C387.454 107.734 387.631 107.707 387.808 107.707C388.149 107.707 388.49 107.994 388.477 108.335C388.463 108.676 388.218 108.99 387.849 109.003C387.727 109.003 387.604 109.003 387.481 109.03L387.658 109.003C387.563 109.017 387.467 109.044 387.372 109.085L387.522 109.017C387.522 109.017 387.399 109.085 387.345 109.126L387.467 109.017C387.467 109.017 387.413 109.071 387.385 109.099L387.481 108.962C387.481 108.962 387.44 109.03 387.426 109.058L387.481 108.894C387.481 108.894 387.454 108.99 387.44 109.044V108.867C387.44 108.867 387.454 108.949 387.454 109.003L387.426 108.826C387.426 108.826 387.44 108.908 387.467 108.949L387.399 108.799C387.399 108.799 387.426 108.839 387.44 108.867L387.331 108.744C387.331 108.744 387.372 108.785 387.385 108.799L387.249 108.703C387.249 108.703 387.29 108.73 387.317 108.744L387.154 108.689C387.154 108.689 387.208 108.703 387.235 108.703H387.058C387.058 108.703 387.126 108.689 387.154 108.676L386.976 108.703C386.976 108.703 387.058 108.676 387.099 108.662L386.949 108.73C386.949 108.73 387.031 108.689 387.072 108.648L386.949 108.758C386.949 108.758 387.031 108.689 387.058 108.648L386.963 108.785C386.963 108.785 387.017 108.689 387.044 108.635L386.99 108.799C386.99 108.799 387.031 108.676 387.031 108.608V108.785C387.031 108.703 387.017 108.621 387.003 108.539L387.031 108.717C387.017 108.635 386.99 108.553 386.963 108.485L387.031 108.635C387.031 108.635 386.963 108.498 386.908 108.444L387.017 108.567C387.017 108.567 386.935 108.485 386.881 108.444L387.017 108.539C387.017 108.539 386.922 108.485 386.881 108.457L387.044 108.512C387.044 108.512 386.935 108.471 386.881 108.471H387.058C387.058 108.471 386.935 108.485 386.867 108.498L387.044 108.471C387.044 108.471 386.922 108.498 386.867 108.526L387.017 108.457C387.017 108.457 386.894 108.526 386.84 108.58L386.963 108.471C386.963 108.471 386.84 108.58 386.799 108.648L386.894 108.512C386.84 108.58 386.799 108.662 386.758 108.758L386.812 108.594C386.785 108.662 386.772 108.73 386.758 108.812V108.635C386.758 108.703 386.758 108.785 386.785 108.853L386.758 108.676C386.758 108.676 386.785 108.799 386.812 108.867L386.744 108.717C386.744 108.717 386.799 108.826 386.84 108.867L386.731 108.744C386.731 108.744 386.826 108.853 386.894 108.894L386.758 108.799C386.758 108.799 386.881 108.88 386.949 108.908L386.785 108.853C386.881 108.894 386.976 108.908 387.072 108.921H386.894C386.99 108.921 387.072 108.921 387.167 108.894L386.99 108.921C387.085 108.908 387.167 108.88 387.249 108.839L387.099 108.908C387.167 108.88 387.235 108.839 387.29 108.785L387.167 108.894C387.167 108.894 387.263 108.799 387.304 108.744L387.208 108.88C387.208 108.88 387.29 108.758 387.317 108.689L387.263 108.853C387.29 108.771 387.317 108.689 387.331 108.594V108.771C387.331 108.662 387.331 108.567 387.304 108.457L387.331 108.635C387.317 108.526 387.276 108.43 387.235 108.335L387.304 108.485C387.263 108.403 387.208 108.321 387.154 108.239L387.263 108.362C387.263 108.362 387.154 108.239 387.085 108.198L387.222 108.294C387.154 108.239 387.085 108.212 387.003 108.171L387.167 108.226C387.085 108.198 386.99 108.171 386.894 108.157H387.072C386.963 108.157 386.853 108.157 386.744 108.185L386.922 108.157C386.812 108.171 386.703 108.212 386.608 108.253L386.758 108.185C386.662 108.226 386.567 108.294 386.471 108.362L386.594 108.253C386.512 108.321 386.444 108.389 386.376 108.471L386.471 108.335C386.471 108.335 386.43 108.403 386.403 108.444L386.28 107.653L386.935 108.198C387.194 108.417 387.208 108.88 386.963 109.112C386.69 109.372 386.321 109.371 386.048 109.14L386.089 109.167Z" fill="#7CB8C0"/>
<path d="M365.176 105.879C366.131 104.256 368.218 103.41 370.019 103.996C370.346 104.106 370.605 104.433 370.496 104.788C370.401 105.101 370.06 105.374 369.705 105.265C369.528 105.211 369.337 105.17 369.146 105.129C369.091 105.129 369.077 105.129 369.146 105.129C369.105 105.129 369.05 105.129 369.009 105.129C368.914 105.129 368.818 105.129 368.723 105.129C368.641 105.129 368.545 105.129 368.464 105.142C368.409 105.142 368.354 105.156 368.3 105.17C368.368 105.17 368.368 105.17 368.3 105.17C368.109 105.211 367.932 105.265 367.754 105.333C367.713 105.333 367.686 105.361 367.645 105.374C367.645 105.374 367.495 105.442 367.563 105.402C367.631 105.361 367.495 105.429 367.481 105.442C367.44 105.47 367.399 105.483 367.359 105.511C367.195 105.606 367.058 105.702 366.908 105.811C367.004 105.743 366.908 105.811 366.881 105.838C366.84 105.865 366.813 105.906 366.772 105.934C366.704 106.002 366.636 106.07 366.581 106.138C366.554 106.166 366.526 106.193 366.513 106.22C366.513 106.22 366.404 106.357 366.458 106.288C366.513 106.22 366.417 106.343 366.404 106.357C366.376 106.411 366.349 106.452 366.308 106.507C366.131 106.807 365.735 106.943 365.421 106.766C365.108 106.588 364.985 106.193 365.162 105.879H365.176Z" fill="#7CB8C0"/>
<path d="M387.263 102.278C389.323 101.855 391.519 102.482 392.979 103.996C393.224 104.256 393.252 104.651 393.006 104.91C392.774 105.156 392.324 105.197 392.092 104.938C390.946 103.737 389.214 103.178 387.645 103.505C387.304 103.574 386.935 103.437 386.826 103.082C386.731 102.769 386.908 102.346 387.249 102.264L387.263 102.278Z" fill="#7CB8C0"/>
<path d="M313.826 299.927C314.317 275.794 316.323 251.688 319.842 227.814C321.575 216.041 323.771 204.349 326.077 192.671C328.383 180.994 330.661 169.288 331.97 157.433C333.389 144.528 333.553 131.295 331.097 118.498C330.77 116.779 331.438 114.978 333.239 114.419C334.781 113.942 336.977 114.828 337.318 116.561C341.875 140.285 338.205 164.282 333.689 187.706C331.425 199.465 329.037 211.198 327.155 223.039C325.272 234.881 323.758 246.804 322.653 258.755C321.398 272.37 320.634 286.025 320.347 299.695C320.265 303.87 313.758 304.102 313.84 299.9L313.826 299.927Z" fill="#7CB8C0"/>
<path d="M339.815 116.002C335.408 119.153 329.378 118.034 325.436 114.678C320.852 110.79 320.074 103.956 321.698 98.4713C324.836 87.9258 334.631 81.5685 344.508 78.1307C349.965 76.2344 355.654 75.1157 361.356 74.2017C367.945 73.1376 374.589 72.5373 381.26 72.4145C388.013 72.2781 394.766 72.6601 401.464 73.4377C408.163 74.2153 414.138 75.3749 420.113 77.7896C425.898 80.1224 432.419 84.9245 430.4 92.0867C428.326 99.4808 420.673 101.391 414.029 102.4C412.283 102.659 410.727 100.859 410.673 99.2489C410.618 97.3117 412.078 96.1521 413.824 95.8929C417.33 95.3609 423.442 94.515 424.192 90.1086C424.834 86.2887 418.858 84.1742 416.157 83.2056C406.13 79.604 394.848 78.9083 384.275 78.9083C373.525 78.9083 362.625 79.9997 352.188 82.6463C344.412 84.6244 336.322 87.7758 331.152 94.2149C328.328 97.7346 326.241 103.014 328.055 107.434C328.737 109.099 330.061 110.395 331.752 111.022C333.444 111.65 334.904 111.527 336.35 110.504C339.76 108.062 343.212 113.587 339.815 116.015V116.002Z" fill="#7CB8C0"/>
<path d="M426.007 102.318C422.664 123.655 435.324 143.232 447.261 159.657C453.619 168.415 460.085 177.051 465.651 186.355C471.381 195.932 476.415 205.891 481.408 215.877C487.356 227.773 493.304 239.669 499.239 251.579C500.03 253.148 499.798 255.071 498.215 256.067C496.838 256.927 494.518 256.613 493.727 255.044C488.338 244.266 482.963 233.503 477.575 222.725C472.486 212.535 467.425 202.33 461.695 192.48C456.033 182.74 449.444 173.681 442.8 164.582C436.157 155.482 430.018 146.601 425.461 136.52C420.4 125.333 417.767 113.041 419.69 100.804C419.963 99.0716 422.01 98.0211 423.619 98.4031C425.447 98.8397 426.293 100.586 426.02 102.332L426.007 102.318Z" fill="#7CB8C0"/>
<path d="M320.115 300.132C333.212 304.688 346.309 309.286 359.419 313.815C362.434 314.865 365.476 315.875 368.614 316.516C371.751 317.157 375.189 317.294 378.518 317.062C385.285 316.612 392.037 315.288 398.695 314.033C412.31 311.482 425.802 308.276 439.226 304.852C445.938 303.133 452.65 301.373 459.349 299.6C462.254 298.836 464.56 298.072 466.593 295.78C468.775 293.324 470.808 290.746 472.841 288.167C477.302 282.519 481.545 276.694 485.555 270.705C487.629 267.595 489.648 264.443 491.599 261.265C492.718 259.45 495.364 256.026 493.986 253.816C491.763 250.255 497.274 246.804 499.498 250.351C503.359 256.504 497.997 263.379 494.75 268.482C491.012 274.348 487.07 280.064 482.922 285.644C480.822 288.481 478.652 291.291 476.442 294.047C474.396 296.598 472.418 299.368 470.017 301.591C467.438 303.992 464.301 305.016 460.958 305.889C457.452 306.816 453.946 307.744 450.44 308.658C436.307 312.355 422.146 315.916 407.822 318.835C400.55 320.322 393.238 321.646 385.898 322.737C378.777 323.787 371.765 324.115 364.739 322.287C357.1 320.295 349.651 317.266 342.202 314.674C334.331 311.932 326.445 309.19 318.574 306.448C316.909 305.875 315.736 304.347 316.173 302.519C316.555 300.937 318.437 299.545 320.102 300.118L320.115 300.132Z" fill="#7CB8C0"/>
<path d="M365.735 315.002C364.33 285.507 363.621 255.972 363.621 226.45C363.621 218.046 363.675 209.642 363.784 201.239C363.839 197.064 370.346 196.832 370.292 201.034C369.896 230.556 370.196 260.092 371.206 289.613C371.492 298.017 371.833 306.407 372.229 314.811C372.434 318.999 365.913 319.204 365.722 315.015L365.735 315.002Z" fill="#7CB8C0"/>
<path d="M460.563 294.661C448.885 266.681 437.221 238.7 425.543 210.72C422.214 202.726 418.872 194.731 415.543 186.737C414.861 185.113 416.13 183.149 417.685 182.658C419.499 182.099 421.082 183.176 421.764 184.8C433.442 212.78 445.106 240.76 456.784 268.741C460.113 276.735 463.455 284.729 466.784 292.724C467.466 294.347 466.197 296.312 464.642 296.803C462.827 297.362 461.245 296.284 460.563 294.661Z" fill="#7CB8C0"/>
<path d="M462.473 299.449C462.118 298.031 461.627 296.653 461.013 295.33L461.368 296.093C461.136 295.589 460.89 295.098 460.617 294.606C460.194 293.843 460.003 292.983 460.208 292.11C460.399 291.346 460.945 290.514 461.64 290.118C462.377 289.695 463.291 289.463 464.137 289.709C464.928 289.941 465.72 290.405 466.129 291.141C467.234 293.16 468.121 295.302 468.694 297.526C468.912 298.372 468.871 299.259 468.448 300.05C468.08 300.732 467.316 301.4 466.552 301.605C465.72 301.823 464.792 301.81 464.028 301.359C463.318 300.936 462.677 300.282 462.473 299.463V299.449Z" fill="#7CB8C0"/>
<path d="M317.796 298.904C321.984 298.767 322.189 305.275 318.001 305.411C313.813 305.548 313.608 299.04 317.796 298.904Z" fill="#7CB8C0"/>
<path d="M461.668 182.74C467.384 171.84 472.786 160.776 477.834 149.548C480.317 144.037 482.718 138.47 485.037 132.891C485.351 132.127 485.692 131.349 485.992 130.572C486.101 130.299 486.292 129.562 486.347 129.849C486.292 129.603 485.705 129.016 485.61 128.907C485.064 128.252 484.505 127.611 483.946 126.97C481.872 124.542 479.785 122.113 477.711 119.685C476.565 118.348 476.265 116.465 477.561 115.088C478.666 113.914 481.013 113.601 482.158 114.938C484.382 117.53 486.592 120.122 488.816 122.714C490.971 125.224 493.522 127.639 492.622 131.267C492.226 132.891 491.381 134.473 490.739 136.015C490.098 137.556 489.457 139.098 488.802 140.626C487.493 143.695 486.169 146.765 484.819 149.807C479.403 162.017 473.577 174.036 467.37 185.85C465.419 189.561 459.69 186.464 461.64 182.74H461.668Z" fill="#7CB8C0"/>
<path d="M320.688 211.252C311.875 203.885 303.881 195.618 296.732 186.628C295.3 184.827 293.963 182.317 292.067 180.939C290.389 179.725 288.029 180.461 286.31 181.198C284.032 182.167 282.067 183.777 279.939 185.032C277.401 186.519 274.727 187.61 271.767 187.774C267.579 188.019 267.374 181.498 271.562 181.266C274.291 181.116 276.596 179.479 278.82 178.047C281.098 176.573 283.445 175.127 286.078 174.391C288.711 173.654 291.726 173.558 294.318 174.773C297.046 176.041 298.697 178.565 300.457 180.871C307.687 190.311 316.036 198.879 325.149 206.505C328.369 209.192 323.894 213.94 320.688 211.252Z" fill="#7CB8C0"/>
<path d="M463.837 372.545C461.231 372.804 458.666 373.514 456.033 373.623C453.4 373.732 450.972 373.2 448.639 372.108C446.552 371.14 444.656 369.68 442.923 368.179C441.191 366.679 438.953 364.919 438.053 362.709C437.016 360.171 437.807 357.184 438.094 354.564C438.408 351.754 438.708 348.957 439.022 346.147C439.635 340.54 440.263 334.933 440.877 329.326C441.586 322.969 442.282 316.598 442.991 310.241C443.182 308.494 445.365 307.471 446.92 307.84C448.803 308.29 449.512 310.022 449.321 311.769C447.903 324.606 446.484 337.43 445.065 350.267C444.738 353.282 444.219 356.352 444.056 359.38C443.987 360.676 444.929 361.167 445.843 362.027C446.757 362.886 447.616 363.664 448.557 364.414C450.29 365.806 452.364 366.952 454.628 367.102C457.63 367.306 460.658 366.31 463.619 366.01C465.365 365.833 466.92 367.484 466.975 369.162C467.029 371.017 465.583 372.34 463.823 372.518L463.837 372.545Z" fill="#7CB8C0"/>
<path d="M361.083 375.56C363.948 375.519 366.799 375.492 369.664 375.437C369.664 375.437 371.151 375.369 371.165 375.382C371.083 375.11 370.878 375.26 370.524 375.819C370.619 375.683 370.66 375.533 370.674 375.355C370.701 373.977 371.533 372.286 371.901 370.962C373.484 365.314 375.066 359.68 376.649 354.032C379.869 342.532 383.088 331.045 386.321 319.545C387.454 315.52 393.784 317.021 392.651 321.072C389.132 333.61 385.626 346.147 382.106 358.698C380.373 364.892 378.873 371.194 376.881 377.306C375.885 380.376 373.689 381.822 370.483 381.917C367.413 382.013 364.344 381.999 361.288 382.04C357.1 382.094 356.881 375.587 361.083 375.532V375.56Z" fill="#7CB8C0"/>
<path d="M445.856 303.024C450.045 302.887 450.249 309.395 446.061 309.531C441.873 309.668 441.668 303.16 445.856 303.024Z" fill="#7CB8C0"/>
<path d="M332.857 199.765C334.822 208.742 346.145 208.906 353.321 208.565C358.259 208.333 363.02 208.305 367.863 209.383C372.625 210.434 377.358 212.166 382.283 212.289C387.331 212.412 392.147 210.747 397.044 209.779C401.655 208.865 406.335 208.66 411 208.346C415.816 208.019 420.741 207.514 425.202 205.509C429.172 203.722 432.569 200.87 435.829 198.046C443.169 191.716 452.173 184.281 462.595 187.201C465.01 187.883 464.11 191.675 461.681 190.993C452.173 188.333 444.056 196.164 437.439 201.784C433.947 204.758 430.331 207.541 426.089 209.356C421.559 211.279 416.58 211.866 411.71 212.207C406.785 212.562 401.86 212.712 397.017 213.749C392.106 214.813 387.181 216.354 382.106 216.177C377.099 216 372.352 214.431 367.509 213.312C362.27 212.098 357.181 212.316 351.861 212.534C346.827 212.739 341.779 212.534 337.168 210.311C333.307 208.455 330.033 205.195 329.106 200.925C328.574 198.483 332.298 197.31 332.844 199.765H332.857Z" fill="#7CB8C0"/>
<path d="M331.438 192.617C339.637 191.744 346.841 187.269 354.426 184.431C358.273 182.985 362.311 181.976 366.445 181.853C370.756 181.73 375.053 182.453 379.268 183.272C383.538 184.09 387.822 185.045 392.188 185.195C396.799 185.359 401.082 184.24 405.489 183.04C409.895 181.839 414.288 180.953 418.913 181.362C421.15 181.567 423.387 181.935 425.638 181.949C427.889 181.962 430.181 181.526 432.405 180.939C437.139 179.684 441.723 178.361 446.675 178.661C451.463 178.947 456.088 180.311 460.263 182.699C462.445 183.94 460.59 187.392 458.394 186.137C454.683 184.009 450.536 182.726 446.252 182.549C441.968 182.371 437.985 183.504 433.851 184.609C431.791 185.154 429.704 185.646 427.576 185.809C425.256 185.987 422.951 185.714 420.659 185.455C415.952 184.923 411.778 185.4 407.221 186.628C403.06 187.746 398.927 188.974 394.602 189.111C390.196 189.261 385.803 188.497 381.506 187.678C377.331 186.873 373.143 185.946 368.873 185.782C364.807 185.632 360.933 186.314 357.1 187.624C348.532 190.557 340.756 195.55 331.575 196.518C329.078 196.778 328.969 192.876 331.452 192.617H331.438Z" fill="#7CB8C0"/>
<path d="M342.939 296.175C346.65 297.758 350.347 299.354 354.057 300.937C354.358 301.059 356.036 301.646 355.776 301.919C356.09 301.591 355.885 300.473 355.845 300.091C355.64 298.072 355.299 296.053 355.026 294.047C353.935 285.875 352.83 277.704 351.738 269.532C351.397 267.049 355.312 266.94 355.64 269.409C356.963 279.273 358.287 289.15 359.623 299.013C359.842 300.677 359.992 302.465 359.105 303.979C358.164 305.589 356.322 306.011 354.644 305.411C350.033 303.774 345.572 301.537 341.084 299.613C338.778 298.617 340.647 295.193 342.953 296.175H342.939Z" fill="#7CB8C0"/>
<path d="M465.392 275.521C458.803 263.134 452.923 250.392 447.78 237.336C446.852 234.99 450.59 233.857 451.518 236.177C456.538 248.918 462.282 261.347 468.707 273.434C469.88 275.644 466.579 277.731 465.392 275.507V275.521Z" fill="#7CB8C0"/>
<path d="M397.699 200.625C400.209 200.543 400.332 204.445 397.822 204.526C395.312 204.608 395.189 200.707 397.699 200.625Z" fill="#7CB8C0"/>
<path d="M411.382 194.922C413.892 194.84 414.015 198.742 411.505 198.824C408.995 198.906 408.872 195.004 411.382 194.922Z" fill="#7CB8C0"/>
<path d="M389.309 192.276C391.819 192.194 391.942 196.096 389.432 196.177C386.922 196.259 386.799 192.358 389.309 192.276Z" fill="#7CB8C0"/>
<path d="M378.122 201.716C380.633 201.634 380.755 205.536 378.245 205.618C375.735 205.7 375.612 201.798 378.122 201.716Z" fill="#7CB8C0"/>
<path d="M357.291 193.272C359.801 193.19 359.924 197.091 357.413 197.173C354.903 197.255 354.78 193.353 357.291 193.272Z" fill="#7CB8C0"/>
<path d="M341.124 196.177C343.635 196.096 343.757 199.997 341.247 200.079C338.737 200.161 338.614 196.259 341.124 196.177Z" fill="#7CB8C0"/>
<path d="M341.302 155.278C363.88 152.495 386.349 148.975 408.695 144.691C415.079 143.464 421.45 142.181 427.821 140.844C430.263 140.326 431.436 144.064 428.981 144.582C406.485 149.316 383.838 153.313 361.083 156.56C354.535 157.488 347.987 158.361 341.425 159.179C338.928 159.493 338.819 155.578 341.302 155.278Z" fill="#7CB8C0"/>
<path d="M336.977 155.646C339.487 155.564 339.61 159.466 337.1 159.548C334.59 159.63 334.467 155.728 336.977 155.646Z" fill="#7CB8C0"/>
<path d="M340.429 158.975L339.474 159.002C339.201 159.016 338.955 158.975 338.71 158.852C338.464 158.784 338.246 158.647 338.069 158.47C337.878 158.293 337.728 158.088 337.646 157.856C337.523 157.624 337.455 157.379 337.455 157.106L337.509 156.587C337.591 156.26 337.755 155.96 337.987 155.714L338.369 155.401C338.669 155.21 338.996 155.114 339.351 155.1L340.306 155.073C340.579 155.06 340.824 155.1 341.07 155.223C341.315 155.291 341.534 155.428 341.711 155.605C341.902 155.783 342.052 155.987 342.134 156.219C342.257 156.451 342.325 156.697 342.325 156.969L342.27 157.488C342.189 157.815 342.025 158.115 341.793 158.361L341.411 158.675C341.111 158.866 340.783 158.961 340.429 158.975Z" fill="#7CB8C0"/>
<path d="M379.132 144.05C367.754 147.092 356.786 139.303 352.871 128.839C350.729 123.137 350.469 116.834 351.424 110.845C352.379 104.856 354.917 99.4126 359.91 95.7838C364.412 92.5096 369.978 91.0772 375.394 90.245C381.601 89.2901 387.822 89.4947 393.347 92.7688C403.333 98.6896 407.535 110.708 404.507 121.745C400.864 135.033 388.613 143.395 375.367 145.046C372.87 145.36 372.761 141.445 375.244 141.144C385.339 139.889 394.93 134.119 399.295 124.719C403.442 115.797 401.969 105.033 394.466 98.3895C390.714 95.0744 386.035 93.4782 381.042 93.6147C376.035 93.7511 370.742 94.7606 366.131 96.7524C361.465 98.7715 357.891 102.264 356.308 107.161C354.712 112.141 354.344 117.734 355.285 122.877C356.281 128.334 358.859 133.437 363.266 136.915C367.372 140.149 372.884 141.704 377.986 140.326C380.414 139.671 381.574 143.409 379.146 144.064L379.132 144.05Z" fill="#7CB8C0"/>
<path d="M345.981 97.0934C346.39 96.4931 346.8 96.043 347.4 95.6064C347.85 95.279 348.382 95.0334 348.914 94.8697C349.446 94.706 350.019 94.6105 350.565 94.6378C351.329 94.6651 351.943 94.8288 352.639 95.1153C352.911 95.2244 353.212 95.5518 353.362 95.7974C353.594 96.1657 353.675 96.6023 353.634 97.0388C353.553 97.8437 353.021 98.4031 352.284 98.7032C350.497 99.4262 348.71 100.149 346.922 100.859C346.472 101.036 345.817 100.927 345.408 100.709C344.999 100.49 344.59 100.027 344.481 99.5763C344.358 99.0852 344.358 98.5122 344.631 98.062C344.903 97.6118 345.272 97.3253 345.763 97.1343C347.55 96.4113 349.337 95.6883 351.124 94.9789L350.77 98.5668L350.701 98.5395L351.179 98.7168C350.92 98.6213 350.66 98.5531 350.388 98.5259L350.906 98.5804C350.606 98.5531 350.319 98.5668 350.019 98.6077L350.538 98.5259C350.224 98.5804 349.91 98.6759 349.624 98.7987L350.087 98.5804C349.815 98.7032 349.569 98.8669 349.337 99.0579L349.719 98.7441C349.528 98.9078 349.364 99.0852 349.214 99.2762L349.501 98.8669C349.501 98.8669 349.446 98.9488 349.419 98.9897C349.119 99.4262 348.791 99.7673 348.287 99.9174C347.823 100.067 347.195 100.027 346.772 99.7673C346.349 99.5081 345.968 99.1261 345.845 98.635C345.722 98.1439 345.708 97.5573 345.995 97.1207L345.981 97.0934Z" fill="#7CB8C0"/>
<path d="M335.19 94.1603C335.79 93.3554 336.663 92.8097 337.577 92.4278C338.492 92.0458 339.556 92.0049 340.551 92.1549C341.738 92.3323 342.461 93.9966 341.807 94.9925C341.438 95.5518 341.043 96.0703 340.524 96.4932C339.883 97.0252 339.269 97.4072 338.505 97.7346C337.277 98.2667 335.899 98.3622 334.59 98.1439C334.153 98.0757 333.608 97.6664 333.389 97.2844C333.144 96.8479 332.994 96.2885 333.144 95.7838C333.608 94.2695 334.563 93.0007 335.886 92.1413C336.459 91.7593 337.114 91.4592 337.782 91.2954C338.683 91.0635 339.474 91.0499 340.388 91.159C341.043 91.2272 341.616 91.8957 341.793 92.4823C342.011 93.1781 341.807 93.8602 341.356 94.3923C340.074 95.9065 338.642 97.2435 337.086 98.4849C336.718 98.7851 336.022 98.8396 335.586 98.7305C335.149 98.6214 334.631 98.2803 334.385 97.871C334.126 97.4208 333.99 96.8751 334.14 96.3704L334.317 95.8929C334.481 95.5928 334.713 95.3472 334.999 95.1699C335.122 95.0744 335.245 94.9789 335.354 94.8834L334.972 95.1971C336.254 94.1467 337.427 92.9735 338.505 91.7184C338.833 92.7961 339.146 93.8738 339.474 94.9516H339.406C339.583 94.9516 339.747 94.9789 339.924 94.9925C339.542 94.9516 339.16 94.9652 338.778 95.0334L339.296 94.9516C338.901 95.0198 338.505 95.1426 338.137 95.3063L338.601 95.088C338.232 95.2654 337.891 95.47 337.564 95.7292L337.946 95.4154C337.632 95.6746 337.346 95.9611 337.114 96.3022L337.4 95.8929C337.182 96.2067 336.991 96.5341 336.854 96.8888L337.032 96.4113C337.004 96.5068 336.964 96.5887 336.936 96.6842L335.504 94.324C335.599 94.3377 335.695 94.3513 335.804 94.365L335.286 94.3104C335.736 94.3513 336.172 94.3377 336.623 94.2695L336.104 94.3513C336.541 94.2695 336.977 94.1467 337.386 93.9557L336.923 94.174C337.332 93.983 337.714 93.7511 338.055 93.4646L337.673 93.7783C338 93.5055 338.287 93.2054 338.546 92.8643L338.26 93.2736C338.26 93.2736 338.341 93.1508 338.382 93.0826L339.637 95.9202C339.637 95.9202 339.542 95.9065 339.487 95.9065L340.006 95.9611C339.678 95.9338 339.351 95.9338 339.024 95.9884L339.542 95.9065C339.215 95.9611 338.901 96.0702 338.601 96.2067L339.064 95.9884C338.764 96.1248 338.492 96.3022 338.232 96.5204L338.614 96.2067C338.396 96.384 338.205 96.5887 338.041 96.8206C337.768 97.1889 337.127 97.4208 336.677 97.4345C336.2 97.4481 335.613 97.2571 335.272 96.9024C334.931 96.5477 334.644 96.0566 334.658 95.5382L334.713 95.0198C334.794 94.6924 334.958 94.3923 335.19 94.1467V94.1603Z" fill="#7CB8C0"/>
<path d="M359.555 83.3011C361.424 82.5917 363.525 82.4825 365.476 82.9327C366.281 83.1237 366.977 83.9286 366.963 84.7744C366.963 85.7021 366.417 86.3569 365.585 86.698C363.007 87.7894 360.21 88.3896 357.4 88.5124C356.581 88.5533 355.681 87.9531 355.476 87.1346C355.244 86.2342 355.585 85.4565 356.308 84.8972C358.327 83.3284 360.947 82.8099 363.443 83.1783C364.453 83.3284 365.162 84.5834 364.876 85.5384C364.562 86.6298 363.607 87.1346 362.516 86.9708C362.352 86.9436 362.011 86.9708 362.543 86.9708C362.42 86.9708 362.297 86.9572 362.174 86.9436C361.97 86.9436 361.765 86.9436 361.547 86.9436C361.301 86.9436 361.056 86.9981 360.797 87.0254C360.974 87.0254 361.192 86.9572 360.878 87.0254C360.756 87.0527 360.633 87.08 360.51 87.1073C360.292 87.1618 360.074 87.23 359.855 87.3119C359.801 87.3255 359.528 87.462 359.514 87.4483C359.542 87.4756 359.951 87.2301 359.582 87.421C359.16 87.6393 358.75 87.8985 358.368 88.185C358 86.9845 357.632 85.784 357.263 84.5834C357.932 84.5562 358.6 84.5016 359.269 84.4061C359.405 84.3925 359.555 84.3652 359.692 84.3515C360.142 84.2833 359.337 84.4197 359.746 84.3515C360.074 84.2833 360.401 84.2287 360.728 84.1469C361.984 83.8604 363.225 83.4511 364.412 82.9464C364.453 84.2015 364.494 85.4566 364.535 86.7116C364.357 86.6707 364.18 86.6298 363.989 86.6025C363.88 86.5889 363.757 86.5752 363.648 86.5479C363.375 86.507 364.03 86.5616 363.757 86.5479C363.361 86.5479 362.979 86.5206 362.584 86.5479C362.406 86.5479 362.215 86.5889 362.038 86.6025C361.765 86.6298 362.065 86.6298 362.147 86.5889C362.079 86.6298 361.956 86.6298 361.874 86.6434C361.465 86.7389 361.069 86.8617 360.687 86.9981C359.733 87.3665 358.491 86.6844 358.246 85.7158C357.959 84.638 358.505 83.6558 359.528 83.2738L359.555 83.3011Z" fill="#7CB8C0"/>
<path d="M381.042 81.1456C382.883 81.1865 384.725 81.4457 386.485 81.9914C387.276 82.237 387.986 82.9327 387.972 83.8331C387.972 84.6653 387.454 85.5384 386.594 85.7567C383.77 86.4934 380.646 86.0841 378.204 84.4607C377.618 84.065 377.208 83.5466 377.181 82.8099C377.154 82.0733 377.522 81.4866 378.095 81.091C379.582 80.0815 381.451 79.5494 383.252 79.6177C385.257 79.6859 387.044 80.327 388.641 81.5276C389.35 82.0596 389.364 83.1646 389.023 83.8877C388.34 85.3474 386.54 86.1387 384.998 85.7021C384.016 85.4293 383.252 84.3788 383.566 83.342C383.852 82.3598 384.875 81.6094 385.926 81.9096C385.994 81.9368 386.062 81.9505 386.13 81.9641C385.789 81.9368 385.707 81.9232 385.926 81.9232C385.585 81.9914 385.516 82.0051 385.721 81.9641C385.789 81.9505 385.858 81.9232 385.926 81.8959C385.626 82.046 385.571 82.0596 385.748 81.9505C385.503 82.1688 385.462 82.2097 385.612 82.0733C385.748 81.9232 385.707 81.9778 385.516 82.237C385.557 82.1824 385.585 82.1142 385.612 82.046L385.994 84.4061C386.062 84.4607 386.321 84.6244 386.103 84.4879C386.035 84.447 385.967 84.3925 385.898 84.3515C385.748 84.256 385.585 84.1605 385.421 84.0787C385.271 84.0105 385.134 83.9423 384.984 83.874C384.766 83.7649 385.353 83.9968 385.121 83.9286C385.039 83.9013 384.971 83.874 384.889 83.8468C384.561 83.7376 384.234 83.6558 383.893 83.6012C383.811 83.5876 383.729 83.5739 383.647 83.5603C383.375 83.5193 383.729 83.5603 383.811 83.5603C383.634 83.5603 383.443 83.533 383.265 83.533C382.938 83.533 382.624 83.533 382.297 83.5876C382.229 83.5876 381.942 83.6421 382.256 83.5876C382.57 83.533 382.283 83.5876 382.215 83.5876C382.038 83.6285 381.86 83.6694 381.683 83.7103C381.369 83.7922 381.083 83.9423 380.769 84.0378C380.933 83.9832 381.124 83.874 380.851 84.0105C380.783 84.0514 380.714 84.0923 380.633 84.1196C380.469 84.2151 380.319 84.3106 380.169 84.4061L380.06 81.0365C380.305 81.2002 380.551 81.3502 380.796 81.4866C380.987 81.5821 381.356 81.855 381.574 81.855C381.328 81.7595 381.274 81.7458 381.41 81.7868C381.478 81.8141 381.533 81.8277 381.601 81.855C381.724 81.8959 381.86 81.9368 381.983 81.9778C382.256 82.0596 382.542 82.1142 382.829 82.1688C382.965 82.196 383.088 82.2097 383.225 82.2233C383.375 82.237 383.306 82.2233 383.034 82.2097C383.115 82.2097 383.211 82.2233 383.293 82.2233C383.552 82.237 383.825 82.237 384.098 82.2233C384.371 82.2097 384.63 82.1824 384.889 82.1551C385.312 82.1142 384.507 82.2506 384.889 82.1551C385.066 82.1142 385.23 82.0733 385.407 82.0323C385.448 83.2874 385.489 84.5425 385.53 85.7976C384.752 85.552 383.975 85.3747 383.17 85.2383C382.965 85.211 382.774 85.1701 382.57 85.1564C382.474 85.1564 382.365 85.1291 382.27 85.1155C382.542 85.1428 382.57 85.1428 382.338 85.1155C381.929 85.0882 381.533 85.0609 381.124 85.0609C380.1 85.0473 379.091 84.256 379.105 83.1646C379.105 82.1551 379.896 81.1319 381.001 81.1456H381.042Z" fill="#7CB8C0"/>
<path d="M405.707 91.0363C404.138 90.477 402.869 89.5629 401.887 88.2123C401.151 87.2028 401.819 85.6339 402.965 85.3065C406.567 84.2834 410.523 85.1837 413.319 87.6803C414.384 88.6352 413.974 90.6134 412.556 90.9681C410.1 91.5956 407.549 91.6911 405.052 91.2136C404.507 91.1045 403.975 90.9817 403.456 90.8044C402.638 90.5452 401.792 90.2723 401.287 89.522C400.687 88.6353 400.741 87.5029 401.464 86.698C401.805 86.3161 402.283 86.0841 402.788 86.0023C403.483 85.8931 404.043 86.1251 404.588 86.548C405.393 87.1892 405.393 88.608 404.67 89.3037C403.865 90.095 402.76 90.0813 401.915 89.3856L401.846 89.331L402.719 89.8085H402.651C402.992 89.7812 403.347 89.7676 403.688 89.7676C404.875 88.0896 404.929 87.1073 403.838 86.8208C403.92 86.8481 403.988 86.8754 404.07 86.9027C404.247 86.9709 404.438 87.0255 404.616 87.08C404.929 87.1755 405.257 87.2574 405.571 87.3256C405.953 87.4074 406.321 87.4757 406.703 87.5302C406.758 87.5302 407.317 87.6121 406.839 87.5575C407.03 87.5848 407.221 87.5848 407.412 87.5984C408.122 87.6394 408.845 87.6257 409.554 87.5575C409.745 87.5439 409.936 87.5166 410.127 87.4893C410.236 87.4893 410.727 87.4211 410.264 87.4757C410.646 87.4347 411.028 87.3256 411.396 87.2301C411.137 88.3215 410.891 89.4265 410.632 90.5179C410.496 90.3951 410.345 90.2723 410.195 90.1495C410.032 90.0268 410.045 90.0268 410.264 90.1905C410.182 90.1359 410.114 90.0813 410.032 90.0268C409.759 89.8494 409.472 89.6857 409.186 89.5356C409.022 89.4538 408.845 89.3719 408.681 89.2901C408.599 89.2491 408.504 89.2219 408.422 89.1809C408.681 89.2764 408.695 89.2901 408.504 89.2219C408.19 89.1264 407.876 89.0309 407.549 88.949C407.249 88.8808 406.867 88.8945 406.58 88.7853C406.867 88.8126 406.908 88.8126 406.676 88.7853C406.58 88.7853 406.485 88.7853 406.389 88.7717C406.198 88.7717 406.007 88.7717 405.83 88.7717C405.502 88.7717 405.175 88.8126 404.848 88.8535C404.629 88.8808 404.657 88.8808 404.943 88.8399C404.848 88.8535 404.752 88.8808 404.67 88.8945C404.493 88.9354 404.302 88.9899 404.125 89.0309L405.202 86.1251C405.202 86.1251 405.502 86.4661 405.311 86.2751C405.12 86.0841 405.407 86.357 405.448 86.3979C405.489 86.4388 405.939 86.9027 405.994 86.8754C405.994 86.8754 405.666 86.6708 405.939 86.8345C406.048 86.9027 406.144 86.9572 406.253 87.0255C406.362 87.0937 406.471 87.1346 406.58 87.1892C406.689 87.2437 407.112 87.3938 406.648 87.2301C407.603 87.5711 408.408 88.4988 408.081 89.5902C407.808 90.5179 406.758 91.391 405.721 91.0226L405.707 91.0363Z" fill="#7CB8C0"/>
<path d="M405.093 55.0343C407.603 54.9524 407.726 58.8541 405.216 58.936C402.706 59.0178 402.583 55.1161 405.093 55.0343Z" fill="#7CB8C0"/>
<path d="M379.773 47.8175C382.283 47.7356 382.406 51.6373 379.896 51.7192C377.386 51.801 377.263 47.8993 379.773 47.8175Z" fill="#7CB8C0"/>
<path d="M397.876 29.1139C400.387 29.0321 400.509 32.9338 397.999 33.0156C395.489 33.0975 395.366 29.1958 397.876 29.1139Z" fill="#7CB8C0"/>
<path d="M359.119 52.7424C361.629 52.6605 361.752 56.5622 359.241 56.6441C356.731 56.7259 356.608 52.8242 359.119 52.7424Z" fill="#7CB8C0"/>
<path d="M339.296 50.164C341.807 50.0821 341.929 53.9838 339.419 54.0657C336.909 54.1475 336.786 50.2458 339.296 50.164Z" fill="#7CB8C0"/>
<path d="M355.872 34.1615C358.382 34.0797 358.505 37.9814 355.995 38.0632C353.484 38.1451 353.362 34.2434 355.872 34.1615Z" fill="#7CB8C0"/>
<path d="M320.852 40.6008C323.362 40.5189 323.485 44.4206 320.975 44.5025C318.465 44.5843 318.342 40.6826 320.852 40.6008Z" fill="#7CB8C0"/>
<path d="M322.284 69.3723C324.795 69.2904 324.917 73.1921 322.407 73.274C319.897 73.3559 319.774 69.4542 322.284 69.3723Z" fill="#7CB8C0"/>
<path d="M352.379 14.3393C354.89 14.2575 355.012 18.1592 352.502 18.241C349.992 18.3229 349.869 14.4212 352.379 14.3393Z" fill="#7CB8C0"/>
<path d="M378.095 18.9095C380.605 18.8276 380.728 22.7293 378.218 22.8112C375.708 22.893 375.585 18.9913 378.095 18.9095Z" fill="#7CB8C0"/>
<path d="M401.737 0.00127004C404.247 -0.0805837 404.37 3.82111 401.86 3.90296C399.35 3.98482 399.227 0.0831238 401.737 0.00127004Z" fill="#7CB8C0"/>
<path d="M334.29 16.9177C336.8 16.8359 336.923 20.7376 334.412 20.8194C331.902 20.9013 331.78 16.9996 334.29 16.9177Z" fill="#7CB8C0"/>
<path d="M334.863 35.0756C337.373 34.9938 337.496 38.8955 334.985 38.9773C332.475 39.0592 332.352 35.1575 334.863 35.0756Z" fill="#7CB8C0"/>
<path d="M367.345 40.7917C369.855 40.7099 369.978 44.6116 367.468 44.6934C364.958 44.7753 364.835 40.8736 367.345 40.7917Z" fill="#7CB8C0"/>
<path d="M382.12 61.1869C384.63 61.1051 384.753 65.0068 382.242 65.0886C379.732 65.1705 379.609 61.2688 382.12 61.1869Z" fill="#7CB8C0"/>
<path d="M135.835 78.1306C132.097 76.439 128.782 72.8101 128.564 68.5265C128.359 64.5156 135.44 65.1705 138.1 65.1568C148.809 65.1159 159.45 66.712 169.709 69.7816C180.05 72.8647 189.9 77.4895 198.904 83.4238C203.215 86.2751 207.403 89.4128 211.154 92.9871C214.62 96.2885 217.798 100.149 219.162 104.829C220.499 109.399 220.172 115.292 216.27 118.566C213.433 120.94 208.767 121.759 205.916 119.385C204.633 118.321 202.751 118.184 201.537 119.453C200.445 120.585 200.309 122.768 201.605 123.832C205.766 127.284 211.386 127.789 216.311 125.66C221.7 123.328 225.151 118.28 225.874 112.482C227.484 99.5081 217.839 89.7266 208.303 82.5235C187.963 67.1486 162.656 58.6495 137.118 58.9496C131.047 59.0178 122.902 60 122.384 67.667C121.948 74.2972 126.995 80.8864 132.807 83.5193C134.335 84.2151 136.163 83.874 137.022 82.3188C137.786 80.9546 137.363 78.7991 135.822 78.1034L135.835 78.1306Z" fill="#7CB8C0"/>
<path d="M122.902 74.4609C123.939 81.6095 121.32 88.226 117.514 94.174C113.585 100.299 108.483 105.729 103.299 110.79C98.1144 115.852 92.5484 120.504 86.6276 124.678C80.475 129.016 73.9267 132.7 67.4739 136.561C61.0211 140.421 54.4591 144.964 48.5793 150.094C42.754 155.169 37.3653 160.721 32.0175 166.301C26.3424 172.208 20.7081 178.142 15.1011 184.118C12.3181 187.092 9.52141 190.066 6.76567 193.067C4.15999 195.905 1.64981 198.947 0.585713 202.726C-0.587524 206.928 0.271941 211.484 0.831275 215.7C1.41789 220.024 2.11365 224.349 2.93219 228.632C4.56926 237.159 6.7111 245.59 9.31678 253.871C10.5173 257.677 16.4653 255.917 15.2648 252.097C12.9729 244.812 11.0357 237.432 9.49413 229.956C8.7438 226.3 8.07533 222.616 7.516 218.919C6.94302 215.14 6.24726 211.252 6.21998 207.432C6.19269 203.79 7.92527 201.061 10.2854 198.415C12.9593 195.413 15.7559 192.494 18.498 189.561C24.0914 183.586 29.7256 177.638 35.4008 171.73C40.7077 166.205 46.0145 160.653 51.7443 155.551C57.4604 150.448 63.6404 146.11 70.2023 142.168C76.7643 138.225 83.2171 134.623 89.3834 130.312C95.4406 126.07 101.211 121.363 106.559 116.261C112.534 110.572 118.278 104.378 122.78 97.4345C127.186 90.627 130.283 82.5098 129.096 74.2972C128.851 72.6465 127.718 71.2413 125.904 71.2822C124.376 71.3232 122.657 72.8102 122.889 74.4745L122.902 74.4609Z" fill="#7CB8C0"/>
<path d="M15.906 255.071C21.854 251.101 26.738 245.917 31.4446 240.583C36.4922 234.867 41.5126 229.124 46.5329 223.394C56.7919 211.661 66.9964 199.888 77.0371 187.951C82.7668 181.13 88.442 174.268 94.0354 167.338C95.0858 166.042 95.2359 164.186 93.9672 162.958C92.8485 161.881 90.6385 161.717 89.588 163.027C70.1341 187.133 49.7116 210.42 29.2754 233.694C24.2005 239.478 19.1529 245.481 12.7001 249.778C9.38498 251.988 12.5909 257.295 15.9196 255.085L15.906 255.071Z" fill="#7CB8C0"/>
<path d="M14.4599 258.4C30.6942 269.819 47.447 280.487 64.6772 290.323C73.3673 295.275 82.1393 300.582 91.5798 303.979C101.075 307.389 111.402 307.471 121.375 307.771C132.67 308.112 143.98 308.044 155.276 307.621C159.259 307.471 159.095 301.264 155.098 301.428C145.098 301.81 135.099 301.905 125.099 301.687C115.508 301.482 105.44 301.673 96.15 298.986C86.996 296.339 78.5514 291.06 70.2978 286.394C62.0442 281.728 53.4769 276.64 45.2369 271.469C35.8237 265.562 26.5743 259.396 17.4885 252.998C16.1243 252.029 14.0234 252.834 13.273 254.198C12.3863 255.794 13.0957 257.445 14.4736 258.414L14.4599 258.4Z" fill="#7CB8C0"/>
<path d="M204.511 124.16C196.243 131.008 191.605 140.967 188.795 151.131C185.739 162.126 184.456 173.586 182.547 184.827C178.154 210.652 172.847 236.34 166.653 261.797C164.907 268.986 163.079 276.162 161.183 283.311C159.396 290.05 157.827 296.994 154.252 303.051C152.22 306.503 157.649 309.504 159.668 306.08C162.888 300.609 164.621 294.456 166.244 288.358C167.922 282.11 169.545 275.835 171.114 269.559C174.279 256.899 177.212 244.185 179.927 231.415C182.615 218.755 185.098 206.041 187.349 193.299C189.409 181.621 190.841 169.793 193.419 158.211C195.889 147.079 199.927 135.96 208.958 128.484C210.254 127.42 209.995 125.169 208.89 124.105C207.58 122.836 205.793 123.109 204.511 124.173V124.16Z" fill="#7CB8C0"/>
<path d="M183.529 211.416C192.492 209.083 201.455 206.75 210.418 204.417C214.06 203.462 217.907 201.853 221.645 203.094C225.492 204.363 228.712 206.955 232.818 207.528C234.483 207.76 236.133 206.996 236.57 205.25C236.938 203.749 235.97 201.73 234.292 201.498C230.172 200.925 226.802 198.196 222.873 196.982C218.453 195.618 214.142 197.037 209.845 198.156C200.486 200.598 191.128 203.026 181.769 205.468C177.908 206.477 179.668 212.425 183.542 211.416H183.529Z" fill="#7CB8C0"/>
<path d="M66.9009 134.391C65.7686 123.682 64.6363 112.959 63.5039 102.25C63.2175 99.6036 62.9446 96.9434 62.6581 94.2968C62.4535 92.3459 61.7304 89.7266 62.4398 87.8303C63.6131 84.6653 68.0605 83.3966 70.9254 82.4962C74.7315 81.3093 72.9853 75.3613 69.1519 76.5481C64.8272 77.8987 60.1752 79.7677 57.6105 83.7103C56.2735 85.7703 55.8779 88.2259 56.0553 90.6543C56.2735 93.5601 56.6555 96.4659 56.9693 99.3717C58.2107 111.104 59.4385 122.836 60.68 134.582C60.8573 136.247 62.0988 137.638 63.8723 137.597C65.4548 137.556 67.0646 136.083 66.8872 134.405L66.9009 134.391Z" fill="#7CB8C0"/>
<path d="M63.5449 143.696C67.4193 144.65 68.9063 138.621 65.0183 137.666C61.1302 136.711 59.6568 142.741 63.5449 143.696Z" fill="#7CB8C0"/>
<path d="M60.8028 135.374C61.0483 136.438 61.2939 137.516 61.5395 138.58C61.6486 138.975 61.8259 139.316 62.1124 139.616C62.3444 139.958 62.6308 140.217 62.9992 140.408C63.3675 140.626 63.7632 140.749 64.1861 140.749C64.5953 140.831 64.991 140.803 65.3866 140.667L66.1096 140.34C66.5735 140.053 66.9418 139.671 67.2146 139.194L67.5148 138.416C67.6512 137.87 67.6376 137.338 67.4739 136.792C67.2283 135.728 66.9827 134.651 66.7372 133.587C66.628 133.191 66.4507 132.85 66.1642 132.55C65.9323 132.209 65.6458 131.949 65.2774 131.758C64.9091 131.54 64.5135 131.417 64.0906 131.417C63.6813 131.336 63.2857 131.363 62.89 131.499L62.167 131.827C61.7032 132.113 61.3348 132.495 61.062 132.973L60.7618 133.75C60.6254 134.296 60.6391 134.828 60.8028 135.374Z" fill="#7CB8C0"/>
<path d="M106.136 299.054C116.259 271.824 126.9 244.785 138.032 217.964C141.183 210.393 144.362 202.835 147.595 195.291C148.25 193.749 147.963 191.948 146.395 191.075C145.044 190.325 142.834 190.72 142.179 192.276C130.583 219.397 119.492 246.749 108.919 274.279C105.945 282.028 103.012 289.804 100.106 297.594C99.5196 299.163 100.884 300.977 102.384 301.346C104.172 301.782 105.549 300.65 106.136 299.067V299.054Z" fill="#7CB8C0"/>
<path d="M39.1252 276.23C32.304 285.671 25.4829 295.111 18.6618 304.565L16.1516 308.044C15.2921 309.231 14.2553 310.404 13.8324 311.837C12.932 314.865 15.5377 317.116 17.2975 319.204C19.0574 321.291 20.9673 323.556 22.7954 325.738C23.7094 326.83 24.6916 327.88 25.5375 329.012C25.633 329.135 25.9194 329.517 25.8922 329.517C25.7012 329.517 26.5061 329.681 25.974 329.449C25.8512 329.394 26.2332 328.903 26.2196 328.903C26.356 328.971 25.7421 329.299 25.7012 329.34C24.6916 330.036 23.4502 330.431 22.3725 331.018C21.1992 331.659 20.0942 332.396 19.0301 333.214C16.6563 335.056 14.7055 337.171 12.9866 339.626C12.0316 341.004 12.8229 343.091 14.1871 343.842C15.7696 344.728 17.4476 344.019 18.4025 342.641C19.6576 340.84 21.2674 339.19 23.0409 337.907C24.8144 336.625 26.9972 335.82 28.9071 334.633C31.2127 333.201 32.7952 330.622 31.9084 327.853C31.1035 325.343 28.7707 323.269 27.1063 321.305C25.2101 319.054 23.3138 316.789 21.4175 314.538C20.9537 313.992 20.4898 313.46 20.0396 312.901C20.0396 312.901 19.6031 312.396 19.6576 312.41L19.7668 312.942C19.7531 313.528 19.835 313.638 20.0123 313.283C20.4352 313.119 20.9537 311.973 21.2265 311.591C21.704 310.923 22.1815 310.268 22.6589 309.599C26.0695 304.879 29.4801 300.159 32.8907 295.439C36.7787 290.05 40.6668 284.675 44.5548 279.286C45.5371 277.922 44.7049 275.808 43.3543 275.071C41.7445 274.17 40.1211 274.907 39.1388 276.271L39.1252 276.23Z" fill="#7CB8C0"/>
<path d="M100.297 309.831C109.82 314.688 119.342 319.558 128.878 324.415C129.983 324.974 131.074 325.534 132.179 326.093L134.103 327.075C134.294 327.171 135.44 327.948 135.617 327.894C135.317 328.085 135.276 327.757 135.481 326.939C135.631 325.929 135.481 325.711 135.03 326.284C134.594 326.407 134.021 327.171 133.653 327.484C132.589 328.426 131.511 329.367 130.447 330.295C126.477 333.773 122.507 337.266 118.551 340.745C117.296 341.85 117.487 344.032 118.619 345.124C119.901 346.365 121.743 346.161 122.998 345.056C127.582 341.031 132.152 337.02 136.736 332.996C138.714 331.25 141.524 329.49 141.361 326.502C141.197 323.514 138.086 322.137 135.74 320.936C124.935 315.425 114.13 309.899 103.312 304.388C99.7652 302.574 96.7366 307.99 100.284 309.804L100.297 309.831Z" fill="#7CB8C0"/>
<path d="M95.6315 306.639C98.0189 307.894 100.406 309.149 102.794 310.418C103.517 310.8 104.404 310.923 105.195 310.677C105.904 310.459 106.682 309.9 107.023 309.217C107.76 307.744 107.364 305.807 105.822 305.002C103.435 303.747 101.048 302.492 98.6601 301.223C97.9371 300.841 97.0503 300.718 96.2591 300.964C95.5497 301.182 94.7721 301.741 94.431 302.424C93.6943 303.897 94.09 305.834 95.6315 306.639Z" fill="#7CB8C0"/>
<path d="M178.89 91.3501C173.747 87.3665 167.799 84.1196 161.251 83.3557C155.453 82.6872 149.805 84.2015 145.262 87.8849C136.327 95.129 134.103 107.694 138.468 118.048C143.27 129.467 154.594 138.689 167.267 138.893C179.245 139.084 190.364 130.885 193.474 119.262C196.735 107.066 189.013 93.5192 176.694 90.4224C174.375 89.8358 173.488 93.451 175.807 94.0376C185.016 96.3568 191.428 105.92 190.445 115.306C189.409 125.251 180.923 133.505 171.155 134.937C159.928 136.574 149.273 129.712 143.707 120.244C138.782 111.882 138.441 101.145 144.894 93.4646C148.427 89.2764 153.338 86.8208 158.864 86.9027C165.262 87.0118 171.36 90.1905 176.312 94.0376C178.195 95.4837 180.787 92.8234 178.904 91.3637L178.89 91.3501Z" fill="#7CB8C0"/>
<path d="M187.772 86.357C188.699 86.8754 189.641 87.4074 190.568 87.9258C191.223 88.2942 192.055 88.1987 192.628 87.7485C192.887 87.5438 193.065 87.2983 193.188 86.9845C193.324 86.6298 193.406 86.1523 193.256 85.784C192.956 85.0337 192.587 84.4334 192.083 83.8059C191.673 83.3147 191.168 82.9191 190.636 82.5508C189.572 81.8414 188.249 81.473 186.98 81.5003C186.012 81.514 185.098 82.428 185.18 83.4102C185.261 84.3925 186.053 85.2383 187.089 85.211C187.28 85.211 187.471 85.211 187.662 85.2383L187.171 85.1837C187.581 85.2383 187.963 85.3338 188.345 85.4702L187.881 85.2929C188.276 85.4566 188.658 85.6612 188.999 85.9204L188.617 85.6339C188.945 85.8795 189.231 86.1523 189.49 86.4797L189.19 86.1114C189.436 86.4115 189.627 86.739 189.791 87.08L189.6 86.6435C189.6 86.6435 189.654 86.7799 189.681 86.8481L192.369 84.6926C191.441 84.1742 190.5 83.6422 189.572 83.1237C188.727 82.6463 187.485 82.9464 187.035 83.8468C186.585 84.7472 186.844 85.8658 187.758 86.3843L187.772 86.357Z" fill="#7CB8C0"/>
<path d="M208.74 104.051L209.886 104.542C210.199 104.679 210.5 104.788 210.841 104.774L211.318 104.692C211.55 104.624 211.768 104.515 211.946 104.351C212.082 104.269 212.191 104.146 212.273 104.01C212.396 103.887 212.464 103.751 212.505 103.587C212.587 103.437 212.628 103.273 212.628 103.11C212.682 102.864 212.655 102.619 212.573 102.387C212.505 102.127 212.382 101.896 212.273 101.65C212.232 101.541 212.178 101.445 212.109 101.35C211.973 101.132 211.796 100.927 211.618 100.722C211.536 100.627 211.455 100.545 211.359 100.463C211.073 100.217 210.759 99.9719 210.418 99.8082C210.077 99.6445 209.695 99.4808 209.299 99.4262C208.972 99.3444 208.644 99.358 208.33 99.4535C208.099 99.5217 207.88 99.6309 207.703 99.7946C207.498 99.931 207.348 100.108 207.225 100.327C207.062 100.627 206.98 100.941 206.994 101.282C207.048 101.759 207.116 102.264 207.294 102.714C207.471 103.164 207.676 103.614 207.962 104.01C208.535 104.788 209.258 105.497 210.172 105.893L210.636 106.07C210.882 106.138 211.127 106.152 211.373 106.084C211.536 106.084 211.686 106.029 211.823 105.947C212.055 105.865 212.246 105.743 212.41 105.552C212.628 105.306 212.792 105.02 212.873 104.706C213.01 104.242 212.873 103.696 212.655 103.301C212.328 102.728 212 102.155 211.673 101.582C211.441 101.172 210.977 100.845 210.527 100.736C210.077 100.627 209.504 100.695 209.122 100.954C208.74 101.213 208.371 101.623 208.276 102.1C208.18 102.578 208.235 103.069 208.494 103.505C208.822 104.078 209.149 104.651 209.476 105.224L211.973 102.632C211.714 102.523 211.468 102.387 211.25 102.209L211.632 102.496C211.373 102.305 211.141 102.073 210.936 101.827L211.236 102.196C211.032 101.936 210.854 101.65 210.718 101.336L210.909 101.773C210.786 101.486 210.704 101.2 210.65 100.886L210.732 101.363C210.732 101.295 210.718 101.227 210.704 101.159C209.94 101.773 209.176 102.4 208.399 103.014C208.562 103.041 208.726 103.082 208.89 103.151L208.426 102.973C208.631 103.055 208.808 103.164 208.985 103.287L208.603 103.001C208.781 103.137 208.931 103.273 209.054 103.451L208.753 103.082C208.876 103.246 208.972 103.41 209.054 103.587L208.863 103.151C208.903 103.246 208.931 103.342 208.958 103.437C209.858 102.714 210.745 102.005 211.646 101.282L210.5 100.79C210.281 100.654 210.036 100.586 209.79 100.586C209.545 100.531 209.299 100.559 209.067 100.64C208.644 100.763 208.18 101.104 207.976 101.514C207.758 101.95 207.648 102.468 207.812 102.946C207.962 103.383 208.249 103.86 208.685 104.037L208.74 104.051Z" fill="#7CB8C0"/>
<path d="M167.649 75.7569C167.854 76.2617 168.113 76.6846 168.591 76.9575C168.918 77.1484 169.341 77.2576 169.723 77.2167C170.46 77.1484 171.21 76.7528 171.565 76.0707C171.933 75.3477 171.919 74.4473 171.442 73.7788C171.073 73.2604 170.596 72.9466 170.009 72.7147C168.372 72.0735 166.667 71.7461 164.921 71.7188C164.184 71.7188 163.516 72.2509 163.256 72.9057C162.984 73.6151 163.161 74.3654 163.679 74.9111C165.275 76.5755 167.499 77.7351 169.791 78.0079C170.118 78.0898 170.446 78.0761 170.76 77.9806C171.073 77.8851 171.346 77.7214 171.565 77.4895C172.042 76.9847 172.165 76.3299 172.015 75.6614C171.728 74.4063 170.855 73.3832 169.791 72.7011C168.727 72.0189 167.363 71.8279 166.094 72.0872C165.712 72.169 165.371 72.4691 165.139 72.7693C164.893 73.0967 164.73 73.5059 164.757 73.9289C164.853 75.2112 165.589 76.5209 166.817 77.0529C167.294 77.2576 167.745 77.3667 168.249 77.2167C168.672 77.0939 169.136 76.7528 169.341 76.3435C169.559 75.907 169.668 75.3886 169.505 74.9111C169.354 74.4746 169.068 74.0107 168.631 73.8197C168.509 73.7652 168.4 73.6969 168.277 73.6287L168.659 73.9152C168.522 73.8197 168.413 73.7106 168.304 73.5878L168.604 73.9561C168.509 73.8334 168.427 73.6969 168.359 73.5469L168.55 73.9834C168.481 73.8334 168.44 73.6833 168.413 73.5196L168.495 73.9971C168.495 73.9971 168.495 73.8879 168.481 73.8334L167.158 75.6751C167.158 75.6751 167.254 75.6614 167.308 75.6478L166.831 75.7296C167.076 75.6887 167.322 75.6887 167.581 75.716L167.09 75.6614C167.363 75.7024 167.636 75.7706 167.881 75.8661L167.417 75.6887C167.704 75.7979 167.963 75.9479 168.209 76.1389L167.827 75.8524C168.045 76.0298 168.236 76.2208 168.413 76.4254L168.113 76.0571C168.263 76.2617 168.4 76.4663 168.495 76.6982L168.304 76.2617C168.372 76.4254 168.427 76.5891 168.468 76.7665L170.691 74.4336C169.955 74.3518 169.232 74.1744 168.536 73.9016L169 74.0789C168.277 73.7924 167.595 73.4105 166.967 72.9466L167.349 73.2331C166.967 72.9466 166.599 72.6192 166.271 72.2645L165.03 75.4568C165.425 75.4568 165.835 75.4841 166.23 75.525L165.739 75.4704C166.831 75.5932 167.881 75.8524 168.904 76.2481L168.44 76.0707C168.591 76.1253 168.713 76.1935 168.85 76.289L168.468 76.0025C168.468 76.0025 168.536 76.0707 168.577 76.098L168.277 75.7296C168.277 75.7296 168.331 75.7979 168.359 75.8524L168.168 75.4159C168.168 75.4159 168.209 75.5114 168.209 75.5523L168.127 75.0748V75.1294C168.14 74.9657 168.168 74.802 168.181 74.6383V74.6928C168.236 74.5428 168.29 74.3791 168.359 74.229C168.359 74.2699 168.331 74.2972 168.304 74.3245L168.591 73.9425C168.591 73.9425 168.536 73.9971 168.509 74.0244L168.877 73.7242L168.822 73.7515L169.259 73.5605C169.259 73.5605 169.191 73.5878 169.15 73.6014L169.627 73.5196C169.627 73.5196 169.559 73.5196 169.532 73.5196L170.023 73.5742H169.982C170.132 73.6151 170.296 73.6833 170.446 73.7379L170.405 73.7106L170.787 73.9971L170.76 73.9561L171.251 74.761L171.223 74.7065C171.032 74.2426 170.801 73.8606 170.35 73.6151C169.941 73.3968 169.354 73.3013 168.918 73.4514C168.481 73.6014 168.045 73.8879 167.827 74.3245C167.608 74.761 167.485 75.3067 167.663 75.7569H167.649Z" fill="#7CB8C0"/>
<path d="M145.235 71.1458C146.572 72.0053 148.495 71.9643 149.791 71.0503C150.337 70.6547 150.705 70.109 150.692 69.3996C150.678 68.7584 150.31 68.1309 149.737 67.8307C148.782 67.3123 147.731 67.0531 146.654 67.0258C145.576 66.9985 144.553 67.2987 143.584 67.7489C143.202 67.9262 142.82 68.4856 142.738 68.8948C142.643 69.3859 142.697 69.8634 142.957 70.3C143.789 71.6915 145.167 72.6601 146.708 73.1239C148.25 73.5878 149.914 73.3831 151.374 72.6737C152.411 72.169 152.574 70.4637 151.701 69.7406C149.56 67.9535 146.736 66.9985 143.939 67.3532C143.448 67.4215 143.011 67.5442 142.657 67.9262C142.329 68.2536 142.097 68.7993 142.138 69.2768C142.206 70.2045 143.025 71.214 144.048 71.0776C144.689 70.9957 145.317 70.9821 145.958 71.0503L145.467 70.9957C146.217 71.0776 146.954 71.2549 147.65 71.5141L147.186 71.3368C147.595 71.5005 147.977 71.6778 148.359 71.8961C148.536 72.0053 148.714 72.1144 148.877 72.2235L148.973 72.2918C149.137 72.4009 149.096 72.3736 148.864 72.2099C148.918 72.2917 149.055 72.36 149.123 72.4282C149.232 71.4459 149.341 70.4773 149.45 69.4951C149.15 69.6451 149.86 69.345 149.56 69.4542C149.478 69.4814 149.396 69.5224 149.3 69.5496C149.205 69.5769 149.123 69.6042 149.041 69.6179C148.973 69.6315 148.564 69.7134 148.932 69.6451C149.3 69.5769 148.932 69.6451 148.864 69.6451C148.768 69.6451 148.686 69.6451 148.591 69.6588C148.4 69.6588 148.195 69.6588 148.004 69.6315L148.495 69.6861C148.045 69.6315 147.609 69.5224 147.172 69.3587L147.636 69.536C147.418 69.4405 147.199 69.345 146.981 69.2222C146.899 69.1813 146.831 69.1267 146.749 69.0722C146.476 68.8948 147.145 69.3996 146.776 69.0858C146.613 68.9494 146.463 68.7993 146.326 68.6493C146.013 68.2946 146.517 68.9357 146.34 68.6629C146.272 68.5674 146.204 68.4583 146.149 68.3628L145.521 70.9139C144.989 71.1594 145.617 70.8866 145.781 70.8457C145.862 70.8184 145.944 70.8047 146.04 70.7775C146.449 70.682 145.794 70.7911 145.985 70.7775C146.395 70.7365 146.79 70.7229 147.199 70.7775L146.708 70.7229C147.09 70.7775 147.472 70.8593 147.841 70.9957L147.377 70.8184C147.581 70.9002 147.772 70.9821 147.95 71.0912L147.895 67.8716C147.8 67.9399 147.663 67.9944 147.568 68.0763C147.854 67.9535 147.922 67.9262 147.745 67.9944C147.691 68.0217 147.622 68.0354 147.568 68.049C147.377 68.0899 147.445 68.0899 147.759 68.0217C147.691 68.0217 147.636 68.0354 147.568 68.0354C147.445 68.0354 147.309 68.0354 147.186 68.0354L147.677 68.0899C147.459 68.0626 147.24 68.0217 147.036 67.9399L147.5 68.1172C147.349 68.049 147.213 67.9808 147.077 67.8989C146.258 67.3669 144.976 67.7625 144.539 68.622C144.062 69.5769 144.375 70.5865 145.262 71.1594L145.235 71.1458Z" fill="#7CB8C0"/>
<path d="M107.418 119.208C125.931 133.246 146.272 144.787 167.881 153.341C173.993 155.769 180.2 157.965 186.476 159.916C188.767 160.626 189.641 157.01 187.362 156.301C165.685 149.548 144.948 139.862 125.849 127.584C120.433 124.105 115.14 120.408 110.011 116.52C108.128 115.088 105.522 117.748 107.418 119.194V119.208Z" fill="#7CB8C0"/>
<path d="M104.69 116.07C107.009 116.643 107.91 113.028 105.577 112.455C103.258 111.882 102.357 115.497 104.69 116.07Z" fill="#7CB8C0"/>
<path d="M105.358 117.53C106.491 118.457 107.609 119.399 108.742 120.326C109.137 120.654 109.574 120.858 110.092 120.845C110.543 120.845 111.075 120.613 111.375 120.272C111.702 119.903 111.934 119.426 111.893 118.921C111.866 118.457 111.702 117.939 111.32 117.639L107.937 114.842C107.541 114.515 107.105 114.31 106.586 114.324C106.136 114.324 105.604 114.556 105.304 114.897C104.976 115.265 104.745 115.742 104.786 116.247C104.813 116.711 104.976 117.229 105.358 117.53Z" fill="#7CB8C0"/>
<path d="M57.4468 151.649C65.7549 149.562 75.2499 148.293 83.2716 152.099C87.3097 154.023 90.6521 157.092 94.3628 159.534C97.9644 161.908 101.798 163.9 105.74 165.632C121.538 172.563 138.891 175.305 154.416 182.931C158.891 185.127 162.956 187.869 167.103 190.611C171.237 193.34 175.589 195.823 180.514 196.723C182.86 197.146 183.761 193.531 181.401 193.108C176.776 192.276 172.792 189.916 168.918 187.364C165.234 184.936 161.606 182.453 157.677 180.421C149.955 176.437 141.647 173.709 133.352 171.157C124.84 168.552 116.231 166.137 108.046 162.604C104.09 160.898 100.243 158.934 96.6274 156.587C92.8894 154.173 89.5607 151.103 85.5635 149.098C76.4777 144.541 65.8913 145.701 56.3827 148.102C54.0635 148.689 55.1139 152.249 57.4468 151.663V151.649Z" fill="#7CB8C0"/>
<path d="M56.2872 148.784C54.3773 149.398 53.0403 150.803 52.5628 152.768C52.3173 153.777 52.9585 154.732 53.9271 155.019C58.2926 156.301 62.6854 157.665 66.6008 160.053C70.7753 162.59 73.1627 166.096 74.5951 170.721C76.0412 175.414 77.5009 179.779 81.3071 183.135C84.8132 186.232 89.2197 188.115 93.6807 189.384C99.083 190.925 104.717 191.553 110.065 193.313C115.304 195.031 119.287 198.456 123.83 201.402C126.108 202.876 128.564 204.09 131.211 204.731C134.007 205.413 136.899 205.55 139.751 205.822C145.631 206.395 150.91 208.756 156.435 210.638C161.483 212.371 166.694 213.298 171.946 211.907C176.503 210.693 180.323 207.787 181.864 203.258C182.642 200.993 179.013 200.12 178.249 202.371C176.994 206.054 173.256 207.951 169.655 208.619C164.934 209.492 160.337 208.128 155.93 206.532C150.733 204.663 145.767 202.726 140.228 202.153C137.418 201.866 134.567 201.743 131.825 201.034C129.328 200.379 127.104 199.124 124.976 197.692C120.57 194.718 116.586 191.621 111.484 189.875C106.382 188.128 101.102 187.46 95.9317 186.137C91.648 185.045 87.2552 183.422 83.8992 180.448C80.1475 177.133 79.2608 172.726 77.7056 168.197C76.0412 163.34 72.9717 159.616 68.6198 156.915C64.4043 154.296 59.5613 152.795 54.8275 151.403C55.2777 152.154 55.7415 152.904 56.1917 153.654C56.3554 152.972 56.6964 152.577 57.3649 152.358C59.6432 151.622 58.5927 148.047 56.3008 148.798L56.2872 148.784Z" fill="#7CB8C0"/>
<path d="M159.778 198.824C162.097 199.397 162.997 195.782 160.664 195.209C158.331 194.636 157.445 198.251 159.778 198.824Z" fill="#7CB8C0"/>
<path d="M167.649 201.757C169.968 202.33 170.869 198.715 168.536 198.142C166.203 197.569 165.316 201.184 167.649 201.757Z" fill="#7CB8C0"/>
<path d="M125.44 192.439C127.759 193.012 128.66 189.397 126.327 188.824C124.007 188.251 123.107 191.866 125.44 192.439Z" fill="#7CB8C0"/>
<path d="M121.934 181.976C124.253 182.549 125.153 178.934 122.821 178.361C120.488 177.788 119.601 181.403 121.934 181.976Z" fill="#7CB8C0"/>
<path d="M103.462 180.993C105.781 181.566 106.682 177.951 104.349 177.378C102.03 176.805 101.129 180.421 103.462 180.993Z" fill="#7CB8C0"/>
<path d="M129.805 263.461C125.699 271.305 121.388 279.082 117.473 287.021C116.736 288.508 116.286 290.132 117.323 291.592C118.36 293.051 120.338 293.079 121.988 293.201C126.463 293.556 130.924 293.897 135.399 294.252C137.786 294.443 137.663 290.718 135.29 290.527C131.661 290.241 128.032 289.954 124.39 289.668C123.557 289.6 122.712 289.532 121.879 289.477C121.47 289.45 120.883 289.477 120.488 289.341C120.01 289.177 120.474 289.382 120.461 289.436C120.597 288.713 121.184 287.949 121.525 287.308L122.834 284.798C126.245 278.277 129.655 271.769 133.066 265.248C134.171 263.134 130.924 261.306 129.819 263.434L129.805 263.461Z" fill="#7CB8C0"/>
<path d="M50.5847 196.587C41.1715 207.023 31.7583 217.473 22.3452 227.909C20.7354 229.683 23.4093 232.275 25.019 230.501C34.4322 220.065 43.8454 209.615 53.2586 199.179C54.8684 197.405 52.1945 194.813 50.5847 196.587Z" fill="#7CB8C0"/>
<path d="M197.894 59.5089C200.213 60.0819 201.114 56.4667 198.781 55.8937C196.448 55.3208 195.561 58.936 197.894 59.5089Z" fill="#7CB8C0"/>
<path d="M217.334 64.7749C219.654 65.3478 220.554 61.7326 218.221 61.1597C215.888 60.5867 215.002 64.2019 217.334 64.7749Z" fill="#7CB8C0"/>
<path d="M216.42 25.1031C218.74 25.6761 219.64 22.0609 217.307 21.4879C214.974 20.9149 214.088 24.5301 216.42 25.1031Z" fill="#7CB8C0"/>
<path d="M183.297 44.8162C185.616 45.3892 186.516 41.774 184.184 41.201C181.851 40.628 180.964 44.2432 183.297 44.8162Z" fill="#7CB8C0"/>
<path d="M195.766 37.2447C198.085 37.8177 198.985 34.2025 196.653 33.6295C194.32 33.0565 193.433 36.6717 195.766 37.2447Z" fill="#7CB8C0"/>
<path d="M184.074 58.1447C186.394 58.7177 187.294 55.1025 184.961 54.5295C182.628 53.9565 181.742 57.5717 184.074 58.1447Z" fill="#7CB8C0"/>
<path d="M158.059 46.7261C160.378 47.2991 161.278 43.6839 158.945 43.1109C156.613 42.5379 155.726 46.1531 158.059 46.7261Z" fill="#7CB8C0"/>
<path d="M171.155 24.1481C173.474 24.7211 174.375 21.1059 172.042 20.5329C169.709 19.9599 168.822 23.5751 171.155 24.1481Z" fill="#7CB8C0"/>
<path d="M191.619 19.0459C193.938 19.6189 194.838 16.0037 192.505 15.4307C190.173 14.8577 189.286 18.473 191.619 19.0459Z" fill="#7CB8C0"/>
<path d="M218.917 45.9348C221.236 46.5078 222.136 42.8926 219.804 42.3196C217.471 41.7467 216.584 45.3619 218.917 45.9348Z" fill="#7CB8C0"/>
<path d="M235.82 20.2464C238.139 20.8194 239.039 17.2042 236.706 16.6312C234.374 16.0582 233.487 19.6735 235.82 20.2464Z" fill="#7CB8C0"/>
<path d="M212.164 5.3627C214.483 5.93568 215.384 2.32047 213.051 1.7475C210.718 1.17452 209.831 4.78973 212.164 5.3627Z" fill="#7CB8C0"/>
<path d="M162.602 109.058C161.36 108.99 160.378 110.013 160.064 111.131C159.696 112.4 160.31 113.71 161.319 114.501C161.947 114.978 162.656 115.32 163.434 115.483C164.211 115.647 164.511 114.446 163.734 114.283C163.12 114.146 162.533 113.901 162.083 113.532C161.81 113.3 161.647 113.123 161.469 112.837C161.374 112.687 161.346 112.618 161.306 112.496C161.278 112.414 161.251 112.332 161.224 112.25C161.224 112.209 161.21 112.182 161.196 112.141C161.196 112.195 161.196 112.209 161.196 112.155C161.155 111.65 161.265 111.227 161.551 110.845C161.51 110.899 161.633 110.749 161.647 110.736C161.701 110.681 161.756 110.627 161.81 110.586C161.906 110.49 161.756 110.613 161.865 110.545C161.919 110.504 161.988 110.463 162.056 110.436C162.083 110.422 162.124 110.408 162.151 110.381C162.097 110.408 162.083 110.408 162.151 110.381C162.206 110.367 162.26 110.354 162.301 110.34C162.37 110.326 162.37 110.326 162.301 110.34C162.342 110.34 162.37 110.34 162.411 110.34C162.479 110.34 162.561 110.34 162.629 110.34C162.97 110.354 163.243 110.013 163.229 109.699C163.229 109.344 162.929 109.112 162.588 109.099L162.602 109.058Z" fill="#7CB8C0"/>
<path d="M171.633 107.748C171.319 108.062 171.292 108.553 171.524 108.921C171.633 109.085 171.769 109.208 171.933 109.317C172.097 109.426 172.288 109.467 172.479 109.481C172.492 109.481 172.519 109.481 172.533 109.481C172.601 109.481 172.683 109.467 172.751 109.44C172.901 109.399 172.997 109.331 173.12 109.221C173.242 109.112 173.297 108.976 173.338 108.826C173.365 108.73 173.379 108.608 173.379 108.512C173.379 108.417 173.365 108.307 173.338 108.212C173.311 108.116 173.27 108.007 173.229 107.925C173.161 107.775 173.052 107.653 172.942 107.543C172.779 107.393 172.574 107.284 172.356 107.216C172.328 107.216 172.301 107.202 172.26 107.202C172.178 107.202 172.097 107.175 172.015 107.175C171.933 107.175 171.851 107.189 171.783 107.202C171.755 107.202 171.715 107.216 171.687 107.23C171.537 107.284 171.401 107.38 171.319 107.516C171.237 107.653 171.21 107.844 171.264 107.994C171.319 108.144 171.414 108.28 171.551 108.362C171.687 108.444 171.865 108.471 172.028 108.417C172.056 108.417 172.097 108.403 172.124 108.389L171.96 108.417C171.96 108.417 172.056 108.417 172.11 108.417H171.946C171.946 108.417 172.056 108.417 172.11 108.444L171.96 108.389C171.96 108.389 172.083 108.444 172.137 108.485L172.015 108.389C172.015 108.389 172.124 108.485 172.165 108.539L172.069 108.417C172.069 108.417 172.151 108.539 172.178 108.594L172.11 108.444C172.11 108.444 172.151 108.553 172.165 108.608L172.137 108.444C172.137 108.444 172.137 108.553 172.137 108.608V108.444C172.137 108.444 172.137 108.539 172.124 108.594L172.178 108.444C172.178 108.444 172.178 108.471 172.165 108.485L172.26 108.362C172.26 108.362 172.233 108.389 172.219 108.403L172.342 108.307C172.342 108.307 172.301 108.335 172.288 108.348L172.438 108.28C172.438 108.28 172.397 108.294 172.369 108.307L172.533 108.28C172.533 108.28 172.479 108.28 172.438 108.28H172.601C172.601 108.28 172.533 108.28 172.506 108.28L172.656 108.335C172.656 108.335 172.56 108.294 172.519 108.266L172.642 108.362C172.642 108.362 172.56 108.294 172.533 108.253L172.629 108.376C172.629 108.376 172.574 108.294 172.56 108.253L172.629 108.403C172.629 108.403 172.601 108.335 172.601 108.307L172.629 108.471C172.629 108.471 172.629 108.417 172.629 108.389V108.553C172.629 108.553 172.629 108.498 172.629 108.485L172.574 108.635C172.574 108.635 172.601 108.594 172.615 108.567L172.519 108.689C172.519 108.689 172.547 108.662 172.56 108.648C172.67 108.539 172.738 108.362 172.738 108.198C172.738 108.048 172.656 107.871 172.547 107.775C172.424 107.666 172.26 107.584 172.097 107.598C171.933 107.612 171.783 107.666 171.674 107.789L171.633 107.748Z" fill="#7CB8C0"/>
<path d="M156.531 98.3895C155.439 98.5941 154.839 99.972 155.194 100.968C155.398 101.541 155.89 102.018 156.517 102.1C157.172 102.196 157.813 101.977 158.291 101.527C158.768 101.077 158.973 100.381 158.782 99.7537C158.591 99.1262 158.072 98.6487 157.445 98.444C156.817 98.2394 156.162 98.4304 155.712 98.8806C155.262 99.3308 155.085 100.013 155.207 100.627C155.276 100.954 155.453 101.282 155.712 101.486C156.026 101.745 156.367 101.868 156.763 101.909C157.431 101.977 158.141 101.636 158.454 101.036C158.604 100.75 158.522 100.34 158.209 100.19C157.895 100.04 157.527 100.122 157.363 100.436C157.336 100.477 157.308 100.518 157.295 100.559C157.39 100.381 157.336 100.504 157.295 100.559C157.295 100.559 157.267 100.586 157.254 100.6C157.172 100.681 157.39 100.504 157.295 100.572C157.254 100.6 157.213 100.627 157.172 100.654C157.131 100.681 157.063 100.681 157.226 100.627C157.213 100.627 157.199 100.64 157.172 100.64C157.131 100.654 157.09 100.668 157.035 100.681C157.008 100.681 156.995 100.681 156.967 100.695C156.899 100.722 157.131 100.681 157.035 100.695C156.981 100.695 156.94 100.695 156.885 100.695C156.844 100.695 156.804 100.695 156.763 100.695C156.981 100.695 156.831 100.695 156.763 100.695C156.722 100.695 156.681 100.668 156.626 100.654C156.517 100.627 156.763 100.722 156.694 100.681C156.667 100.668 156.64 100.654 156.613 100.64C156.585 100.627 156.462 100.545 156.558 100.613C156.653 100.681 156.544 100.6 156.517 100.572L156.463 100.518C156.463 100.518 156.558 100.654 156.503 100.572C156.476 100.531 156.449 100.477 156.422 100.422C156.503 100.559 156.462 100.531 156.449 100.49C156.449 100.463 156.435 100.436 156.422 100.409C156.422 100.381 156.381 100.231 156.408 100.354C156.435 100.477 156.408 100.327 156.408 100.299C156.408 100.245 156.408 100.19 156.408 100.136C156.408 100.354 156.408 100.204 156.408 100.136C156.408 100.095 156.435 100.04 156.449 99.9993C156.462 99.9583 156.503 99.9038 156.422 100.067C156.422 100.04 156.435 100.027 156.449 99.9993C156.476 99.9583 156.49 99.9038 156.517 99.8628C156.517 99.8492 156.544 99.8219 156.558 99.8083C156.599 99.7401 156.449 99.9447 156.517 99.8628C156.544 99.8219 156.572 99.7946 156.613 99.7537C156.613 99.7537 156.64 99.7264 156.653 99.7128C156.735 99.6446 156.544 99.7946 156.613 99.7537C156.653 99.7264 156.694 99.6991 156.749 99.6718C156.804 99.6446 156.858 99.6582 156.708 99.6855C156.722 99.6855 156.749 99.6718 156.763 99.6718C156.804 99.6582 156.858 99.6446 156.899 99.6309C156.749 99.6718 156.776 99.6446 156.831 99.6309C156.858 99.6309 156.885 99.6309 156.913 99.6309C156.926 99.6309 156.954 99.6309 156.967 99.6309C157.104 99.6309 156.94 99.6173 156.913 99.6309C156.94 99.6309 157.022 99.6446 157.049 99.6582C157.09 99.6582 157.145 99.6855 157.186 99.6991C157.131 99.6855 156.981 99.6446 157.186 99.6991C157.24 99.7264 157.281 99.7537 157.322 99.781C157.39 99.8219 157.186 99.6718 157.281 99.7401C157.295 99.7401 157.308 99.7673 157.322 99.781C157.363 99.8083 157.39 99.8492 157.431 99.8901C157.445 99.9038 157.458 99.931 157.486 99.9447C157.54 99.9993 157.39 99.8083 157.445 99.9038C157.472 99.9447 157.499 99.9993 157.527 100.04C157.527 100.067 157.554 100.081 157.554 100.108C157.472 99.972 157.513 99.9993 157.527 100.054C157.527 100.095 157.554 100.136 157.568 100.177C157.581 100.231 157.568 100.299 157.568 100.136C157.568 100.149 157.568 100.177 157.568 100.19C157.568 100.231 157.581 100.34 157.568 100.368C157.568 100.368 157.595 100.19 157.568 100.286C157.568 100.313 157.568 100.327 157.554 100.354C157.54 100.381 157.554 100.395 157.54 100.422C157.513 100.518 157.568 100.34 157.568 100.354C157.568 100.381 157.513 100.463 157.499 100.477C157.486 100.504 157.472 100.531 157.458 100.545C157.431 100.6 157.363 100.64 157.486 100.504C157.417 100.572 157.363 100.64 157.295 100.709C157.24 100.763 157.431 100.613 157.336 100.668C157.322 100.668 157.308 100.695 157.281 100.709C157.226 100.736 157.186 100.777 157.131 100.804C157.117 100.804 157.09 100.818 157.076 100.831C156.967 100.886 157.226 100.777 157.117 100.818C157.076 100.831 157.022 100.845 156.981 100.859C156.94 100.859 156.899 100.872 156.858 100.886C156.776 100.913 157.022 100.872 156.913 100.886C156.885 100.886 156.858 100.886 156.831 100.886C156.776 100.886 156.735 100.886 156.681 100.886C156.585 100.886 156.763 100.886 156.763 100.886C156.763 100.886 156.694 100.886 156.681 100.872C156.64 100.872 156.599 100.845 156.558 100.845C156.476 100.831 156.722 100.913 156.613 100.872C156.585 100.872 156.558 100.845 156.531 100.831C156.503 100.818 156.476 100.804 156.449 100.791C156.408 100.763 156.394 100.722 156.503 100.831C156.476 100.804 156.435 100.777 156.408 100.75C156.408 100.75 156.381 100.722 156.367 100.709C156.299 100.627 156.462 100.845 156.408 100.75C156.381 100.709 156.367 100.681 156.34 100.64C156.34 100.64 156.312 100.586 156.299 100.572C156.312 100.572 156.367 100.736 156.326 100.627C156.312 100.586 156.299 100.531 156.285 100.477C156.285 100.463 156.285 100.449 156.285 100.422C156.258 100.327 156.299 100.586 156.285 100.477C156.285 100.422 156.285 100.381 156.285 100.327C156.285 100.286 156.285 100.231 156.285 100.19C156.285 100.108 156.258 100.368 156.285 100.272C156.285 100.245 156.285 100.218 156.285 100.19C156.285 100.136 156.312 100.095 156.326 100.04C156.326 99.9993 156.394 99.8492 156.34 99.972C156.285 100.095 156.353 99.9447 156.367 99.9038C156.394 99.8628 156.422 99.8083 156.449 99.7673C156.531 99.6446 156.353 99.8765 156.449 99.7673C156.476 99.7264 156.517 99.6855 156.558 99.6582C156.558 99.6582 156.585 99.6309 156.599 99.6309C156.681 99.5627 156.462 99.7264 156.558 99.6582C156.599 99.6309 156.64 99.6036 156.681 99.59C156.735 99.5627 156.804 99.5491 156.626 99.6173C156.653 99.6173 156.667 99.6036 156.694 99.59C156.749 99.5763 156.79 99.5627 156.844 99.5491C156.995 99.5218 157.145 99.3854 157.213 99.2626C157.281 99.1262 157.322 98.9352 157.267 98.7851C157.145 98.444 156.844 98.3076 156.49 98.3622L156.531 98.3895Z" fill="#7CB8C0"/>
<path d="M173.556 109.44C173.652 108.976 173.502 108.512 173.174 108.185C172.874 107.884 172.465 107.721 172.056 107.693C171.578 107.666 171.142 107.912 170.882 108.294C170.623 108.676 170.596 109.18 170.732 109.603C170.869 110.026 171.169 110.436 171.592 110.613C171.824 110.708 172.069 110.763 172.328 110.736C172.574 110.708 172.792 110.64 172.997 110.504C173.734 110.013 174.102 108.921 173.556 108.144C172.929 107.257 171.592 107.121 170.801 107.871C170.569 108.089 170.569 108.539 170.814 108.744C171.073 108.976 171.442 108.962 171.687 108.73C171.715 108.703 171.728 108.689 171.755 108.676L171.633 108.771C171.701 108.717 171.783 108.662 171.865 108.635L171.715 108.703C171.81 108.662 171.906 108.635 172.001 108.621L171.837 108.648C171.96 108.635 172.083 108.621 172.206 108.648H172.042C172.151 108.648 172.274 108.676 172.369 108.717L172.219 108.662C172.315 108.703 172.41 108.758 172.492 108.812L172.369 108.717C172.438 108.771 172.506 108.839 172.56 108.908L172.465 108.785C172.465 108.785 172.547 108.908 172.588 108.976L172.519 108.826C172.547 108.894 172.574 108.976 172.588 109.058L172.56 108.894C172.56 108.976 172.574 109.058 172.56 109.153V108.989C172.56 109.085 172.547 109.194 172.506 109.29L172.56 109.14C172.519 109.235 172.465 109.331 172.41 109.426L172.506 109.303C172.451 109.385 172.383 109.453 172.301 109.522L172.424 109.426C172.356 109.481 172.274 109.535 172.192 109.576L172.342 109.508C172.274 109.535 172.192 109.562 172.124 109.576L172.288 109.549C172.219 109.549 172.137 109.549 172.069 109.549H172.233C172.233 109.549 172.097 109.549 172.042 109.522L172.192 109.576C172.124 109.549 172.056 109.508 172.001 109.467L172.124 109.562C172.056 109.508 171.987 109.44 171.933 109.371L172.028 109.494C171.974 109.426 171.933 109.344 171.892 109.262L171.96 109.412C171.919 109.317 171.892 109.221 171.878 109.126L171.906 109.29C171.892 109.194 171.892 109.112 171.906 109.017V109.18C171.906 109.099 171.906 109.017 171.946 108.949L171.892 109.099C171.892 109.099 171.946 108.976 171.987 108.921L171.892 109.044C171.892 109.044 171.974 108.962 172.015 108.921L171.892 109.017C171.892 109.017 172.001 108.949 172.056 108.921L171.906 108.989C171.906 108.989 172.028 108.949 172.083 108.935L171.919 108.962C172.001 108.962 172.069 108.962 172.151 108.962H171.987C172.083 108.962 172.165 108.976 172.247 109.017L172.097 108.962C172.192 109.003 172.274 109.044 172.356 109.099L172.233 109.003C172.233 109.003 172.356 109.112 172.41 109.18L172.315 109.058C172.315 109.058 172.397 109.167 172.424 109.235L172.356 109.085C172.356 109.085 172.397 109.194 172.41 109.262L172.383 109.099C172.383 109.099 172.383 109.208 172.383 109.262V109.099C172.383 109.099 172.383 109.153 172.383 109.18C172.315 109.494 172.506 109.863 172.833 109.931C173.147 109.999 173.515 109.822 173.584 109.481L173.556 109.44Z" fill="#7CB8C0"/>
<path d="M156.026 94.4469C158.945 93.7511 162.083 94.7879 164.061 97.0253C164.593 97.6255 165.453 96.7251 164.921 96.1385C162.642 93.5737 158.986 92.4687 155.671 93.26C154.894 93.451 155.248 94.6379 156.026 94.4469Z" fill="#7CB8C0"/>
<path d="M173.638 102.782C176.489 103.178 179.109 105.047 180.282 107.693C180.418 108.007 180.705 108.212 181.06 108.116C181.346 108.035 181.619 107.653 181.482 107.339C180.132 104.297 177.267 102.032 173.938 101.568C173.611 101.527 173.27 101.677 173.188 102.018C173.12 102.318 173.311 102.728 173.638 102.769V102.782Z" fill="#7CB8C0"/>
<path d="M156.531 100.368C157.308 100.559 157.608 99.3581 156.831 99.1671C156.053 98.9761 155.753 100.177 156.531 100.368Z" fill="#7CB8C0"/>
<path d="M156.804 100.831C157.581 101.022 157.881 99.8219 157.104 99.6309C156.326 99.4399 156.026 100.64 156.804 100.831Z" fill="#7CB8C0"/>
<path d="M151.374 116.261C152.329 119.276 154.566 121.827 157.499 123.041C160.569 124.31 164.102 124.037 166.981 122.414C167.676 122.018 167.035 120.967 166.34 121.349C163.788 122.782 160.596 123.041 157.895 121.868C155.344 120.763 153.393 118.553 152.561 115.906C152.315 115.142 151.128 115.497 151.374 116.261Z" fill="#7CB8C0"/>
<path d="M197.007 97.9665C197.212 98.4713 197.471 98.8942 197.949 99.1671C198.276 99.358 198.699 99.4672 199.081 99.4262C199.818 99.358 200.568 98.9624 200.923 98.2803C201.291 97.5573 201.277 96.6569 200.8 95.9884C200.432 95.47 199.954 95.1562 199.368 94.9243C197.73 94.2831 196.025 93.9557 194.279 93.9284C193.542 93.9284 192.874 94.4605 192.615 95.1153C192.342 95.8247 192.519 96.575 193.037 97.1207C194.634 98.7851 196.857 99.9447 199.149 100.218C199.477 100.299 199.804 100.286 200.118 100.19C200.432 100.095 200.704 99.931 200.923 99.6991C201.4 99.1943 201.523 98.5395 201.373 97.871C201.086 96.6159 200.213 95.5928 199.149 94.9107C198.085 94.2285 196.721 94.0375 195.452 94.2968C195.07 94.3786 194.729 94.6787 194.497 94.9789C194.252 95.3063 194.088 95.7155 194.115 96.1385C194.211 97.4208 194.947 98.7305 196.175 99.2625C196.653 99.4672 197.103 99.5763 197.608 99.4262C198.031 99.3035 198.494 98.9624 198.699 98.5531C198.917 98.1166 199.026 97.5982 198.863 97.1207C198.713 96.6842 198.426 96.2203 197.99 96.0293C197.867 95.9748 197.758 95.9065 197.635 95.8383L198.017 96.1248C197.88 96.0293 197.771 95.9202 197.662 95.7974L197.962 96.1657C197.867 96.043 197.785 95.9065 197.717 95.7565L197.908 96.193C197.84 96.043 197.799 95.8929 197.771 95.7292L197.853 96.2067C197.853 96.2067 197.853 96.0975 197.84 96.043L196.516 97.8847C196.516 97.8847 196.612 97.871 196.666 97.8574L196.189 97.9392C196.434 97.8983 196.68 97.8983 196.939 97.9256L196.448 97.871C196.721 97.912 196.994 97.9802 197.239 98.0757L196.775 97.8983C197.062 98.0075 197.321 98.1575 197.567 98.3485L197.185 98.062C197.403 98.2394 197.594 98.4304 197.771 98.635L197.471 98.2667C197.621 98.4713 197.758 98.6759 197.853 98.9078L197.662 98.4713C197.73 98.635 197.785 98.7987 197.826 98.9761C198.563 98.1984 199.313 97.4208 200.05 96.6432C199.313 96.5614 198.59 96.384 197.894 96.1112L198.358 96.2885C197.635 96.002 196.953 95.6201 196.325 95.1562L196.707 95.4427C196.325 95.1562 195.957 94.8288 195.63 94.4741C195.22 95.5382 194.797 96.6023 194.388 97.6664C194.784 97.6664 195.193 97.6937 195.589 97.7346L195.097 97.68C196.189 97.8028 197.239 98.062 198.262 98.4576L197.799 98.2803C197.949 98.3349 198.071 98.4031 198.208 98.4986L197.826 98.2121C197.826 98.2121 197.894 98.2803 197.935 98.3076L197.635 97.9392C197.635 97.9392 197.689 98.0074 197.717 98.062L197.526 97.6255C197.526 97.6255 197.567 97.721 197.567 97.7619L197.485 97.2844V97.339C197.499 97.1753 197.526 97.0116 197.539 96.8479V96.9024C197.594 96.7524 197.649 96.5887 197.717 96.4386C197.717 96.4795 197.69 96.5068 197.662 96.5341L197.949 96.1521C197.949 96.1521 197.894 96.2067 197.867 96.234L198.235 95.9338L198.181 95.9611L198.617 95.7701C198.617 95.7701 198.549 95.7974 198.508 95.811L198.986 95.7292C198.986 95.7292 198.917 95.7292 198.89 95.7292L199.381 95.7838H199.34C199.49 95.8247 199.654 95.8929 199.804 95.9475L199.763 95.9202L200.145 96.2067L200.118 96.1657L200.609 96.9706L200.582 96.9161C200.391 96.4522 200.159 96.0702 199.709 95.8247C199.299 95.6064 198.713 95.5109 198.276 95.661C197.84 95.811 197.403 96.0975 197.185 96.5341C196.966 96.9706 196.844 97.5163 197.021 97.9665H197.007Z" fill="#7CB8C0"/>
</g>
<defs>
<clipPath id="clip0_101_941">
<rect width="501" height="382" fill="white"/>
</clipPath>
</defs>
</svg>
