<?xml version="1.0" encoding="UTF-8"?>
<svg id="Layer_1" data-name="Layer 1" xmlns="http://www.w3.org/2000/svg" viewBox="0 0 142.81 175.68">
  <defs>
    <style>
      .cls-1 {
        fill: #ffebae;
      }

      .cls-2 {
        opacity: .44;
      }
    </style>
  </defs>
  <g class="cls-2">
    <path d="M32.02,86.41c4.91,2.21,8.8,7.63,8.91,16.44,0,8.15-2.05,35.35,17.95,44.35,10,4.5,20.1,3.34,24.52-6.49,11.97-26.61-53.82-73.32-38.41-107.56,6.71-14.91,28.83-21.06,54.93-9.32,22.88,10.29,39.23,31.92,36.34,48.75-2.06,12.73-12.09,15.55-19.38,12.27-5.25-2.36-9.13-7.78-7.93-14.98,2.49-16.4-1.15-34.14-17.75-41.61-6.44-2.9-13.47.05-15.99,5.64-14.94,33.22,53.51,74,38.34,107.73-9.15,20.34-38.74,20.88-60.6,11.04-30.67-13.8-42.61-43.42-39.73-56.18,2.18-9.82,11.52-13.36,18.8-10.08h0Z"/>
    <g>
      <path d="M80.73,172.02c11.42-.01,24.17-1.2,33.88-7.21,10.17-6.26,13.12-18.16,14.64-29.7,6.7,21.96-7.13,40.4-29.99,40.57-6.33.01-12.86-.79-18.53-3.66h0Z"/>
      <path d="M127.28,172.8c-.08.07-.09.1-.14.08-.02,0,.09-.07.08-.13,0-.07-.04-.1-.03-.11.39-.34.81-.7,1.19-1.04,5.24-4.52,9.59-10.22,10.46-17.17.5-2.72.39-5.27.7-8.11,7.73,10.2.96,25.35-11.68,26.66l-.56.03c-.17.05-.43-.1-.36-.11.11-.07.26-.1.34-.09h0Z"/>
      <path d="M81.96,7.15c-11.31-1.59-24.1-2.2-34.56,2.38-10.95,4.77-15.54,16.13-18.66,27.35C25.19,14.19,41.47-2.12,64.13.92c6.27.88,12.62,2.58,17.83,6.22h0Z"/>
      <path d="M35.79.27c.08-.06.1-.08.15-.06.02,0-.1.05-.1.12,0,.07.02.1,0,.12-.43.29-.9.58-1.32.86-5.82,3.74-10.93,8.77-12.77,15.53-.88,2.62-1.13,5.17-1.83,7.93C13.71,13.59,22.54-.46,35.24.01l.56.05c.17-.02.41.16.34.16-.12.06-.27.06-.35.04h0Z"/>
    </g>
  </g>
  <g>
    <path class="cls-1" d="M19.22,86.43c4.91,2.21,8.8,7.63,8.91,16.44,0,8.15-2.05,35.35,17.95,44.35,10,4.5,20.1,3.34,24.52-6.49,11.97-26.61-53.82-73.32-38.41-107.56,6.71-14.91,28.83-21.06,54.93-9.32,22.88,10.29,39.23,31.92,36.34,48.75-2.06,12.73-12.09,15.55-19.38,12.27-5.25-2.36-9.13-7.78-7.93-14.98,2.49-16.4-1.15-34.14-17.75-41.61-6.44-2.9-13.47.05-15.99,5.64-14.94,33.22,53.51,74,38.34,107.73-9.15,20.34-38.74,20.88-60.6,11.04C9.48,138.89-2.46,109.27.42,96.51c2.18-9.82,11.52-13.36,18.8-10.08h0Z"/>
    <g>
      <path class="cls-1" d="M67.92,172.05c11.42-.01,24.17-1.2,33.88-7.21,10.17-6.26,13.12-18.16,14.64-29.7,6.7,21.96-7.13,40.4-29.99,40.57-6.33.01-12.86-.79-18.53-3.66h0Z"/>
      <path class="cls-1" d="M114.48,172.82c-.08.07-.09.1-.14.08-.02,0,.09-.07.08-.13,0-.07-.04-.1-.03-.11.39-.34.81-.7,1.19-1.04,5.24-4.52,9.59-10.22,10.46-17.17.5-2.72.39-5.27.7-8.11,7.73,10.2.96,25.35-11.68,26.66l-.56.03c-.17.05-.43-.1-.36-.11.11-.07.26-.1.34-.09h0Z"/>
      <path class="cls-1" d="M69.16,7.17c-11.31-1.59-24.1-2.2-34.56,2.38-10.95,4.77-15.54,16.13-18.66,27.35C12.39,14.21,28.67-2.1,51.33.94c6.27.88,12.62,2.58,17.83,6.22h0Z"/>
      <path class="cls-1" d="M22.99.29c.08-.06.1-.08.15-.06.02,0-.1.05-.1.12,0,.07.02.1,0,.12-.43.29-.9.58-1.32.86-5.82,3.74-10.93,8.77-12.77,15.53-.88,2.62-1.13,5.17-1.83,7.93C.91,13.61,9.74-.44,22.44.03l.56.05c.17-.02.41.16.34.16-.12.06-.27.06-.35.04h0Z"/>
    </g>
  </g>
</svg>