<svg width="661" height="275" viewBox="0 0 661 275" fill="none" xmlns="http://www.w3.org/2000/svg">
<g clip-path="url(#clip0_114_48)">
<g clip-path="url(#clip1_114_48)">
<path d="M143.6 79.01C148.3 80.21 152.5 84.41 153.8 92.21C155 99.41 157.1 123.71 176.1 128.71C185.6 131.21 194.3 128.71 196.8 119.41C203.5 94.21 138.7 62.51 147.3 30.11C151.1 16.01 169.7 7.30997 194.4 13.91C216.1 19.71 233.6 36.41 233.5 51.71C233.5 63.21 225.1 67.21 218.2 65.31C213.2 64.01 209 59.81 209 53.21C208.8 38.41 203 23.31 187.3 19.11C181.2 17.51 175.4 21.11 174 26.41C165.6 57.91 231.9 83.91 223.4 115.91C218.3 135.21 192.2 139.91 171.5 134.41C142.4 126.71 127.6 102.31 128.3 90.61C128.8 81.61 136.5 77.11 143.4 79.01H143.6Z" fill="#2A5D64"/>
<path d="M273.5 83.11C285.7 81.41 294.1 84.81 299.5 89.71C295.8 64.31 289.4 52.21 275.8 54.11C266.3 55.41 265.4 66.31 263.4 72.51C261 79.91 256.3 83.51 251.7 84.21C245.3 85.11 239.3 80.41 240 72.71C241.5 56.41 262.6 50.21 274.5 48.61C295.2 45.71 321.9 52.81 326.1 89.61C328.9 114.61 334 129.51 339.8 136.21C342.4 139.11 341.9 139.51 340.1 139.81L309.2 144.11C307.6 144.31 306.6 143.51 306.4 141.81C306.1 139.71 305.6 136.21 305.1 132.31C301.7 140.41 294.6 146.11 282.2 147.81C258.5 151.11 242.6 137.61 240.4 121.81L240.2 120.31C237 97.11 259.3 85.11 273.6 83.11H273.5ZM288.5 140.51C305.3 138.21 302.9 115.61 301.1 102.91C299.8 97.61 293.6 86.31 281 88.11C272.7 89.21 264 98.21 266.5 115.91C268.3 128.51 276.3 142.21 288.5 140.51Z" fill="#2A5D64"/>
<path d="M348.1 136.71C352.7 126.01 350.8 109.31 350.1 104.71L343.4 58.7099C342.7 54.1099 339.8 37.6099 332.3 28.6099C330.7 26.8099 329.6 26.3099 331.9 25.5099L360.5 13.8099C361.3 13.5099 361.8 13.8099 361.9 14.6099L374.5 101.11C375.2 105.71 378.1 122.21 385.6 131.21C387 133.01 388.3 134.01 385.9 134.31L348.5 139.81C346.2 140.11 347 138.91 348.1 136.71Z" fill="#2A5D64"/>
<path d="M398.3 74.91H398.5C414.8 78.41 428.9 66.71 438.4 56.61C439.4 55.51 440.5 55.21 441.2 55.31C442.1 55.51 442.6 56.41 442.3 57.61L436.8 83.11L452.7 86.51C453.6 86.71 454.1 87.41 453.9 88.31L453.3 90.81C453.1 91.71 452.4 92.11 451.5 91.91L435.6 88.51L426.8 129.21C423.1 146.41 420.6 159.71 431.2 162.01C434.8 162.81 438.3 161.41 439.9 160.31C442.4 158.81 443 160.61 441.6 162.71C437.9 168.11 427.1 175.71 414.1 172.91C393.9 168.51 392.6 150.71 396.8 130.91L407.2 82.41L397 80.21C396.1 80.01 395.6 79.31 395.8 78.41L396.4 75.91C396.6 75.01 397.3 74.61 398.2 74.81L398.3 74.91Z" fill="#2A5D64"/>
<path d="M43.2 241.21C46.7 239.01 51.8 238.81 57.4 242.31C62.5 245.61 78.5 258.01 92.9 249.11C100.1 244.71 103.8 237.81 99.7 231.11C88.4 212.81 30.3 235.11 15.8 211.51C9.49999 201.21 15.4 184.91 34.2 173.21C50.7 163.01 71.4 161.61 80.6 170.21C87.6 176.71 85 184.11 79.7 187.31C75.9 189.61 70.8 189.91 66.9 186.21C57.8 178.01 45.1 173.01 33.1 180.41C28.5 183.31 27.2 188.91 29.6 192.71C43.7 215.61 99.3 189.21 113.6 212.41C122.2 226.41 109.5 245.21 93.8 254.91C71.7 268.51 48 264.01 41.3 257.01C36.1 251.61 38.1 244.31 43.3 241.11L43.2 241.21Z" fill="#2A5D64"/>
<path d="M229.5 265.51C225.9 268.31 221.6 270.21 217.1 270.81C212.8 271.41 208.1 270.81 204.5 268.31C201.8 266.41 199.9 263.51 198.7 260.41C195.1 250.81 195.5 238.51 196.1 228.31C197.7 201.61 191.6 180.51 173 179.41C160 178.61 156.1 190.21 154.7 205.61L153.5 225.51C153.2 230.11 152.8 246.71 158.5 256.81C159.6 258.81 160.7 260.01 158.2 259.91L119.5 257.71C117.1 257.61 118.2 256.51 119.7 254.61C126.5 245.21 128 228.61 128.3 224.01L131 178.11C131.3 173.51 131.7 156.91 126 146.81C124.8 144.81 123.8 144.11 126.2 143.71L157.4 138.11C158.2 138.01 158.7 138.31 158.7 139.21L156.4 178.51C161.4 172.31 178.4 169.41 186.3 169.81C213.3 171.41 223.6 186.61 222.1 212.21C221.8 217.31 221.4 222.51 221.3 227.61C221.2 231.71 221.1 235.81 221.3 239.81C221.4 243.21 221.3 246.61 222.7 249.81C223.3 251.31 224.4 252.61 225.7 253.41C227.5 254.41 229.7 254.41 231.7 253.91C233.5 253.51 235.5 252.71 237.1 251.91C237.7 251.61 239.4 249.91 239.9 249.91C240.1 249.91 237.7 255.31 237.4 255.91C236.1 258.51 234.4 260.91 232.4 262.91C231.5 263.81 230.6 264.61 229.6 265.31L229.5 265.51Z" fill="#2A5D64"/>
<path d="M281.7 196.41C293.6 200.01 300 206.21 303 212.41C309.6 190.21 308.5 177.81 295.2 173.81C285.9 171.01 280.9 179.51 276.6 183.71C271.5 188.71 265.7 189.81 261.2 188.41C255 186.51 251.3 180.21 255 174.31C262.8 161.71 284.7 165.31 296.2 168.81C316.3 174.91 338.1 191.71 327.5 223.31C320.2 244.81 319.1 258.91 321.7 266.81C322.9 270.21 322.3 270.41 320.6 269.81L290.5 260.61C288.9 260.11 288.3 259.01 288.8 257.61C289.3 255.81 290.3 252.71 291.3 249.41C285 254.61 276.2 256.31 264.2 252.61C241.1 245.51 231.8 228.01 236 214.31L236.4 213.01C242.6 192.81 267.8 192.21 281.7 196.41ZM272.9 249.21C289.2 254.21 295.9 234.81 299.3 223.81C300.2 218.91 298.9 207.21 286.7 203.51C278.6 201.01 267.1 204.81 262.4 220.11C259 231.11 261 245.51 272.9 249.11V249.21Z" fill="#2A5D64"/>
<path d="M338.3 267.41C345 257.61 346.2 240.61 346.4 235.91L348.3 188.81C348.5 184.11 348.7 167.01 342.8 156.81C341.5 154.71 340.5 154.01 342.9 153.61L374 147.31C374.8 147.21 375.3 147.51 375.3 148.41L372 228.11L372.2 226.41L384.6 214.01C399.1 199.51 399.5 194.41 394.9 190.81C393.6 189.71 394.9 189.11 396 189.21L424.6 190.41C426.5 190.41 425.6 191.81 424.6 192.21C410.3 197.51 403.5 202.71 389.2 216.41L388.3 217.41L409.7 248.61C411.9 252.01 420.5 265.51 429.3 272.21C430.3 272.91 431.2 274.51 429 274.41L393.4 272.91C392.1 272.91 391.7 271.81 393.6 271.21C395 270.61 396.5 269.61 396.6 267.81C396.6 261.91 379.9 239.71 373.7 231.01L371.8 232.81L371.6 237.01C371.4 241.71 371.2 258.81 377.1 269.01C378.2 271.11 379.3 272.31 376.8 272.21L338 270.61C335.6 270.51 336.7 269.41 338.1 267.41H338.3Z" fill="#2A5D64"/>
<path d="M429.2 257.51C412.4 236.31 415.8 209.21 433.9 194.91C453.2 179.61 479 183.71 495.9 203.31C497.1 204.51 496.9 206.11 495.6 207.21L449.7 243.51C460.3 252.51 477.5 261.21 494.1 248.01C507.3 237.61 507 224.61 506.8 219.61C506.8 217.51 508.9 217.51 509.3 219.11C511.3 226.91 513.5 249.61 494.8 264.31C474.2 280.61 445.8 278.61 429.1 257.51H429.2ZM467.1 223.01C472.7 218.61 474.3 215.41 467.5 206.81C459.4 196.51 446.5 191.51 436.7 199.21C426.1 207.51 432.2 223.31 441.4 234.91C442.6 236.31 444 238.01 445.7 239.81L467.1 222.91V223.01Z" fill="#2A5D64"/>
<path d="M515.4 261.81C520 251.21 517.8 234.61 517.1 230.11L515.5 219.81C514.8 215.31 511.7 198.91 504.1 190.21C502.5 188.51 501.4 188.01 503.6 187.11L532.3 175.11C533.1 174.81 533.6 175.11 533.8 175.91L535.7 187.71C539.5 179.71 547.1 172.51 559.9 170.51C570.7 168.81 581.9 175.31 585.4 181.81C589.7 189.61 584.6 196.11 578.2 197.21C574.8 197.81 571.1 196.81 567.9 193.91C562.8 189.31 557.4 180.81 549.2 182.11C542 183.21 536.3 191.91 538 202.91L541.7 226.31C542.4 230.81 545.5 247.21 553.1 255.91C554.6 257.71 555.9 258.61 553.4 259.01L515.8 264.91C513.5 265.31 514.3 264.01 515.3 261.81H515.4Z" fill="#2A5D64"/>
<path d="M558 222.31L629.3 198.01C635.9 195.71 635.8 195.11 633.4 193.41L623.6 186.41C614.6 179.71 607.8 177.51 598 181.91C597.5 182.11 596.9 182.11 596.4 181.71C595.6 181.11 595.2 179.81 596.7 178.41C599.4 175.71 601.5 174.11 604.1 172.01C604.8 171.41 605.5 170.81 606.2 170.11C610.3 166.51 611.3 168.71 613.9 170.91L659.1 204.51C661.8 206.41 661.5 207.81 658.8 208.71L590.5 234.01C589.9 234.21 589.4 234.41 588.8 234.51C584.7 235.61 584.1 237.71 585.5 238.71L600.9 250.31C611.3 257.11 614 258.21 623.8 253.81C624.3 253.61 624.9 253.61 625.4 254.01C626.2 254.61 626.6 255.91 625.1 257.31C621.8 260.41 617 264.21 613.5 267.01C612.4 267.71 611.3 267.31 610.3 266.61L557.5 226.81C556.7 226.21 555.3 223.61 557.9 222.41L558 222.31Z" fill="#2A5D64"/>
<path d="M144.5 2.20999C131.4 6.00999 126.4 15.91 127.8 28.91C128.1 32.81 128.9 36.81 129.7 40.81C125.9 33.51 123.6 24.91 125.7 16.61C127.6 8.20999 136 1.90999 144.5 2.20999Z" fill="#2A5D64"/>
<path d="M144.5 11.2099C144.1 11.1099 143.5 11.6099 143.1 11.8099C138.2 14.6099 135.8 19.9099 135.5 25.5099C135.3 27.6099 135.4 29.7099 135.3 31.9099C131.9 26.0099 132.1 17.2099 138 13.0099C139.8 11.8099 141.9 10.9099 144.1 11.1099C144.2 11.1099 144.5 11.1099 144.4 11.3099L144.5 11.2099Z" fill="#2A5D64"/>
<path d="M441.4 178.01C449.8 171.41 459.6 162.81 456.1 151.01C464.3 162.11 452.4 175.31 441.4 178.01Z" fill="#2A5D64"/>
<path d="M624.4 151.31C624 149.61 622 149.11 620.6 148.61C612.8 146.51 603.8 148.31 598 154.11C595.7 156.41 593.8 159.21 592.1 162.31C593.6 151.01 604.8 143.21 616 145.61C618.7 146.11 624.6 148.01 624.4 151.41V151.31Z" fill="#2A5D64"/>
<path d="M460.8 167.51C464.5 163.01 465.4 158.71 463.9 153.41C463.7 152.61 463.5 151.91 463.3 151.01C469.6 155.31 468.6 165.71 460.8 167.41V167.51Z" fill="#2A5D64"/>
<path d="M622 156.31C615.3 154.11 610.5 154.01 604.7 158.51C606.9 150.61 617.6 149.91 622 156.31Z" fill="#2A5D64"/>
<path d="M14 244.71C9.49999 254.51 13.6 261.01 21.9 266.51C23 267.21 24.1 267.91 25.2 268.81C23.9 268.61 22.6 268.21 21.3 267.81C10.9 264.41 5.19999 253.21 14.1 244.81L14 244.71Z" fill="#2A5D64"/>
<path d="M22.8 248.71C20.9 254.91 21.6 257.81 27.3 261.21C28 261.61 28.7 262.01 29.4 262.61C20.6 263.61 15.2 254.51 22.9 248.71H22.8Z" fill="#2A5D64"/>
<path d="M133.9 76.81C138.6 78.01 142.8 82.21 144.1 90.01C145.3 97.21 147.4 121.51 166.4 126.51C175.9 129.01 184.6 126.51 187.1 117.21C193.8 92.01 129 60.31 137.6 27.91C141.4 13.81 160 5.11002 184.7 11.71C206.4 17.51 223.9 34.21 223.8 49.51C223.8 61.01 215.4 65.01 208.5 63.11C203.5 61.81 199.3 57.61 199.3 51.01C199.1 36.21 193.3 21.11 177.6 16.91C171.5 15.31 165.7 18.91 164.3 24.21C155.9 55.71 222.2 81.71 213.7 113.71C208.6 133.01 182.5 137.71 161.8 132.21C132.7 124.51 117.9 100.11 118.6 88.41C119.1 79.41 126.8 74.91 133.7 76.81H133.9Z" fill="#7CB8C0"/>
<path d="M263.8 80.91C276 79.21 284.4 82.61 289.8 87.51C286.1 62.11 279.7 50.01 266.1 51.91C256.6 53.21 255.7 64.11 253.7 70.31C251.3 77.71 246.6 81.31 242 82.01C235.6 82.91 229.6 78.21 230.3 70.51C231.8 54.21 252.9 48.01 264.8 46.41C285.5 43.51 312.2 50.61 316.4 87.41C319.2 112.41 324.3 127.31 330.1 134.01C332.7 136.91 332.2 137.31 330.4 137.61L299.5 141.91C297.9 142.11 296.9 141.31 296.7 139.61C296.4 137.51 295.9 134.01 295.4 130.11C292 138.21 284.9 143.91 272.5 145.61C248.8 148.91 232.9 135.41 230.7 119.61L230.5 118.11C227.3 94.91 249.6 82.91 263.9 80.91H263.8ZM278.8 138.31C295.6 136.01 293.2 113.41 291.4 100.71C290.1 95.41 283.9 84.11 271.3 85.91C263 87.01 254.3 96.01 256.8 113.71C258.6 126.31 266.6 140.01 278.8 138.31Z" fill="#7CB8C0"/>
<path d="M338.4 134.51C343 123.81 341.1 107.11 340.4 102.51L333.7 56.51C333 51.91 330.1 35.41 322.6 26.41C321 24.61 319.9 24.11 322.2 23.31L350.8 11.61C351.6 11.31 352.1 11.61 352.2 12.41L364.8 98.91C365.5 103.51 368.4 120.01 375.9 129.01C377.3 130.81 378.6 131.81 376.2 132.11L338.8 137.61C336.5 137.91 337.3 136.71 338.4 134.51Z" fill="#7CB8C0"/>
<path d="M388.6 72.7101H388.8C405.1 76.2101 419.2 64.5101 428.7 54.4101C429.7 53.3101 430.8 53.0101 431.5 53.1101C432.4 53.3101 432.9 54.2101 432.6 55.4101L427.1 80.9101L443 84.3101C443.9 84.5101 444.4 85.2101 444.2 86.1101L443.6 88.6101C443.4 89.5101 442.7 89.9101 441.8 89.7101L425.9 86.3101L417.1 127.01C413.4 144.21 410.9 157.51 421.5 159.81C425.1 160.61 428.6 159.21 430.2 158.11C432.7 156.61 433.3 158.41 431.9 160.51C428.2 165.91 417.4 173.51 404.4 170.71C384.2 166.31 382.9 148.51 387.1 128.71L397.5 80.2101L387.3 78.0101C386.4 77.8101 385.9 77.1101 386.1 76.2101L386.7 73.7101C386.9 72.8101 387.6 72.4101 388.5 72.6101L388.6 72.7101Z" fill="#7CB8C0"/>
<path d="M33.5 239.01C37 236.81 42.1 236.61 47.7 240.11C52.8 243.41 68.8 255.81 83.2 246.91C90.4 242.51 94.1 235.61 90 228.91C78.7 210.61 20.6 232.91 6.09998 209.31C-0.200022 199.01 5.69998 182.71 24.5 171.01C41 160.81 61.7 159.41 70.9 168.01C77.9 174.51 75.3 181.91 70 185.11C66.2 187.41 61.1 187.71 57.2 184.01C48.1 175.81 35.4 170.81 23.4 178.21C18.8 181.11 17.5 186.71 19.9 190.51C34 213.41 89.6 187.01 103.9 210.21C112.5 224.21 99.8 243.01 84.1 252.71C62 266.31 38.3 261.81 31.6 254.81C26.4 249.41 28.4 242.11 33.6 238.91L33.5 239.01Z" fill="#7CB8C0"/>
<path d="M219.8 263.31C216.2 266.11 211.9 268.01 207.4 268.61C203.1 269.21 198.4 268.61 194.8 266.11C192.1 264.21 190.2 261.31 189 258.21C185.4 248.61 185.8 236.31 186.4 226.11C188 199.41 181.9 178.31 163.3 177.21C150.3 176.41 146.4 188.01 145 203.41L143.8 223.31C143.5 227.91 143.1 244.51 148.8 254.61C149.9 256.61 151 257.81 148.5 257.71L109.8 255.51C107.4 255.41 108.5 254.31 110 252.41C116.8 243.01 118.3 226.41 118.6 221.81L121.3 175.91C121.6 171.31 122 154.71 116.3 144.61C115.1 142.61 114.1 141.91 116.5 141.51L147.7 135.91C148.5 135.81 149 136.11 149 137.01L146.7 176.31C151.7 170.11 168.7 167.21 176.6 167.61C203.6 169.21 213.9 184.41 212.4 210.01C212.1 215.11 211.7 220.31 211.6 225.41C211.5 229.51 211.4 233.61 211.6 237.61C211.7 241.01 211.6 244.41 213 247.61C213.6 249.11 214.7 250.41 216 251.21C217.8 252.21 220 252.21 222 251.71C223.8 251.31 225.8 250.51 227.4 249.71C228 249.41 229.7 247.71 230.2 247.71C230.4 247.71 228 253.11 227.7 253.71C226.4 256.31 224.7 258.71 222.7 260.71C221.8 261.61 220.9 262.41 219.9 263.11L219.8 263.31Z" fill="#7CB8C0"/>
<path d="M272 194.21C283.9 197.81 290.3 204.01 293.3 210.21C299.9 188.01 298.8 175.61 285.5 171.61C276.2 168.81 271.2 177.31 266.9 181.51C261.8 186.51 256 187.61 251.5 186.21C245.3 184.31 241.6 178.01 245.3 172.11C253.1 159.51 275 163.11 286.5 166.61C306.6 172.71 328.4 189.51 317.8 221.11C310.5 242.61 309.4 256.71 312 264.61C313.2 268.01 312.6 268.21 310.9 267.61L280.8 258.41C279.2 257.91 278.6 256.81 279.1 255.41C279.6 253.61 280.6 250.51 281.6 247.21C275.3 252.41 266.5 254.11 254.5 250.41C231.4 243.31 222.1 225.81 226.3 212.11L226.7 210.81C232.9 190.61 258.1 190.01 272 194.21ZM263.2 247.11C279.5 252.11 286.2 232.71 289.6 221.71C290.5 216.81 289.2 205.11 277 201.41C268.9 198.91 257.4 202.71 252.7 218.01C249.3 229.01 251.3 243.41 263.2 247.01V247.11Z" fill="#7CB8C0"/>
<path d="M328.6 265.21C335.3 255.41 336.5 238.41 336.7 233.71L338.6 186.61C338.8 181.91 339 164.81 333.1 154.61C331.8 152.51 330.8 151.81 333.2 151.41L364.3 145.11C365.1 145.01 365.6 145.31 365.6 146.21L362.3 225.91L362.5 224.21L374.9 211.81C389.4 197.31 389.8 192.21 385.2 188.61C383.9 187.51 385.2 186.91 386.3 187.01L414.9 188.21C416.8 188.21 415.9 189.61 414.9 190.01C400.6 195.31 393.8 200.51 379.5 214.21L378.6 215.21L400 246.41C402.2 249.81 410.8 263.31 419.6 270.01C420.6 270.71 421.5 272.31 419.3 272.21L383.7 270.71C382.4 270.71 382 269.61 383.9 269.01C385.3 268.41 386.8 267.41 386.9 265.61C386.9 259.71 370.2 237.51 364 228.81L362.1 230.61L361.9 234.81C361.7 239.51 361.5 256.61 367.4 266.81C368.5 268.91 369.6 270.11 367.1 270.01L328.3 268.41C325.9 268.31 327 267.21 328.4 265.21H328.6Z" fill="#7CB8C0"/>
<path d="M419.5 255.31C402.7 234.11 406.1 207.01 424.2 192.71C443.5 177.41 469.3 181.51 486.2 201.11C487.4 202.31 487.2 203.91 485.9 205.01L440 241.31C450.6 250.31 467.8 259.01 484.4 245.81C497.6 235.41 497.3 222.41 497.1 217.41C497.1 215.31 499.2 215.31 499.6 216.91C501.6 224.71 503.8 247.41 485.1 262.11C464.5 278.41 436.1 276.41 419.4 255.31H419.5ZM457.4 220.91C463 216.51 464.6 213.31 457.8 204.71C449.7 194.41 436.8 189.41 427 197.11C416.4 205.41 422.5 221.21 431.7 232.81C432.9 234.21 434.3 235.91 436 237.71L457.4 220.81V220.91Z" fill="#7CB8C0"/>
<path d="M505.7 259.61C510.3 249.01 508.1 232.41 507.4 227.91L505.8 217.61C505.1 213.11 502 196.71 494.4 188.01C492.8 186.31 491.7 185.81 493.9 184.91L522.6 172.91C523.4 172.61 523.9 172.91 524.1 173.71L526 185.51C529.8 177.51 537.4 170.31 550.2 168.31C561 166.61 572.2 173.11 575.7 179.61C580 187.41 574.9 193.91 568.5 195.01C565.1 195.61 561.4 194.61 558.2 191.71C553.1 187.11 547.7 178.61 539.5 179.91C532.3 181.01 526.6 189.71 528.3 200.71L532 224.11C532.7 228.61 535.8 245.01 543.4 253.71C544.9 255.51 546.2 256.41 543.7 256.81L506.1 262.71C503.8 263.11 504.6 261.81 505.6 259.61H505.7Z" fill="#7CB8C0"/>
<path d="M548.3 220.11L619.6 195.81C626.2 193.51 626.1 192.91 623.7 191.21L613.9 184.21C604.9 177.51 598.1 175.31 588.3 179.71C587.8 179.91 587.2 179.91 586.7 179.51C585.9 178.91 585.5 177.61 587 176.21C589.7 173.51 591.8 171.91 594.4 169.81C595.1 169.21 595.8 168.61 596.5 167.91C600.6 164.31 601.6 166.51 604.2 168.71L649.4 202.31C652.1 204.21 651.8 205.61 649.1 206.51L580.8 231.81C580.2 232.01 579.7 232.21 579.1 232.31C575 233.41 574.4 235.51 575.8 236.51L591.2 248.11C601.6 254.91 604.3 256.01 614.1 251.61C614.6 251.41 615.2 251.41 615.7 251.81C616.5 252.41 616.9 253.71 615.4 255.11C612.1 258.21 607.3 262.01 603.8 264.81C602.7 265.51 601.6 265.11 600.6 264.41L547.8 224.61C547 224.01 545.6 221.41 548.2 220.21L548.3 220.11Z" fill="#7CB8C0"/>
<path d="M134.8 0.0100366C121.7 3.81004 116.7 13.71 118.1 26.71C118.4 30.61 119.2 34.61 120 38.61C116.2 31.31 113.9 22.71 116 14.41C117.9 6.01004 126.3 -0.289963 134.8 0.0100366Z" fill="#7CB8C0"/>
<path d="M134.8 9.11008C134.4 9.01008 133.8 9.51008 133.4 9.71008C128.5 12.5101 126.1 17.8101 125.8 23.4101C125.6 25.5101 125.7 27.6101 125.6 29.8101C122.2 23.9101 122.4 15.1101 128.3 10.9101C130.1 9.71008 132.2 8.81008 134.4 9.01008C134.5 9.01008 134.8 9.01008 134.7 9.21008L134.8 9.11008Z" fill="#7CB8C0"/>
<path d="M431.7 175.91C440.1 169.31 449.9 160.71 446.4 148.91C454.6 160.01 442.7 173.21 431.7 175.91Z" fill="#7CB8C0"/>
<path d="M614.7 149.21C614.3 147.51 612.3 147.01 610.9 146.51C603.1 144.41 594.1 146.21 588.3 152.01C586 154.31 584.1 157.11 582.4 160.21C583.9 148.91 595.1 141.11 606.3 143.51C609 144.01 614.9 145.91 614.7 149.31V149.21Z" fill="#7CB8C0"/>
<path d="M451.1 165.31C454.8 160.81 455.7 156.51 454.2 151.21C454 150.41 453.8 149.71 453.6 148.81C459.9 153.11 458.9 163.51 451.1 165.21V165.31Z" fill="#7CB8C0"/>
<path d="M612.3 154.11C605.6 151.91 600.8 151.81 595 156.31C597.2 148.41 607.9 147.71 612.3 154.11Z" fill="#7CB8C0"/>
<path d="M4.29998 242.61C-0.200025 252.41 3.89997 258.91 12.2 264.41C13.3 265.11 14.4 265.81 15.5 266.71C14.2 266.51 12.9 266.11 11.6 265.71C1.19998 262.31 -4.50002 251.11 4.39998 242.71L4.29998 242.61Z" fill="#7CB8C0"/>
<path d="M13.0999 246.51C11.1999 252.71 11.8999 255.61 17.5999 259.01C18.2999 259.41 18.9999 259.81 19.6999 260.41C10.8999 261.41 5.49994 252.31 13.1999 246.51H13.0999Z" fill="#7CB8C0"/>
</g>
</g>
<defs>
<clipPath id="clip0_114_48">
<rect width="661" height="275" fill="white"/>
</clipPath>
<clipPath id="clip1_114_48">
<rect width="660.99" height="275.13" fill="white"/>
</clipPath>
</defs>
</svg>
