<svg width="575" height="242" viewBox="0 0 575 242" fill="none" xmlns="http://www.w3.org/2000/svg">
<g clip-path="url(#clip0_101_506)">
<g clip-path="url(#clip1_101_506)">
<path d="M25.1801 80.3208C29.2155 81.3935 32.8679 85.0458 34.0555 91.7758C35.0771 98.0077 36.9288 119.079 53.3643 123.459C61.5757 125.643 69.1613 123.485 71.3067 115.414C77.13 93.5509 20.9148 66.069 28.3982 37.9359C31.6547 25.6763 47.822 18.2056 69.2634 23.914C88.0614 28.92 103.296 43.4144 103.194 56.6572C103.22 66.6564 95.8897 70.0789 89.9131 68.4826C85.5967 67.3333 81.9444 63.6809 81.9572 58.0109C81.8039 45.1511 76.798 32.0359 63.1464 28.3964C57.8595 26.9917 52.8407 30.1332 51.6275 34.7177C44.3612 62.008 101.866 84.6244 94.4977 112.336C90.0536 129.053 67.4756 133.177 49.5204 128.401C24.3117 121.697 11.4647 100.523 12.0649 90.3966C12.4991 82.6066 19.2035 78.7245 25.1801 80.3208Z" fill="#2A5D64"/>
<path d="M136.934 65.124C147.508 63.6554 154.787 66.5926 159.448 70.8834C156.23 48.8162 150.726 38.3956 138.926 40.0302C130.651 41.1795 129.935 50.6424 128.173 55.9804C126.092 62.3528 122.005 65.5454 118.021 66.0945C112.504 66.8607 107.255 62.8253 107.894 56.1592C109.209 42.0096 127.535 36.6716 137.802 35.2413C155.732 32.7511 178.923 38.9064 182.562 70.7812C184.95 92.4781 189.382 105.338 194.413 111.212C196.635 113.702 196.214 114.086 194.681 114.303L167.864 118.019C166.484 118.21 165.603 117.508 165.399 116.052C165.156 114.277 164.722 111.212 164.262 107.828C161.325 114.814 155.144 119.781 144.417 121.263C123.882 124.11 110.065 112.387 108.162 98.6717L107.983 97.3819C105.187 77.2175 124.521 66.8224 136.934 65.0984V65.124ZM149.934 114.928C164.492 112.911 162.398 93.3082 160.878 82.3384C159.767 77.7283 154.352 67.959 143.472 69.4659C136.27 70.462 128.761 78.2391 130.881 93.5636C132.4 104.533 139.36 116.384 149.934 114.916V114.928Z" fill="#2A5D64"/>
<path d="M202.51 132.002C206.021 122.552 203.595 108.16 202.816 104.24C202.816 104.24 199.253 79.1076 194.95 64.677C191.182 52.0599 181.324 23.5564 174.453 16.1751C172.997 14.7193 172.039 14.3234 173.917 13.5061L198.193 2.12773C198.87 1.84678 199.343 2.05111 199.483 2.74071L223.849 100.051C224.628 103.984 227.897 118.198 234.755 125.592C236.07 127.086 237.245 127.865 235.138 128.286L203.02 134.671C201.054 135.067 201.705 133.918 202.484 132.002H202.51Z" fill="#2A5D64"/>
<path d="M245.865 28.5241L246.031 28.5624C259.951 32.3424 272.785 22.854 281.469 14.5661C282.414 13.6594 283.346 13.4167 283.997 13.5827C284.802 13.7998 285.121 14.5533 284.827 15.6388L278.889 37.4889L292.49 41.1795C293.294 41.3966 293.665 41.9968 293.447 42.7758L292.86 44.9468C292.656 45.7258 292.043 46.0578 291.225 45.8407L277.625 42.1501L268.149 77.0132C264.152 91.7375 261.394 103.141 270.461 105.593C273.538 106.423 276.591 105.427 278.059 104.495C280.307 103.269 280.728 104.891 279.374 106.679C275.875 111.225 266.247 117.253 255.072 114.226C237.756 109.514 237.462 93.9595 242.059 77.0771L253.348 35.5478L244.613 33.1725C243.809 32.9554 243.451 32.3552 243.656 31.5762L244.243 29.4052C244.447 28.6262 245.06 28.2942 245.878 28.5241H245.865Z" fill="#2A5D64"/>
<path d="M38.8699 207.526C41.9476 205.636 46.3533 205.432 51.155 208.471C55.5608 211.345 69.4677 222.046 81.9827 214.346C88.2402 210.489 91.4711 204.589 87.8443 198.715C78.0494 182.816 27.6447 202.15 15.0404 181.692C9.54911 172.778 14.6828 158.578 31.0033 148.515C45.3062 139.69 63.2486 138.413 71.2428 145.922C77.3343 151.528 75.0228 157.99 70.4638 160.8C67.1818 162.83 62.7633 163.034 59.3408 159.829C51.4232 152.69 40.4534 148.412 30.0711 154.823C26.0484 157.301 24.9502 162.179 27.0062 165.512C39.2402 185.357 87.4484 162.485 99.874 182.637C107.357 194.782 96.3494 211.077 82.6723 219.505C63.4912 231.33 42.9181 227.384 37.1331 221.318C32.6635 216.67 34.3109 210.336 38.8699 207.526Z" fill="#2A5D64"/>
<path d="M200.428 236.873C197.299 239.286 193.558 240.934 189.637 241.496C185.87 242.032 181.796 241.56 178.693 239.363C176.343 237.703 174.708 235.174 173.687 232.48C170.545 224.141 170.89 213.49 171.401 204.691C172.742 181.526 167.493 163.213 151.377 162.281C140.101 161.63 136.729 171.642 135.516 185.038L134.52 202.278C134.29 206.237 133.894 220.667 138.824 229.466C139.756 231.216 140.714 232.275 138.517 232.148L104.982 230.207C102.926 230.092 103.871 229.147 105.135 227.525C111.048 219.365 112.325 204.972 112.555 201.026L114.866 161.183C115.096 157.224 115.492 142.793 110.563 133.995C109.49 132.232 108.647 131.619 110.716 131.313L137.738 126.498C138.479 126.396 138.9 126.703 138.862 127.418L136.883 161.489C141.25 156.075 155.949 153.546 162.819 153.955C186.253 155.308 195.179 168.526 193.89 190.708C193.634 195.178 193.277 199.634 193.149 204.104C193.047 207.641 193.008 211.192 193.149 214.729C193.264 217.641 193.2 220.667 194.375 223.387C194.924 224.664 195.805 225.852 197.006 226.542C198.564 227.435 200.492 227.423 202.229 227.001C203.787 226.618 205.485 225.992 206.915 225.239C207.452 224.958 208.895 223.502 209.354 223.528C209.52 223.528 207.426 228.176 207.171 228.7C206.06 230.947 204.566 233.016 202.803 234.791C202.05 235.545 201.245 236.26 200.402 236.911L200.428 236.873Z" fill="#2A5D64"/>
<path d="M245.699 168.641C256.005 171.782 261.534 177.158 264.139 182.56C269.86 163.303 268.89 152.576 257.397 149.064C249.338 146.599 244.958 154.006 241.229 157.62C236.811 161.936 231.792 162.868 227.91 161.681C222.533 160.033 219.303 154.606 222.508 149.447C229.289 138.477 248.227 141.657 258.227 144.709C275.697 150.047 294.597 164.567 285.415 191.972C279.081 210.591 278.097 222.864 280.422 229.709C281.482 232.646 280.945 232.786 279.451 232.327L253.323 224.345C251.982 223.936 251.446 223.004 251.829 221.74C252.301 220.195 253.119 217.526 254.012 214.588C248.572 219.058 240.923 220.565 230.477 217.372C210.465 211.255 202.382 196.059 206.021 184.131L206.366 183.007C211.717 165.474 233.593 164.95 245.686 168.641H245.699ZM238.075 214.474C252.263 218.803 258.035 202.01 260.947 192.47C261.739 188.269 260.602 178.103 250.003 174.86C242.992 172.714 233.018 175.958 228.944 189.29C226.033 198.83 227.769 211.319 238.062 214.474H238.075Z" fill="#2A5D64"/>
<path d="M294.827 230.194C300.612 221.714 301.659 206.952 301.825 202.891L303.498 162.013C303.664 157.952 303.83 143.151 298.76 134.237C297.662 132.449 296.793 131.836 298.875 131.479L325.859 126.051C326.599 125.937 327.021 126.243 326.995 126.971L324.16 196.11L324.364 194.667L335.104 183.927C347.683 171.374 348.015 166.891 344.018 163.826C342.882 162.907 344.082 162.383 344.963 162.409L369.776 163.43C371.385 163.494 370.606 164.631 369.712 165.027C357.325 169.598 351.399 174.145 338.999 185.983L338.233 186.826L356.827 213.873C358.768 216.862 366.226 228.483 373.786 234.319C374.641 234.932 375.472 236.273 373.569 236.196L342.741 234.932C341.566 234.881 341.311 233.999 342.945 233.489C344.146 232.952 345.499 232.148 345.563 230.551C345.627 225.469 331.12 206.147 325.693 198.664L324.007 200.196L323.854 203.823C323.688 207.884 323.522 222.685 328.604 231.599C329.562 233.386 330.545 234.434 328.349 234.344L294.724 232.965C292.668 232.876 293.588 231.905 294.839 230.207L294.827 230.194Z" fill="#2A5D64"/>
<path d="M373.658 221.599C359.125 203.185 362.063 179.7 377.732 167.325C394.499 154.082 416.822 157.633 431.495 174.63C432.504 175.69 432.364 177.095 431.265 177.963L391.435 209.416C400.629 217.194 415.532 224.741 429.988 213.324C441.469 204.27 441.162 192.994 440.984 188.677C440.958 186.838 442.784 186.877 443.155 188.256C444.917 195.024 446.832 214.691 430.614 227.499C412.736 241.611 388.101 239.899 373.658 221.599ZM406.516 191.755C411.369 187.924 412.761 185.153 406.899 177.72C399.863 168.807 388.702 164.426 380.209 171.131C371.053 178.359 376.302 192.036 384.245 202.099C385.241 203.351 386.518 204.755 387.987 206.39L406.516 191.755Z" fill="#2A5D64"/>
<path d="M448.416 225.392C452.362 216.159 450.523 201.818 449.91 197.91L448.493 188.958C447.867 185.038 445.185 170.837 438.583 163.277C437.178 161.783 436.233 161.349 438.161 160.621L463.089 150.226C463.779 149.97 464.251 150.187 464.366 150.89L465.988 161.106C469.27 154.134 475.872 147.927 486.983 146.165C496.382 144.683 506.036 150.315 509.126 155.998C512.817 162.728 508.462 168.436 502.907 169.317C499.919 169.79 496.726 169.011 493.981 166.431C489.549 162.396 484.888 155.104 477.762 156.228C471.492 157.224 466.55 164.746 468.057 174.26L471.262 194.552C471.888 198.472 474.57 212.673 481.172 220.233C482.436 221.753 483.586 222.57 481.453 222.915L448.825 228.074C446.832 228.393 447.535 227.269 448.403 225.418L448.416 225.392Z" fill="#2A5D64"/>
<path d="M485.31 191.091L547.182 170.007C552.929 167.977 552.788 167.517 550.719 166.01L542.253 159.918C534.476 154.108 528.537 152.231 520.096 155.998C519.636 156.164 519.138 156.138 518.704 155.806C518.053 155.321 517.695 154.197 518.972 152.933C521.284 150.622 523.097 149.217 525.396 147.391C526.034 146.88 526.635 146.318 527.235 145.782C530.747 142.64 531.628 144.53 533.875 146.497L573.068 175.613C575.379 177.222 575.136 178.448 572.774 179.24L513.583 201.154C513.098 201.333 512.613 201.461 512.115 201.588C508.564 202.52 508.028 204.359 509.216 205.241L522.586 215.291C531.577 221.204 533.965 222.123 542.393 218.356C542.853 218.19 543.351 218.215 543.785 218.547C544.436 219.033 544.794 220.156 543.517 221.421C540.682 224.077 536.481 227.423 533.505 229.798C532.522 230.424 531.589 230.079 530.721 229.428L484.926 194.897C484.275 194.411 483.024 192.138 485.297 191.091H485.31Z" fill="#2A5D64"/>
<path d="M26.0229 13.6849C14.6573 17.0179 10.3409 25.5869 11.5158 36.8759C11.8223 40.2983 12.4735 43.7208 13.1504 47.2071C9.83008 40.8475 7.90175 33.4151 9.67683 26.2126C11.3498 18.8952 18.6544 13.4933 26.0229 13.6849Z" fill="#2A5D64"/>
<path d="M26.0102 21.5387C25.6781 21.4365 25.129 21.8707 24.797 22.024C20.5189 24.4503 18.4501 29.0732 18.2202 33.8749C18.0798 35.65 18.1053 37.4889 18.0542 39.43C15.0659 34.3601 15.3086 26.6979 20.4295 23.0328C21.9619 21.9473 23.8264 21.1683 25.7164 21.3727C25.8186 21.411 26.0229 21.3982 26.0229 21.5515L26.0102 21.5387Z" fill="#2A5D64"/>
<path d="M277.114 124.264C284.419 118.581 292.886 111.085 289.885 100.856C296.972 110.446 286.692 121.914 277.114 124.264Z" fill="#2A5D64"/>
<path d="M542.866 129.563C542.521 128.082 540.784 127.673 539.533 127.239C532.752 125.4 524.987 126.945 519.981 132.002C517.963 133.995 516.342 136.447 514.86 139.09C516.188 129.257 525.843 122.514 535.574 124.57C537.911 125.03 543.019 126.639 542.866 129.563Z" fill="#2A5D64"/>
<path d="M293.933 115.12C297.164 111.212 297.943 107.471 296.64 102.912C296.461 102.26 296.257 101.609 296.142 100.856C301.633 104.597 300.752 113.6 293.945 115.12H293.933Z" fill="#2A5D64"/>
<path d="M540.835 133.867C534.999 131.99 530.849 131.913 525.83 135.744C527.784 128.874 537.03 128.261 540.835 133.867Z" fill="#2A5D64"/>
<path d="M13.5591 210.579C9.67686 219.045 13.2398 224.677 20.3784 229.44C21.3234 230.066 22.2685 230.692 23.2007 231.433C22.0514 231.215 20.9403 230.883 19.8038 230.551C10.7879 227.576 5.88406 217.845 13.5591 210.566V210.579Z" fill="#2A5D64"/>
<path d="M21.2085 213.988C19.51 219.403 20.1869 221.919 25.0779 224.83C25.6654 225.188 26.2783 225.545 26.8785 226.018C19.2929 226.886 14.5296 218.956 21.2085 213.976V213.988Z" fill="#2A5D64"/>
</g>
<g clip-path="url(#clip2_101_506)">
<path d="M16.1801 78.3208C20.2155 79.3935 23.8679 83.0458 25.0555 89.7758C26.0771 96.0077 27.9288 117.079 44.3643 121.459C52.5757 123.643 60.1613 121.485 62.3067 113.414C68.13 91.5509 11.9148 64.069 19.3982 35.9359C22.6547 23.6763 38.822 16.2056 60.2634 21.914C79.0614 26.92 94.2965 41.4144 94.1943 54.6572C94.2199 64.6564 86.8897 68.0789 80.9131 66.4826C76.5967 65.3333 72.9444 61.6809 72.9572 56.0109C72.8039 43.1511 67.798 30.0359 54.1464 26.3964C48.8595 24.9917 43.8407 28.1332 42.6275 32.7177C35.3612 60.008 92.8662 82.6244 85.4977 110.336C81.0536 127.053 58.4756 131.177 40.5204 126.401C15.3117 119.697 2.4647 98.5235 3.0649 88.3966C3.4991 80.6066 10.2035 76.7245 16.1801 78.3208Z" fill="#7CB8C0"/>
<path d="M127.934 63.124C138.508 61.6554 145.787 64.5926 150.448 68.8834C147.23 46.8162 141.726 36.3956 129.926 38.0302C121.651 39.1795 120.935 48.6424 119.173 53.9804C117.092 60.3528 113.005 63.5454 109.021 64.0945C103.504 64.8607 98.2553 60.8253 98.8938 54.1592C100.209 40.0096 118.535 34.6716 128.802 33.2413C146.732 30.7511 169.923 36.9064 173.562 68.7812C175.95 90.4781 180.382 103.338 185.413 109.212C187.635 111.702 187.214 112.086 185.681 112.303L158.864 116.019C157.484 116.21 156.603 115.508 156.399 114.052C156.156 112.277 155.722 109.212 155.262 105.828C152.325 112.814 146.144 117.781 135.417 119.263C114.882 122.11 101.065 110.387 99.162 96.6717L98.9832 95.3819C96.1865 75.2175 115.521 64.8224 127.934 63.0984V63.124ZM140.934 112.928C155.492 110.911 153.398 91.3082 151.878 80.3384C150.767 75.7283 145.352 65.959 134.472 67.4659C127.27 68.462 119.761 76.2391 121.881 91.5636C123.4 102.533 130.36 114.384 140.934 112.916V112.928Z" fill="#7CB8C0"/>
<path d="M193.51 130.002C197.021 120.552 194.595 106.16 193.816 102.24C193.816 102.24 190.253 77.1076 185.95 62.677C182.182 50.0599 172.324 21.5564 165.453 14.1751C163.997 12.7193 163.039 12.3234 164.917 11.5061L189.193 0.127728C189.87 -0.15322 190.343 0.0511057 190.483 0.740706L214.849 98.051C215.628 101.984 218.897 116.198 225.755 123.592C227.07 125.086 228.245 125.865 226.138 126.286L194.02 132.671C192.054 133.067 192.705 131.918 193.484 130.002H193.51Z" fill="#7CB8C0"/>
<path d="M236.865 26.5241L237.031 26.5624C250.951 30.3424 263.785 20.854 272.469 12.5661C273.414 11.6594 274.346 11.4167 274.997 11.5827C275.802 11.7998 276.121 12.5533 275.827 13.6388L269.889 35.4889L283.49 39.1795C284.294 39.3966 284.665 39.9968 284.447 40.7758L283.86 42.9468C283.656 43.7258 283.043 44.0578 282.225 43.8407L268.625 40.1501L259.149 75.0132C255.152 89.7375 252.394 101.141 261.461 103.593C264.538 104.423 267.591 103.427 269.059 102.495C271.307 101.269 271.728 102.891 270.374 104.679C266.875 109.225 257.247 115.253 246.072 112.226C228.756 107.514 228.462 91.9595 233.059 75.0771L244.348 33.5478L235.613 31.1725C234.809 30.9554 234.451 30.3552 234.656 29.5762L235.243 27.4052C235.447 26.6262 236.06 26.2942 236.878 26.5241H236.865Z" fill="#7CB8C0"/>
<path d="M29.8699 205.526C32.9476 203.636 37.3533 203.432 42.155 206.471C46.5608 209.345 60.4677 220.046 72.9827 212.346C79.2402 208.489 82.4711 202.589 78.8443 196.715C69.0494 180.816 18.6447 200.15 6.04037 179.692C0.549111 170.778 5.6828 156.578 22.0033 146.515C36.3062 137.69 54.2486 136.413 62.2428 143.922C68.3343 149.528 66.0228 155.99 61.4638 158.8C58.1818 160.83 53.7633 161.034 50.3408 157.829C42.4232 150.69 31.4534 146.412 21.0711 152.823C17.0484 155.301 15.9502 160.179 18.0062 163.512C30.2402 183.357 78.4484 160.485 90.874 180.637C98.3574 192.782 87.3494 209.077 73.6723 217.505C54.4912 229.33 33.9181 225.384 28.1331 219.318C23.6635 214.67 25.3109 208.336 29.8699 205.526Z" fill="#7CB8C0"/>
<path d="M191.428 234.873C188.299 237.286 184.558 238.934 180.637 239.496C176.87 240.032 172.796 239.56 169.693 237.363C167.343 235.703 165.708 233.174 164.687 230.48C161.545 222.141 161.89 211.49 162.401 202.691C163.742 179.526 158.493 161.213 142.377 160.281C131.101 159.63 127.729 169.642 126.516 183.038L125.52 200.278C125.29 204.237 124.894 218.667 129.824 227.466C130.756 229.216 131.714 230.275 129.517 230.148L95.9822 228.207C93.9261 228.092 94.8711 227.147 96.1354 225.525C102.048 217.365 103.325 202.972 103.555 199.026L105.866 159.183C106.096 155.224 106.492 140.793 101.563 131.995C100.49 130.232 99.6473 129.619 101.716 129.313L128.738 124.498C129.479 124.396 129.9 124.703 129.862 125.418L127.883 159.489C132.25 154.075 146.949 151.546 153.819 151.955C177.253 153.308 186.179 166.526 184.89 188.708C184.634 193.178 184.277 197.634 184.149 202.104C184.047 205.641 184.008 209.192 184.149 212.729C184.264 215.641 184.2 218.667 185.375 221.387C185.924 222.664 186.805 223.852 188.006 224.542C189.564 225.435 191.492 225.423 193.229 225.001C194.787 224.618 196.485 223.992 197.915 223.239C198.452 222.958 199.895 221.502 200.354 221.528C200.52 221.528 198.426 226.176 198.171 226.7C197.06 228.947 195.566 231.016 193.803 232.791C193.05 233.545 192.245 234.26 191.402 234.911L191.428 234.873Z" fill="#7CB8C0"/>
<path d="M236.699 166.641C247.005 169.782 252.534 175.158 255.139 180.56C260.86 161.303 259.89 150.576 248.397 147.064C240.338 144.599 235.958 152.006 232.229 155.62C227.811 159.936 222.792 160.868 218.91 159.681C213.533 158.033 210.303 152.606 213.508 147.447C220.289 136.477 239.227 139.657 249.227 142.709C266.697 148.047 285.597 162.567 276.415 189.972C270.081 208.591 269.097 220.864 271.422 227.709C272.482 230.646 271.945 230.786 270.451 230.327L244.323 222.345C242.982 221.936 242.446 221.004 242.829 219.74C243.301 218.195 244.119 215.526 245.012 212.588C239.572 217.058 231.923 218.565 221.477 215.372C201.465 209.255 193.382 194.059 197.021 182.131L197.366 181.007C202.717 163.474 224.593 162.95 236.686 166.641H236.699ZM229.075 212.474C243.263 216.803 249.035 200.01 251.947 190.47C252.739 186.269 251.602 176.103 241.003 172.86C233.992 170.714 224.018 173.958 219.944 187.29C217.033 196.83 218.769 209.319 229.062 212.474H229.075Z" fill="#7CB8C0"/>
<path d="M285.827 228.194C291.612 219.714 292.659 204.952 292.825 200.891L294.498 160.013C294.664 155.952 294.83 141.151 289.76 132.237C288.662 130.449 287.793 129.836 289.875 129.479L316.859 124.051C317.599 123.937 318.021 124.243 317.995 124.971L315.16 194.11L315.364 192.667L326.104 181.927C338.683 169.374 339.015 164.891 335.018 161.826C333.882 160.907 335.082 160.383 335.963 160.409L360.776 161.43C362.385 161.494 361.606 162.631 360.712 163.027C348.325 167.598 342.399 172.145 329.999 183.983L329.233 184.826L347.827 211.873C349.768 214.862 357.226 226.483 364.786 232.319C365.641 232.932 366.472 234.273 364.569 234.196L333.741 232.932C332.566 232.881 332.311 231.999 333.945 231.489C335.146 230.952 336.499 230.148 336.563 228.551C336.627 223.469 322.12 204.147 316.693 196.664L315.007 198.196L314.854 201.823C314.688 205.884 314.522 220.685 319.604 229.599C320.562 231.386 321.545 232.434 319.349 232.344L285.724 230.965C283.668 230.876 284.588 229.905 285.839 228.207L285.827 228.194Z" fill="#7CB8C0"/>
<path d="M364.658 219.599C350.125 201.185 353.063 177.7 368.732 165.325C385.499 152.082 407.822 155.633 422.495 172.63C423.504 173.69 423.364 175.095 422.265 175.963L382.435 207.416C391.629 215.194 406.532 222.741 420.988 211.324C432.469 202.27 432.162 190.994 431.984 186.677C431.958 184.838 433.784 184.877 434.155 186.256C435.917 193.024 437.832 212.691 421.614 225.499C403.736 239.611 379.101 237.899 364.658 219.599ZM397.516 189.755C402.369 185.924 403.761 183.153 397.899 175.72C390.863 166.807 379.702 162.426 371.209 169.131C362.053 176.359 367.302 190.036 375.245 200.099C376.241 201.351 377.518 202.755 378.987 204.39L397.516 189.755Z" fill="#7CB8C0"/>
<path d="M439.416 223.392C443.362 214.159 441.523 199.818 440.91 195.91L439.493 186.958C438.867 183.038 436.185 168.837 429.583 161.277C428.178 159.783 427.233 159.349 429.161 158.621L454.089 148.226C454.779 147.97 455.251 148.187 455.366 148.89L456.988 159.106C460.27 152.134 466.872 145.927 477.983 144.165C487.382 142.683 497.036 148.315 500.126 153.998C503.817 160.728 499.462 166.436 493.907 167.317C490.919 167.79 487.726 167.011 484.981 164.431C480.549 160.396 475.888 153.104 468.762 154.228C462.492 155.224 457.55 162.746 459.057 172.26L462.262 192.552C462.888 196.472 465.57 210.673 472.172 218.233C473.436 219.753 474.586 220.57 472.453 220.915L439.825 226.074C437.832 226.393 438.535 225.269 439.403 223.418L439.416 223.392Z" fill="#7CB8C0"/>
<path d="M476.31 189.091L538.182 168.007C543.929 165.977 543.788 165.517 541.719 164.01L533.253 157.918C525.476 152.108 519.537 150.231 511.096 153.998C510.636 154.164 510.138 154.138 509.704 153.806C509.053 153.321 508.695 152.197 509.972 150.933C512.284 148.622 514.097 147.217 516.396 145.391C517.034 144.88 517.635 144.318 518.235 143.782C521.747 140.64 522.628 142.53 524.875 144.497L564.068 173.613C566.379 175.222 566.136 176.448 563.774 177.24L504.583 199.154C504.098 199.333 503.613 199.461 503.115 199.588C499.564 200.52 499.028 202.359 500.216 203.241L513.586 213.291C522.577 219.204 524.965 220.123 533.393 216.356C533.853 216.19 534.351 216.215 534.785 216.547C535.436 217.033 535.794 218.156 534.517 219.421C531.682 222.077 527.481 225.423 524.505 227.798C523.522 228.424 522.589 228.079 521.721 227.428L475.926 192.897C475.275 192.411 474.024 190.138 476.297 189.091H476.31Z" fill="#7CB8C0"/>
<path d="M17.0229 11.6849C5.65728 15.0179 1.34089 23.5869 2.51577 34.8759C2.82226 38.2983 3.47354 41.7208 4.15037 45.2071C0.830076 38.8475 -1.09825 31.4151 0.676832 24.2126C2.34975 16.8952 9.65441 11.4933 17.0229 11.6849Z" fill="#7CB8C0"/>
<path d="M17.0102 19.5387C16.6781 19.4365 16.129 19.8707 15.797 20.024C11.5189 22.4503 9.45009 27.0732 9.22023 31.8749C9.07975 33.65 9.10529 35.4889 9.05421 37.43C6.06594 32.3601 6.30858 24.6979 11.4295 21.0328C12.9619 19.9473 14.8264 19.1683 16.7164 19.3727C16.8186 19.411 17.0229 19.3982 17.0229 19.5515L17.0102 19.5387Z" fill="#7CB8C0"/>
<path d="M268.114 122.264C275.419 116.581 283.886 109.085 280.885 98.8555C287.972 108.446 277.692 119.914 268.114 122.264Z" fill="#7CB8C0"/>
<path d="M533.866 127.563C533.521 126.082 531.784 125.673 530.533 125.239C523.752 123.4 515.987 124.945 510.981 130.002C508.963 131.995 507.342 134.447 505.86 137.09C507.188 127.257 516.843 120.514 526.574 122.57C528.911 123.03 534.019 124.639 533.866 127.563Z" fill="#7CB8C0"/>
<path d="M284.933 113.12C288.164 109.212 288.943 105.471 287.64 100.912C287.461 100.26 287.257 99.609 287.142 98.8555C292.633 102.597 291.752 111.6 284.945 113.12H284.933Z" fill="#7CB8C0"/>
<path d="M531.835 131.867C525.999 129.99 521.849 129.913 516.83 133.744C518.784 126.874 528.03 126.261 531.835 131.867Z" fill="#7CB8C0"/>
<path d="M4.55905 208.579C0.676859 217.045 4.23979 222.677 11.3784 227.44C12.3234 228.066 13.2685 228.692 14.2007 229.433C13.0514 229.215 11.9403 228.883 10.8038 228.551C1.78788 225.576 -3.11594 215.845 4.55905 208.566V208.579Z" fill="#7CB8C0"/>
<path d="M12.2085 211.988C10.51 217.403 11.1869 219.919 16.0779 222.83C16.6654 223.188 17.2783 223.545 17.8785 224.018C10.2929 224.886 5.52959 216.956 12.2085 211.976V211.988Z" fill="#7CB8C0"/>
</g>
</g>
<defs>
<clipPath id="clip0_101_506">
<rect width="575" height="242" fill="white"/>
</clipPath>
<clipPath id="clip1_101_506">
<rect width="565.689" height="239.7" fill="white" transform="translate(9 2)"/>
</clipPath>
<clipPath id="clip2_101_506">
<rect width="565.689" height="239.7" fill="white"/>
</clipPath>
</defs>
</svg>
