<svg width="121" height="94" viewBox="0 0 121 94" fill="none" xmlns="http://www.w3.org/2000/svg">
<path d="M121 0C118.695 9.71972 116.262 20.2068 113.702 31.4612C111.141 42.7157 108.836 53.7143 106.787 64.4571C104.739 75.2 103.074 85.0476 101.794 94H65.3016L62.6127 89.7796C64.9175 80.8272 67.8624 71.2354 71.4476 61.0041C75.0328 50.517 79.0021 40.0299 83.3556 29.5429C87.709 19.0558 91.9344 9.20817 96.0317 0L121 0ZM57.619 0C55.3143 9.71972 52.8815 20.2068 50.3206 31.4612C47.7598 42.7157 45.455 53.7143 43.4063 64.4571C41.3577 75.2 39.6931 85.0476 38.4127 94H2.30476L0 89.7796C2.30476 80.8272 5.24974 71.2354 8.83492 61.0041C12.4201 50.517 16.2614 40.0299 20.3587 29.5429C24.7122 19.0558 28.9376 9.20817 33.0349 0L57.619 0Z" fill="#543787" fill-opacity="0.5"/>
</svg>
