<svg width="72" height="72" viewBox="0 0 72 72" fill="none" xmlns="http://www.w3.org/2000/svg">
<mask id="path-1-outside-1_98_425" maskUnits="userSpaceOnUse" x="1" y="1" width="71" height="70" fill="black">
<rect fill="white" x="1" y="1" width="71" height="70"/>
<path d="M14.4642 46.9551C15.836 49.8172 17.7817 52.3666 20.1804 54.445C22.5791 56.5233 25.3796 58.0862 28.4078 59.0365C34.6073 60.774 41.229 60.174 47.0152 57.3503C50.2496 55.7546 53.0565 53.4101 55.2027 50.5117C56.6849 48.7136 57.6737 46.5608 58.072 44.2649C58.1013 43.9134 58.0481 43.56 57.9168 43.2327C57.7855 42.9054 57.5795 42.6132 57.3155 42.3795C56.328 41.9704 55.3102 41.6389 54.2712 41.3878C49.9609 39.9836 40.4641 37.486 31.9366 35.2146C23.4091 32.9433 14.7681 31.1118 14.7681 31.1118C14.4419 31.2214 14.1441 31.4021 13.8962 31.6409C13.6484 31.8797 13.4567 32.1705 13.335 32.4924C12.7355 34.1461 12.4674 35.9016 12.5459 37.6588C12.5045 40.8599 13.159 44.0319 14.4642 46.9551ZM27.2844 36.232C36.2898 38.957 47.7657 42.606 53.0189 44.3173L54.797 44.8965C53.87 47.2206 52.4364 49.3088 50.6007 51.009C49.1596 52.4538 47.4908 53.6518 45.661 54.5551C40.5926 57.0672 34.7898 57.6729 29.3118 56.2617C26.5873 55.4761 24.0519 54.1425 21.8611 52.3425C19.6702 50.5426 17.87 48.3141 16.5708 45.7938C15.5595 43.6603 14.9658 41.3529 14.822 38.9962C14.6407 37.3471 14.7017 35.6804 15.0032 34.049C15.1165 33.6195 15.2543 33.1967 15.4157 32.7829C19.4681 33.7259 23.4662 34.889 27.3921 36.2671L27.2844 36.232Z"/>
<path d="M69.6266 41.0858C70.2236 38.2302 70.4833 35.3144 70.4005 32.3982C70.1728 26.9765 68.3821 21.7362 65.244 17.309C62.1764 12.9223 57.9961 9.43147 53.1327 7.19527C52.8954 7.0917 52.6277 7.08221 52.3837 7.16873C52.1397 7.25525 51.9377 7.43131 51.8187 7.66121C51.7168 7.89556 51.7092 8.16024 51.7977 8.40002C51.8861 8.63981 52.0637 8.83619 52.2935 8.9482C56.7957 11.1429 60.6297 14.5009 63.3986 18.6746C66.1713 22.7869 67.7034 27.6097 67.8123 32.5682C67.9015 35.2852 67.6856 38.0036 67.1688 40.6725C66.5605 43.3194 65.7176 45.9069 64.6501 48.4042C63.5747 50.8568 62.1838 53.1586 60.5125 55.2511C58.8211 57.3488 56.9018 59.2521 54.79 60.926C50.3849 64.2447 45.0783 66.152 39.5685 66.397C34.025 66.7579 28.474 65.817 23.359 63.6495C20.5294 62.4513 17.8752 60.8749 15.4691 58.9636C13.0813 57.0771 11.0325 54.7973 9.41089 52.2223C5.43497 45.4405 4.03791 37.4524 5.47606 29.7237C6.64396 21.8937 10.8478 14.8383 17.178 10.0841C20.4895 7.66051 24.2239 5.87565 28.1898 4.82104C32.1792 3.83774 36.344 3.80622 40.3478 4.72902C42.322 5.16353 44.2605 5.6162 46.1732 6.2393C47.439 6.637 48.6733 7.12873 49.8658 7.71039C49.966 7.77452 50.0786 7.81689 50.1962 7.83477C50.3139 7.85264 50.434 7.84562 50.5487 7.81415C50.6635 7.78268 50.7703 7.72747 50.8624 7.65209C50.9545 7.57671 51.0297 7.48284 51.0832 7.37656C51.1367 7.27027 51.1673 7.15394 51.173 7.03508C51.1787 6.91623 51.1593 6.79751 51.1162 6.68659C51.0731 6.57568 51.0072 6.47505 50.9228 6.39121C50.8384 6.30738 50.7373 6.24221 50.626 6.19992C49.3927 5.51702 48.1132 4.92099 46.7969 4.41616C44.8275 3.74355 42.8225 3.17995 40.7911 2.72791C36.4907 1.74552 32.0227 1.75766 27.7277 2.7634C23.4508 3.78663 19.4031 5.6012 15.7937 8.11341C8.81266 13.1376 4.10353 20.7203 2.69492 29.2051C1.0003 37.6545 2.42926 46.4317 6.71648 53.9072C8.51152 56.8188 10.7966 59.398 13.4706 61.5309C16.1206 63.6351 19.0442 65.3694 22.1612 66.6862C27.758 69.0159 33.8202 70.0114 39.8681 69.5937C46.0088 69.2222 51.8881 66.9774 56.7138 63.1618C58.9876 61.3167 61.0416 59.2162 62.8355 56.9018C64.6236 54.6035 66.0979 52.0775 67.2194 49.3902C68.278 46.7028 69.0839 43.9227 69.6266 41.0858Z"/>
<path d="M17.5301 22.2673C18.2907 21.4596 19.1358 20.7359 20.051 20.1086C20.876 19.5086 21.8155 19.0844 22.8111 18.8623C23.932 18.6457 25.0887 18.7054 26.1813 19.0364C27.323 19.3342 28.4011 19.8369 29.3632 20.5199C30.3919 21.2 31.2764 22.0762 31.966 23.0986C32.6557 24.1209 33.1369 25.2692 33.3822 26.4777C33.4104 26.7321 33.5359 26.9657 33.7324 27.1297C33.9289 27.2936 34.1812 27.3753 34.4365 27.3576C34.5639 27.3471 34.6879 27.3114 34.8014 27.2525C34.9148 27.1936 35.0154 27.1128 35.0973 27.0147C35.1792 26.9165 35.2407 26.8031 35.2783 26.681C35.3159 26.5588 35.3289 26.4304 35.3164 26.3032C35.2451 24.7226 34.8493 23.1736 34.1537 21.7525C33.458 20.3314 32.4774 19.0687 31.2727 18.0429C30.0358 16.9815 28.5713 16.2189 26.9925 15.8142C25.3718 15.4232 23.6755 15.4781 22.0835 15.9732C21.0159 16.3952 20.0312 17.0025 19.1748 17.7671C18.0166 18.7876 17.0027 19.9611 16.1612 21.2552C16.027 21.4367 15.9704 21.6641 16.0039 21.8874C16.0373 22.1106 16.1581 22.3115 16.3396 22.4457C16.5211 22.5799 16.7485 22.6365 16.9718 22.603C17.195 22.5696 17.3959 22.4488 17.5301 22.2673Z"/>
<path d="M60.3091 30.72C59.7019 29.0111 58.5807 27.5321 57.0994 26.4859C55.5822 25.4053 53.7311 24.8973 51.8748 25.0522C50.0986 25.1866 48.4003 25.8364 46.988 26.9219C45.5757 28.0075 44.511 29.4816 43.9243 31.1634C43.8461 31.3721 43.8476 31.6023 43.9283 31.81C44.0091 32.0177 44.1635 32.1883 44.362 32.2894C44.4646 32.3352 44.5753 32.3602 44.6876 32.3629C44.7999 32.3656 44.9116 32.3461 45.0163 32.3054C45.121 32.2647 45.2166 32.2036 45.2976 32.1257C45.3786 32.0478 45.4433 31.9547 45.488 31.8516C46.1191 30.7173 47.0497 29.7781 48.1783 29.1368C49.3069 28.4955 50.59 28.1766 51.8875 28.215C53.0735 28.1989 54.2401 28.5169 55.2538 29.1328C56.3315 29.7572 57.2106 30.6737 57.7896 31.7766C58.1113 32.3814 58.3107 33.0438 58.3763 33.7258C58.4397 34.4959 58.427 35.2702 58.3384 36.0378C58.3125 36.1617 58.312 36.2897 58.3371 36.4138C58.3621 36.538 58.4121 36.6558 58.484 36.76C58.556 36.8643 58.6483 36.9528 58.7555 37.0203C58.8627 37.0877 58.9825 37.1327 59.1076 37.1525C59.2338 37.1754 59.3633 37.1729 59.4885 37.1451C59.6137 37.1174 59.7321 37.0649 59.8368 36.9907C59.9414 36.9165 60.0302 36.8222 60.0979 36.7133C60.1656 36.6044 60.2109 36.483 60.2311 36.3564C60.5289 35.2995 60.6842 34.2076 60.6928 33.1097C60.7001 32.2972 60.5704 31.4893 60.3091 30.72Z"/>
</mask>
<path d="M14.4642 46.9551C15.836 49.8172 17.7817 52.3666 20.1804 54.445C22.5791 56.5233 25.3796 58.0862 28.4078 59.0365C34.6073 60.774 41.229 60.174 47.0152 57.3503C50.2496 55.7546 53.0565 53.4101 55.2027 50.5117C56.6849 48.7136 57.6737 46.5608 58.072 44.2649C58.1013 43.9134 58.0481 43.56 57.9168 43.2327C57.7855 42.9054 57.5795 42.6132 57.3155 42.3795C56.328 41.9704 55.3102 41.6389 54.2712 41.3878C49.9609 39.9836 40.4641 37.486 31.9366 35.2146C23.4091 32.9433 14.7681 31.1118 14.7681 31.1118C14.4419 31.2214 14.1441 31.4021 13.8962 31.6409C13.6484 31.8797 13.4567 32.1705 13.335 32.4924C12.7355 34.1461 12.4674 35.9016 12.5459 37.6588C12.5045 40.8599 13.159 44.0319 14.4642 46.9551ZM27.2844 36.232C36.2898 38.957 47.7657 42.606 53.0189 44.3173L54.797 44.8965C53.87 47.2206 52.4364 49.3088 50.6007 51.009C49.1596 52.4538 47.4908 53.6518 45.661 54.5551C40.5926 57.0672 34.7898 57.6729 29.3118 56.2617C26.5873 55.4761 24.0519 54.1425 21.8611 52.3425C19.6702 50.5426 17.87 48.3141 16.5708 45.7938C15.5595 43.6603 14.9658 41.3529 14.822 38.9962C14.6407 37.3471 14.7017 35.6804 15.0032 34.049C15.1165 33.6195 15.2543 33.1967 15.4157 32.7829C19.4681 33.7259 23.4662 34.889 27.3921 36.2671L27.2844 36.232Z" fill="#9AD3DA"/>
<path d="M69.6266 41.0858C70.2236 38.2302 70.4833 35.3144 70.4005 32.3982C70.1728 26.9765 68.3821 21.7362 65.244 17.309C62.1764 12.9223 57.9961 9.43147 53.1327 7.19527C52.8954 7.0917 52.6277 7.08221 52.3837 7.16873C52.1397 7.25525 51.9377 7.43131 51.8187 7.66121C51.7168 7.89556 51.7092 8.16024 51.7977 8.40002C51.8861 8.63981 52.0637 8.83619 52.2935 8.9482C56.7957 11.1429 60.6297 14.5009 63.3986 18.6746C66.1713 22.7869 67.7034 27.6097 67.8123 32.5682C67.9015 35.2852 67.6856 38.0036 67.1688 40.6725C66.5605 43.3194 65.7176 45.9069 64.6501 48.4042C63.5747 50.8568 62.1838 53.1586 60.5125 55.2511C58.8211 57.3488 56.9018 59.2521 54.79 60.926C50.3849 64.2447 45.0783 66.152 39.5685 66.397C34.025 66.7579 28.474 65.817 23.359 63.6495C20.5294 62.4513 17.8752 60.8749 15.4691 58.9636C13.0813 57.0771 11.0325 54.7973 9.41089 52.2223C5.43497 45.4405 4.03791 37.4524 5.47606 29.7237C6.64396 21.8937 10.8478 14.8383 17.178 10.0841C20.4895 7.66051 24.2239 5.87565 28.1898 4.82104C32.1792 3.83774 36.344 3.80622 40.3478 4.72902C42.322 5.16353 44.2605 5.6162 46.1732 6.2393C47.439 6.637 48.6733 7.12873 49.8658 7.71039C49.966 7.77452 50.0786 7.81689 50.1962 7.83477C50.3139 7.85264 50.434 7.84562 50.5487 7.81415C50.6635 7.78268 50.7703 7.72747 50.8624 7.65209C50.9545 7.57671 51.0297 7.48284 51.0832 7.37656C51.1367 7.27027 51.1673 7.15394 51.173 7.03508C51.1787 6.91623 51.1593 6.79751 51.1162 6.68659C51.0731 6.57568 51.0072 6.47505 50.9228 6.39121C50.8384 6.30738 50.7373 6.24221 50.626 6.19992C49.3927 5.51702 48.1132 4.92099 46.7969 4.41616C44.8275 3.74355 42.8225 3.17995 40.7911 2.72791C36.4907 1.74552 32.0227 1.75766 27.7277 2.7634C23.4508 3.78663 19.4031 5.6012 15.7937 8.11341C8.81266 13.1376 4.10353 20.7203 2.69492 29.2051C1.0003 37.6545 2.42926 46.4317 6.71648 53.9072C8.51152 56.8188 10.7966 59.398 13.4706 61.5309C16.1206 63.6351 19.0442 65.3694 22.1612 66.6862C27.758 69.0159 33.8202 70.0114 39.8681 69.5937C46.0088 69.2222 51.8881 66.9774 56.7138 63.1618C58.9876 61.3167 61.0416 59.2162 62.8355 56.9018C64.6236 54.6035 66.0979 52.0775 67.2194 49.3902C68.278 46.7028 69.0839 43.9227 69.6266 41.0858Z" fill="#9AD3DA"/>
<path d="M17.5301 22.2673C18.2907 21.4596 19.1358 20.7359 20.051 20.1086C20.876 19.5086 21.8155 19.0844 22.8111 18.8623C23.932 18.6457 25.0887 18.7054 26.1813 19.0364C27.323 19.3342 28.4011 19.8369 29.3632 20.5199C30.3919 21.2 31.2764 22.0762 31.966 23.0986C32.6557 24.1209 33.1369 25.2692 33.3822 26.4777C33.4104 26.7321 33.5359 26.9657 33.7324 27.1297C33.9289 27.2936 34.1812 27.3753 34.4365 27.3576C34.5639 27.3471 34.6879 27.3114 34.8014 27.2525C34.9148 27.1936 35.0154 27.1128 35.0973 27.0147C35.1792 26.9165 35.2407 26.8031 35.2783 26.681C35.3159 26.5588 35.3289 26.4304 35.3164 26.3032C35.2451 24.7226 34.8493 23.1736 34.1537 21.7525C33.458 20.3314 32.4774 19.0687 31.2727 18.0429C30.0358 16.9815 28.5713 16.2189 26.9925 15.8142C25.3718 15.4232 23.6755 15.4781 22.0835 15.9732C21.0159 16.3952 20.0312 17.0025 19.1748 17.7671C18.0166 18.7876 17.0027 19.9611 16.1612 21.2552C16.027 21.4367 15.9704 21.6641 16.0039 21.8874C16.0373 22.1106 16.1581 22.3115 16.3396 22.4457C16.5211 22.5799 16.7485 22.6365 16.9718 22.603C17.195 22.5696 17.3959 22.4488 17.5301 22.2673Z" fill="#9AD3DA"/>
<path d="M60.3091 30.72C59.7019 29.0111 58.5807 27.5321 57.0994 26.4859C55.5822 25.4053 53.7311 24.8973 51.8748 25.0522C50.0986 25.1866 48.4003 25.8364 46.988 26.9219C45.5757 28.0075 44.511 29.4816 43.9243 31.1634C43.8461 31.3721 43.8476 31.6023 43.9283 31.81C44.0091 32.0177 44.1635 32.1883 44.362 32.2894C44.4646 32.3352 44.5753 32.3602 44.6876 32.3629C44.7999 32.3656 44.9116 32.3461 45.0163 32.3054C45.121 32.2647 45.2166 32.2036 45.2976 32.1257C45.3786 32.0478 45.4433 31.9547 45.488 31.8516C46.1191 30.7173 47.0497 29.7781 48.1783 29.1368C49.3069 28.4955 50.59 28.1766 51.8875 28.215C53.0735 28.1989 54.2401 28.5169 55.2538 29.1328C56.3315 29.7572 57.2106 30.6737 57.7896 31.7766C58.1113 32.3814 58.3107 33.0438 58.3763 33.7258C58.4397 34.4959 58.427 35.2702 58.3384 36.0378C58.3125 36.1617 58.312 36.2897 58.3371 36.4138C58.3621 36.538 58.4121 36.6558 58.484 36.76C58.556 36.8643 58.6483 36.9528 58.7555 37.0203C58.8627 37.0877 58.9825 37.1327 59.1076 37.1525C59.2338 37.1754 59.3633 37.1729 59.4885 37.1451C59.6137 37.1174 59.7321 37.0649 59.8368 36.9907C59.9414 36.9165 60.0302 36.8222 60.0979 36.7133C60.1656 36.6044 60.2109 36.483 60.2311 36.3564C60.5289 35.2995 60.6842 34.2076 60.6928 33.1097C60.7001 32.2972 60.5704 31.4893 60.3091 30.72Z" fill="#9AD3DA"/>
<path d="M14.4642 46.9551C15.836 49.8172 17.7817 52.3666 20.1804 54.445C22.5791 56.5233 25.3796 58.0862 28.4078 59.0365C34.6073 60.774 41.229 60.174 47.0152 57.3503C50.2496 55.7546 53.0565 53.4101 55.2027 50.5117C56.6849 48.7136 57.6737 46.5608 58.072 44.2649C58.1013 43.9134 58.0481 43.56 57.9168 43.2327C57.7855 42.9054 57.5795 42.6132 57.3155 42.3795C56.328 41.9704 55.3102 41.6389 54.2712 41.3878C49.9609 39.9836 40.4641 37.486 31.9366 35.2146C23.4091 32.9433 14.7681 31.1118 14.7681 31.1118C14.4419 31.2214 14.1441 31.4021 13.8962 31.6409C13.6484 31.8797 13.4567 32.1705 13.335 32.4924C12.7355 34.1461 12.4674 35.9016 12.5459 37.6588C12.5045 40.8599 13.159 44.0319 14.4642 46.9551ZM27.2844 36.232C36.2898 38.957 47.7657 42.606 53.0189 44.3173L54.797 44.8965C53.87 47.2206 52.4364 49.3088 50.6007 51.009C49.1596 52.4538 47.4908 53.6518 45.661 54.5551C40.5926 57.0672 34.7898 57.6729 29.3118 56.2617C26.5873 55.4761 24.0519 54.1425 21.8611 52.3425C19.6702 50.5426 17.87 48.3141 16.5708 45.7938C15.5595 43.6603 14.9658 41.3529 14.822 38.9962C14.6407 37.3471 14.7017 35.6804 15.0032 34.049C15.1165 33.6195 15.2543 33.1967 15.4157 32.7829C19.4681 33.7259 23.4662 34.889 27.3921 36.2671L27.2844 36.232Z" stroke="#9AD3DA" stroke-width="2" mask="url(#path-1-outside-1_98_425)"/>
<path d="M69.6266 41.0858C70.2236 38.2302 70.4833 35.3144 70.4005 32.3982C70.1728 26.9765 68.3821 21.7362 65.244 17.309C62.1764 12.9223 57.9961 9.43147 53.1327 7.19527C52.8954 7.0917 52.6277 7.08221 52.3837 7.16873C52.1397 7.25525 51.9377 7.43131 51.8187 7.66121C51.7168 7.89556 51.7092 8.16024 51.7977 8.40002C51.8861 8.63981 52.0637 8.83619 52.2935 8.9482C56.7957 11.1429 60.6297 14.5009 63.3986 18.6746C66.1713 22.7869 67.7034 27.6097 67.8123 32.5682C67.9015 35.2852 67.6856 38.0036 67.1688 40.6725C66.5605 43.3194 65.7176 45.9069 64.6501 48.4042C63.5747 50.8568 62.1838 53.1586 60.5125 55.2511C58.8211 57.3488 56.9018 59.2521 54.79 60.926C50.3849 64.2447 45.0783 66.152 39.5685 66.397C34.025 66.7579 28.474 65.817 23.359 63.6495C20.5294 62.4513 17.8752 60.8749 15.4691 58.9636C13.0813 57.0771 11.0325 54.7973 9.41089 52.2223C5.43497 45.4405 4.03791 37.4524 5.47606 29.7237C6.64396 21.8937 10.8478 14.8383 17.178 10.0841C20.4895 7.66051 24.2239 5.87565 28.1898 4.82104C32.1792 3.83774 36.344 3.80622 40.3478 4.72902C42.322 5.16353 44.2605 5.6162 46.1732 6.2393C47.439 6.637 48.6733 7.12873 49.8658 7.71039C49.966 7.77452 50.0786 7.81689 50.1962 7.83477C50.3139 7.85264 50.434 7.84562 50.5487 7.81415C50.6635 7.78268 50.7703 7.72747 50.8624 7.65209C50.9545 7.57671 51.0297 7.48284 51.0832 7.37656C51.1367 7.27027 51.1673 7.15394 51.173 7.03508C51.1787 6.91623 51.1593 6.79751 51.1162 6.68659C51.0731 6.57568 51.0072 6.47505 50.9228 6.39121C50.8384 6.30738 50.7373 6.24221 50.626 6.19992C49.3927 5.51702 48.1132 4.92099 46.7969 4.41616C44.8275 3.74355 42.8225 3.17995 40.7911 2.72791C36.4907 1.74552 32.0227 1.75766 27.7277 2.7634C23.4508 3.78663 19.4031 5.6012 15.7937 8.11341C8.81266 13.1376 4.10353 20.7203 2.69492 29.2051C1.0003 37.6545 2.42926 46.4317 6.71648 53.9072C8.51152 56.8188 10.7966 59.398 13.4706 61.5309C16.1206 63.6351 19.0442 65.3694 22.1612 66.6862C27.758 69.0159 33.8202 70.0114 39.8681 69.5937C46.0088 69.2222 51.8881 66.9774 56.7138 63.1618C58.9876 61.3167 61.0416 59.2162 62.8355 56.9018C64.6236 54.6035 66.0979 52.0775 67.2194 49.3902C68.278 46.7028 69.0839 43.9227 69.6266 41.0858Z" stroke="#9AD3DA" stroke-width="2" mask="url(#path-1-outside-1_98_425)"/>
<path d="M17.5301 22.2673C18.2907 21.4596 19.1358 20.7359 20.051 20.1086C20.876 19.5086 21.8155 19.0844 22.8111 18.8623C23.932 18.6457 25.0887 18.7054 26.1813 19.0364C27.323 19.3342 28.4011 19.8369 29.3632 20.5199C30.3919 21.2 31.2764 22.0762 31.966 23.0986C32.6557 24.1209 33.1369 25.2692 33.3822 26.4777C33.4104 26.7321 33.5359 26.9657 33.7324 27.1297C33.9289 27.2936 34.1812 27.3753 34.4365 27.3576C34.5639 27.3471 34.6879 27.3114 34.8014 27.2525C34.9148 27.1936 35.0154 27.1128 35.0973 27.0147C35.1792 26.9165 35.2407 26.8031 35.2783 26.681C35.3159 26.5588 35.3289 26.4304 35.3164 26.3032C35.2451 24.7226 34.8493 23.1736 34.1537 21.7525C33.458 20.3314 32.4774 19.0687 31.2727 18.0429C30.0358 16.9815 28.5713 16.2189 26.9925 15.8142C25.3718 15.4232 23.6755 15.4781 22.0835 15.9732C21.0159 16.3952 20.0312 17.0025 19.1748 17.7671C18.0166 18.7876 17.0027 19.9611 16.1612 21.2552C16.027 21.4367 15.9704 21.6641 16.0039 21.8874C16.0373 22.1106 16.1581 22.3115 16.3396 22.4457C16.5211 22.5799 16.7485 22.6365 16.9718 22.603C17.195 22.5696 17.3959 22.4488 17.5301 22.2673Z" stroke="#9AD3DA" stroke-width="2" mask="url(#path-1-outside-1_98_425)"/>
<path d="M60.3091 30.72C59.7019 29.0111 58.5807 27.5321 57.0994 26.4859C55.5822 25.4053 53.7311 24.8973 51.8748 25.0522C50.0986 25.1866 48.4003 25.8364 46.988 26.9219C45.5757 28.0075 44.511 29.4816 43.9243 31.1634C43.8461 31.3721 43.8476 31.6023 43.9283 31.81C44.0091 32.0177 44.1635 32.1883 44.362 32.2894C44.4646 32.3352 44.5753 32.3602 44.6876 32.3629C44.7999 32.3656 44.9116 32.3461 45.0163 32.3054C45.121 32.2647 45.2166 32.2036 45.2976 32.1257C45.3786 32.0478 45.4433 31.9547 45.488 31.8516C46.1191 30.7173 47.0497 29.7781 48.1783 29.1368C49.3069 28.4955 50.59 28.1766 51.8875 28.215C53.0735 28.1989 54.2401 28.5169 55.2538 29.1328C56.3315 29.7572 57.2106 30.6737 57.7896 31.7766C58.1113 32.3814 58.3107 33.0438 58.3763 33.7258C58.4397 34.4959 58.427 35.2702 58.3384 36.0378C58.3125 36.1617 58.312 36.2897 58.3371 36.4138C58.3621 36.538 58.4121 36.6558 58.484 36.76C58.556 36.8643 58.6483 36.9528 58.7555 37.0203C58.8627 37.0877 58.9825 37.1327 59.1076 37.1525C59.2338 37.1754 59.3633 37.1729 59.4885 37.1451C59.6137 37.1174 59.7321 37.0649 59.8368 36.9907C59.9414 36.9165 60.0302 36.8222 60.0979 36.7133C60.1656 36.6044 60.2109 36.483 60.2311 36.3564C60.5289 35.2995 60.6842 34.2076 60.6928 33.1097C60.7001 32.2972 60.5704 31.4893 60.3091 30.72Z" stroke="#9AD3DA" stroke-width="2" mask="url(#path-1-outside-1_98_425)"/>
</svg>
