<svg width="26" height="26" viewBox="0 0 26 26" fill="none" xmlns="http://www.w3.org/2000/svg">
<g clip-path="url(#clip0_108_9)">
<path d="M4.90959 3.67828L4.90959 3.67829C7.22687 1.76325 10.1541 0.742877 13.1597 0.80247C15.9756 0.822814 18.7015 1.79719 20.8922 3.56652C23.5004 5.6492 25.0614 8.51552 25.1566 10.5893C25.3364 12.6815 24.8661 14.7781 23.8099 16.5931L23.8056 16.6004L23.8054 16.6003C22.658 18.3923 20.8836 19.6921 18.829 20.2456L18.8236 20.247L18.8236 20.2469C18.2363 20.3877 17.6404 20.4894 17.0396 20.5512L4.90959 3.67828ZM4.90959 3.67828L4.90852 3.67918C2.58926 5.62314 1.12724 8.40099 0.837914 11.4133L0.837777 11.4133L0.837343 11.4207C0.656119 14.5015 1.13554 16.3556 2.2561 17.6437C3.3653 18.9188 5.28456 19.7019 7.8083 20.547L4.90959 3.67828ZM13.1119 22.9489C13.112 22.9488 13.1121 22.9488 13.1121 22.9487L12.957 22.8225M13.1119 22.9489L14.577 20.4825C14.4473 20.6503 14.2812 20.9084 14.0871 21.2101C13.7723 21.6992 13.3838 22.3029 12.957 22.8225M13.1119 22.9489C13.1118 22.9491 13.1117 22.9492 13.1115 22.9494L12.957 22.8225M13.1119 22.9489L11.957 23.7725C12.3296 23.4998 12.6656 23.1806 12.957 22.8225M22.5489 16.2825H22.5904C21.6299 17.6961 20.2033 18.7337 18.554 19.2096C18.0186 19.3493 17.474 19.451 16.9243 19.5137L16.9229 19.5139C16.3262 19.5862 15.7794 19.577 15.3209 19.5692C15.2847 19.5686 15.249 19.568 15.2139 19.5675C14.9774 19.5638 14.76 19.5622 14.5798 19.5779C14.4067 19.593 14.2292 19.6263 14.0994 19.7207C13.9903 19.8 13.8761 19.9351 13.764 20.0845C13.6484 20.2386 13.5208 20.4277 13.3864 20.6309C13.3455 20.6927 13.3039 20.756 13.2616 20.8203C13.0236 21.1819 12.7655 21.5742 12.4986 21.9203L12.4985 21.9203L12.4947 21.9256C12.2028 22.3311 11.853 22.6915 11.4563 22.9953C10.5906 23.487 9.63767 23.8032 8.65203 23.9272C8.94605 23.2652 9.11733 22.5541 9.15641 21.8288C9.21822 21.2652 9.15346 20.6949 8.96685 20.1595C8.90902 19.9764 8.81193 19.8081 8.68236 19.6664C8.55203 19.5239 8.392 19.4117 8.21358 19.3377L8.21365 19.3375L8.20554 19.3346C7.03751 18.9085 6.04853 18.5472 5.22629 18.1441C4.40596 17.742 3.76578 17.3046 3.29064 16.7344C2.34386 15.5983 2.08751 14.1881 2.33597 11.5228C2.62597 8.91469 3.92855 6.52474 5.9633 4.86753L5.96357 4.86731C8.01173 3.19321 10.5884 2.30183 13.2332 2.35242L13.2332 2.35246L13.2371 2.35246C15.7094 2.35062 18.1104 3.18092 20.0533 4.70964L20.0545 4.71058C22.3772 6.5094 23.7925 8.94207 23.9074 10.6658L23.9074 10.6658L23.9078 10.6703C24.0734 12.5207 23.6598 14.3768 22.7242 15.9817L22.5489 16.2825Z" fill="#543787" stroke="#543787" stroke-width="0.4"/>
<path d="M8.65585 8.20225L8.65585 8.20234L8.66204 8.20187C8.97747 8.1776 9.29475 8.19981 9.60373 8.26778L9.61069 8.26932L9.61775 8.27035C9.95356 8.31948 10.2715 8.45283 10.5418 8.65799C10.8092 8.86089 11.0215 9.1275 11.1593 9.43342C11.2019 9.5638 11.2926 9.6733 11.4133 9.73935C11.5382 9.80777 11.6851 9.82406 11.822 9.78465L11.8353 9.78082L11.848 9.7752C11.9727 9.71973 12.0724 9.61983 12.1276 9.49494C12.1814 9.37305 12.1892 9.23587 12.1495 9.10888C12.0205 8.56475 11.7484 8.06491 11.3614 7.66109C10.9736 7.2564 10.4845 6.96292 9.94499 6.81109C9.05896 6.52023 8.09732 6.56173 7.23959 6.92791C6.73148 7.13562 6.28238 7.46538 5.93204 7.888C5.58348 8.30849 5.34339 8.80801 5.23273 9.34275C5.21498 9.40264 5.20859 9.46535 5.21394 9.52765C5.21965 9.5941 5.23859 9.65873 5.26965 9.71774C5.30071 9.77676 5.34326 9.82896 5.3948 9.87129C5.44634 9.91361 5.50583 9.94519 5.56976 9.96418L5.58272 9.96803L5.59608 9.9701C5.71232 9.98811 5.83119 9.96456 5.93178 9.90359C6.02919 9.84456 6.10342 9.7541 6.14236 9.64731C6.28752 9.32941 6.50263 9.04838 6.77168 8.82523C7.04285 8.60032 7.36169 8.44011 7.70401 8.35678L7.70404 8.35691L7.71095 8.35496C8.01905 8.26813 8.33608 8.21689 8.65585 8.20225Z" fill="#543787" stroke="#543787" stroke-width="0.4"/>
<path d="M15.9998 6.75807L15.9997 6.75804L15.9966 6.75944C15.5148 6.97178 15.0837 7.28425 14.7319 7.67607C14.3812 8.06677 14.1174 8.52745 13.958 9.02764C13.9146 9.14751 13.9168 9.27921 13.9641 9.39769C14.0122 9.51791 14.1034 9.61585 14.2199 9.67238L14.2197 9.67273L14.2313 9.67746C14.3529 9.72742 14.4893 9.72744 14.611 9.67753C14.728 9.62952 14.8223 9.53902 14.8752 9.42451C15.2374 8.81699 15.8237 8.37572 16.5081 8.19589L16.5081 8.19592L16.5116 8.19493C16.797 8.11432 17.0906 8.06645 17.3868 8.05222L17.3868 8.0525L17.3973 8.05144C17.8823 8.00248 18.3707 8.10362 18.7963 8.3412C19.2202 8.57778 19.5616 8.93831 19.7747 9.37436C19.8282 9.5022 19.9281 9.60524 20.0544 9.66267C20.1832 9.7212 20.3295 9.72787 20.4631 9.6813L20.4631 9.68134L20.4665 9.68008C20.5335 9.65536 20.5949 9.61761 20.6471 9.56901C20.6994 9.52041 20.7416 9.46193 20.7711 9.39694C20.8006 9.33196 20.817 9.26176 20.8192 9.19041C20.8214 9.12248 20.8107 9.0548 20.7877 8.99091C20.6438 8.47674 20.3815 8.00337 20.0217 7.60874C19.6602 7.21222 19.2105 6.90632 18.709 6.71576C18.2774 6.54812 17.8166 6.46879 17.3539 6.48247C16.8888 6.48422 16.4286 6.57788 15.9998 6.75807Z" fill="#543787" stroke="#543787" stroke-width="0.4"/>
<path d="M15.2998 14.8059L15.3072 14.8047C15.8368 14.724 16.3391 14.5163 16.771 14.1993C17.1995 13.8848 17.5462 13.4721 17.782 12.996C17.8039 12.9341 17.8368 12.8766 17.8793 12.8264C17.9254 12.772 17.9818 12.7273 18.0453 12.6948C18.1088 12.6623 18.1781 12.6427 18.2493 12.6372C18.3203 12.6316 18.3918 12.6402 18.4596 12.6624C18.4596 12.6624 18.4596 12.6624 18.4596 12.6624L18.3973 12.8525C18.4814 12.88 18.5515 12.9393 18.5926 13.0178C18.6337 13.0962 18.6425 13.1876 18.6173 13.2725L15.2998 14.8059ZM15.2998 14.8059L15.2926 14.8075C14.535 14.9811 13.7588 15.06 12.9818 15.0425L12.9803 15.0425C12.398 15.0338 11.8176 14.9748 11.2455 14.8661C10.5039 14.7187 9.82704 14.4926 9.29869 14.1661C8.77319 13.8413 8.40368 13.4236 8.25044 12.8904C8.21816 12.7643 8.13795 12.6558 8.02679 12.5878C7.91584 12.52 7.7829 12.4981 7.65618 12.5267C7.59292 12.539 7.5327 12.5637 7.47897 12.5994C7.42389 12.636 7.37677 12.6833 7.34047 12.7385C7.30416 12.7938 7.27941 12.8558 7.2677 12.9209C7.25639 12.9838 7.25749 13.0483 7.27093 13.1107C7.54263 14.7129 9.0675 15.8282 10.9163 16.3158L10.9673 16.1225L10.9163 16.3158C11.5852 16.4923 12.2734 16.5852 12.9652 16.5924L12.9663 16.5925C13.6545 16.5957 14.3407 16.5202 15.0117 16.3675L15.0117 16.3675L15.014 16.3669C16.833 15.93 18.3913 14.9093 18.81 13.3262L15.2998 14.8059Z" fill="#543787" stroke="#543787" stroke-width="0.4"/>
</g>
<defs>
<clipPath id="clip0_108_9">
<rect width="26" height="26" fill="white"/>
</clipPath>
</defs>
</svg>
