<?xml version="1.0" encoding="UTF-8"?>
<svg id="Layer_1" xmlns="http://www.w3.org/2000/svg" xmlns:xlink="http://www.w3.org/1999/xlink" version="1.1" viewBox="0 0 26 26">
  <!-- Generator: Adobe Illustrator 29.2.1, SVG Export Plug-In . SVG Version: 2.1.0 Build 116)  -->
  <defs>
    <style>
      .st0 {
        fill: none;
      }

      .st1 {
        fill: #543787;
        stroke: #543787;
        stroke-width: .4px;
      }

      .st2 {
        clip-path: url(#clippath);
      }
    </style>
    <clipPath id="clippath">
      <rect class="st0" x="26.8" y="-22.5" width="26" height="26"/>
    </clipPath>
  </defs>
  <g class="st2">
    <g>
      <path class="st1" d="M32.6-19h0c2.3-1.9,5.2-2.9,8.3-2.9,2.8,0,5.5,1,7.7,2.8,2.6,2.1,4.2,4.9,4.3,7,.2,2.1-.3,4.2-1.3,6h0s0,0,0,0c-1.1,1.8-2.9,3.1-5,3.6h0s0,0,0,0c-.6.1-1.2.2-1.8.3l-12.1-16.9ZM32.6-19h0c-2.3,1.9-3.8,4.7-4.1,7.7h0c-.2,3.1.3,4.9,1.4,6.2,1.1,1.3,3,2.1,5.6,2.9l-2.9-16.9ZM40.8.3s0,0,0,0h-.2M40.8.3l1.5-2.5c-.1.2-.3.4-.5.7-.3.5-.7,1.1-1.1,1.6M40.8.3s0,0,0,0h-.2M40.8.3l-1.2.8c.4-.3.7-.6,1-.9M50.2-6.4h0c-1,1.4-2.4,2.5-4,2.9-.5.1-1.1.2-1.6.3h0c-.6,0-1.1,0-1.6,0,0,0,0,0-.1,0-.2,0-.5,0-.6,0-.2,0-.4,0-.5.1-.1,0-.2.2-.3.4-.1.2-.2.3-.4.5,0,0,0,.1-.1.2-.2.4-.5.8-.8,1.1h0c-.3.4-.6.8-1,1.1-.9.5-1.8.8-2.8.9.3-.7.5-1.4.5-2.1,0-.6,0-1.1-.2-1.7,0-.2-.2-.4-.3-.5-.1-.1-.3-.3-.5-.3h0s0,0,0,0c-1.2-.4-2.2-.8-3-1.2-.8-.4-1.5-.8-1.9-1.4-.9-1.1-1.2-2.5-1-5.2.3-2.6,1.6-5,3.6-6.7h0c2-1.7,4.6-2.6,7.3-2.5h0s0,0,0,0c2.5,0,4.9.8,6.8,2.4h0c2.3,1.8,3.7,4.2,3.9,6h0c.2,1.9-.2,3.7-1.2,5.3l-.2.3Z"/>
      <path class="st1" d="M36.3-14.4h0s0,0,0,0c.3,0,.6,0,.9,0h0s0,0,0,0c.3,0,.7.2.9.4.3.2.5.5.6.8,0,.1.1.2.3.3.1,0,.3,0,.4,0h0s0,0,0,0c.1,0,.2-.2.3-.3,0-.1,0-.3,0-.4-.1-.5-.4-1-.8-1.4-.4-.4-.9-.7-1.4-.8-.9-.3-1.8-.2-2.7.1-.5.2-1,.5-1.3,1-.3.4-.6.9-.7,1.5,0,0,0,.1,0,.2,0,0,0,.1,0,.2,0,0,0,.1.1.2,0,0,.1,0,.2,0h0s0,0,0,0c.1,0,.2,0,.3,0,0,0,.2-.1.2-.3.1-.3.4-.6.6-.8.3-.2.6-.4.9-.5h0s0,0,0,0c.3,0,.6-.1.9-.2Z"/>
      <path class="st1" d="M43.7-15.9h0s0,0,0,0c-.5.2-.9.5-1.3.9-.4.4-.6.9-.8,1.4,0,.1,0,.3,0,.4,0,.1.1.2.3.3h0s0,0,0,0c.1,0,.3,0,.4,0,.1,0,.2-.1.3-.3.4-.6.9-1,1.6-1.2h0s0,0,0,0c.3,0,.6-.1.9-.1h0s0,0,0,0c.5,0,1,0,1.4.3.4.2.8.6,1,1,0,.1.2.2.3.3.1,0,.3,0,.4,0h0s0,0,0,0c0,0,.1,0,.2-.1,0,0,0-.1.1-.2,0,0,0-.1,0-.2,0,0,0-.1,0-.2-.1-.5-.4-1-.8-1.4-.4-.4-.8-.7-1.3-.9-.4-.2-.9-.2-1.4-.2-.5,0-.9,0-1.4.3Z"/>
      <path class="st1" d="M43-7.8h0c.5,0,1-.3,1.5-.6.4-.3.8-.7,1-1.2,0,0,0-.1,0-.2,0,0,.1,0,.2-.1,0,0,.1,0,.2,0,0,0,.1,0,.2,0h0v.2s0,0,.1.2c0,0,0,.2,0,.3l-3.3,1.5ZM43-7.8h0c-.8.2-1.5.3-2.3.2h0c-.6,0-1.2,0-1.7-.2-.7-.1-1.4-.4-1.9-.7-.5-.3-.9-.7-1-1.3,0-.1-.1-.2-.2-.3-.1,0-.2,0-.4,0,0,0-.1,0-.2,0,0,0-.1,0-.1.1,0,0,0,.1,0,.2,0,0,0,.1,0,.2.3,1.6,1.8,2.7,3.6,3.2v-.2c0,0,0,.2,0,.2.7.2,1.4.3,2,.3h0c.7,0,1.4,0,2-.2h0c1.8-.4,3.4-1.5,3.8-3l-3.5,1.5Z"/>
    </g>
  </g>
</svg>