<?xml version="1.0" encoding="UTF-8"?>
<svg id="Layer_1" data-name="Layer 1" xmlns="http://www.w3.org/2000/svg" xmlns:xlink="http://www.w3.org/1999/xlink" viewBox="0 0 624.54 624.54">
  <defs>
    <style>
      .cls-1 {
        fill: none;
      }

      .cls-2 {
        fill: #ffebae;
      }

      .cls-3 {
        opacity: .82;
      }

      .cls-3, .cls-4 {
        isolation: isolate;
      }

      .cls-5 {
        fill: #f6f2ef;
      }

      .cls-6 {
        fill: #7cb8c0;
      }

      .cls-4 {
        fill: #543787;
        font-family: OstrichSans-Heavy, 'Ostrich Sans';
        font-size: 58.58px;
        font-weight: 800;
      }

      .cls-7 {
        opacity: .86;
      }

      .cls-8 {
        opacity: .88;
      }

      .cls-9 {
        opacity: .85;
      }

      .cls-10 {
        opacity: .44;
      }

      .cls-11 {
        clip-path: url(#clippath);
      }
    </style>
    <clipPath id="clippath">
      <rect class="cls-1" width="624.54" height="624.54" rx="12" ry="12"/>
    </clipPath>
  </defs>
  <g>
    <rect class="cls-6" width="624.54" height="624.54" rx="12" ry="12"/>
    <g class="cls-11">
      <g>
        <g class="cls-9">
          <path class="cls-5" d="M472.06,173.19c1.14-2.26,2.85-4.53,5.34-5.37,2.05-.69,4.59-.24,5.88,1.6.45.64,1.45-.06,1-.71-1.54-2.2-4.46-2.83-6.96-2.15-2.97.82-5.04,3.47-6.37,6.11-.36.71.75,1.22,1.11.52h0Z"/>
          <path class="cls-5" d="M479.02,177.56c.45-.14.94-.24,1.41-.21.45.04.76.18.8.64.03.36-.04.74-.07,1.1-.04.41-.08.82-.12,1.22-.09.86-.17,1.72-.26,2.58-.03.33.15.65.49.71.3.06.68-.16.71-.49.1-1.01.2-2.02.3-3.03.05-.49.1-.98.15-1.47s.06-.95-.15-1.39c-.66-1.4-2.46-1.2-3.68-.82-.75.23-.34,1.38.42,1.15h0Z"/>
          <path class="cls-5" d="M475.13,187.72c-.47.26-.59.91-.41,1.38.19.51.71.89,1.27.78.32-.06.6-.21.82-.47.17-.2.3-.46.33-.72.05-.35-.03-.66-.2-.96-.15-.26-.39-.46-.65-.61-.54-.31-1.42-.38-1.83.17-.38.52-.2,1.29.31,1.65.52.37,1.18.4,1.73.08.23-.13.43-.37.52-.62.11-.31.12-.61.03-.93-.07-.26-.25-.53-.47-.68-.16-.11-.32-.19-.52-.21s-.35,0-.54.05c-.25.07-.51.26-.66.47-.11.15-.18.29-.22.48s-.02.37.03.55c.04.14.19.29.32.35.14.06.33.08.47.02s.28-.17.35-.32.06-.3.02-.47v-.02c0,.05.02.11.03.16,0-.05-.01-.09-.01-.14v.16s0-.09.02-.13l-.05.15s.03-.08.06-.12l-.08.13c.03-.05.07-.1.11-.14l-.12.11c.05-.05.1-.08.17-.12l-.15.08s.11-.05.17-.06l-.16.03s.1-.01.16-.01h-.16s.08,0,.12.01l-.15-.05s.09.04.14.06l-.13-.08s.08.06.12.1l-.11-.12s.08.1.11.16l-.08-.15c.03.07.06.13.07.21l-.03-.16c.01.07.02.15.02.22v-.16c0,.07,0,.13-.03.19l.05-.15s-.04.09-.06.14l.08-.13c-.03.05-.07.1-.12.14l.12-.11c-.05.05-.11.09-.17.12l.15-.08c-.06.03-.13.05-.2.07l.16-.03c-.09.02-.17.02-.26.02h.16c-.08,0-.16-.01-.24-.04l.15.05c-.07-.02-.13-.05-.2-.09l.13.08c-.06-.04-.11-.08-.16-.13l.11.12s-.07-.1-.1-.15l.08.15c-.03-.06-.05-.12-.07-.19l.03.16s-.01-.08-.01-.13v.16s0-.08.01-.12l-.05.15s.02-.05.04-.08l-.08.13s.05-.06.07-.09l-.12.11s.06-.05.1-.06l-.15.08s.09-.03.14-.04l-.16.03c.07-.01.14-.02.21-.01h-.16c.11,0,.22.02.32.05l-.15-.05c.1.03.2.08.29.14l-.13-.08c.09.06.17.12.25.2l-.11-.12c.06.07.11.14.15.21l-.08-.15c.04.07.06.15.08.22l-.03-.16c.01.06.02.12.01.18v-.16c0,.07,0,.14-.03.21l.05-.15c-.02.07-.06.14-.1.21l.08-.13c-.04.06-.09.12-.15.18l.12-.11s-.09.07-.15.1l.15-.08s-.11.05-.17.06l.16-.03s-.1.01-.16.01h.16s-.09,0-.14-.02l.15.05s-.07-.03-.1-.05l.13.08s-.08-.06-.11-.09l.11.12s-.08-.09-.11-.15l.08.15c-.03-.06-.05-.12-.07-.19l.03.16c-.01-.06-.02-.12-.01-.18v.16s0-.09.02-.14l-.05.15s.03-.07.05-.11l-.08.13s.04-.05.07-.08l-.12.11s.06-.04.09-.06c.13-.07.22-.25.25-.39.03-.15,0-.34-.1-.46s-.23-.23-.39-.25c-.17-.02-.31.02-.46.1h0l-.02.03Z"/>
          <path class="cls-5" d="M490.7,182.89l-.39.7c-.13.23-.04.57.16.73.48.38,1.11.48,1.69.3s1-.67,1.08-1.25-.1-1.19-.57-1.55c-.27-.2-.56-.29-.89-.3-.29,0-.55.09-.8.23-.47.26-.81.82-.72,1.37.09.62.61,1.15,1.24,1.25.33.05.67-.01.95-.21.25-.18.4-.44.49-.73.14-.5-.05-1.07-.42-1.42-.23-.21-.57-.32-.88-.29-.51.05-.85.46-.84.96,0,.31.18.64.43.82.29.21.67.27,1.02.2.17-.04.33-.08.49-.14.3-.11.49-.48.37-.78s-.46-.48-.78-.37c-.11.04-.22.07-.33.1l.16-.03c-.09.02-.18.03-.28.03h.16c-.07,0-.13,0-.19-.03l.15.05s-.07-.03-.1-.05l.13.08s-.06-.04-.08-.07l.11.12s-.06-.08-.09-.12l.08.15s-.03-.08-.04-.12l.03.16s-.01-.08-.01-.12v.16-.07l-.05.15s.02-.05.03-.07l-.08.13s.03-.04.05-.06l-.12.11s.04-.03.07-.04l-.15.08s.06-.02.09-.03l-.16.03h.12-.16s.09,0,.14.02l-.15-.05s.09.04.13.06l-.13-.08s.09.07.13.11l-.11-.12s.08.1.11.15l-.08-.15c.03.07.06.14.08.22l-.03-.16c.02.08.02.15.02.23v-.16c0,.07,0,.14-.03.21l.05-.15c-.02.05-.04.1-.07.15l.08-.13s-.06.08-.09.12l.12-.11s-.08.07-.13.09l.15-.08s-.11.05-.17.06l.16-.03c-.06.01-.12.01-.18.01h.16c-.07,0-.14,0-.2-.03l.15.05c-.07-.02-.14-.06-.21-.1l.13.08c-.07-.05-.14-.1-.2-.16l.11.12c-.05-.05-.09-.11-.12-.17l.08.15c-.03-.06-.06-.13-.07-.19l.03.16c-.01-.06-.02-.12-.01-.18v.16c0-.06,0-.11.02-.17l-.05.15c.02-.07.05-.13.09-.19l-.08.13c.04-.06.08-.11.14-.16l-.12.11c.07-.06.14-.12.23-.16l-.15.08c.08-.04.16-.07.24-.09l-.16.03c.08-.02.17-.03.25-.02h-.16c.07,0,.14,0,.21.03l-.15-.05c.06.02.12.05.18.08l-.13-.08c.06.04.11.08.16.13l-.11-.12c.06.06.1.13.14.2l-.08-.15c.05.09.08.18.1.28l-.03-.16c.02.1.03.2.02.3v-.16c0,.09-.01.18-.04.27l.05-.15c-.02.07-.06.14-.1.21l.08-.13c-.04.07-.09.13-.15.18l.12-.11c-.07.06-.14.11-.21.15l.15-.08c-.09.05-.19.08-.29.11l.16-.03c-.1.02-.21.03-.31.03h.16c-.11,0-.21-.02-.31-.05l.15.05c-.09-.03-.18-.07-.26-.12l.13.08s-.07-.05-.1-.07l.16.73.39-.7c.16-.28,0-.69-.29-.81-.32-.14-.65,0-.81.29h0l-.06-.02Z"/>
          <path class="cls-5" d="M473.56,193.02c1.4,1.08,3.51,1.1,4.89-.03.25-.2.36-.58.15-.85-.19-.25-.59-.36-.85-.15-.14.11-.29.21-.44.31t0,0s-.08.04-.12.06c-.08.04-.16.07-.25.1-.08.03-.15.05-.23.07-.05.01-.1.03-.16.04q.06-.01,0,0c-.18.03-.36.05-.54.05h-.11s-.16,0-.08,0-.07,0-.08,0c-.04,0-.09,0-.13-.02-.17-.02-.33-.06-.5-.11.11.03,0,0-.03-.01-.04-.02-.08-.03-.13-.05-.08-.03-.16-.07-.24-.11-.03-.02-.06-.03-.09-.05,0,0-.14-.08-.07-.04s-.06-.04-.07-.05c-.04-.03-.09-.06-.13-.1-.26-.2-.65-.18-.86.08s-.18.66.08.86h-.01Z"/>
          <path class="cls-5" d="M494.11,188.5c1.94-.34,3.65-1.65,4.4-3.49.12-.31.02-.67-.29-.81-.29-.14-.69-.01-.81.29-.59,1.44-1.91,2.53-3.39,2.79-.33.06-.59.31-.56.66.02.31.33.62.66.56h-.01Z"/>
          <path class="cls-5" d="M361.36,41.21c8.8,20.92,18.92,41.29,30.28,60.95,5.6,9.69,11.58,19.15,17.64,28.56,6.06,9.41,12.12,18.86,17.37,28.76,5.72,10.79,10.45,22.3,12.74,34.34.31,1.62,1.51,2.96,3.29,2.82,1.51-.12,3.13-1.66,2.82-3.29-4.25-22.32-15.78-42.02-27.86-60.93-6.07-9.49-12.22-18.92-17.97-28.62-5.76-9.71-11.21-19.6-16.33-29.66-5.82-11.46-11.23-23.14-16.21-34.99-1.52-3.62-7.29-1.56-5.76,2.08h0v-.02Z"/>
          <path class="cls-5" d="M447.88,192.97c-4.94-1.23-9.82,1.85-12.11,6.14-2.66,4.99-.97,11.23,2.36,15.46,6.4,8.13,17.17,10.29,26.99,9.87,5.43-.23,10.79-1.23,16.09-2.41,6.12-1.36,12.15-3.14,18.02-5.34,5.95-2.23,11.72-4.89,17.31-7.91,5.32-2.87,10.41-6.09,14.8-10.27,4.24-4.05,8.27-10.51,4.03-16.07-4.38-5.74-11.73-4.76-17.89-3.33-1.61.37-2.35,2.49-1.84,3.92.62,1.71,2.3,2.22,3.92,1.84,3.25-.75,8.89-2.13,11.07,1.47,1.89,3.11-2.6,7.04-4.63,8.83-7.51,6.62-17.14,11.15-26.38,14.81-9.4,3.73-19.3,6.56-29.34,7.86-7.48.97-15.65,1.02-22.4-2.81-3.69-2.09-7.34-5.98-7.29-10.48.02-1.69.73-3.28,1.99-4.41,1.27-1.15,2.58-1.54,4.2-1.14,3.84.95,4.92-5.08,1.11-6.02h0Z"/>
          <path class="cls-5" d="M527.96,175.02c-10.33-17.48-6.05-38.99-1.31-57.49,2.52-9.86,5.18-19.66,6.81-29.71,1.69-10.36,2.63-20.82,3.53-31.26,1.07-12.46,2.14-24.93,3.21-37.39.14-1.65-.72-3.25-2.46-3.57-1.5-.28-3.43.8-3.57,2.46-.97,11.28-1.94,22.57-2.9,33.85-.92,10.67-1.8,21.36-3.39,31.95-1.57,10.48-4.19,20.69-6.84,30.94-2.6,10.04-4.94,20.15-5.43,30.54-.54,11.53,1.42,23.19,7.34,33.22.84,1.42,3,1.63,4.27.73,1.44-1.02,1.58-2.84.73-4.27h.01Z"/>
          <path class="cls-5" d="M366.78,38.85c9.87-8.53,19.72-17.09,29.6-25.6,2.28-1.96,4.58-3.9,7.1-5.56,2.63-1.73,5.48-2.95,8.46-3.92,6.07-1.95,12.43-3.14,18.68-4.35,12.79-2.49,25.69-4.37,38.62-6.03,6.46-.83,12.94-1.61,19.41-2.39,2.8-.34,5.09-.47,7.66.83,2.75,1.39,5.43,2.94,8.1,4.48,5.86,3.39,11.59,7.01,17.17,10.85,2.9,2,5.75,4.05,8.56,6.16,1.6,1.2,5.11,3.27,4.67,5.68-.71,3.88,5.31,4.99,6.02,1.11,1.24-6.72-5.83-10.86-10.44-14.2-5.3-3.83-10.74-7.45-16.29-10.9-2.83-1.75-5.69-3.45-8.58-5.1-2.67-1.52-5.37-3.25-8.24-4.37-3.09-1.2-6.19-1.01-9.41-.62-3.38.41-6.77.82-10.15,1.23-13.63,1.67-27.25,3.48-40.78,5.89-6.87,1.23-13.72,2.6-20.51,4.2s-12.83,3.69-18.33,7.73c-5.99,4.4-11.44,9.62-17.06,14.48-5.93,5.13-11.86,10.26-17.8,15.39-1.25,1.08-1.75,2.82-.73,4.27.88,1.25,3.01,1.82,4.27.73h0Z"/>
          <path class="cls-5" d="M401.5,10.02c9.01,26.27,18.63,52.33,28.87,78.14,2.92,7.35,5.88,14.68,8.89,21.99,1.5,3.63,7.27,1.57,5.76-2.08-10.58-25.67-20.57-51.6-29.93-77.74-2.66-7.44-5.28-14.9-7.84-22.38-1.28-3.73-7.04-1.65-5.76,2.08h0Z"/>
          <path class="cls-5" d="M491.45-5.1c-.5,28.51-.99,57.01-1.49,85.52l-.43,24.43c-.03,1.65,1.75,2.94,3.29,2.82,1.78-.14,2.79-1.63,2.82-3.29.5-28.51.99-57.01,1.49-85.52l.43-24.43c.03-1.65-1.75-2.94-3.29-2.82-1.78.14-2.79,1.63-2.82,3.29h0Z"/>
          <path class="cls-5" d="M365.18,40.72c3.71-1.34,1.63-7.1-2.08-5.76s-1.63,7.1,2.08,5.76h0Z"/>
          <path class="cls-5" d="M531.24,92.36c8.78,7.54,17.34,15.35,25.65,23.4,4.08,3.96,8.11,7.98,12.07,12.07.55.56,1.1,1.12,1.64,1.69.19.21.61.78.57.51.04.23-.27.95-.31,1.08-.25.76-.52,1.52-.78,2.28-.97,2.85-1.95,5.69-2.92,8.54-.54,1.56-.14,3.32,1.47,4.07,1.37.64,3.53.1,4.07-1.47,1.04-3.03,2.08-6.07,3.12-9.1,1.01-2.95,2.4-5.93.36-8.8-.91-1.28-2.2-2.38-3.29-3.5-1.09-1.13-2.19-2.25-3.29-3.36-2.21-2.23-4.43-4.45-6.67-6.65-8.97-8.79-18.23-17.28-27.76-25.46-2.99-2.57-6.92,2.13-3.92,4.7h-.01Z"/>
          <path class="cls-5" d="M398.11,116.34c-5.15,9.5-9.27,19.49-12.4,29.83-.63,2.07-.92,4.73-2.11,6.59-1.05,1.64-3.37,1.82-5.12,1.77-2.33-.06-4.61-.78-6.9-1.14-2.74-.42-5.44-.44-8.1.44-3.74,1.24-1.66,7,2.08,5.76,2.44-.81,5.02-.18,7.46.3,2.5.5,5.05.94,7.61.67,2.63-.28,5.22-1.23,7.07-3.19,1.94-2.05,2.51-4.84,3.25-7.46,3.05-10.76,7.37-21.15,12.69-30.97,1.88-3.47-3.67-6.06-5.54-2.6h.01Z"/>
          <path class="cls-5" d="M376.43-41.3c2.51-.96,5.03-1.92,7.54-2.87,0,0,1.33-.46,1.32-.48.02.26-.21.21-.71-.16.13.09.22.2.29.35.51,1.19,1.82,2.38,2.6,3.41,3.34,4.38,6.68,8.77,10.02,13.15,6.81,8.93,13.61,17.86,20.42,26.79,2.38,3.12,7.4-.39,5-3.54-7.42-9.74-14.85-19.48-22.27-29.23-3.66-4.81-7.17-9.8-11.02-14.45-1.94-2.34-4.35-2.84-7.19-1.81-2.71.98-5.39,2.05-8.08,3.08-3.68,1.4-1.61,7.17,2.08,5.76h0Z"/>
          <path class="cls-5" d="M412.74,122.17c-1.39-8.53,8.45-12.6,14.84-14.79,4.4-1.51,8.56-3.14,12.43-5.77,3.8-2.58,7.33-5.73,11.6-7.54,4.37-1.86,9.16-2.08,13.77-2.93,4.35-.8,8.5-2.25,12.7-3.59,4.33-1.38,8.81-2.65,13.4-2.45,4.09.18,8.05,1.5,11.88,2.83,8.61,2.99,19.07,6.36,27.16.19,1.87-1.43-.23-4.44-2.12-3-7.39,5.63-17.2,1.6-24.93-1.02-4.08-1.39-8.21-2.57-12.55-2.68-4.63-.11-9.19,1.11-13.56,2.49-4.42,1.4-8.78,2.98-13.38,3.74-4.66.77-9.5,1.13-13.88,3.06-4.31,1.89-7.92,4.92-11.76,7.57-4.16,2.88-8.68,4.45-13.41,6.11-4.47,1.57-8.81,3.5-12.07,7.05-2.72,2.96-4.46,6.94-3.79,11.01.38,2.32,4.05,2.05,3.66-.28h0Z"/>
          <path class="cls-5" d="M413.98,128.9c7.47-2.08,15.32-.67,22.93-.82,3.87-.08,7.75-.58,11.39-1.92,3.81-1.39,7.31-3.51,10.72-5.68,3.45-2.19,6.86-4.52,10.62-6.17,3.98-1.74,8.11-2.25,12.38-2.73,4.3-.48,8.42-1.23,12.31-3.2,1.89-.96,3.71-2.05,5.68-2.85,2.02-.82,4.11-1.21,6.27-1.47,4.57-.55,9.04-.98,13.27-2.96s7.66-4.71,10.47-8.24c1.47-1.85-1.34-4.21-2.82-2.35-2.51,3.14-5.69,5.71-9.37,7.35-3.72,1.65-7.56,2.03-11.56,2.5-1.99.23-3.99.54-5.9,1.13-2.09.64-4.01,1.69-5.93,2.71-3.93,2.09-7.74,3.13-12.15,3.64-4.02.46-8.06.83-11.9,2.2-3.9,1.4-7.48,3.58-10.96,5.8-3.37,2.15-6.71,4.42-10.38,6.04-3.5,1.55-7.12,2.28-10.93,2.47-8.51.41-17.04-1.25-25.39,1.08-2.28.64-1.02,4.09,1.25,3.46h0Z"/>
          <path class="cls-5" d="M388.1,34.39c2.69-2.67,5.38-5.35,8.06-8.02.21-.21,1.48-1.31,1.17-1.45.39.17.59,1.22.69,1.58.52,1.84.93,3.72,1.39,5.57,1.87,7.52,3.75,15.05,5.62,22.57.57,2.29,4.02,1.03,3.46-1.25-2.26-9.09-4.53-18.17-6.79-27.26-.38-1.53-.87-3.14-2.17-4.16-1.38-1.08-3.14-.81-4.4.29-3.46,3.02-6.59,6.53-9.85,9.77-1.67,1.67,1.15,4.01,2.82,2.35h0Z"/>
          <path class="cls-5" d="M502.31,9.95c-1.46,13.11-2.18,26.29-2.15,39.48,0,2.37,3.67,2.07,3.66-.28-.03-12.88.68-25.74,2.1-38.53.26-2.34-3.35-3.02-3.61-.67h0Z"/>
          <path class="cls-5" d="M469.12,98.92c2.22-.8.98-4.26-1.25-3.46s-.98,4.26,1.25,3.46h0Z"/>
          <path class="cls-5" d="M483.06,99.14c2.22-.8.98-4.26-1.25-3.46-2.22.8-.98,4.26,1.25,3.46h0Z"/>
          <path class="cls-5" d="M464.68,109.13c2.22-.8.98-4.26-1.25-3.46-2.22.8-.98,4.26,1.25,3.46h0Z"/>
          <path class="cls-5" d="M451.63,104.76c2.22-.8.98-4.26-1.25-3.46-2.22.8-.98,4.26,1.25,3.46h0Z"/>
          <path class="cls-5" d="M436.35,119.35c2.22-.8.98-4.26-1.25-3.46-2.22.8-.98,4.26,1.25,3.46h0Z"/>
          <path class="cls-5" d="M421.21,122.43c2.22-.8.98-4.26-1.25-3.46-2.22.8-.98,4.26,1.25,3.46h0Z"/>
          <path class="cls-5" d="M435.55,158.12c20.7-5.39,41.57-10.12,62.58-14.13,6.01-1.15,12.02-2.24,18.05-3.27,2.31-.4,2.05-4.07-.28-3.66-21.3,3.66-42.49,8.02-63.51,13.08-6.04,1.45-12.07,2.97-18.09,4.53-2.29.6-1.03,4.05,1.25,3.46h0Z"/>
          <path class="cls-5" d="M431.65,159.29c2.22-.8.98-4.26-1.25-3.46-2.22.8-.98,4.26,1.25,3.46h0Z"/>
          <path class="cls-5" d="M433.51,155.19l-.85.31c-.24.08-.45.21-.61.39-.19.15-.33.33-.43.56-.11.22-.16.45-.16.69-.03.25,0,.48.09.72l.23.44c.19.26.43.46.72.6l.45.14c.33.06.65.03.96-.08l.85-.31c.24-.08.45-.21.61-.39.19-.15.33-.33.43-.56.11-.22.16-.45.16-.69.03-.25,0-.48-.09-.72l-.23-.44c-.19-.26-.43-.46-.72-.6l-.45-.14c-.33-.06-.65-.03-.96.08h0Z"/>
          <path class="cls-5" d="M472.52,154.81c-11,1.29-17.88,11.9-17.68,22.41.11,5.73,2.07,11.33,4.97,16.23,2.91,4.91,7.02,8.78,12.64,10.22,5.06,1.3,10.43.62,15.45-.52,5.76-1.31,11.12-3.66,14.81-8.43,6.67-8.64,6.17-20.6-.3-29.19-7.8-10.35-21.41-13.41-33.56-10.25-2.29.59-1.03,4.05,1.25,3.46,9.25-2.4,19.64-.69,26.72,6.02,6.71,6.36,9.17,16.28,4.91,24.69-2.13,4.2-5.66,7.22-10.07,8.83-4.42,1.62-9.4,2.57-14.12,2.43-4.78-.15-9.12-1.96-12.2-5.7-3.13-3.79-5.39-8.57-6.34-13.39-1.02-5.11-.54-10.48,2.11-15.03,2.47-4.25,6.75-7.52,11.69-8.09,2.35-.27,2.07-3.94-.28-3.66h0v-.03Z"/>
          <path class="cls-5" d="M459.83,207.35c.57.39,1.09.64,1.75.82.5.13,1.06.16,1.58.12.51-.04,1.05-.16,1.52-.37.66-.29,1.13-.64,1.65-1.13.2-.19.35-.57.4-.84.08-.41,0-.81-.19-1.18-.35-.68-1.01-.99-1.76-.99-1.81,0-3.63-.02-5.44-.03-.45,0-.99.32-1.27.65-.28.34-.48.87-.42,1.32.06.48.26.97.65,1.27s.82.42,1.32.42c1.81,0,3.63.02,5.44.03-.52-1-1.04-2.01-1.55-3.01l-.05.05.35-.32c-.19.17-.4.32-.62.44l.44-.23c-.25.13-.51.22-.78.29l.48-.1c-.3.06-.6.09-.9.08l.48.03c-.28-.02-.55-.07-.82-.15l.45.14c-.22-.08-.43-.17-.63-.29l.4.25s-.08-.05-.12-.08c-.41-.28-.81-.46-1.32-.42-.45.04-.99.29-1.27.65s-.48.84-.42,1.32.25,1,.65,1.27h0Z"/>
          <path class="cls-5" d="M451.41,213.66c.81.5,1.76.67,2.69.68s1.88-.32,2.7-.79c.98-.56,1.03-2.27.12-2.91-.52-.36-1.05-.67-1.65-.87-.74-.24-1.41-.36-2.2-.39-1.26-.04-2.49.35-3.56.99-.36.22-.69.75-.75,1.17-.07.47,0,1.01.31,1.39.93,1.16,2.2,1.94,3.66,2.24.63.13,1.31.16,1.95.08.86-.11,1.56-.38,2.32-.78.54-.29.82-1.07.77-1.64-.05-.68-.47-1.21-1.05-1.52-1.64-.88-3.37-1.55-5.15-2.1-.43-.13-1.05.06-1.39.31s-.68.72-.75,1.17c-.07.48,0,1,.31,1.39l.32.35c.25.2.53.34.84.4.14.04.28.08.41.13l-.45-.14c1.48.48,2.92,1.09,4.29,1.82l-.28-3.16-.06.03.44-.23c-.32.16-.66.28-1.01.36l.48-.1c-.38.08-.76.1-1.14.09l.48.03c-.38-.02-.76-.09-1.13-.2l.45.14c-.37-.12-.71-.28-1.04-.48l.4.25c-.3-.2-.58-.42-.82-.69l.32.35c-.06-.07-.12-.14-.17-.21l-.44,2.56c.08-.05.16-.09.24-.14l-.44.23c.38-.19.77-.33,1.18-.42l-.48.1c.41-.08.83-.12,1.25-.1l-.48-.03c.42.02.83.1,1.24.22l-.45-.14c.38.12.74.29,1.08.5l-.4-.25c.06.04.12.08.17.12l.12-2.91s-.08.05-.13.07l.44-.23c-.28.14-.57.25-.87.31l.48-.1c-.31.06-.61.08-.93.07l.48.03c-.31-.02-.62-.08-.91-.17l.45.14c-.25-.09-.49-.2-.71-.34-.37-.23-1.01-.21-1.4-.06-.42.15-.86.52-1.04.95-.18.44-.25.95-.06,1.4l.23.44c.19.26.43.46.72.6h0Z"/>
          <path class="cls-5" d="M476.48,214.7c1.89-.03,3.75-.66,5.3-1.73.64-.44.97-1.39.67-2.12-.33-.8-1.02-1.19-1.87-1.21-2.64-.06-5.29.38-7.78,1.25-.73.26-1.31,1.08-1.21,1.87.11.87.68,1.43,1.5,1.66,2.31.66,4.78.21,6.83-.98.83-.48,1.01-1.83.44-2.56-.66-.85-1.67-.96-2.56-.44-.13.08-.44.17.02,0-.11.04-.21.1-.32.15-.18.08-.36.15-.55.21-.22.07-.45.12-.68.19.16-.05.37-.07.08-.03-.12.02-.23.04-.35.05-.21.02-.43.04-.64.04-.05,0-.34-.02-.35,0,.01-.03.46.04.07,0-.45-.04-.89-.13-1.32-.25l.29,3.54c.6-.21,1.2-.39,1.81-.54l.39-.09c.41-.1-.34.06.05,0,.31-.06.62-.12.93-.17,1.2-.18,2.42-.26,3.64-.23-.4-1.11-.8-2.22-1.2-3.33-.14.1-.29.19-.43.28-.09.06-.19.11-.28.16-.22.13.33-.15.09-.05-.34.14-.67.3-1.02.41-.17.05-.33.1-.5.14-.25.07,0-.03.1-.02-.07,0-.18.03-.26.05-.39.06-.77.09-1.16.1-.96.01-1.81,1.03-1.69,1.97.13,1.04.94,1.7,1.97,1.69h0Z"/>
          <path class="cls-5" d="M496,209.13c1.6-.67,3.11-1.54,4.46-2.63.61-.49.99-1.35.67-2.12-.3-.73-1.05-1.31-1.87-1.21-2.72.33-5.31,1.78-6.89,4.05-.38.55-.55,1.15-.32,1.8s.76,1.04,1.39,1.18c1.65.36,3.47.18,5.02-.49,1.72-.75,3.07-1.94,4.05-3.54.44-.72.06-1.68-.49-2.19-1.1-1.03-2.95-1.1-4.14-.19-.76.58-1.06,1.76-.44,2.56.59.76,1.75,1.07,2.56.44.05-.04.11-.08.16-.11-.29.14-.35.18-.17.11-.32.06-.39.07-.19.04.07,0,.13-.01.2,0-.31-.02-.37-.02-.18,0-.29-.1-.34-.12-.16-.05.17.09.12.05-.14-.1.05.04.1.08.15.13-.16-.73-.32-1.46-.49-2.19.04-.07.21-.31.07-.11-.04.06-.09.12-.13.19-.1.14-.21.27-.32.4-.1.11-.21.22-.31.33-.16.18.28-.24.1-.09-.06.05-.11.1-.17.15-.25.21-.51.39-.78.56-.06.04-.13.08-.2.12-.22.13.06-.04.14-.07-.16.06-.31.15-.47.21-.28.12-.57.21-.86.29-.06.02-.33.07-.04.02s.02,0-.04,0c-.17.03-.34.05-.51.07-.3.03-.61,0-.91.03.16-.01.36.03.08,0-.08,0-.15-.02-.23-.03-.17-.02-.34-.06-.5-.09.36.99.72,1.99,1.08,2.98.16-.22.32-.44.49-.65.13-.15.37-.51.56-.59-.18.17-.22.2-.12.11.05-.04.09-.08.14-.12.1-.08.19-.16.29-.23.22-.16.44-.32.67-.46.11-.07.22-.13.32-.19.13-.07.07-.04-.16.08.07-.04.15-.07.23-.11.23-.11.46-.2.7-.28s.48-.15.72-.22c.39-.11-.36.05,0,0,.17-.02.33-.05.5-.07-.4-1.11-.8-2.22-1.2-3.33-.59.48-1.21.92-1.86,1.31-.16.1-.33.19-.49.29-.08.05-.17.09-.25.14.23-.12.25-.13.06-.03-.34.16-.69.33-1.04.47-.88.37-1.5,1.4-1.1,2.35.36.88,1.4,1.5,2.35,1.1h0v-.02Z"/>
          <path class="cls-5" d="M514.14,191.93c-1.18,1.04-1.97,2.26-2.36,3.79-.3,1.14.83,2.28,1.95,2.17,3.51-.36,6.64-2.52,8.23-5.67.6-1.2-.44-2.79-1.81-2.61-2.37.3-4.63,1.11-6.64,2.39-.44.28-.86.58-1.26.91-.63.51-1.27,1.04-1.46,1.87-.22.98.23,1.96,1.13,2.41.44.22.93.25,1.4.15.64-.14,1.06-.54,1.38-1.1.48-.84-.01-2.08-.88-2.44-.98-.41-1.94-.01-2.44.88l-.04.07c.2-.24.4-.48.6-.72l-.06.04c.31-.11.61-.22.92-.33,1.62,1.05,2.01,1.9,1.16,2.53.06-.05.12-.1.18-.15.14-.12.28-.23.42-.34.24-.19.5-.37.75-.55.3-.2.61-.4.92-.57.05-.03.51-.29.11-.07.16-.09.32-.16.49-.24.61-.28,1.24-.52,1.89-.71.17-.05.35-.1.52-.14.1-.02.55-.15.12-.03.35-.09.72-.13,1.07-.18-.6-.87-1.2-1.74-1.81-2.61-.08.16-.17.31-.25.47-.1.17-.09.15.04-.06-.05.07-.1.15-.15.22-.18.25-.37.5-.57.73-.12.13-.24.26-.36.39-.06.06-.13.12-.19.19.19-.17.21-.19.05-.06-.24.19-.48.39-.74.57-.24.16-.58.29-.79.48.24-.12.27-.14.08-.05-.08.04-.16.08-.24.11-.16.07-.33.14-.49.2-.29.11-.59.19-.89.27-.2.05-.17.04.09-.02-.09.02-.17.03-.26.05-.17.03-.35.05-.53.07.65.72,1.3,1.44,1.95,2.17,0-.03.15-.41.04-.17s.05-.11.07-.16.25-.61.31-.61c-.01,0-.21.29-.03.05.07-.09.14-.18.21-.27s.15-.17.22-.26.39-.36.04-.05c.72-.63,1.09-1.72.44-2.56-.56-.72-1.79-1.12-2.56-.44h.03Z"/>
          <path class="cls-5" d="M526.09,223.61c2.22-.8.98-4.26-1.25-3.46-2.22.8-.98,4.26,1.25,3.46h0Z"/>
          <path class="cls-5" d="M506.47,238.7c2.22-.8.98-4.26-1.25-3.46-2.22.8-.98,4.26,1.25,3.46h0Z"/>
          <path class="cls-5" d="M528.77,248.78c2.22-.8.98-4.26-1.25-3.46s-.98,4.26,1.25,3.46h0Z"/>
          <path class="cls-5" d="M486.7,241.57c2.22-.8.98-4.26-1.25-3.46-2.22.8-.98,4.26,1.25,3.46h0Z"/>
          <path class="cls-5" d="M470.27,250.7c2.22-.8.98-4.26-1.25-3.46-2.22.8-.98,4.26,1.25,3.46h0Z"/>
          <path class="cls-5" d="M490.3,258.93c2.22-.8.98-4.26-1.25-3.46-2.22.8-.98,4.26,1.25,3.46h0Z"/>
          <path class="cls-5" d="M457.46,265.46c2.22-.8.98-4.26-1.25-3.46-2.22.8-.98,4.26,1.25,3.46h0Z"/>
          <path class="cls-5" d="M448.73,239.81c2.22-.8.98-4.26-1.25-3.46-2.22.8-.98,4.26,1.25,3.46h0Z"/>
          <path class="cls-5" d="M494.14,277.47c2.22-.8.98-4.26-1.25-3.46-2.22.8-.98,4.26,1.25,3.46h0Z"/>
          <path class="cls-5" d="M515.03,264.55c2.22-.8.98-4.26-1.25-3.46-2.22.8-.98,4.26,1.25,3.46h0Z"/>
          <path class="cls-5" d="M542.25,272.88c2.22-.8.98-4.26-1.25-3.46-2.22.8-.98,4.26,1.25,3.46h0Z"/>
          <path class="cls-5" d="M477.43,281.49c2.22-.8.98-4.26-1.25-3.46s-.98,4.26,1.25,3.46h0Z"/>
          <path class="cls-5" d="M471.63,265.42c2.22-.8.98-4.26-1.25-3.46-2.22.8-.98,4.26,1.25,3.46h0Z"/>
          <path class="cls-5" d="M498.04,249.16c2.22-.8.98-4.26-1.25-3.46-2.22.8-.98,4.26,1.25,3.46h0Z"/>
          <path class="cls-5" d="M503.87,226.21c2.22-.8.98-4.26-1.25-3.46-2.22.8-.98,4.26,1.25,3.46h0Z"/>
        </g>
        <g class="cls-7">
          <path class="cls-5" d="M163.54,457.52c-2.75-3.05-4.35-7.71-2.83-11.73,1.42-3.76,7.65-.33,10.11.73,9.85,4.25,18.99,9.99,27.18,16.9,8.26,6.97,15.45,15.16,21.34,24.22,2.82,4.34,5.4,8.9,7.42,13.68,1.86,4.42,3.22,9.24,2.61,14.07-.6,4.73-3.26,10.01-8.16,11.45-3.55,1.05-8.17-.08-9.83-3.39-.75-1.5-2.42-2.36-4.06-1.69-1.46.6-2.45,2.55-1.69,4.06,2.44,4.84,7.4,7.56,12.77,7.57,5.89.01,11.08-3.23,14.06-8.27,6.67-11.28,1.73-24.11-4.14-34.54-12.52-22.27-32.35-40.2-55.92-50.15-5.61-2.37-13.47-4.74-17.02,2.11-3.06,5.91-1.06,13.99,3.22,18.74,1.12,1.24,2.94,1.67,4.35.59,1.25-.95,1.72-3.1.59-4.35h0Z"/>
          <path class="cls-5" d="M153.13,448.97c-1.92,6.98-6.97,12.01-12.84,15.94-6.06,4.05-12.92,6.99-19.71,9.56s-13.76,4.61-20.88,6.08c-7.38,1.52-14.87,2.28-22.34,3.24s-15.32,2.51-22.77,4.86c-7.38,2.33-14.55,5.27-21.69,8.25-7.58,3.15-15.13,6.35-22.67,9.59-3.75,1.61-7.5,3.23-11.23,4.88-3.53,1.56-7.05,3.35-9.54,6.39-2.76,3.38-3.8,7.91-4.97,12.02-1.2,4.21-2.28,8.45-3.25,12.72-1.92,8.49-3.32,17.08-4.25,25.73-.42,3.97,5.74,4.75,6.17.76.81-7.6,2-15.16,3.57-22.65.77-3.66,1.63-7.31,2.6-10.93.99-3.7,1.91-7.55,3.41-11.07s4.11-5.16,7.34-6.65c3.66-1.69,7.39-3.24,11.09-4.84,7.53-3.25,15.09-6.45,22.66-9.61,7.09-2.95,14.18-5.91,21.48-8.31,7.29-2.39,14.71-3.9,22.3-4.9,7.47-.98,14.97-1.71,22.37-3.2,7.27-1.47,14.44-3.48,21.4-6.02,7.76-2.83,15.52-6.21,22.43-10.79,6.78-4.48,12.87-10.7,15.07-18.72.44-1.62-.04-3.36-1.72-4.04-1.42-.57-3.59.1-4.04,1.72h0Z"/>
          <path class="cls-5" d="M-17.45,571.97c7.05-1.26,13.62-4.07,20.08-7.08,6.92-3.23,13.83-6.49,20.74-9.75,14.12-6.66,28.21-13.39,42.2-20.33,7.99-3.96,15.95-8,23.86-12.12,1.49-.77,2.37-2.41,1.69-4.06-.59-1.44-2.56-2.47-4.06-1.69-27.51,14.34-55.6,27.55-83.68,40.73-6.98,3.27-14.01,6.77-21.66,8.14-3.93.7-3.12,6.86.83,6.16h0Z"/>
          <path class="cls-5" d="M-20.12,574.43c10.33,16.99,21.45,33.49,33.33,49.43,5.99,8.03,11.92,16.42,19.23,23.32,7.35,6.94,16.8,11.14,25.84,15.41,10.24,4.83,20.65,9.31,31.19,13.44,3.72,1.45,6.05-4.3,2.32-5.77-9.33-3.65-18.56-7.58-27.65-11.78-8.72-4.03-18.05-7.89-25.5-14.08-7.35-6.1-12.98-14.33-18.69-21.91-5.86-7.78-11.54-15.7-17.03-23.74-6.28-9.19-12.3-18.56-18.09-28.07-.87-1.43-3.12-1.53-4.35-.59-1.45,1.11-1.47,2.91-.59,4.35h0Z"/>
          <path class="cls-5" d="M208.17,527.29c-10.34,2.97-18.58,10.27-25.24,18.46-7.21,8.88-12.97,18.89-19.23,28.44-14.38,21.96-29.53,43.41-45.42,64.31-4.49,5.9-9.03,11.75-13.63,17.56-4.34,5.48-8.56,11.22-14.27,15.35-3.24,2.35.53,7.29,3.76,4.94,5.15-3.73,9.2-8.69,13.14-13.63,4.04-5.07,8.04-10.18,12-15.31,7.97-10.36,15.76-20.86,23.37-31.49,7.55-10.55,14.91-21.23,22.08-32.04,6.57-9.89,12.63-20.18,19.62-29.78,6.73-9.23,14.88-17.82,26.18-21.07,1.61-.46,2.28-2.63,1.69-4.06-.7-1.7-2.44-2.15-4.06-1.69h.01Z"/>
          <path class="cls-5" d="M153.95,599.01c9.16,1.45,18.33,2.89,27.49,4.34,3.73.59,7.9.65,10.84,3.28,3.02,2.71,4.95,6.38,8.48,8.55,1.43.88,3.26.84,4.35-.59.94-1.23.85-3.47-.59-4.35-3.55-2.18-5.56-6.03-8.68-8.72-3.51-3.02-8.04-3.45-12.43-4.15-9.57-1.51-19.14-3.02-28.71-4.53-3.95-.62-4.71,5.54-.76,6.17h0Z"/>
          <path class="cls-5" d="M77.71,481.57c3.25-10.29,6.51-20.58,9.76-30.87.81-2.55,1.61-5.1,2.42-7.65.59-1.87.98-4.57,2.39-6.03,2.34-2.44,6.94-1.82,9.93-1.49,3.97.43,4.75-5.73.76-6.17-4.51-.49-9.53-.64-13.47,1.96-2.06,1.36-3.4,3.45-4.2,5.75-.97,2.76-1.77,5.58-2.65,8.37l-10.69,33.82c-.51,1.6.08,3.38,1.72,4.04,1.47.59,3.53-.12,4.04-1.72h0Z"/>
          <path class="cls-5" d="M70.9,488.76c3.18,2.42,6.95-2.51,3.77-4.94-3.18-2.42-6.95,2.51-3.77,4.94h0Z"/>
          <path class="cls-5" d="M71.72,480.03c-.21,1.08-.41,2.16-.62,3.24-.06.41-.03.8.11,1.18.07.4.24.76.5,1.08.25.35.57.62.95.79.34.24.72.37,1.14.41h.79c.54-.08,1.03-.28,1.47-.61l.59-.59c.34-.45.54-.95.61-1.5.21-1.08.41-2.16.62-3.24.06-.41.03-.8-.11-1.18-.07-.4-.24-.76-.5-1.08-.25-.35-.57-.62-.95-.79-.34-.24-.72-.37-1.14-.41h-.79c-.54.08-1.03.28-1.47.61l-.59.59c-.34.45-.54.95-.61,1.5h0Z"/>
          <path class="cls-5" d="M47.78,648.49c20.21-20.95,40.8-41.51,61.78-61.69,5.92-5.7,11.88-11.36,17.86-17,1.22-1.15,1.68-2.92.59-4.35-.93-1.23-3.13-1.75-4.35-.59-21.51,20.26-42.65,40.93-63.39,61.99-5.84,5.93-11.65,11.89-17.42,17.88-1.17,1.21-.64,3.42.59,4.35,1.46,1.12,3.18.63,4.35-.59h0Z"/>
          <path class="cls-5" d="M-4.61,600.7c-10.05,5.94-20.09,11.88-30.14,17.82-1.23.73-2.47,1.46-3.7,2.19-1.27.75-2.69,1.4-3.65,2.55-2.04,2.42-.55,5.53.23,8.15.81,2.73,1.62,5.47,2.43,8.2.4,1.36.88,2.72,1.21,4.1.03.14.15.61.12.6-.18-.08.51.39.1-.03-.1-.1.45-.39.44-.41.1.12-.59.17-.65.19-1.21.23-2.5.1-3.73.2-1.33.12-2.65.35-3.95.68-2.92.75-5.55,1.9-8.12,3.47-1.43.88-1.53,3.12-.59,4.35,1.1,1.45,2.92,1.47,4.35.59,1.88-1.15,4.01-2.03,6.16-2.49s4.46-.33,6.7-.66c2.7-.39,5.18-2.12,5.47-5.03.27-2.63-1.05-5.47-1.78-7.94-.84-2.83-1.68-5.66-2.52-8.5-.2-.68-.42-1.36-.61-2.05,0,0-.19-.63-.16-.61l-.11.53c-.25.53-.22.67.09.41.45.02,1.39-.83,1.79-1.06.7-.42,1.41-.83,2.11-1.25,5.02-2.97,10.05-5.94,15.07-8.91,5.73-3.39,11.45-6.77,17.18-10.16,1.44-.85,1.52-3.13.59-4.35-1.12-1.47-2.9-1.45-4.35-.59h.02Z"/>
          <path class="cls-5" d="M197.78,486.9c-3.13-5.71-7.28-11.08-12.99-14.41-5.05-2.94-10.86-3.8-16.5-2.24-11.11,3.07-18.17,13.72-18.32,24.98-.16,12.4,6.54,25.41,18.09,30.68,10.93,4.98,24.41,1.9,31.92-7.54,7.88-9.9,6.21-25.42-3.85-33.2-1.9-1.47-4.16,1.5-2.26,2.96,7.52,5.82,9.58,17.16,4.92,25.39-4.94,8.72-16.04,12.9-25.58,10.29-10.96-3-18.01-13.56-19.33-24.48-1.17-9.65,2.81-19.65,11.82-24.12,4.92-2.44,10.42-2.72,15.45-.43,5.83,2.66,10.15,8.03,13.17,13.53,1.14,2.09,4.6.68,3.45-1.42h.01Z"/>
          <path class="cls-5" d="M207.94,485.87c.65.85,1.29,1.71,1.94,2.56.45.6,1.25.85,1.96.66.33-.09.59-.24.83-.48.27-.27.53-.68.54-1.08.02-.81-.07-1.51-.29-2.28-.18-.62-.48-1.18-.82-1.73-.68-1.08-1.76-1.94-2.94-2.43-.9-.38-2.09.09-2.43,1.03s.07,2.02,1.03,2.43c.18.07.35.16.52.25l-.43-.25c.35.21.67.45.96.74l-.35-.35c.3.31.56.65.78,1.02l-.24-.42c.2.36.36.73.47,1.12l-.12-.46c.1.37.15.75.16,1.13v-.48.22c1.11-.3,2.22-.6,3.33-.9-.65-.85-1.29-1.71-1.94-2.56-.59-.78-1.84-1-2.61-.35s-.98,1.78-.35,2.61h0Z"/>
          <path class="cls-5" d="M220.1,510.52l.85.9c.23.24.47.47.79.6l.47.12c.24.04.48.02.71-.06.16-.02.31-.08.44-.18.16-.06.28-.16.39-.3.14-.1.24-.24.3-.39.14-.2.22-.43.24-.69.03-.26.02-.53.02-.8,0-.11-.01-.23-.03-.34-.04-.26-.12-.52-.19-.77-.03-.12-.08-.23-.13-.34-.16-.34-.35-.69-.6-.97s-.54-.59-.87-.8c-.27-.2-.57-.33-.9-.37-.24-.04-.48-.02-.71.06-.24.04-.46.14-.65.3-.27.21-.47.47-.6.79-.15.46-.27.95-.29,1.44s-.01.98.09,1.46c.21.95.6,1.89,1.27,2.61l.35.35c.2.16.42.27.67.31.15.06.31.08.47.06.24.02.47-.02.7-.12.3-.14.56-.34.77-.59.31-.37.41-.92.36-1.38-.07-.66-.14-1.32-.21-1.97-.05-.47-.35-.95-.72-1.23s-.92-.45-1.38-.36-.95.31-1.23.72-.42.87-.36,1.38c.07.66.14,1.32.21,1.97,1.11-.46,2.22-.92,3.33-1.38-.19-.21-.36-.43-.5-.67l.24.42c-.16-.28-.28-.58-.37-.89l.12.46c-.09-.33-.13-.66-.13-1v.48c0-.31.04-.61.12-.91l-.12.47c.02-.07.04-.13.06-.2-.95.26-1.91.52-2.86.79.14.09.28.2.4.32l-.35-.35c.15.15.28.32.39.51l-.24-.42c.1.19.18.38.24.59l-.12-.46c.05.19.07.39.08.59v-.48c0,.1-.01.2-.02.3,1.11-.3,2.22-.6,3.33-.9l-.85-.9c-.15-.21-.34-.37-.57-.48-.2-.14-.43-.22-.69-.24-.44-.05-1.01.07-1.36.37-.38.31-.68.75-.72,1.26-.04.45.04,1.01.37,1.36h0v-.05Z"/>
          <path class="cls-5" d="M193.7,468.07c0,.54.06,1.03.39,1.48.23.3.57.57.93.69.7.24,1.56.17,2.15-.31.63-.51.97-1.35.8-2.15-.13-.63-.44-1.11-.88-1.55-1.24-1.24-2.68-2.22-4.28-2.95-.67-.3-1.5-.07-2,.42-.54.54-.68,1.3-.42,2.02.79,2.17,2.38,4.13,4.38,5.29.27.2.57.33.9.37.32.04.64,0,.94-.13.64-.26,1.02-.83,1.14-1.5.23-1.27-.16-2.56-.86-3.62-.73-1.1-1.89-1.77-3.15-2.04-.38-.08-.82.06-1.15.25-.35.2-.67.52-.81.91-.43,1.22-.28,2.71.64,3.69.35.38.73.66,1.26.72.44.05,1.01-.07,1.36-.37.38-.31.68-.75.72-1.26.04-.46-.04-1.01-.37-1.36-.09-.1-.17-.2-.24-.32l.24.42c-.08-.14-.14-.29-.19-.44l.12.46c-.04-.16-.06-.31-.07-.48v.48c0-.16.02-.32.06-.48l-.12.47c0-.05.03-.1.05-.15-.65.38-1.3.77-1.96,1.15.05,0,.1.02.15.03l-.47-.12c.24.07.47.16.69.29l-.43-.25c.24.14.45.31.65.51l-.35-.35c.21.22.39.46.54.72l-.24-.42c.13.24.24.5.31.77l-.12-.46c.06.24.09.49.1.74v-.48c0,.18-.02.35-.05.52.99-.42,1.99-.84,2.98-1.25-.65-.38-1.24-.83-1.77-1.35l.35.35c-.55-.55-1.02-1.17-1.41-1.85l.24.42c-.24-.42-.44-.86-.61-1.32-.81.81-1.61,1.63-2.42,2.44.36.17.72.35,1.07.55l-.43-.25c.95.55,1.82,1.21,2.6,1.98l-.35-.35c.11.11.21.22.28.36l-.24-.42s.04.09.06.13l-.12-.46s.02.09.03.14v-.48s0,.1-.02.14l.12-.47-.02.05.25-.43-.03.05.35-.35s-.06.05-.09.07l.42-.24s-.07.03-.11.04l.46-.12h-.06.48-.11l.47.12s-.06-.02-.09-.04l.43.25-.04-.03.35.35-.03-.04.24.42v-.05c.03.31.07.62.11.94v-.05c0-.5-.05-.94-.37-1.36-.28-.37-.79-.68-1.26-.72s-.98.05-1.36.37-.71.76-.72,1.26h0Z"/>
          <path class="cls-5" d="M174.97,454.86c.88,1.32,2.66,2.06,4.22,1.74.66-.14,1.22-.5,1.48-1.15.24-.6.15-1.32-.25-1.82-.67-.86-1.53-1.51-2.51-1.98s-2.04-.6-3.11-.57c-.43.01-1,.38-1.23.72-.28.41-.43.88-.36,1.38.21,1.62,1.08,3.05,2.31,4.09s2.85,1.52,4.47,1.45c1.15-.05,1.98-1.54,1.47-2.56-1.26-2.49-3.47-4.51-6.18-5.3-.48-.14-.93-.19-1.41,0-.43.18-.86.58-1.02,1.03-.31.87.03,2.13,1.03,2.43.62.18,1.21.43,1.77.74l-.43-.25c.66.38,1.26.83,1.8,1.36l-.35-.35c.31.31.59.63.85.98.12.17.24.34.35.51l.06.1c.1.17.08.13-.07-.13,0,.09.12.22.16.3.49-.85.98-1.7,1.47-2.56-.34.02.43.02.11,0-.09,0-.18,0-.27-.02s-.18-.02-.27-.04c-.07-.01-.47-.11-.12-.02s0,0-.07-.03c-.09-.03-.17-.06-.25-.09-.18-.07-.36-.16-.53-.26l.43.25c-.4-.23-.75-.5-1.08-.83l.35.35c-.17-.17-.33-.36-.47-.55-.05-.07-.1-.15-.15-.22-.18-.26.23.46.02.03-.09-.19-.18-.38-.24-.58-.15-.45.06.33,0,.02-.02-.12-.04-.24-.06-.36l-1.6,2.1c-.59.01.09.02.26.04.09.01.17.03.26.04.41.08-.23-.08-.05-.02.39.12.76.27,1.12.48l-.43-.25c.34.2.64.43.93.71l-.35-.35c.15.15.29.31.42.48.41-.99.82-1.98,1.23-2.98-.12.02-.27.02-.38.05.32,0,.38,0,.19,0-.06,0-.13-.01-.19-.02-.19-.04-.13-.02.19.06l-.18-.06c-.12-.04-.23-.1-.35-.16l.43.25c-.2-.11-.37-.24-.53-.4l.35.35c-.11-.12-.21-.24-.3-.37-.54-.81-1.87-.97-2.61-.35-.82.68-.93,1.74-.35,2.61h0l.02-.02Z"/>
          <path class="cls-5" d="M121,483.85c11.38,20.31,25.43,39.05,41.85,55.56,4.65,4.67,9.46,9.17,14.44,13.48,1.82,1.57,4.07-1.4,2.26-2.96-17.21-14.89-32.36-32.08-44.99-51.01-3.58-5.37-6.96-10.87-10.11-16.5-1.16-2.07-4.62-.67-3.45,1.42h0Z"/>
          <path class="cls-5" d="M119.74,479.88c1.91,1.45,4.17-1.51,2.26-2.96s-4.17,1.51-2.26,2.96h0Z"/>
          <path class="cls-5" d="M119.78,481.49c.66,1.31,1.32,2.62,1.98,3.93.23.45.54.83,1.03,1.02.42.17.99.19,1.41,0,.44-.21.85-.55,1.02-1.03.15-.44.21-.98,0-1.41-.66-1.31-1.32-2.62-1.98-3.93-.23-.45-.54-.83-1.03-1.02-.42-.17-.99-.19-1.41,0-.44.21-.85.55-1.02,1.03-.15.44-.21.98,0,1.41h0Z"/>
          <path class="cls-5" d="M62.12,493.62c8.46,1.41,17.69,4.04,23.53,10.75,2.94,3.38,4.78,7.54,7.22,11.27,2.36,3.62,5.08,6.98,8.01,10.15,11.73,12.7,26.57,22.17,37.77,35.39,3.23,3.81,5.87,7.96,8.58,12.13s5.7,8.19,9.87,10.98c1.98,1.33,4.26-1.63,2.26-2.96-3.91-2.62-6.63-6.38-9.16-10.27-2.41-3.71-4.74-7.44-7.54-10.88-5.5-6.76-12.03-12.59-18.62-18.25-6.77-5.81-13.72-11.47-19.82-17.99-2.94-3.15-5.69-6.5-8.08-10.1-2.46-3.71-4.3-7.87-7.16-11.31-6.51-7.82-16.7-11-26.4-12.61-2.37-.39-2.82,3.31-.45,3.7h0Z"/>
          <path class="cls-5" d="M62.2,490.53c-2-.2-3.79.56-5.01,2.16-.63.83-.42,1.96.35,2.61,3.5,2.92,6.99,5.94,9.62,9.7,2.81,4,3.61,8.19,3.06,13-.55,4.89-.96,9.49,1.19,14.08,1.98,4.25,5.27,7.74,8.85,10.69,4.35,3.58,9.26,6.41,13.47,10.17,4.12,3.68,6.41,8.42,9.41,12.94,1.5,2.27,3.27,4.36,5.44,6.02,2.29,1.75,4.9,3.03,7.4,4.43,5.17,2.88,9.07,7.16,13.39,11.11,3.95,3.61,8.36,6.55,13.74,7.38,4.66.71,9.33-.43,12.57-3.97,1.62-1.77-1.36-4.02-2.96-2.26-2.63,2.87-6.82,3.12-10.4,2.3-4.69-1.08-8.36-4.19-11.77-7.41-4.02-3.8-7.81-7.57-12.67-10.31-2.47-1.39-5.03-2.64-7.27-4.39-2.03-1.6-3.57-3.65-4.94-5.81-2.86-4.49-5.27-8.93-9.25-12.59-3.95-3.62-8.57-6.38-12.78-9.66-3.49-2.72-6.88-5.97-8.78-10.04-2.12-4.55-1.17-8.94-.78-13.73.42-5.13-.9-9.78-3.82-14-2.82-4.1-6.67-7.42-10.46-10.59.12.87.24,1.74.35,2.61.43-.56.9-.79,1.6-.72,2.38.23,2.85-3.46.45-3.7h0v-.02Z"/>
          <path class="cls-5" d="M137.18,577.93c1.91,1.45,4.17-1.51,2.26-2.96s-4.17,1.51-2.26,2.96h0Z"/>
          <path class="cls-5" d="M143.24,583.78c1.91,1.45,4.17-1.51,2.26-2.96s-4.17,1.51-2.26,2.96h0Z"/>
          <path class="cls-5" d="M109.78,556.5c1.75,1.33,2.56.27.81-1.06s-2.56-.27-.81,1.06h0Z"/>
          <path class="cls-5" d="M109.18,547.3c1.91,1.45,4.17-1.51,2.26-2.96s-4.17,1.51-2.26,2.96h0Z"/>
          <path class="cls-5" d="M92.61,539.01c1.91,1.45,4.17-1.51,2.26-2.96s-4.17,1.51-2.26,2.96h0Z"/>
          <path class="cls-5" d="M37.82,532.15c-12.83,5.82-25.65,11.64-38.48,17.45-2.18.99-.77,4.44,1.42,3.45,12.83-5.82,25.65-11.64,38.48-17.45,2.18-.99.77-4.44-1.42-3.45h0Z"/>
          <path class="cls-5" d="M227.99,465.27c1.91,1.45,4.17-1.51,2.26-2.96s-4.17,1.51-2.26,2.96h0Z"/>
          <path class="cls-5" d="M243.74,477.89c1.91,1.45,4.17-1.51,2.26-2.96s-4.17,1.51-2.26,2.96h0Z"/>
          <path class="cls-5" d="M258.78,441.11c1.91,1.45,4.17-1.51,2.26-2.96s-4.17,1.51-2.26,2.96h0Z"/>
          <path class="cls-5" d="M220.47,445.93c1.91,1.45,4.17-1.51,2.26-2.96s-4.17,1.51-2.26,2.96h0Z"/>
          <path class="cls-5" d="M234.95,443.97c1.91,1.45,4.17-1.51,2.26-2.96s-4.17,1.51-2.26,2.96h0Z"/>
          <path class="cls-5" d="M215.84,458.49c1.91,1.45,4.17-1.51,2.26-2.96s-4.17,1.51-2.26,2.96h0Z"/>
          <path class="cls-5" d="M196.52,437.57c1.91,1.45,4.17-1.51,2.26-2.96s-4.17,1.51-2.26,2.96h0Z"/>
          <path class="cls-5" d="M217.6,422.09c1.91,1.45,4.17-1.51,2.26-2.96s-4.17,1.51-2.26,2.96h0Z"/>
          <path class="cls-5" d="M238.44,425.6c1.91,1.45,4.17-1.51,2.26-2.96s-4.17,1.51-2.26,2.96h0Z"/>
          <path class="cls-5" d="M252.72,461.23c1.91,1.45,4.17-1.51,2.26-2.96s-4.17,1.51-2.26,2.96h0Z"/>
          <path class="cls-5" d="M278.54,444.41c1.91,1.45,4.17-1.51,2.26-2.96s-4.17,1.51-2.26,2.96h0Z"/>
          <path class="cls-5" d="M262.77,421.26c1.91,1.45,4.17-1.51,2.26-2.96s-4.17,1.51-2.26,2.96h0Z"/>
          <path class="cls-5" d="M175.73,496.64c-1.11-.56-2.42-.02-3.16.88-.84,1.02-.81,2.47-.2,3.59.38.69.9,1.28,1.54,1.75s1.4-.52.75-.99c-.51-.37-.95-.83-1.21-1.35-.16-.32-.24-.56-.28-.88-.02-.17-.03-.24-.02-.38,0-.09.02-.17.03-.26,0-.04,0-.07.02-.11,0,.05,0,.06,0,.02.16-.48.43-.82.85-1.06-.05.03.11-.05.13-.06.07-.03.14-.05.21-.08.13-.05-.07,0,.06-.02.07-.01.14-.03.22-.03h.11q-.07,0,0,0c.05,0,.11.01.16.02q.07.01,0,0s.07.02.1.03c.07.03.14.06.21.09.3.15.69-.05.81-.34.13-.33-.04-.66-.34-.81h0Z"/>
          <path class="cls-5" d="M184.55,499.06c-.41.17-.63.61-.57,1.04.03.2.1.36.21.53s.26.28.43.36c.02,0,.04.02.06.02.07.02.14.04.21.05.15.01.28,0,.42-.05s.26-.16.36-.28c.07-.08.12-.18.16-.27s.07-.2.08-.3,0-.21,0-.31c0-.16-.05-.33-.11-.47-.09-.21-.23-.39-.41-.54-.02-.02-.05-.04-.07-.05-.07-.04-.14-.09-.22-.12s-.15-.05-.23-.07c-.03,0-.07-.01-.1-.02-.16-.01-.32.02-.45.12s-.23.26-.24.42.02.33.12.45.25.23.42.24c.03,0,.07,0,.1.02l-.16-.04s.09.03.14.06l-.14-.08s.09.06.14.1l-.12-.12s.09.1.12.16l-.08-.14c.04.06.06.13.08.2l-.04-.15c.02.07.03.14.03.21v-.16c0,.06,0,.12-.02.17l.04-.16c0,.05-.03.1-.06.15l.08-.14s-.05.08-.09.12l.12-.12s-.02.02-.03.03l.14-.08s-.04.02-.06.02l.15-.04h-.07.16-.07l.16.04s-.06-.02-.08-.03l.14.08s-.06-.04-.08-.06l.12.12s-.07-.08-.09-.12l.08.14s-.04-.09-.06-.14l.04.15s-.02-.09-.02-.14v.16s0-.07,0-.1l-.04.16s.02-.05.03-.08l-.08.14s.03-.04.04-.06l-.12.12s.04-.03.06-.05l-.14.08s.03-.02.05-.02c.15-.06.28-.19.34-.34.06-.14.06-.33,0-.47-.07-.15-.18-.28-.34-.34s-.31-.06-.47,0h.01Z"/>
          <path class="cls-5" d="M174.43,484.4c-1.09-.25-2.19.77-2.26,1.84-.04.61.22,1.24.76,1.57.56.35,1.24.4,1.87.18s1.09-.77,1.16-1.43-.21-1.3-.7-1.73-1.18-.53-1.77-.3c-.6.24-1.03.78-1.17,1.41-.07.32-.03.7.12.99.18.36.45.61.8.8.58.32,1.37.3,1.9-.13.25-.2.34-.61.12-.87s-.6-.34-.87-.12c-.04.03-.08.05-.11.08.16-.12.06-.03,0,0-.02,0-.03.01-.05.02-.1.04.16-.03.05-.01-.05,0-.1.01-.15.02s-.12-.01.06,0h-.05c-.05,0-.09,0-.14-.02-.02,0-.05-.01-.07-.01-.08-.01.16.05.06.02-.05-.02-.1-.03-.14-.05s-.07-.04-.11-.05c.2.09.06.03,0,0-.04-.03-.07-.06-.11-.09-.08-.07.1.11.05.05-.02-.03-.04-.05-.06-.07s-.1-.15-.04-.04,0-.02-.02-.05c0,0-.03-.07-.03-.08,0,0,.04.17.02.07,0-.06,0-.11-.02-.17.02.15,0,.12,0,.08v-.08s.04-.18,0-.06,0-.02.02-.06c.02-.05.05-.1.07-.15-.09.2-.03.06,0,0,.03-.04.06-.07.09-.11s.08-.07-.06.06c.02-.02.03-.03.05-.05.04-.03.08-.07.12-.1.02-.01.04-.02.06-.04.06-.05-.15.08-.05.03.04-.02.08-.04.13-.06.02,0,.04-.01.05-.02.1-.04-.13.02-.06.02.05,0,.1-.02.15-.02.07,0,.11.03-.05,0h.06c.05,0,.1.02.15.02-.16-.02-.12-.03-.07-.02.03.01.06.02.08.03.02,0,.04.02.05.02.12.06-.02-.03-.04-.03.02,0,.1.07.12.08.04.03.07.06.11.1-.16-.14-.04-.04,0,.01.03.04.06.09.09.13.05.06-.08-.15-.03-.05,0,.02.02.04.03.05.02.04.04.09.06.14,0,.02,0,.05.02.07.03.07-.03-.16-.02-.05,0,.05.02.11.02.16v.07c-.02-.16,0-.11,0-.06,0,.04,0,.09,0,.13,0,.06-.05.11,0-.04,0,.02,0,.04-.02.06,0,.03-.04.14-.07.16,0,0,.1-.15.04-.07,0,.02-.03.04-.04.06s-.03.04-.05.06c-.06.08.06-.06.06-.06,0,.02-.09.08-.11.09-.02.02-.05.03-.07.05-.05.03-.13.04.04-.02-.09.03-.17.07-.26.11-.07.03.16-.04.05-.01-.02,0-.04,0-.06.01-.06.01-.12.02-.18.02h-.06c-.12,0,.16,0,.04,0-.05,0-.1,0-.15-.01-.04,0-.09-.02-.13-.02-.08-.01.16.05.06.01-.03,0-.06-.02-.08-.03-.05-.02-.09-.04-.13-.06-.09-.04.08.04.07.04,0,0-.06-.04-.07-.05-.04-.02-.07-.06-.1-.08-.06-.05.12.13.05.05-.02-.02-.04-.04-.06-.07s-.03-.05-.05-.07c-.03-.04-.03-.08.03.06-.02-.04-.04-.08-.05-.12,0-.02,0-.03-.02-.05-.04-.1.03.16,0,.06,0-.04-.02-.08-.02-.12v-.07s0,.18,0,.06c0-.05,0-.1.02-.15v-.05c.02-.1-.05.15-.02.06.02-.05.03-.1.05-.14.02-.04.04-.08.06-.13.03-.07-.09.16-.04.07,0-.02.03-.04.04-.07l.09-.12s.14-.15.05-.06.03-.02.06-.04c.04-.03.08-.06.12-.09.12-.08-.13.07,0,0,.04-.02.09-.04.14-.06.02,0,.03-.01.05-.02.1-.03-.17.03-.04.01.05,0,.09-.02.14-.02.06,0,.13.01-.06,0h.08c.05,0,.1.01.15.02.14.03.34-.04.45-.12.12-.09.23-.26.24-.42.03-.36-.2-.62-.54-.69h.04Z"/>
          <path class="cls-5" d="M185.63,501.38c.28-.39.32-.87.15-1.31-.15-.4-.46-.7-.84-.9-.43-.22-.92-.16-1.32.08-.39.23-.63.7-.67,1.15s.07.94.39,1.27c.17.18.38.34.62.41.23.07.47.1.71.05.88-.15,1.66-1.01,1.46-1.94-.22-1.07-1.4-1.72-2.42-1.36-.31.11-.47.52-.34.81.15.32.48.45.81.34l.09-.03-.15.04c.09-.02.18-.03.27-.04h-.16c.1,0,.2.01.29.04l-.16-.04c.12.03.23.08.34.14l-.14-.08c.1.06.19.13.27.21l-.12-.12c.07.08.14.16.19.25l-.08-.14c.04.08.08.16.1.25l-.04-.15c.02.07.03.15.03.23v-.16c0,.08,0,.16-.03.24l.04-.16c-.02.08-.06.16-.1.24l.08-.14c-.05.09-.11.17-.18.24l.12-.12c-.08.08-.16.14-.26.2l.14-.08c-.09.05-.18.09-.28.12l.15-.04c-.09.02-.18.04-.27.04h.16c-.08,0-.15-.01-.23-.03l.16.04c-.07-.02-.14-.05-.2-.08l.14.08c-.06-.04-.11-.08-.16-.12l.12.12c-.05-.05-.1-.11-.13-.18l.08.14c-.04-.08-.08-.16-.1-.25l.04.15c-.02-.09-.03-.18-.04-.27v.16c0-.1,0-.2.04-.29l-.04.16c.02-.09.06-.17.1-.25l-.08.14c.04-.07.09-.13.15-.19l-.12.12s.1-.09.16-.12l-.14.08c.05-.03.11-.05.16-.07l-.15.04c.06-.02.13-.03.19-.03h-.16c.06,0,.12.01.19.03l-.16-.04c.07.02.14.05.21.09l-.14-.08c.08.05.15.1.22.17l-.12-.12c.07.07.13.15.18.23l-.08-.14c.04.07.07.15.1.23l-.04-.15c.02.07.03.13.03.2v-.16c0,.06,0,.12-.02.18l.04-.16c0,.06-.04.11-.06.16l.08-.14s-.03.04-.04.07c-.19.27-.17.67.12.87.27.19.67.17.87-.12h-.02Z"/>
          <path class="cls-5" d="M175.55,480.58c2.96.53,5.42,2.75,6.35,5.59.25.76,1.4.28,1.15-.47-1.06-3.27-3.97-5.74-7.35-6.35-.79-.14-.94,1.09-.15,1.23h0Z"/>
          <path class="cls-5" d="M188.38,495.29c2.46,1.51,4.12,4.26,4.13,7.18,0,.34.18.64.54.69.3.04.69-.21.69-.54-.02-3.34-1.75-6.56-4.61-8.32-.29-.17-.65-.17-.87.12-.19.25-.17.69.12.87h0Z"/>
          <path class="cls-5" d="M173.64,486.23c.64.48,1.39-.5.75-.99-.64-.48-1.39.5-.75.99h0Z"/>
          <path class="cls-5" d="M173.71,486.76c.64.48,1.39-.5.75-.99s-1.39.5-.75.99h0Z"/>
          <path class="cls-5" d="M162.54,498.75c-.33,3.14.71,6.39,2.92,8.68,2.32,2.4,5.66,3.56,8.96,3.22.8-.08.63-1.31-.17-1.23-2.92.3-5.95-.75-7.97-2.91-1.9-2.04-2.8-4.84-2.51-7.6.08-.79-1.15-.95-1.23-.15h0Z"/>
          <path class="cls-5" d="M211.77,500.23c0,.54.06,1.03.39,1.48.23.3.57.57.93.69.7.24,1.56.17,2.15-.31.63-.51.97-1.35.8-2.15-.13-.63-.44-1.11-.88-1.55-1.24-1.24-2.68-2.22-4.28-2.95-.67-.3-1.5-.07-2,.42-.54.54-.68,1.3-.42,2.02.79,2.17,2.38,4.13,4.38,5.29.27.2.57.33.9.37.32.04.64,0,.94-.13.64-.26,1.02-.83,1.14-1.5.23-1.27-.16-2.56-.86-3.62s-1.89-1.77-3.15-2.04c-.38-.08-.82.06-1.15.25-.35.2-.67.52-.81.91-.43,1.22-.28,2.71.64,3.69.35.38.73.66,1.26.72.44.05,1.01-.07,1.36-.37.38-.31.68-.75.72-1.26.04-.46-.04-1.01-.37-1.36-.09-.1-.17-.2-.24-.32l.24.42c-.08-.14-.14-.29-.19-.44l.12.46c-.04-.16-.06-.31-.07-.48v.48c0-.16.02-.32.06-.48l-.12.47c.01-.05.03-.1.05-.15-.65.38-1.3.77-1.96,1.15.05,0,.1.02.15.03-.16-.04-.31-.08-.47-.12.24.07.47.16.69.29l-.43-.25c.24.14.45.31.65.51l-.35-.35c.21.22.39.46.54.72l-.24-.42c.13.24.24.5.31.77l-.12-.46c.06.24.09.49.1.74v-.48c0,.18-.02.35-.05.52.99-.42,1.99-.84,2.98-1.25-.65-.38-1.24-.83-1.77-1.35l.35.35c-.55-.55-1.02-1.17-1.41-1.85l.24.42c-.24-.42-.44-.86-.61-1.32-.81.81-1.61,1.63-2.42,2.44.36.17.72.35,1.07.55l-.43-.25c.95.55,1.82,1.21,2.6,1.98l-.35-.35c.11.11.21.22.28.36l-.24-.42s.04.09.06.13l-.12-.46s.02.09.03.14v-.48s0,.1-.02.14l.12-.47-.02.05.25-.43-.03.05.35-.35s-.06.05-.09.07l.42-.24s-.07.03-.11.04l.46-.12h-.06.48-.11l.47.12s-.06-.02-.09-.04l.43.25-.04-.03.35.35-.03-.04.24.42v-.05c.03.31.07.62.11.94v-.05c0-.5-.05-.94-.37-1.36-.28-.37-.79-.68-1.26-.72s-.98.05-1.36.37c-.36.3-.71.76-.72,1.26h0Z"/>
        </g>
      </g>
    </g>
  </g>
  <g class="cls-8">
    <path class="cls-2" d="M573.8,597.87h-2.13c-.09-.02-.18-.04-.27-.05-.63-.06-1.26-.1-1.89-.17-2.36-.26-4.66-.8-6.88-1.67-7.11-2.79-12.35-7.62-15.72-14.47-1.82-3.71-2.7-7.66-2.81-11.79-.03-1.29.06-2.57.2-3.85.3-2.65.97-5.2,2.01-7.65,2.02-4.79,5.1-8.76,9.25-11.89,4.65-3.5,9.89-5.41,15.7-5.73,2.43-.13,4.84.04,7.23.53,3.44.7,6.65,1.99,9.61,3.88,3.85,2.45,6.95,5.64,9.28,9.57,2.41,4.07,3.76,8.46,3.95,13.2,0,.13.03.26.04.38v2.13c-.02.1-.04.2-.04.3-.01.29,0,.58-.03.87-.14,1.7-.42,3.38-.86,5.03-2.34,8.78-8.75,15.99-17.18,19.35-2.74,1.09-5.58,1.74-8.52,1.94-.31.02-.63.07-.94.1h0ZM568.58,555.97c-1.98,0-3.91.09-5.84.29-1.71.17-3.4.41-5.08.78-.91.2-1.81.42-2.71.68-1.6.46-2.4,2.32-1.63,3.75.54.99,1.79,1.71,3.21,1.27,1.95-.61,3.96-.97,5.99-1.22,1.34-.16,2.69-.26,4.04-.31,2.38-.09,4.75-.01,7.12.21,1.48.14,2.94.34,4.4.6,1.86.34,3.7.78,5.5,1.36,2.11.68,4.13,1.55,6.05,2.65,1.05.6,2.13.5,3.16-.14.33-.2.58-.49.73-.86.5-1.26.01-2.75-1.15-3.43-2.56-1.5-5.29-2.61-8.13-3.46-2.98-.88-6.03-1.46-9.11-1.8-2.19-.24-4.38-.35-6.55-.37h0ZM567.97,565.73c-2.38,0-4.75.19-7.1.59-1.47.25-2.92.6-4.35,1.02-.34.1-.63.28-.87.54-.37.4-.55.88-.58,1.42-.04.74.19,1.38.82,1.83.51.36,1.08.5,1.7.4.25-.04.49-.11.73-.19,2.91-.87,5.9-1.27,8.93-1.33,3.05-.06,6.07.24,9.05.88,3.6.78,7.03,2.01,10.19,3.96.37.23.77.32,1.21.26.79-.12,1.38-.55,1.78-1.22.57-.96.12-2.24-.71-2.74-2.43-1.44-4.99-2.59-7.69-3.44-4.26-1.35-8.63-1.99-13.1-2v.02ZM568.31,575.08c-1.6,0-3.19.09-4.77.26-2.01.22-4,.55-5.98,1-.53.12-.95.43-1.24.89-.21.33-.29.7-.22,1.1.19,1.05,1.17,1.7,2.22,1.47,2.73-.62,5.49-1.05,8.29-1.19,2.73-.13,5.44,0,8.13.53,2.47.48,4.84,1.27,7.08,2.44.59.31,1.16.64,1.73.97.37.21.75.32,1.18.24.68-.13,1.4-.69,1.44-1.7.02-.69-.24-1.23-.88-1.56-.12-.06-.24-.14-.36-.21-3.05-1.83-6.35-3.01-9.84-3.66-2.23-.41-4.49-.6-6.76-.59h-.02Z"/>
  </g>
  <g class="cls-10">
    <g>
      <path d="M167.95,241.9c3.74,1,7.13,4.39,8.24,10.63.95,5.79,2.66,25.33,17.9,29.38,7.62,2.03,14.65.03,16.65-7.46,5.4-20.28-46.73-45.77-39.79-71.86,3.02-11.37,18.01-18.3,37.9-13.01,17.44,4.64,31.56,18.08,31.47,30.37.02,9.27-6.77,12.44-12.32,10.97-4-1.07-7.39-4.46-7.37-9.71-.14-11.93-4.79-24.09-17.45-27.46-4.91-1.31-9.55,1.61-10.69,5.87-6.74,25.31,46.6,46.28,39.76,71.99-4.12,15.5-25.06,19.33-41.72,14.9-23.38-6.22-35.3-25.85-34.74-35.25.4-7.22,6.62-10.82,12.17-9.35h0Z"/>
      <path d="M272.46,245.15c9.81-1.36,16.56,1.36,20.88,5.34-2.98-20.47-8.09-30.13-19.04-28.61-7.68,1.06-8.34,9.85-9.97,14.8-1.93,5.91-5.72,8.87-9.42,9.39-5.12.71-9.98-3.04-9.39-9.22,1.22-13.13,18.21-18.07,27.74-19.4,16.63-2.31,38.14,3.4,41.52,32.96,2.21,20.12,6.33,32.05,11,37.5,2.06,2.31,1.67,2.66.25,2.86l-24.88,3.45c-1.28.18-2.09-.47-2.28-1.82-.23-1.64-.62-4.49-1.06-7.63-2.72,6.48-8.46,11.08-18.41,12.46-19.05,2.64-31.86-8.24-33.62-20.95l-.17-1.2c-2.59-18.7,15.34-28.35,26.85-29.94h0ZM284.52,291.35c13.5-1.87,11.56-20.05,10.15-30.22-1.03-4.28-6.05-13.34-16.14-11.94-6.68.93-13.65,8.14-11.68,22.35,1.41,10.17,7.86,21.17,17.67,19.81h0Z"/>
      <path d="M332.46,288.31c3.7-8.59,2.14-22.03,1.6-25.71l-5.41-37.01c-.54-3.68-2.89-17.01-8.89-24.17-1.28-1.42-2.14-1.83-.36-2.49l23.02-9.4c.64-.23,1.07-.02,1.16.63l10.17,69.56c.54,3.68,2.89,17.01,8.89,24.17,1.15,1.44,2.2,2.23.23,2.51l-30.05,4.39c-1.84.27-1.18-.77-.36-2.49h0Z"/>
      <path d="M372.86,238.55l.15.03c13.08,2.81,24.49-6.61,32.13-14.72.83-.89,1.68-1.16,2.29-1.03.76.16,1.09.84.87,1.86l-4.42,20.53,12.77,2.75c.76.16,1.12.7.97,1.43l-.44,2.04c-.16.73-.71,1.07-1.47.9l-12.77-2.75-7.05,32.76c-2.98,13.83-4.96,24.53,3.56,26.36,2.89.62,5.67-.46,6.98-1.39,2.02-1.24,2.5.23,1.33,1.96-3.01,4.38-11.64,10.45-22.13,8.19-16.27-3.5-17.31-17.89-13.9-33.77l8.39-39.02-8.21-1.77c-.76-.16-1.12-.7-.97-1.43l.44-2.04c.16-.73.71-1.07,1.47-.9h0Z"/>
      <path d="M87.22,372.36c2.85-1.76,6.94-1.95,11.4.88,4.09,2.67,16.99,12.59,28.59,5.44,5.8-3.58,8.8-9.05,5.44-14.5-9.09-14.74-55.83,3.18-67.52-15.78-5.09-8.26-.33-21.44,14.81-30.77,13.27-8.18,29.91-9.36,37.32-2.4,5.65,5.2,3.5,11.19-.72,13.79-3.05,1.88-7.14,2.07-10.32-.9-7.34-6.62-17.51-10.59-27.15-4.65-3.74,2.3-4.75,6.82-2.84,9.92,11.35,18.4,56.06-2.81,67.58,15.88,6.95,11.27-3.27,26.38-15.95,34.2-17.79,10.97-36.87,7.31-42.24,1.68-4.15-4.31-2.61-10.18,1.61-12.79h-.01Z"/>
      <path d="M237.06,391.86c-2.91,2.24-6.37,3.77-10.01,4.29-3.5.5-7.27.06-10.15-1.98-2.18-1.54-3.7-3.89-4.64-6.39-2.92-7.74-2.59-17.61-2.12-25.78,1.25-21.49-3.63-38.47-18.57-39.33-10.46-.61-13.59,8.68-14.72,21.1l-.93,15.98c-.21,3.67-.58,17.06,3.99,25.21.86,1.63,1.76,2.6-.28,2.48l-31.1-1.81c-1.9-.11-1.03-.98.14-2.49,5.48-7.57,6.66-20.91,6.88-24.58l2.14-36.95c.21-3.67.58-17.06-3.99-25.21-1-1.64-1.78-2.21.14-2.49l25.06-4.46c.69-.09,1.08.19,1.04.85l-1.83,31.6c4.06-5.02,17.68-7.36,24.06-6.99,21.73,1.26,30.01,13.51,28.82,34.08-.24,4.14-.56,8.27-.69,12.42-.1,3.28-.13,6.57,0,9.86.11,2.7.05,5.5,1.14,8.03.51,1.19,1.32,2.28,2.45,2.92,1.44.82,3.23.82,4.84.42,1.45-.36,3.02-.93,4.34-1.63.5-.26,1.84-1.61,2.27-1.59.15,0-1.79,4.31-2.02,4.79-1.03,2.09-2.41,4-4.05,5.65-.7.7-1.44,1.36-2.22,1.96v.04Z"/>
      <path d="M279.04,336.3c9.55,2.92,14.69,7.9,17.1,12.9,5.31-17.87,4.41-27.81-6.25-31.07-7.48-2.28-11.54,4.58-14.99,7.94-4.1,4.01-8.75,4.86-12.35,3.76-4.98-1.52-7.99-6.56-5.01-11.34,6.29-10.17,23.85-7.22,33.13-4.39,16.2,4.95,33.73,18.41,25.21,43.83-5.88,17.26-6.79,28.65-4.64,35,.98,2.72.49,2.85-.89,2.43l-24.23-7.4c-1.25-.38-1.74-1.24-1.38-2.41.44-1.43,1.19-3.9,2.03-6.64-5.05,4.15-12.14,5.54-21.83,2.58-18.55-5.67-26.06-19.77-22.68-30.83l.32-1.04c4.97-16.26,25.25-16.75,36.47-13.33h0ZM271.97,378.81c13.15,4.02,18.52-11.56,21.22-20.4.74-3.9-.32-13.33-10.15-16.33-6.51-1.99-15.75,1.02-19.53,13.38-2.7,8.85-1.09,20.43,8.46,23.35Z"/>
      <path d="M324.6,393.39c5.37-7.86,6.34-21.55,6.49-25.32l1.55-37.91c.15-3.76.31-17.49-4.4-25.77-1.02-1.66-1.82-2.23.1-2.55l25.03-5.03c.69-.11,1.08.18,1.06.85l-2.63,64.12.19-1.34,9.96-9.96c11.66-11.64,11.97-15.8,8.27-18.65-1.06-.85.06-1.34.87-1.31l23.01.94c1.5.06.77,1.11-.06,1.48-11.49,4.24-16.99,8.46-28.48,19.44l-.71.78,17.25,25.08c1.8,2.77,8.72,13.55,15.73,18.96.8.57,1.56,1.82-.21,1.74l-28.6-1.17c-1.09-.04-1.33-.86.19-1.34,1.11-.49,2.37-1.25,2.43-2.73.06-4.71-13.39-22.63-18.43-29.57l-1.56,1.42-.14,3.36c-.15,3.76-.31,17.49,4.4,25.77.89,1.65,1.8,2.63-.24,2.55l-31.18-1.28c-1.91-.08-1.05-.99.1-2.55h.01Z"/>
      <path d="M397.72,385.42c-13.48-17.08-10.75-38.87,3.78-50.34,15.55-12.28,36.26-8.99,49.87,6.78.94.98.81,2.29-.21,3.1l-36.94,29.17c8.52,7.22,22.35,14.21,35.76,3.63,10.64-8.4,10.36-18.86,10.19-22.86-.02-1.71,1.67-1.67,2.02-.39,1.64,6.28,3.41,24.52-11.63,36.39-16.58,13.09-39.43,11.5-52.83-5.47h-.01ZM428.19,357.74c4.5-3.56,5.8-6.13.35-13.02-6.53-8.27-16.88-12.33-24.76-6.11-8.49,6.71-3.63,19.39,3.74,28.73.92,1.17,2.11,2.47,3.47,3.98l17.19-13.57h.01Z"/>
      <path d="M467.05,388.94c3.66-8.56,1.96-21.86,1.38-25.49l-1.31-8.31c-.57-3.63-3.07-16.81-9.19-23.82-1.3-1.39-2.18-1.78-.39-2.46l23.12-9.64c.64-.23,1.08-.04,1.18.61l1.5,9.47c3.04-6.47,9.17-12.23,19.48-13.86,8.72-1.38,17.67,3.85,20.54,9.12,3.43,6.24-.61,11.54-5.77,12.35-2.77.44-5.73-.29-8.28-2.68-4.11-3.74-8.43-10.5-15.04-9.46-5.81.92-10.4,7.9-9,16.72l2.98,18.82c.57,3.63,3.07,16.81,9.19,23.82,1.17,1.41,2.24,2.17.26,2.49l-30.26,4.79c-1.85.29-1.2-.74-.39-2.47h0Z"/>
      <path d="M501.27,357.12l57.38-19.55c5.33-1.88,5.19-2.31,3.28-3.71l-7.85-5.65c-7.21-5.38-12.72-7.13-20.55-3.64-.43.15-.89.13-1.29-.17-.61-.45-.94-1.49.25-2.66,2.14-2.15,3.82-3.45,5.96-5.14.59-.47,1.15-.99,1.71-1.49,3.26-2.91,4.08-1.16,6.16.66l36.35,27c2.14,1.5,1.92,2.63-.27,3.36l-54.9,20.33c-.45.17-.91.29-1.37.41-3.29.86-3.79,2.57-2.69,3.39l12.4,9.32c8.34,5.49,10.55,6.33,18.38,2.84.43-.15.89-.13,1.29.17.61.46.94,1.49-.25,2.66-2.63,2.46-6.53,5.56-9.29,7.77-.91.59-1.77.26-2.59-.35l-42.47-32.03c-.61-.45-1.77-2.56.34-3.53h.02Z"/>
    </g>
    <g>
      <path d="M168.72,180.1c-10.53,3.09-14.54,11.04-13.45,21.51.28,3.17.89,6.35,1.51,9.59-3.07-5.9-4.86-12.79-3.22-19.47,1.55-6.79,8.33-11.8,15.16-11.62h0Z"/>
      <path d="M168.72,187.38c-.31-.09-.81.31-1.12.45-3.97,2.25-5.88,6.54-6.1,10.99-.13,1.65-.1,3.36-.16,5.16-2.77-4.71-2.55-11.81,2.2-15.21,1.42-1.01,3.15-1.73,4.9-1.54.09.03.29.02.28.16h0Z"/>
      <path d="M407.48,321.54c6.77-5.27,14.63-12.23,11.84-21.71,6.58,8.89-2.96,19.53-11.84,21.71h0Z"/>
      <path d="M554.66,300.06c-.31-1.37-1.93-1.75-3.09-2.16-6.29-1.71-13.5-.27-18.14,4.42-1.88,1.85-3.37,4.13-4.75,6.58,1.23-9.12,10.19-15.37,19.21-13.47,2.17.43,6.91,1.92,6.76,4.63h.01Z"/>
      <path d="M423.08,313.05c3-3.62,3.72-7.09,2.5-11.32-.16-.6-.36-1.21-.47-1.9,5.09,3.47,4.28,11.82-2.04,13.23h.01Z"/>
      <path d="M552.77,304.05c-5.41-1.74-9.26-1.82-13.92,1.74,1.81-6.37,10.39-6.94,13.92-1.74h0Z"/>
      <path d="M63.74,375.2c-3.6,7.85-.29,13.08,6.33,17.5.87.58,1.76,1.16,2.62,1.85-1.06-.2-2.1-.51-3.15-.81-8.36-2.76-12.91-11.79-5.79-18.53h-.01Z"/>
      <path d="M70.84,378.36c-1.57,5.02-.95,7.35,3.59,10.06.55.33,1.11.66,1.67,1.1-7.04.81-11.45-6.54-5.26-11.17h0Z"/>
    </g>
  </g>
  <g>
    <g>
      <path class="cls-2" d="M160.48,238.04c3.74,1,7.13,4.39,8.24,10.63.95,5.79,2.66,25.33,17.9,29.38,7.62,2.03,14.65.03,16.65-7.46,5.4-20.28-46.73-45.77-39.79-71.86,3.02-11.37,18.01-18.3,37.9-13.01,17.44,4.64,31.56,18.08,31.47,30.37.02,9.27-6.77,12.44-12.32,10.97-4-1.07-7.39-4.46-7.37-9.71-.14-11.93-4.79-24.09-17.45-27.46-4.91-1.31-9.55,1.61-10.69,5.87-6.74,25.31,46.6,46.28,39.76,71.99-4.12,15.5-25.06,19.33-41.72,14.9-23.38-6.22-35.3-25.85-34.74-35.25.4-7.22,6.62-10.82,12.17-9.35h0Z"/>
      <path class="cls-2" d="M264.99,241.29c9.81-1.36,16.56,1.36,20.88,5.34-2.98-20.47-8.09-30.13-19.04-28.61-7.68,1.06-8.34,9.85-9.97,14.8-1.93,5.91-5.72,8.87-9.42,9.39-5.12.71-9.98-3.04-9.39-9.22,1.22-13.13,18.21-18.07,27.74-19.4,16.63-2.31,38.14,3.4,41.52,32.96,2.21,20.12,6.33,32.05,11,37.5,2.06,2.31,1.67,2.66.25,2.86l-24.88,3.45c-1.28.18-2.09-.47-2.28-1.82-.23-1.64-.62-4.49-1.06-7.63-2.72,6.48-8.46,11.08-18.41,12.46-19.05,2.64-31.86-8.24-33.62-20.95l-.17-1.2c-2.59-18.7,15.34-28.35,26.85-29.94h0ZM277.05,287.49c13.5-1.87,11.56-20.05,10.15-30.22-1.03-4.28-6.05-13.34-16.14-11.94-6.68.93-13.65,8.14-11.68,22.35,1.41,10.17,7.86,21.17,17.67,19.81h0Z"/>
      <path class="cls-2" d="M325,284.45c3.7-8.59,2.14-22.03,1.6-25.71l-5.41-37.01c-.54-3.68-2.89-17.01-8.89-24.17-1.28-1.42-2.14-1.83-.36-2.49l23.02-9.4c.64-.23,1.07-.02,1.16.63l10.17,69.56c.54,3.68,2.89,17.01,8.89,24.17,1.15,1.44,2.2,2.23.23,2.51l-30.05,4.39c-1.84.27-1.18-.77-.36-2.49h0Z"/>
      <path class="cls-2" d="M365.39,234.69l.15.03c13.08,2.81,24.49-6.61,32.13-14.72.83-.89,1.68-1.16,2.29-1.03.76.16,1.09.84.87,1.86l-4.42,20.53,12.77,2.75c.76.16,1.12.7.97,1.43l-.44,2.04c-.16.73-.71,1.07-1.47.9l-12.77-2.75-7.05,32.76c-2.98,13.83-4.96,24.53,3.56,26.36,2.89.62,5.67-.46,6.98-1.39,2.02-1.24,2.5.23,1.33,1.96-3.01,4.38-11.64,10.45-22.13,8.19-16.27-3.5-17.31-17.89-13.9-33.77l8.39-39.02-8.21-1.77c-.76-.16-1.12-.7-.97-1.43l.44-2.04c.16-.73.71-1.07,1.47-.9h0Z"/>
      <path class="cls-2" d="M79.75,368.5c2.85-1.76,6.94-1.95,11.4.88,4.09,2.67,16.99,12.59,28.59,5.44,5.8-3.58,8.8-9.05,5.44-14.5-9.09-14.74-55.83,3.18-67.52-15.78-5.09-8.26-.33-21.44,14.81-30.77,13.27-8.18,29.91-9.36,37.32-2.4,5.65,5.2,3.5,11.19-.72,13.79-3.05,1.88-7.14,2.07-10.32-.9-7.34-6.62-17.51-10.59-27.15-4.65-3.74,2.3-4.75,6.82-2.84,9.92,11.35,18.4,56.06-2.81,67.58,15.88,6.95,11.27-3.27,26.38-15.95,34.2-17.79,10.97-36.87,7.31-42.24,1.68-4.15-4.31-2.61-10.18,1.61-12.79h0Z"/>
      <path class="cls-2" d="M229.59,388c-2.91,2.24-6.37,3.77-10.01,4.29-3.5.5-7.27.06-10.15-1.98-2.18-1.54-3.7-3.89-4.64-6.39-2.92-7.74-2.59-17.61-2.12-25.78,1.25-21.49-3.63-38.47-18.57-39.33-10.46-.61-13.59,8.68-14.72,21.1l-.93,15.98c-.21,3.67-.58,17.06,3.99,25.21.86,1.63,1.76,2.6-.28,2.48l-31.1-1.81c-1.9-.11-1.03-.98.14-2.49,5.48-7.57,6.66-20.91,6.88-24.58l2.14-36.95c.21-3.67.58-17.06-3.99-25.21-1-1.64-1.78-2.21.14-2.49l25.06-4.46c.69-.09,1.08.19,1.04.85l-1.83,31.6c4.06-5.02,17.68-7.36,24.06-6.99,21.73,1.26,30.01,13.51,28.82,34.08-.24,4.14-.56,8.27-.69,12.42-.1,3.28-.13,6.57,0,9.86.11,2.7.05,5.5,1.14,8.03.51,1.19,1.32,2.28,2.45,2.92,1.44.82,3.23.82,4.84.42,1.45-.36,3.02-.93,4.34-1.63.5-.26,1.84-1.61,2.27-1.59.15,0-1.79,4.31-2.02,4.79-1.03,2.09-2.41,4-4.05,5.65-.7.7-1.44,1.36-2.22,1.96v.04Z"/>
      <path class="cls-2" d="M271.58,332.44c9.55,2.92,14.69,7.9,17.1,12.9,5.31-17.87,4.41-27.81-6.25-31.07-7.48-2.28-11.54,4.58-14.99,7.94-4.1,4.01-8.75,4.86-12.35,3.76-4.98-1.52-7.99-6.56-5.01-11.34,6.29-10.17,23.85-7.22,33.13-4.39,16.2,4.95,33.73,18.41,25.21,43.83-5.88,17.26-6.79,28.65-4.64,35,.98,2.72.49,2.85-.89,2.43l-24.23-7.4c-1.25-.38-1.74-1.24-1.38-2.41.44-1.43,1.19-3.9,2.03-6.64-5.05,4.15-12.14,5.54-21.83,2.58-18.55-5.67-26.06-19.77-22.68-30.83l.32-1.04c4.97-16.26,25.25-16.75,36.47-13.33h0ZM264.5,374.94c13.15,4.02,18.52-11.56,21.22-20.4.74-3.9-.32-13.33-10.15-16.33-6.51-1.99-15.75,1.02-19.53,13.38-2.7,8.85-1.09,20.43,8.46,23.35Z"/>
      <path class="cls-2" d="M317.14,389.53c5.37-7.86,6.34-21.55,6.49-25.32l1.55-37.91c.15-3.76.31-17.49-4.4-25.77-1.02-1.66-1.82-2.23.1-2.55l25.03-5.03c.69-.11,1.08.18,1.06.85l-2.63,64.12.19-1.34,9.96-9.96c11.66-11.64,11.97-15.8,8.27-18.65-1.06-.85.06-1.34.87-1.31l23.01.94c1.5.06.77,1.11-.06,1.48-11.49,4.24-16.99,8.46-28.48,19.44l-.71.78,17.25,25.08c1.8,2.77,8.72,13.55,15.73,18.96.8.57,1.56,1.82-.21,1.74l-28.6-1.17c-1.09-.04-1.33-.86.19-1.34,1.11-.49,2.37-1.25,2.43-2.73.06-4.71-13.39-22.63-18.43-29.57l-1.56,1.42-.14,3.36c-.15,3.76-.31,17.49,4.4,25.77.89,1.65,1.8,2.63-.24,2.55l-31.18-1.28c-1.91-.08-1.05-.99.1-2.55h.01Z"/>
      <path class="cls-2" d="M390.25,381.56c-13.48-17.08-10.75-38.87,3.78-50.34,15.55-12.28,36.26-8.99,49.87,6.78.94.98.81,2.29-.21,3.1l-36.94,29.17c8.52,7.22,22.35,14.21,35.76,3.63,10.64-8.4,10.36-18.86,10.19-22.86-.02-1.71,1.67-1.67,2.02-.39,1.64,6.28,3.41,24.52-11.63,36.39-16.58,13.09-39.43,11.5-52.83-5.47h0ZM420.73,353.88c4.5-3.56,5.8-6.13.35-13.02-6.53-8.27-16.88-12.33-24.76-6.11-8.49,6.71-3.63,19.39,3.74,28.73.92,1.17,2.11,2.47,3.47,3.98l17.19-13.57h.01Z"/>
      <path class="cls-2" d="M459.58,385.08c3.66-8.56,1.96-21.86,1.38-25.49l-1.31-8.31c-.57-3.63-3.07-16.81-9.19-23.82-1.3-1.39-2.18-1.78-.39-2.46l23.12-9.64c.64-.23,1.08-.04,1.18.61l1.5,9.47c3.04-6.47,9.17-12.23,19.48-13.86,8.72-1.38,17.67,3.85,20.54,9.12,3.43,6.24-.61,11.54-5.77,12.35-2.77.44-5.73-.29-8.28-2.68-4.11-3.74-8.43-10.5-15.04-9.46-5.81.92-10.4,7.9-9,16.72l2.98,18.82c.57,3.63,3.07,16.81,9.19,23.82,1.17,1.41,2.24,2.17.26,2.49l-30.26,4.79c-1.85.29-1.2-.74-.39-2.47h0Z"/>
      <path class="cls-2" d="M493.8,353.26l57.38-19.55c5.33-1.88,5.19-2.31,3.28-3.71l-7.85-5.65c-7.21-5.38-12.72-7.13-20.55-3.64-.43.15-.89.13-1.29-.17-.61-.45-.94-1.49.25-2.66,2.14-2.15,3.82-3.45,5.96-5.14.59-.47,1.15-.99,1.71-1.49,3.26-2.91,4.08-1.16,6.16.66l36.35,27c2.14,1.5,1.92,2.63-.27,3.36l-54.9,20.33c-.45.17-.91.29-1.37.41-3.29.86-3.79,2.57-2.69,3.39l12.4,9.32c8.34,5.49,10.55,6.33,18.38,2.84.43-.15.89-.13,1.29.17.61.46.94,1.49-.25,2.66-2.63,2.46-6.53,5.56-9.29,7.77-.91.59-1.77.26-2.59-.35l-42.47-32.03c-.61-.45-1.77-2.56.34-3.53h.02Z"/>
    </g>
    <g>
      <path class="cls-2" d="M161.26,176.24c-10.53,3.09-14.54,11.04-13.45,21.51.28,3.17.89,6.35,1.51,9.59-3.07-5.9-4.86-12.79-3.22-19.47,1.55-6.79,8.33-11.8,15.16-11.62h0Z"/>
      <path class="cls-2" d="M161.25,183.52c-.31-.09-.81.31-1.12.45-3.97,2.25-5.88,6.54-6.1,10.99-.13,1.65-.1,3.36-.16,5.16-2.77-4.71-2.55-11.81,2.2-15.21,1.42-1.01,3.15-1.73,4.9-1.54.09.03.29.02.28.16h0Z"/>
      <path class="cls-2" d="M400.01,317.68c6.77-5.27,14.63-12.23,11.84-21.71,6.58,8.89-2.96,19.53-11.84,21.71h0Z"/>
      <path class="cls-2" d="M547.19,296.2c-.31-1.37-1.93-1.75-3.09-2.16-6.29-1.71-13.5-.27-18.14,4.42-1.88,1.85-3.37,4.13-4.75,6.58,1.23-9.12,10.19-15.37,19.21-13.47,2.17.43,6.91,1.92,6.76,4.63h.01Z"/>
      <path class="cls-2" d="M415.61,309.19c3-3.62,3.72-7.09,2.5-11.32-.16-.6-.36-1.21-.47-1.9,5.09,3.47,4.28,11.82-2.04,13.23h.01Z"/>
      <path class="cls-2" d="M545.3,300.19c-5.41-1.74-9.26-1.82-13.92,1.74,1.81-6.37,10.39-6.94,13.92-1.74h0Z"/>
      <path class="cls-2" d="M56.27,371.34c-3.6,7.85-.29,13.08,6.33,17.5.87.58,1.76,1.16,2.62,1.85-1.06-.2-2.1-.51-3.15-.81-8.36-2.76-12.91-11.79-5.79-18.53h-.01Z"/>
      <path class="cls-2" d="M63.37,374.5c-1.57,5.02-.95,7.35,3.59,10.06.55.33,1.11.66,1.67,1.1-7.04.81-11.45-6.54-5.26-11.17h0Z"/>
    </g>
  </g>
  <g class="cls-3">
    <text class="cls-4" transform="translate(222.9 178.66)"><tspan x="0" y="0">t</tspan></text>
    <text class="cls-4" transform="translate(244.11 178.66)"><tspan x="0" y="0">he</tspan></text>
  </g>
  <g class="cls-3">
    <text class="cls-4" transform="translate(312.15 460.29)"><tspan x="0" y="0">podc</tspan></text>
    <text class="cls-4" transform="translate(405.17 460.29)"><tspan x="0" y="0">a</tspan></text>
    <text class="cls-4" transform="translate(429.66 460.29)"><tspan x="0" y="0">s</tspan></text>
    <text class="cls-4" transform="translate(451.22 460.29)"><tspan x="0" y="0">t</tspan></text>
  </g>
</svg>